<svg width="248" height="46" viewBox="0 0 248 46" fill="none" xmlns="http://www.w3.org/2000/svg">
<rect x="1" y="1" width="246" height="44" rx="22" stroke="black" stroke-width="2"/>
<path d="M49.1016 19.8842C49.0372 19.3127 48.7715 18.87 48.3047 18.5561C47.8378 18.2382 47.2502 18.0792 46.5419 18.0792C46.0348 18.0792 45.5961 18.1597 45.2259 18.3207C44.8556 18.4776 44.5678 18.695 44.3626 18.9727C44.1613 19.2463 44.0607 19.5582 44.0607 19.9084C44.0607 20.2022 44.1291 20.4557 44.266 20.669C44.4068 20.8823 44.59 21.0614 44.8153 21.2063C45.0447 21.3472 45.2902 21.4659 45.5518 21.5625C45.8134 21.6551 46.065 21.7315 46.3065 21.7919L47.5138 22.1058C47.9083 22.2024 48.3127 22.3332 48.7273 22.4982C49.1418 22.6632 49.5262 22.8806 49.8803 23.1502C50.2345 23.4199 50.5202 23.7539 50.7376 24.1523C50.9589 24.5508 51.0696 25.0277 51.0696 25.5831C51.0696 26.2834 50.8885 26.9052 50.5263 27.4485C50.1681 27.9918 49.6469 28.4205 48.9627 28.7344C48.2826 29.0483 47.4595 29.2053 46.4936 29.2053C45.5679 29.2053 44.767 29.0584 44.0909 28.7646C43.4148 28.4708 42.8855 28.0542 42.5032 27.5149C42.1209 26.9716 41.9096 26.3277 41.8693 25.5831H43.7408C43.777 26.0298 43.9219 26.4021 44.1754 26.6999C44.433 26.9937 44.761 27.2131 45.1594 27.358C45.5619 27.4988 46.0026 27.5692 46.4815 27.5692C47.0088 27.5692 47.4776 27.4867 47.8881 27.3217C48.3027 27.1527 48.6287 26.9193 48.8661 26.6214C49.1036 26.3196 49.2223 25.9674 49.2223 25.565C49.2223 25.1987 49.1177 24.8989 48.9084 24.6655C48.7031 24.4321 48.4234 24.2389 48.0692 24.0859C47.7191 23.933 47.3227 23.7982 46.88 23.6815L45.419 23.283C44.429 23.0134 43.6442 22.617 43.0646 22.0938C42.4891 21.5705 42.2013 20.8783 42.2013 20.017C42.2013 19.3047 42.3945 18.6829 42.7809 18.1516C43.1673 17.6204 43.6905 17.2079 44.3505 16.9141C45.0105 16.6162 45.7551 16.4673 46.5842 16.4673C47.4213 16.4673 48.1598 16.6142 48.7997 16.908C49.4437 17.2018 49.9508 17.6063 50.321 18.1214C50.6913 18.6326 50.8845 19.2202 50.9006 19.8842H49.1016ZM57.0597 29.1871C56.1623 29.1871 55.3895 28.9839 54.7416 28.5774C54.0976 28.1669 53.6026 27.6014 53.2565 26.881C52.9104 26.1606 52.7373 25.3356 52.7373 24.4059C52.7373 23.4641 52.9144 22.633 53.2686 21.9126C53.6227 21.1882 54.1218 20.6228 54.7657 20.2163C55.4097 19.8098 56.1683 19.6065 57.0416 19.6065C57.7459 19.6065 58.3738 19.7373 58.9252 19.9989C59.4765 20.2565 59.9213 20.6187 60.2593 21.0856C60.6014 21.5524 60.8047 22.0978 60.8691 22.7216H59.1123C59.0157 22.2869 58.7944 21.9126 58.4482 21.5987C58.1061 21.2848 57.6473 21.1278 57.0718 21.1278C56.5687 21.1278 56.128 21.2607 55.7497 21.5263C55.3754 21.7879 55.0837 22.1622 54.8744 22.6491C54.6651 23.1321 54.5605 23.7036 54.5605 24.3636C54.5605 25.0398 54.6631 25.6233 54.8683 26.1143C55.0736 26.6054 55.3634 26.9857 55.7377 27.2553C56.116 27.525 56.5607 27.6598 57.0718 27.6598C57.4139 27.6598 57.7238 27.5974 58.0015 27.4727C58.2832 27.3439 58.5187 27.1607 58.7078 26.9233C58.901 26.6858 59.0358 26.4001 59.1123 26.0661H60.8691C60.8047 26.6657 60.6095 27.201 60.2835 27.6719C59.9575 28.1428 59.5208 28.513 58.9735 28.7827C58.4301 29.0523 57.7922 29.1871 57.0597 29.1871ZM65.4979 29.2053C64.9103 29.2053 64.379 29.0966 63.9041 28.8793C63.4292 28.6579 63.0529 28.3379 62.7752 27.9194C62.5015 27.5008 62.3647 26.9877 62.3647 26.38C62.3647 25.8568 62.4653 25.4261 62.6665 25.0881C62.8678 24.75 63.1394 24.4824 63.4815 24.2852C63.8236 24.0879 64.206 23.939 64.6286 23.8384C65.0511 23.7378 65.4818 23.6613 65.9205 23.609C66.4759 23.5446 66.9266 23.4923 67.2727 23.4521C67.6188 23.4078 67.8704 23.3374 68.0273 23.2408C68.1843 23.1442 68.2628 22.9872 68.2628 22.7699V22.7276C68.2628 22.2004 68.1139 21.7919 67.8161 21.5021C67.5223 21.2124 67.0836 21.0675 66.5 21.0675C65.8923 21.0675 65.4134 21.2023 65.0632 21.4719C64.7171 21.7376 64.4776 22.0334 64.3448 22.3594L62.6484 21.973C62.8497 21.4096 63.1435 20.9548 63.5298 20.6087C63.9202 20.2585 64.369 20.005 64.8761 19.848C65.3832 19.687 65.9164 19.6065 66.4759 19.6065C66.8461 19.6065 67.2385 19.6508 67.6531 19.7393C68.0716 19.8239 68.462 19.9808 68.8242 20.2102C69.1905 20.4396 69.4903 20.7676 69.7237 21.1942C69.9571 21.6168 70.0739 22.1662 70.0739 22.8423V29H68.3111V27.7322H68.2386C68.1219 27.9657 67.9469 28.1951 67.7134 28.4205C67.48 28.6458 67.1802 28.833 66.8139 28.9819C66.4477 29.1308 66.009 29.2053 65.4979 29.2053ZM65.8903 27.7564C66.3893 27.7564 66.8159 27.6578 67.1701 27.4606C67.5283 27.2634 67.8 27.0058 67.9851 26.6879C68.1742 26.3659 68.2688 26.0218 68.2688 25.6555V24.4602C68.2044 24.5246 68.0797 24.585 67.8945 24.6413C67.7134 24.6937 67.5062 24.7399 67.2727 24.7802C67.0393 24.8164 66.8119 24.8506 66.5906 24.8828C66.3692 24.911 66.1841 24.9351 66.0352 24.9553C65.685 24.9995 65.3651 25.074 65.0753 25.1786C64.7895 25.2833 64.5601 25.4342 64.3871 25.6314C64.218 25.8246 64.1335 26.0821 64.1335 26.4041C64.1335 26.8509 64.2985 27.1889 64.6286 27.4183C64.9586 27.6437 65.3791 27.7564 65.8903 27.7564ZM74.2831 23.4943V29H72.4781V19.7273H74.2107V21.2365H74.3254C74.5387 20.7455 74.8727 20.3511 75.3275 20.0533C75.7863 19.7554 76.3638 19.6065 77.0601 19.6065C77.692 19.6065 78.2454 19.7393 78.7203 20.005C79.1952 20.2666 79.5634 20.657 79.825 21.1761C80.0866 21.6953 80.2174 22.3372 80.2174 23.1019V29H78.4124V23.3192C78.4124 22.6471 78.2373 22.1219 77.8872 21.7436C77.537 21.3613 77.0561 21.1701 76.4443 21.1701C76.0258 21.1701 75.6535 21.2607 75.3275 21.4418C75.0055 21.6229 74.75 21.8885 74.5608 22.2386C74.3757 22.5848 74.2831 23.0033 74.2831 23.4943ZM84.4433 23.4943V29H82.6382V19.7273H84.3708V21.2365H84.4855C84.6988 20.7455 85.0329 20.3511 85.4877 20.0533C85.9465 19.7554 86.524 19.6065 87.2203 19.6065C87.8521 19.6065 88.4055 19.7393 88.8804 20.005C89.3553 20.2666 89.7236 20.657 89.9852 21.1761C90.2468 21.6953 90.3776 22.3372 90.3776 23.1019V29H88.5725V23.3192C88.5725 22.6471 88.3975 22.1219 88.0473 21.7436C87.6972 21.3613 87.2162 21.1701 86.6045 21.1701C86.1859 21.1701 85.8137 21.2607 85.4877 21.4418C85.1657 21.6229 84.9101 21.8885 84.721 22.2386C84.5358 22.5848 84.4433 23.0033 84.4433 23.4943ZM96.7948 29.1871C95.8812 29.1871 95.0944 28.992 94.4344 28.6016C93.7784 28.2071 93.2713 27.6538 92.9131 26.9414C92.5589 26.225 92.3818 25.3859 92.3818 24.424C92.3818 23.4742 92.5589 22.6371 92.9131 21.9126C93.2713 21.1882 93.7703 20.6228 94.4102 20.2163C95.0542 19.8098 95.8068 19.6065 96.6681 19.6065C97.1913 19.6065 97.6984 19.6931 98.1894 19.8661C98.6804 20.0392 99.1211 20.3108 99.5115 20.6811C99.9018 21.0514 100.21 21.5323 100.435 22.1239C100.66 22.7115 100.773 23.4259 100.773 24.267V24.907H93.4021V23.5547H99.0044C99.0044 23.0798 98.9078 22.6592 98.7146 22.293C98.5214 21.9227 98.2497 21.6309 97.8996 21.4176C97.5535 21.2043 97.147 21.0977 96.6801 21.0977C96.173 21.0977 95.7303 21.2224 95.352 21.4719C94.9777 21.7174 94.6879 22.0394 94.4827 22.4379C94.2815 22.8323 94.1808 23.2609 94.1808 23.7237V24.7802C94.1808 25.4 94.2895 25.9272 94.5068 26.3619C94.7282 26.7965 95.0361 27.1286 95.4305 27.358C95.8249 27.5833 96.2857 27.696 96.8129 27.696C97.155 27.696 97.4669 27.6477 97.7487 27.5511C98.0304 27.4505 98.2739 27.3016 98.4791 27.1044C98.6844 26.9072 98.8414 26.6637 98.95 26.3739L100.658 26.6818C100.522 27.1849 100.276 27.6256 99.922 28.0039C99.5718 28.3782 99.1311 28.67 98.5999 28.8793C98.0727 29.0845 97.471 29.1871 96.7948 29.1871ZM102.776 29V19.7273H104.521V21.2003H104.617C104.786 20.7012 105.084 20.3088 105.511 20.0231C105.941 19.7333 106.428 19.5884 106.972 19.5884C107.084 19.5884 107.217 19.5924 107.37 19.6005C107.527 19.6085 107.65 19.6186 107.738 19.6307V21.3572C107.666 21.3371 107.537 21.315 107.352 21.2908C107.167 21.2627 106.982 21.2486 106.797 21.2486C106.37 21.2486 105.99 21.3391 105.656 21.5202C105.326 21.6973 105.064 21.9448 104.871 22.2628C104.678 22.5767 104.581 22.9349 104.581 23.3374V29H102.776ZM119.673 25.1545V19.7273H121.484V29H119.71V27.3942H119.613C119.4 27.8892 119.058 28.3017 118.587 28.6317C118.12 28.9577 117.538 29.1207 116.842 29.1207C116.246 29.1207 115.719 28.9899 115.26 28.7283C114.806 28.4627 114.447 28.0703 114.186 27.5511C113.928 27.032 113.799 26.39 113.799 25.6254V19.7273H115.604V25.408C115.604 26.0399 115.779 26.543 116.13 26.9173C116.48 27.2915 116.935 27.4787 117.494 27.4787C117.832 27.4787 118.168 27.3942 118.502 27.2251C118.84 27.0561 119.12 26.8005 119.341 26.4585C119.567 26.1164 119.677 25.6817 119.673 25.1545ZM125.715 23.4943V29H123.91V19.7273H125.642V21.2365H125.757C125.97 20.7455 126.304 20.3511 126.759 20.0533C127.218 19.7554 127.795 19.6065 128.492 19.6065C129.124 19.6065 129.677 19.7393 130.152 20.005C130.627 20.2666 130.995 20.657 131.257 21.1761C131.518 21.6953 131.649 22.3372 131.649 23.1019V29H129.844V23.3192C129.844 22.6471 129.669 22.1219 129.319 21.7436C128.969 21.3613 128.488 21.1701 127.876 21.1701C127.457 21.1701 127.085 21.2607 126.759 21.4418C126.437 21.6229 126.182 21.8885 125.992 22.2386C125.807 22.5848 125.715 23.0033 125.715 23.4943ZM143.26 24.9915H145.095L146.387 26.6758L146.996 27.4244L149.055 30.1108H147.147L145.771 28.3178L145.3 27.6658L143.26 24.9915ZM149.453 22.8182C149.453 24.1383 149.212 25.2732 148.729 26.223C148.246 27.1688 147.584 27.8973 146.743 28.4084C145.906 28.9155 144.954 29.169 143.887 29.169C142.817 29.169 141.861 28.9155 141.02 28.4084C140.183 27.8973 139.523 27.1668 139.04 26.217C138.557 25.2672 138.315 24.1342 138.315 22.8182C138.315 21.4981 138.557 20.3652 139.04 19.4194C139.523 18.4696 140.183 17.7411 141.02 17.234C141.861 16.7229 142.817 16.4673 143.887 16.4673C144.954 16.4673 145.906 16.7229 146.743 17.234C147.584 17.7411 148.246 18.4696 148.729 19.4194C149.212 20.3652 149.453 21.4981 149.453 22.8182ZM147.606 22.8182C147.606 21.812 147.443 20.9648 147.117 20.2766C146.795 19.5844 146.353 19.0612 145.789 18.707C145.23 18.3488 144.596 18.1697 143.887 18.1697C143.175 18.1697 142.539 18.3488 141.98 18.707C141.42 19.0612 140.978 19.5844 140.652 20.2766C140.33 20.9648 140.169 21.812 140.169 22.8182C140.169 23.8243 140.33 24.6735 140.652 25.3658C140.978 26.054 141.42 26.5772 141.98 26.9354C142.539 27.2895 143.175 27.4666 143.887 27.4666C144.596 27.4666 145.23 27.2895 145.789 26.9354C146.353 26.5772 146.795 26.054 147.117 25.3658C147.443 24.6735 147.606 23.8243 147.606 22.8182ZM151.779 29V16.6364H156.186C157.144 16.6364 157.939 16.8014 158.571 17.1314C159.207 17.4614 159.682 17.9182 159.995 18.5018C160.309 19.0813 160.466 19.7514 160.466 20.5121C160.466 21.2687 160.307 21.9348 159.989 22.5103C159.676 23.0818 159.201 23.5265 158.565 23.8445C157.933 24.1624 157.138 24.3214 156.18 24.3214H152.842V22.7156H156.011C156.615 22.7156 157.106 22.629 157.484 22.456C157.866 22.2829 158.146 22.0314 158.323 21.7013C158.5 21.3713 158.589 20.9749 158.589 20.5121C158.589 20.0452 158.498 19.6407 158.317 19.2987C158.14 18.9566 157.86 18.695 157.478 18.5138C157.1 18.3287 156.603 18.2362 155.987 18.2362H153.645V29H151.779ZM157.883 23.4219L160.937 29H158.812L155.818 23.4219H157.883ZM170.996 29.1871C170.099 29.1871 169.326 28.9839 168.678 28.5774C168.034 28.1669 167.539 27.6014 167.193 26.881C166.847 26.1606 166.674 25.3356 166.674 24.4059C166.674 23.4641 166.851 22.633 167.205 21.9126C167.559 21.1882 168.058 20.6228 168.702 20.2163C169.346 19.8098 170.105 19.6065 170.978 19.6065C171.682 19.6065 172.31 19.7373 172.862 19.9989C173.413 20.2565 173.858 20.6187 174.196 21.0856C174.538 21.5524 174.741 22.0978 174.806 22.7216H173.049C172.952 22.2869 172.731 21.9126 172.385 21.5987C172.043 21.2848 171.584 21.1278 171.008 21.1278C170.505 21.1278 170.065 21.2607 169.686 21.5263C169.312 21.7879 169.02 22.1622 168.811 22.6491C168.602 23.1321 168.497 23.7036 168.497 24.3636C168.497 25.0398 168.6 25.6233 168.805 26.1143C169.01 26.6054 169.3 26.9857 169.674 27.2553C170.052 27.525 170.497 27.6598 171.008 27.6598C171.35 27.6598 171.66 27.5974 171.938 27.4727C172.22 27.3439 172.455 27.1607 172.644 26.9233C172.838 26.6858 172.972 26.4001 173.049 26.0661H174.806C174.741 26.6657 174.546 27.201 174.22 27.6719C173.894 28.1428 173.457 28.513 172.91 28.7827C172.367 29.0523 171.729 29.1871 170.996 29.1871ZM180.642 29.1871C179.772 29.1871 179.014 28.9879 178.366 28.5895C177.718 28.1911 177.215 27.6336 176.857 26.9173C176.498 26.2009 176.319 25.3638 176.319 24.4059C176.319 23.444 176.498 22.6029 176.857 21.8825C177.215 21.162 177.718 20.6026 178.366 20.2042C179.014 19.8058 179.772 19.6065 180.642 19.6065C181.511 19.6065 182.27 19.8058 182.918 20.2042C183.566 20.6026 184.069 21.162 184.427 21.8825C184.785 22.6029 184.964 23.444 184.964 24.4059C184.964 25.3638 184.785 26.2009 184.427 26.9173C184.069 27.6336 183.566 28.1911 182.918 28.5895C182.27 28.9879 181.511 29.1871 180.642 29.1871ZM180.648 27.6719C181.211 27.6719 181.678 27.523 182.048 27.2251C182.419 26.9273 182.692 26.5309 182.869 26.0359C183.051 25.5408 183.141 24.9955 183.141 24.3999C183.141 23.8082 183.051 23.2649 182.869 22.7699C182.692 22.2708 182.419 21.8704 182.048 21.5685C181.678 21.2667 181.211 21.1158 180.648 21.1158C180.08 21.1158 179.609 21.2667 179.235 21.5685C178.865 21.8704 178.589 22.2708 178.408 22.7699C178.231 23.2649 178.142 23.8082 178.142 24.3999C178.142 24.9955 178.231 25.5408 178.408 26.0359C178.589 26.5309 178.865 26.9273 179.235 27.2251C179.609 27.523 180.08 27.6719 180.648 27.6719ZM190.45 29.1811C189.702 29.1811 189.034 28.9899 188.446 28.6076C187.862 28.2212 187.404 27.6719 187.07 26.9595C186.74 26.2431 186.575 25.3839 186.575 24.3817C186.575 23.3796 186.742 22.5224 187.076 21.81C187.414 21.0977 187.877 20.5523 188.464 20.174C189.052 19.7957 189.718 19.6065 190.462 19.6065C191.038 19.6065 191.501 19.7031 191.851 19.8963C192.205 20.0855 192.479 20.3068 192.672 20.5604C192.869 20.8139 193.022 21.0373 193.131 21.2305H193.239V16.6364H195.044V29H193.282V27.5572H193.131C193.022 27.7544 192.865 27.9798 192.66 28.2333C192.459 28.4869 192.181 28.7082 191.827 28.8974C191.473 29.0865 191.014 29.1811 190.45 29.1811ZM190.849 27.6417C191.368 27.6417 191.807 27.5049 192.165 27.2312C192.527 26.9535 192.801 26.5691 192.986 26.0781C193.175 25.5871 193.27 25.0156 193.27 24.3636C193.27 23.7197 193.177 23.1562 192.992 22.6733C192.807 22.1903 192.535 21.814 192.177 21.5444C191.819 21.2747 191.376 21.1399 190.849 21.1399C190.305 21.1399 189.853 21.2808 189.49 21.5625C189.128 21.8442 188.855 22.2286 188.669 22.7156C188.488 23.2025 188.398 23.7519 188.398 24.3636C188.398 24.9834 188.49 25.5408 188.675 26.0359C188.861 26.5309 189.134 26.9233 189.496 27.2131C189.863 27.4988 190.313 27.6417 190.849 27.6417ZM201.617 29.1871C200.704 29.1871 199.917 28.992 199.257 28.6016C198.601 28.2071 198.094 27.6538 197.735 26.9414C197.381 26.225 197.204 25.3859 197.204 24.424C197.204 23.4742 197.381 22.6371 197.735 21.9126C198.094 21.1882 198.593 20.6228 199.233 20.2163C199.876 19.8098 200.629 19.6065 201.49 19.6065C202.014 19.6065 202.521 19.6931 203.012 19.8661C203.503 20.0392 203.943 20.3108 204.334 20.6811C204.724 21.0514 205.032 21.5323 205.257 22.1239C205.483 22.7115 205.595 23.4259 205.595 24.267V24.907H198.224V23.5547H203.827C203.827 23.0798 203.73 22.6592 203.537 22.293C203.344 21.9227 203.072 21.6309 202.722 21.4176C202.376 21.2043 201.969 21.0977 201.502 21.0977C200.995 21.0977 200.553 21.2224 200.174 21.4719C199.8 21.7174 199.51 22.0394 199.305 22.4379C199.104 22.8323 199.003 23.2609 199.003 23.7237V24.7802C199.003 25.4 199.112 25.9272 199.329 26.3619C199.55 26.7965 199.858 27.1286 200.253 27.358C200.647 27.5833 201.108 27.696 201.635 27.696C201.977 27.696 202.289 27.6477 202.571 27.5511C202.853 27.4505 203.096 27.3016 203.301 27.1044C203.507 26.9072 203.664 26.6637 203.772 26.3739L205.481 26.6818C205.344 27.1849 205.098 27.6256 204.744 28.0039C204.394 28.3782 203.953 28.67 203.422 28.8793C202.895 29.0845 202.293 29.1871 201.617 29.1871Z" fill="black"/>
</svg>
