<svg width="248" height="46" viewBox="0 0 248 46" fill="none" xmlns="http://www.w3.org/2000/svg">
<rect width="248" height="46" rx="23" fill="black"/>
<path d="M25.3583 29V16.6364H29.7653C30.7272 16.6364 31.524 16.8114 32.1559 17.1616C32.7878 17.5117 33.2607 17.9906 33.5746 18.5984C33.8885 19.2021 34.0455 19.8822 34.0455 20.6388C34.0455 21.3995 33.8865 22.0837 33.5685 22.6914C33.2546 23.2951 32.7797 23.774 32.1438 24.1282C31.512 24.4783 30.7171 24.6534 29.7592 24.6534H26.7287V23.0717H29.5902C30.1979 23.0717 30.6909 22.9671 31.0692 22.7578C31.4476 22.5445 31.7253 22.2547 31.9023 21.8885C32.0794 21.5223 32.168 21.1057 32.168 20.6388C32.168 20.172 32.0794 19.7575 31.9023 19.3952C31.7253 19.033 31.4455 18.7493 31.0632 18.544C30.6849 18.3388 30.1858 18.2362 29.5661 18.2362H27.2237V29H25.3583ZM36.0874 29V19.7273H37.8321V21.2003H37.9287C38.0977 20.7012 38.3956 20.3088 38.8222 20.0231C39.2528 19.7333 39.7398 19.5884 40.2831 19.5884C40.3958 19.5884 40.5286 19.5924 40.6816 19.6005C40.8385 19.6085 40.9613 19.6186 41.0498 19.6307V21.3572C40.9774 21.3371 40.8486 21.315 40.6634 21.2908C40.4783 21.2627 40.2932 21.2486 40.108 21.2486C39.6814 21.2486 39.3011 21.3391 38.9671 21.5202C38.637 21.6973 38.3754 21.9448 38.1823 22.2628C37.9891 22.5767 37.8925 22.9349 37.8925 23.3374V29H36.0874ZM46.2763 29.1871C45.3627 29.1871 44.5759 28.992 43.9158 28.6016C43.2598 28.2071 42.7527 27.6538 42.3945 26.9414C42.0404 26.225 41.8633 25.3859 41.8633 24.424C41.8633 23.4742 42.0404 22.6371 42.3945 21.9126C42.7527 21.1882 43.2518 20.6228 43.8917 20.2163C44.5356 19.8098 45.2882 19.6065 46.1495 19.6065C46.6727 19.6065 47.1798 19.6931 47.6708 19.8661C48.1618 20.0392 48.6025 20.3108 48.9929 20.6811C49.3833 21.0514 49.6912 21.5323 49.9165 22.1239C50.1419 22.7115 50.2546 23.4259 50.2546 24.267V24.907H42.8835V23.5547H48.4858C48.4858 23.0798 48.3892 22.6592 48.196 22.293C48.0028 21.9227 47.7312 21.6309 47.381 21.4176C47.0349 21.2043 46.6284 21.0977 46.1616 21.0977C45.6545 21.0977 45.2118 21.2224 44.8335 21.4719C44.4592 21.7174 44.1694 22.0394 43.9641 22.4379C43.7629 22.8323 43.6623 23.2609 43.6623 23.7237V24.7802C43.6623 25.4 43.771 25.9272 43.9883 26.3619C44.2096 26.7965 44.5175 27.1286 44.9119 27.358C45.3063 27.5833 45.7672 27.696 46.2944 27.696C46.6365 27.696 46.9484 27.6477 47.2301 27.5511C47.5118 27.4505 47.7553 27.3016 47.9606 27.1044C48.1658 26.9072 48.3228 26.6637 48.4315 26.3739L50.1399 26.6818C50.0031 27.1849 49.7576 27.6256 49.4034 28.0039C49.0533 28.3782 48.6126 28.67 48.0813 28.8793C47.5541 29.0845 46.9524 29.1871 46.2763 29.1871ZM45.3345 18.4897L46.7472 15.7067H48.6488L46.7773 18.4897H45.3345ZM52.2574 32.4773V19.7273H54.0202V21.2305H54.1711C54.2757 21.0373 54.4266 20.8139 54.6238 20.5604C54.8211 20.3068 55.0947 20.0855 55.4449 19.8963C55.795 19.7031 56.2578 19.6065 56.8334 19.6065C57.5819 19.6065 58.25 19.7957 58.8376 20.174C59.4252 20.5523 59.886 21.0977 60.2201 21.81C60.5582 22.5224 60.7272 23.3796 60.7272 24.3817C60.7272 25.3839 60.5602 26.2431 60.2261 26.9595C59.8921 27.6719 59.4333 28.2212 58.8497 28.6076C58.2661 28.9899 57.6001 29.1811 56.8515 29.1811C56.288 29.1811 55.8272 29.0865 55.469 28.8974C55.1148 28.7082 54.8372 28.4869 54.6359 28.2333C54.4347 27.9798 54.2797 27.7544 54.1711 27.5572H54.0624V32.4773H52.2574ZM54.0262 24.3636C54.0262 25.0156 54.1208 25.5871 54.3099 26.0781C54.4991 26.5691 54.7728 26.9535 55.1309 27.2312C55.4891 27.5049 55.9278 27.6417 56.447 27.6417C56.9863 27.6417 57.4371 27.4988 57.7993 27.2131C58.1615 26.9233 58.4352 26.5309 58.6203 26.0359C58.8095 25.5408 58.904 24.9834 58.904 24.3636C58.904 23.7519 58.8115 23.2025 58.6263 22.7156C58.4452 22.2286 58.1715 21.8442 57.8053 21.5625C57.4431 21.2808 56.9903 21.1399 56.447 21.1399C55.9238 21.1399 55.4811 21.2747 55.1189 21.5444C54.7607 21.814 54.489 22.1903 54.3039 22.6733C54.1188 23.1562 54.0262 23.7197 54.0262 24.3636ZM65.4481 29.2053C64.8605 29.2053 64.3292 29.0966 63.8543 28.8793C63.3794 28.6579 63.0031 28.3379 62.7254 27.9194C62.4517 27.5008 62.3149 26.9877 62.3149 26.38C62.3149 25.8568 62.4155 25.4261 62.6167 25.0881C62.818 24.75 63.0896 24.4824 63.4317 24.2852C63.7738 24.0879 64.1562 23.939 64.5787 23.8384C65.0013 23.7378 65.432 23.6613 65.8706 23.609C66.426 23.5446 66.8768 23.4923 67.2229 23.4521C67.569 23.4078 67.8206 23.3374 67.9775 23.2408C68.1345 23.1442 68.213 22.9872 68.213 22.7699V22.7276C68.213 22.2004 68.0641 21.7919 67.7662 21.5021C67.4724 21.2124 67.0338 21.0675 66.4502 21.0675C65.8425 21.0675 65.3635 21.2023 65.0134 21.4719C64.6673 21.7376 64.4278 22.0334 64.295 22.3594L62.5986 21.973C62.7999 21.4096 63.0937 20.9548 63.48 20.6087C63.8704 20.2585 64.3192 20.005 64.8263 19.848C65.3334 19.687 65.8666 19.6065 66.426 19.6065C66.7963 19.6065 67.1887 19.6508 67.6032 19.7393C68.0218 19.8239 68.4122 19.9808 68.7744 20.2102C69.1407 20.4396 69.4405 20.7676 69.6739 21.1942C69.9073 21.6168 70.0241 22.1662 70.0241 22.8423V29H68.2613V27.7322H68.1888C68.0721 27.9657 67.897 28.1951 67.6636 28.4205C67.4302 28.6458 67.1304 28.833 66.7641 28.9819C66.3979 29.1308 65.9592 29.2053 65.4481 29.2053ZM65.8405 27.7564C66.3395 27.7564 66.7661 27.6578 67.1203 27.4606C67.4785 27.2634 67.7501 27.0058 67.9353 26.6879C68.1244 26.3659 68.219 26.0218 68.219 25.6555V24.4602C68.1546 24.5246 68.0299 24.585 67.8447 24.6413C67.6636 24.6937 67.4564 24.7399 67.2229 24.7802C66.9895 24.8164 66.7621 24.8506 66.5407 24.8828C66.3194 24.911 66.1343 24.9351 65.9854 24.9553C65.6352 24.9995 65.3153 25.074 65.0255 25.1786C64.7397 25.2833 64.5103 25.4342 64.3373 25.6314C64.1682 25.8246 64.0837 26.0821 64.0837 26.4041C64.0837 26.8509 64.2487 27.1889 64.5787 27.4183C64.9088 27.6437 65.3293 27.7564 65.8405 27.7564ZM72.4283 29V19.7273H74.1729V21.2003H74.2695C74.4386 20.7012 74.7364 20.3088 75.163 20.0231C75.5936 19.7333 76.0806 19.5884 76.6239 19.5884C76.7366 19.5884 76.8694 19.5924 77.0224 19.6005C77.1793 19.6085 77.3021 19.6186 77.3906 19.6307V21.3572C77.3182 21.3371 77.1894 21.315 77.0043 21.2908C76.8191 21.2627 76.634 21.2486 76.4489 21.2486C76.0223 21.2486 75.6419 21.3391 75.3079 21.5202C74.9779 21.6973 74.7163 21.9448 74.5231 22.2628C74.3299 22.5767 74.2333 22.9349 74.2333 23.3374V29H72.4283ZM82.6171 29.1871C81.7035 29.1871 80.9167 28.992 80.2567 28.6016C79.6006 28.2071 79.0935 27.6538 78.7354 26.9414C78.3812 26.225 78.2041 25.3859 78.2041 24.424C78.2041 23.4742 78.3812 22.6371 78.7354 21.9126C79.0935 21.1882 79.5926 20.6228 80.2325 20.2163C80.8765 19.8098 81.6291 19.6065 82.4903 19.6065C83.0135 19.6065 83.5206 19.6931 84.0116 19.8661C84.5026 20.0392 84.9433 20.3108 85.3337 20.6811C85.7241 21.0514 86.032 21.5323 86.2574 22.1239C86.4827 22.7115 86.5954 23.4259 86.5954 24.267V24.907H79.2243V23.5547H84.8266C84.8266 23.0798 84.73 22.6592 84.5368 22.293C84.3437 21.9227 84.072 21.6309 83.7219 21.4176C83.3757 21.2043 82.9693 21.0977 82.5024 21.0977C81.9953 21.0977 81.5526 21.2224 81.1743 21.4719C80.8 21.7174 80.5102 22.0394 80.305 22.4379C80.1037 22.8323 80.0031 23.2609 80.0031 23.7237V24.7802C80.0031 25.4 80.1118 25.9272 80.3291 26.3619C80.5505 26.7965 80.8583 27.1286 81.2528 27.358C81.6472 27.5833 82.108 27.696 82.6352 27.696C82.9773 27.696 83.2892 27.6477 83.5709 27.5511C83.8527 27.4505 84.0961 27.3016 84.3014 27.1044C84.5067 26.9072 84.6636 26.6637 84.7723 26.3739L86.4807 26.6818C86.3439 27.1849 86.0984 27.6256 85.7442 28.0039C85.3941 28.3782 84.9534 28.67 84.4221 28.8793C83.8949 29.0845 83.2932 29.1871 82.6171 29.1871ZM88.5982 29V19.7273H90.3429V21.2003H90.4395C90.6085 20.7012 90.9063 20.3088 91.3329 20.0231C91.7636 19.7333 92.2505 19.5884 92.7939 19.5884C92.9065 19.5884 93.0394 19.5924 93.1923 19.6005C93.3493 19.6085 93.472 19.6186 93.5605 19.6307V21.3572C93.4881 21.3371 93.3593 21.315 93.1742 21.2908C92.9891 21.2627 92.8039 21.2486 92.6188 21.2486C92.1922 21.2486 91.8118 21.3391 91.4778 21.5202C91.1478 21.6973 90.8862 21.9448 90.693 22.2628C90.4998 22.5767 90.4032 22.9349 90.4032 23.3374V29H88.5982ZM105.496 25.1545V19.7273H107.307V29H105.532V27.3942H105.435C105.222 27.8892 104.88 28.3017 104.409 28.6317C103.942 28.9577 103.36 29.1207 102.664 29.1207C102.069 29.1207 101.541 28.9899 101.083 28.7283C100.628 28.4627 100.27 28.0703 100.008 27.5511C99.7504 27.032 99.6216 26.39 99.6216 25.6254V19.7273H101.427V25.408C101.427 26.0399 101.602 26.543 101.952 26.9173C102.302 27.2915 102.757 27.4787 103.316 27.4787C103.654 27.4787 103.99 27.3942 104.324 27.2251C104.662 27.0561 104.942 26.8005 105.164 26.4585C105.389 26.1164 105.5 25.6817 105.496 25.1545ZM111.537 23.4943V29H109.732V19.7273H111.465V21.2365H111.579C111.793 20.7455 112.127 20.3511 112.581 20.0533C113.04 19.7554 113.618 19.6065 114.314 19.6065C114.946 19.6065 115.499 19.7393 115.974 20.005C116.449 20.2666 116.817 20.657 117.079 21.1761C117.341 21.6953 117.471 22.3372 117.471 23.1019V29H115.666V23.3192C115.666 22.6471 115.491 22.1219 115.141 21.7436C114.791 21.3613 114.31 21.1701 113.698 21.1701C113.28 21.1701 112.907 21.2607 112.581 21.4418C112.259 21.6229 112.004 21.8885 111.815 22.2386C111.63 22.5848 111.537 23.0033 111.537 23.4943ZM123.889 29.1871C122.975 29.1871 122.188 28.992 121.528 28.6016C120.872 28.2071 120.365 27.6538 120.007 26.9414C119.653 26.225 119.476 25.3859 119.476 24.424C119.476 23.4742 119.653 22.6371 120.007 21.9126C120.365 21.1882 120.864 20.6228 121.504 20.2163C122.148 19.8098 122.901 19.6065 123.762 19.6065C124.285 19.6065 124.792 19.6931 125.283 19.8661C125.774 20.0392 126.215 20.3108 126.605 20.6811C126.996 21.0514 127.303 21.5323 127.529 22.1239C127.754 22.7115 127.867 23.4259 127.867 24.267V24.907H120.496V23.5547H126.098C126.098 23.0798 126.002 22.6592 125.808 22.293C125.615 21.9227 125.343 21.6309 124.993 21.4176C124.647 21.2043 124.241 21.0977 123.774 21.0977C123.267 21.0977 122.824 21.2224 122.446 21.4719C122.071 21.7174 121.782 22.0394 121.576 22.4379C121.375 22.8323 121.275 23.2609 121.275 23.7237V24.7802C121.275 25.4 121.383 25.9272 121.601 26.3619C121.822 26.7965 122.13 27.1286 122.524 27.358C122.919 27.5833 123.379 27.696 123.907 27.696C124.249 27.696 124.561 27.6477 124.842 27.5511C125.124 27.4505 125.368 27.3016 125.573 27.1044C125.778 26.9072 125.935 26.6637 126.044 26.3739L127.752 26.6818C127.615 27.1849 127.37 27.6256 127.016 28.0039C126.666 28.3782 126.225 28.67 125.694 28.8793C125.166 29.0845 124.565 29.1871 123.889 29.1871ZM138.275 29.1871C137.377 29.1871 136.604 28.9839 135.956 28.5774C135.312 28.1669 134.817 27.6014 134.471 26.881C134.125 26.1606 133.952 25.3356 133.952 24.4059C133.952 23.4641 134.129 22.633 134.483 21.9126C134.838 21.1882 135.337 20.6228 135.981 20.2163C136.624 19.8098 137.383 19.6065 138.256 19.6065C138.961 19.6065 139.589 19.7373 140.14 19.9989C140.691 20.2565 141.136 20.6187 141.474 21.0856C141.816 21.5524 142.02 22.0978 142.084 22.7216H140.327C140.231 22.2869 140.009 21.9126 139.663 21.5987C139.321 21.2848 138.862 21.1278 138.287 21.1278C137.784 21.1278 137.343 21.2607 136.965 21.5263C136.59 21.7879 136.299 22.1622 136.089 22.6491C135.88 23.1321 135.775 23.7036 135.775 24.3636C135.775 25.0398 135.878 25.6233 136.083 26.1143C136.288 26.6054 136.578 26.9857 136.953 27.2553C137.331 27.525 137.776 27.6598 138.287 27.6598C138.629 27.6598 138.939 27.5974 139.216 27.4727C139.498 27.3439 139.734 27.1607 139.923 26.9233C140.116 26.6858 140.251 26.4001 140.327 26.0661H142.084C142.02 26.6657 141.824 27.201 141.498 27.6719C141.172 28.1428 140.736 28.513 140.188 28.7827C139.645 29.0523 139.007 29.1871 138.275 29.1871ZM147.92 29.1871C147.051 29.1871 146.292 28.9879 145.644 28.5895C144.996 28.1911 144.493 27.6336 144.135 26.9173C143.777 26.2009 143.598 25.3638 143.598 24.4059C143.598 23.444 143.777 22.6029 144.135 21.8825C144.493 21.162 144.996 20.6026 145.644 20.2042C146.292 19.8058 147.051 19.6065 147.92 19.6065C148.789 19.6065 149.548 19.8058 150.196 20.2042C150.844 20.6026 151.347 21.162 151.705 21.8825C152.063 22.6029 152.243 23.444 152.243 24.4059C152.243 25.3638 152.063 26.2009 151.705 26.9173C151.347 27.6336 150.844 28.1911 150.196 28.5895C149.548 28.9879 148.789 29.1871 147.92 29.1871ZM147.926 27.6719C148.49 27.6719 148.956 27.523 149.327 27.2251C149.697 26.9273 149.971 26.5309 150.148 26.0359C150.329 25.5408 150.419 24.9955 150.419 24.3999C150.419 23.8082 150.329 23.2649 150.148 22.7699C149.971 22.2708 149.697 21.8704 149.327 21.5685C148.956 21.2667 148.49 21.1158 147.926 21.1158C147.359 21.1158 146.888 21.2667 146.513 21.5685C146.143 21.8704 145.868 22.2708 145.686 22.7699C145.509 23.2649 145.421 23.8082 145.421 24.3999C145.421 24.9955 145.509 25.5408 145.686 26.0359C145.868 26.5309 146.143 26.9273 146.513 27.2251C146.888 27.523 147.359 27.6719 147.926 27.6719ZM154.257 29V19.7273H155.99V21.2365H156.105C156.298 20.7254 156.614 20.3269 157.052 20.0412C157.491 19.7514 158.016 19.6065 158.628 19.6065C159.248 19.6065 159.767 19.7514 160.186 20.0412C160.608 20.331 160.92 20.7294 161.121 21.2365H161.218C161.439 20.7415 161.791 20.3471 162.274 20.0533C162.757 19.7554 163.333 19.6065 164.001 19.6065C164.842 19.6065 165.528 19.8701 166.06 20.3974C166.595 20.9246 166.862 21.7195 166.862 22.782V29H165.057V22.951C165.057 22.3232 164.886 21.8684 164.544 21.5866C164.202 21.3049 163.794 21.1641 163.319 21.1641C162.731 21.1641 162.274 21.3452 161.948 21.7074C161.622 22.0656 161.459 22.5264 161.459 23.0898V29H159.66V22.8363C159.66 22.3332 159.503 21.9287 159.19 21.6229C158.876 21.317 158.467 21.1641 157.964 21.1641C157.622 21.1641 157.306 21.2546 157.016 21.4357C156.73 21.6128 156.499 21.8603 156.322 22.1783C156.149 22.4962 156.062 22.8645 156.062 23.283V29H154.257ZM169.282 29V19.7273H171.014V21.2365H171.129C171.322 20.7254 171.638 20.3269 172.077 20.0412C172.516 19.7514 173.041 19.6065 173.653 19.6065C174.272 19.6065 174.791 19.7514 175.21 20.0412C175.633 20.331 175.945 20.7294 176.146 21.2365H176.242C176.464 20.7415 176.816 20.3471 177.299 20.0533C177.782 19.7554 178.357 19.6065 179.025 19.6065C179.867 19.6065 180.553 19.8701 181.084 20.3974C181.619 20.9246 181.887 21.7195 181.887 22.782V29H180.082V22.951C180.082 22.3232 179.911 21.8684 179.569 21.5866C179.227 21.3049 178.818 21.1641 178.343 21.1641C177.756 21.1641 177.299 21.3452 176.973 21.7074C176.647 22.0656 176.484 22.5264 176.484 23.0898V29H174.685V22.8363C174.685 22.3332 174.528 21.9287 174.214 21.6229C173.9 21.317 173.492 21.1641 172.988 21.1641C172.646 21.1641 172.33 21.2546 172.041 21.4357C171.755 21.6128 171.523 21.8603 171.346 22.1783C171.173 22.4962 171.087 22.8645 171.087 23.283V29H169.282ZM187.005 29.2053C186.417 29.2053 185.886 29.0966 185.411 28.8793C184.936 28.6579 184.56 28.3379 184.282 27.9194C184.008 27.5008 183.872 26.9877 183.872 26.38C183.872 25.8568 183.972 25.4261 184.173 25.0881C184.375 24.75 184.646 24.4824 184.988 24.2852C185.33 24.0879 185.713 23.939 186.135 23.8384C186.558 23.7378 186.989 23.6613 187.427 23.609C187.983 23.5446 188.433 23.4923 188.78 23.4521C189.126 23.4078 189.377 23.3374 189.534 23.2408C189.691 23.1442 189.77 22.9872 189.77 22.7699V22.7276C189.77 22.2004 189.621 21.7919 189.323 21.5021C189.029 21.2124 188.59 21.0675 188.007 21.0675C187.399 21.0675 186.92 21.2023 186.57 21.4719C186.224 21.7376 185.984 22.0334 185.852 22.3594L184.155 21.973C184.357 21.4096 184.65 20.9548 185.037 20.6087C185.427 20.2585 185.876 20.005 186.383 19.848C186.89 19.687 187.423 19.6065 187.983 19.6065C188.353 19.6065 188.745 19.6508 189.16 19.7393C189.578 19.8239 189.969 19.9808 190.331 20.2102C190.697 20.4396 190.997 20.7676 191.231 21.1942C191.464 21.6168 191.581 22.1662 191.581 22.8423V29H189.818V27.7322H189.745C189.629 27.9657 189.454 28.1951 189.22 28.4205C188.987 28.6458 188.687 28.833 188.321 28.9819C187.955 29.1308 187.516 29.2053 187.005 29.2053ZM187.397 27.7564C187.896 27.7564 188.323 27.6578 188.677 27.4606C189.035 27.2634 189.307 27.0058 189.492 26.6879C189.681 26.3659 189.776 26.0218 189.776 25.6555V24.4602C189.711 24.5246 189.587 24.585 189.401 24.6413C189.22 24.6937 189.013 24.7399 188.78 24.7802C188.546 24.8164 188.319 24.8506 188.097 24.8828C187.876 24.911 187.691 24.9351 187.542 24.9553C187.192 24.9995 186.872 25.074 186.582 25.1786C186.296 25.2833 186.067 25.4342 185.894 25.6314C185.725 25.8246 185.64 26.0821 185.64 26.4041C185.64 26.8509 185.805 27.1889 186.135 27.4183C186.465 27.6437 186.886 27.7564 187.397 27.7564ZM195.79 23.4943V29H193.985V19.7273H195.718V21.2365H195.832C196.046 20.7455 196.38 20.3511 196.834 20.0533C197.293 19.7554 197.871 19.6065 198.567 19.6065C199.199 19.6065 199.752 19.7393 200.227 20.005C200.702 20.2666 201.07 20.657 201.332 21.1761C201.593 21.6953 201.724 22.3372 201.724 23.1019V29H199.919V23.3192C199.919 22.6471 199.744 22.1219 199.394 21.7436C199.044 21.3613 198.563 21.1701 197.951 21.1701C197.533 21.1701 197.16 21.2607 196.834 21.4418C196.512 21.6229 196.257 21.8885 196.068 22.2386C195.883 22.5848 195.79 23.0033 195.79 23.4943ZM207.616 29.1811C206.868 29.1811 206.2 28.9899 205.612 28.6076C205.028 28.2212 204.57 27.6719 204.236 26.9595C203.906 26.2431 203.741 25.3839 203.741 24.3817C203.741 23.3796 203.908 22.5224 204.242 21.81C204.58 21.0977 205.043 20.5523 205.63 20.174C206.218 19.7957 206.884 19.6065 207.628 19.6065C208.204 19.6065 208.667 19.7031 209.017 19.8963C209.371 20.0855 209.645 20.3068 209.838 20.5604C210.035 20.8139 210.188 21.0373 210.297 21.2305H210.405V16.6364H212.21V29H210.448V27.5572H210.297C210.188 27.7544 210.031 27.9798 209.826 28.2333C209.625 28.4869 209.347 28.7082 208.993 28.8974C208.639 29.0865 208.18 29.1811 207.616 29.1811ZM208.015 27.6417C208.534 27.6417 208.973 27.5049 209.331 27.2312C209.693 26.9535 209.967 26.5691 210.152 26.0781C210.341 25.5871 210.436 25.0156 210.436 24.3636C210.436 23.7197 210.343 23.1562 210.158 22.6733C209.973 22.1903 209.701 21.814 209.343 21.5444C208.985 21.2747 208.542 21.1399 208.015 21.1399C207.471 21.1399 207.019 21.2808 206.656 21.5625C206.294 21.8442 206.021 22.2286 205.835 22.7156C205.654 23.2025 205.564 23.7519 205.564 24.3636C205.564 24.9834 205.656 25.5408 205.841 26.0359C206.027 26.5309 206.3 26.9233 206.662 27.2131C207.029 27.4988 207.479 27.6417 208.015 27.6417ZM218.783 29.1871C217.87 29.1871 217.083 28.992 216.423 28.6016C215.767 28.2071 215.26 27.6538 214.901 26.9414C214.547 26.225 214.37 25.3859 214.37 24.424C214.37 23.4742 214.547 22.6371 214.901 21.9126C215.26 21.1882 215.759 20.6228 216.399 20.2163C217.042 19.8098 217.795 19.6065 218.656 19.6065C219.18 19.6065 219.687 19.6931 220.178 19.8661C220.669 20.0392 221.109 20.3108 221.5 20.6811C221.89 21.0514 222.198 21.5323 222.423 22.1239C222.649 22.7115 222.761 23.4259 222.761 24.267V24.907H215.39V23.5547H220.993C220.993 23.0798 220.896 22.6592 220.703 22.293C220.51 21.9227 220.238 21.6309 219.888 21.4176C219.542 21.2043 219.135 21.0977 218.668 21.0977C218.161 21.0977 217.719 21.2224 217.34 21.4719C216.966 21.7174 216.676 22.0394 216.471 22.4379C216.27 22.8323 216.169 23.2609 216.169 23.7237V24.7802C216.169 25.4 216.278 25.9272 216.495 26.3619C216.716 26.7965 217.024 27.1286 217.419 27.358C217.813 27.5833 218.274 27.696 218.801 27.696C219.143 27.696 219.455 27.6477 219.737 27.5511C220.019 27.4505 220.262 27.3016 220.467 27.1044C220.673 26.9072 220.83 26.6637 220.938 26.3739L222.647 26.6818C222.51 27.1849 222.264 27.6256 221.91 28.0039C221.56 28.3782 221.119 28.67 220.588 28.8793C220.061 29.0845 219.459 29.1871 218.783 29.1871Z" fill="white"/>
</svg>
