<svg width="148" height="30" viewBox="0 0 148 30" fill="none" xmlns="http://www.w3.org/2000/svg">
<path d="M15.5278 6.94252C15.5278 6.94252 15.4819 7.10344 14.7479 9.14942C12.6603 7.42528 9.12763 7.54023 9.12763 10.2069C9.12763 13.3333 16.4683 12.9425 16.2389 18.5057C16.0554 22.9655 10.7334 24 6.65015 21.8391C7.01718 21.0575 7.38422 20.2989 7.63655 19.6782C10.7334 21.5632 13.3944 20.7126 13.8532 19.1724C15.0461 14.9885 6.67309 16.2759 6.67309 10.3678C6.67309 7.86206 9.47173 3.99999 15.5278 6.94252ZM24.0155 6.20689H34.2695C34.2695 6.20689 34.2466 7.10344 34.2695 8.36781H26.5847V12.8046H32.0214C31.9985 13.7011 32.0214 14.3908 32.0214 14.8506H26.5847V20.3908H34.2695V22.5057H24.0384L24.0155 6.20689ZM47.5057 6.22988C46.6111 6.20689 44.7071 6.20689 43.1013 6.20689V22.5287H45.6706V16.3448C46.3129 16.3448 47.6204 16.2989 48.6986 16.2759C50.1667 16.2299 54.0665 15.5172 54.0206 11.0345C53.9977 5.99999 48.4233 6.25287 47.5057 6.22988ZM47.3681 14.2069H45.6706V8.32183H47.1158C47.781 8.32183 51.7037 8.02298 51.8184 11.0575C51.956 14.046 48.8821 14.2069 47.3681 14.2069ZM115.82 22.5287H118.917L113.778 15.2184C115.155 14.7126 116.761 13.5172 116.554 10.8276C116.187 5.97701 111.485 6.34482 110.475 6.29885C109.626 6.25287 107.791 6.22988 106.208 6.25287V22.5287H108.778V15.6552C109.626 15.6552 109.925 15.6322 111.209 15.6092L115.82 22.5287ZM110.36 13.7701C109.787 13.7701 109.351 13.7701 108.778 13.7471V8.25287H110.108C110.728 8.25287 114.1 8.06896 114.375 10.7126C114.719 13.8621 111.049 13.7701 110.36 13.7701ZM72.0512 12.7126V6.29885H74.5516V22.5747H72.0512V14.8506H63.7241V22.5747H61.2237V6.29885H63.7241V12.7126H72.0512Z" fill="black"/>
<path fill-rule="evenodd" clip-rule="evenodd" d="M130.433 6.25286H133.392L139.241 22.5977H136.626C136.626 22.5977 136.053 20.9425 135.273 18.7586L128.689 18.8046C128.689 18.8046 128.414 19.6552 127.634 22.5977H125.111L130.433 6.25286ZM129.286 16.9195L134.585 16.8965L131.901 8.85056H131.855L129.286 16.9195ZM90.357 8.13792C86.549 8.13792 84.3927 10.9425 84.3927 14.4138C84.3927 17.885 86.5261 20.6896 90.357 20.6896C94.188 20.6896 96.3213 17.885 96.3213 14.4138C96.3213 10.9425 94.1421 8.13792 90.357 8.13792ZM90.357 5.79309C85.1727 5.79309 81.8005 9.65516 81.8005 14.3908C81.8005 19.1494 85.1727 22.9885 90.357 22.9885C95.5414 22.9885 98.9135 19.1264 98.9135 14.3908C98.9135 9.63217 95.5414 5.79309 90.357 5.79309Z" fill="black"/>
</svg>
