<svg width="177" height="100" viewBox="0 0 177 100" fill="none" xmlns="http://www.w3.org/2000/svg">
<path d="M11.1697 9.14773H9.39702C9.32884 8.76894 9.20194 8.43561 9.01634 8.14773C8.83073 7.85985 8.60346 7.61553 8.33452 7.41477C8.06558 7.21401 7.76444 7.0625 7.43111 6.96023C7.10156 6.85795 6.75118 6.80682 6.37997 6.80682C5.70952 6.80682 5.10914 6.97538 4.57884 7.3125C4.05232 7.64962 3.63565 8.14394 3.32884 8.79545C3.0258 9.44697 2.87429 10.2424 2.87429 11.1818C2.87429 12.1288 3.0258 12.928 3.32884 13.5795C3.63565 14.2311 4.05421 14.7235 4.58452 15.0568C5.11482 15.3902 5.71141 15.5568 6.37429 15.5568C6.74171 15.5568 7.0902 15.5076 7.41974 15.4091C7.75308 15.3068 8.05421 15.1572 8.32315 14.9602C8.59209 14.7633 8.81937 14.5227 9.00497 14.2386C9.19437 13.9508 9.32505 13.6212 9.39702 13.25L11.1697 13.2557C11.075 13.8277 10.8913 14.3542 10.6186 14.8352C10.3497 15.3125 10.0031 15.7254 9.57884 16.0739C9.15838 16.4186 8.67732 16.6856 8.13565 16.875C7.59399 17.0644 7.00308 17.1591 6.36293 17.1591C5.35535 17.1591 4.45762 16.9205 3.66974 16.4432C2.88187 15.9621 2.26065 15.2746 1.80611 14.3807C1.35535 13.4867 1.12997 12.4205 1.12997 11.1818C1.12997 9.93939 1.35724 8.87311 1.81179 7.98295C2.26634 7.08901 2.88755 6.40341 3.67543 5.92614C4.46331 5.44508 5.35914 5.20455 6.36293 5.20455C6.98035 5.20455 7.55611 5.29356 8.0902 5.47159C8.62808 5.64583 9.11103 5.90341 9.53906 6.24432C9.96709 6.58144 10.3213 6.99432 10.6016 7.48295C10.8819 7.9678 11.0713 8.52273 11.1697 9.14773ZM16.8104 17.1761C15.9922 17.1761 15.2782 16.9886 14.6683 16.6136C14.0585 16.2386 13.585 15.714 13.2479 15.0398C12.9107 14.3655 12.7422 13.5777 12.7422 12.6761C12.7422 11.7708 12.9107 10.9792 13.2479 10.3011C13.585 9.62311 14.0585 9.09659 14.6683 8.72159C15.2782 8.34659 15.9922 8.15909 16.8104 8.15909C17.6286 8.15909 18.3426 8.34659 18.9524 8.72159C19.5623 9.09659 20.0357 9.62311 20.3729 10.3011C20.71 10.9792 20.8786 11.7708 20.8786 12.6761C20.8786 13.5777 20.71 14.3655 20.3729 15.0398C20.0357 15.714 19.5623 16.2386 18.9524 16.6136C18.3426 16.9886 17.6286 17.1761 16.8104 17.1761ZM16.8161 15.75C17.3464 15.75 17.7857 15.6098 18.1342 15.3295C18.4827 15.0492 18.7403 14.6761 18.907 14.2102C19.0774 13.7443 19.1626 13.2311 19.1626 12.6705C19.1626 12.1136 19.0774 11.6023 18.907 11.1364C18.7403 10.6667 18.4827 10.2898 18.1342 10.0057C17.7857 9.72159 17.3464 9.57955 16.8161 9.57955C16.282 9.57955 15.8388 9.72159 15.4865 10.0057C15.138 10.2898 14.8786 10.6667 14.7081 11.1364C14.5414 11.6023 14.4581 12.1136 14.4581 12.6705C14.4581 13.2311 14.5414 13.7443 14.7081 14.2102C14.8786 14.6761 15.138 15.0492 15.4865 15.3295C15.8388 15.6098 16.282 15.75 16.8161 15.75ZM22.7749 17V8.27273H24.4055V9.69318H24.5135C24.6953 9.21212 24.9927 8.83712 25.4055 8.56818C25.8184 8.29545 26.3127 8.15909 26.8885 8.15909C27.4718 8.15909 27.9605 8.29545 28.3544 8.56818C28.7521 8.84091 29.0457 9.21591 29.2351 9.69318H29.326C29.5343 9.22727 29.8658 8.85606 30.3203 8.57955C30.7749 8.29924 31.3165 8.15909 31.9453 8.15909C32.737 8.15909 33.3828 8.4072 33.8828 8.90341C34.3866 9.39962 34.6385 10.1477 34.6385 11.1477V17H32.9396V11.3068C32.9396 10.7159 32.7786 10.2879 32.4567 10.0227C32.1347 9.75758 31.7502 9.625 31.3033 9.625C30.7502 9.625 30.3203 9.79545 30.0135 10.1364C29.7067 10.4735 29.5533 10.9072 29.5533 11.4375V17H27.8601V11.1989C27.8601 10.7254 27.7124 10.3447 27.4169 10.0568C27.1214 9.76894 26.737 9.625 26.2635 9.625C25.9415 9.625 25.6442 9.71023 25.3714 9.88068C25.1025 10.0473 24.8847 10.2803 24.718 10.5795C24.5552 10.8788 24.4737 11.2254 24.4737 11.6193V17H22.7749ZM36.9155 17V8.27273H38.5462V9.69318H38.6541C38.8359 9.21212 39.1333 8.83712 39.5462 8.56818C39.959 8.29545 40.4534 8.15909 41.0291 8.15909C41.6125 8.15909 42.1011 8.29545 42.495 8.56818C42.8928 8.84091 43.1863 9.21591 43.3757 9.69318H43.4666C43.675 9.22727 44.0064 8.85606 44.4609 8.57955C44.9155 8.29924 45.4571 8.15909 46.0859 8.15909C46.8776 8.15909 47.5234 8.4072 48.0234 8.90341C48.5272 9.39962 48.7791 10.1477 48.7791 11.1477V17H47.0803V11.3068C47.0803 10.7159 46.9193 10.2879 46.5973 10.0227C46.2753 9.75758 45.8909 9.625 45.4439 9.625C44.8909 9.625 44.4609 9.79545 44.1541 10.1364C43.8473 10.4735 43.6939 10.9072 43.6939 11.4375V17H42.0007V11.1989C42.0007 10.7254 41.853 10.3447 41.5575 10.0568C41.2621 9.76894 40.8776 9.625 40.4041 9.625C40.0821 9.625 39.7848 9.71023 39.5121 9.88068C39.2431 10.0473 39.0253 10.2803 38.8587 10.5795C38.6958 10.8788 38.6143 11.2254 38.6143 11.6193V17H36.9155ZM53.5959 17.1932C53.0429 17.1932 52.5429 17.0909 52.0959 16.8864C51.6489 16.678 51.2947 16.3769 51.0334 15.983C50.7758 15.589 50.647 15.1061 50.647 14.5341C50.647 14.0417 50.7417 13.6364 50.9311 13.3182C51.1205 13 51.3762 12.7481 51.6982 12.5625C52.0201 12.3769 52.38 12.2367 52.7777 12.142C53.1754 12.0473 53.5807 11.9754 53.9936 11.9261C54.5163 11.8655 54.9406 11.8163 55.2663 11.7784C55.5921 11.7367 55.8288 11.6705 55.9766 11.5795C56.1243 11.4886 56.1982 11.3409 56.1982 11.1364V11.0966C56.1982 10.6004 56.058 10.2159 55.7777 9.94318C55.5012 9.67045 55.0883 9.53409 54.5391 9.53409C53.9671 9.53409 53.5163 9.66098 53.1868 9.91477C52.861 10.1648 52.6357 10.4432 52.5107 10.75L50.9141 10.3864C51.1035 9.85606 51.38 9.42803 51.7436 9.10227C52.111 8.77273 52.5334 8.53409 53.0107 8.38636C53.4879 8.23485 53.9898 8.15909 54.5163 8.15909C54.8648 8.15909 55.2341 8.20076 55.6243 8.28409C56.0182 8.36364 56.3857 8.51136 56.7266 8.72727C57.0713 8.94318 57.3535 9.25189 57.5732 9.65341C57.7929 10.0511 57.9027 10.5682 57.9027 11.2045V17H56.2436V15.8068H56.1754C56.0656 16.0265 55.9008 16.2424 55.6811 16.4545C55.4614 16.6667 55.1792 16.8428 54.8345 16.983C54.4898 17.1231 54.0769 17.1932 53.5959 17.1932ZM53.9652 15.8295C54.4349 15.8295 54.8364 15.7367 55.1697 15.5511C55.5069 15.3655 55.7625 15.1231 55.9368 14.8239C56.1148 14.5208 56.2038 14.197 56.2038 13.8523V12.7273C56.1432 12.7879 56.0258 12.8447 55.8516 12.8977C55.6811 12.947 55.486 12.9905 55.2663 13.0284C55.0466 13.0625 54.8326 13.0947 54.6243 13.125C54.416 13.1515 54.2417 13.1742 54.1016 13.1932C53.772 13.2348 53.4709 13.3049 53.1982 13.4034C52.9292 13.5019 52.7133 13.6439 52.5504 13.8295C52.3913 14.0114 52.3118 14.2538 52.3118 14.5568C52.3118 14.9773 52.4671 15.2955 52.7777 15.5114C53.0883 15.7235 53.4841 15.8295 53.9652 15.8295ZM61.8643 11.8182V17H60.1655V8.27273H61.7962V9.69318H61.9041C62.1049 9.23106 62.4193 8.85985 62.8473 8.57955C63.2791 8.29924 63.8227 8.15909 64.478 8.15909C65.0727 8.15909 65.5935 8.28409 66.0405 8.53409C66.4875 8.7803 66.834 9.14773 67.0803 9.63636C67.3265 10.125 67.4496 10.7292 67.4496 11.4489V17H65.7507V11.6534C65.7507 11.0208 65.5859 10.5265 65.2564 10.1705C64.9268 9.81061 64.4742 9.63068 63.8984 9.63068C63.5045 9.63068 63.1541 9.71591 62.8473 9.88636C62.5443 10.0568 62.3037 10.3068 62.1257 10.6364C61.9515 10.9621 61.8643 11.3561 61.8643 11.8182ZM72.995 17.1705C72.2905 17.1705 71.6617 16.9905 71.1087 16.6307C70.5594 16.267 70.1276 15.75 69.8132 15.0795C69.5026 14.4053 69.3473 13.5966 69.3473 12.6534C69.3473 11.7102 69.5045 10.9034 69.8189 10.233C70.1371 9.5625 70.5727 9.04924 71.1257 8.69318C71.6787 8.33712 72.3056 8.15909 73.0064 8.15909C73.5481 8.15909 73.9837 8.25 74.3132 8.43182C74.6465 8.60985 74.9041 8.81818 75.0859 9.05682C75.2715 9.29545 75.4155 9.50568 75.5178 9.6875H75.62V5.36364H77.3189V17H75.6598V15.642H75.5178C75.4155 15.8277 75.2678 16.0398 75.0746 16.2784C74.8852 16.517 74.6238 16.7254 74.2905 16.9034C73.9571 17.0814 73.5253 17.1705 72.995 17.1705ZM73.37 15.7216C73.8587 15.7216 74.2715 15.5928 74.6087 15.3352C74.9496 15.0739 75.2071 14.7121 75.3814 14.25C75.5594 13.7879 75.6484 13.25 75.6484 12.6364C75.6484 12.0303 75.5613 11.5 75.3871 11.0455C75.2128 10.5909 74.9571 10.2367 74.62 9.98295C74.2829 9.72917 73.8662 9.60227 73.37 9.60227C72.8587 9.60227 72.4325 9.73485 72.0916 10C71.7507 10.2652 71.4931 10.6269 71.3189 11.0852C71.1484 11.5436 71.0632 12.0606 71.0632 12.6364C71.0632 13.2197 71.1503 13.7443 71.3246 14.2102C71.4988 14.6761 71.7564 15.0455 72.0973 15.3182C72.442 15.5871 72.8662 15.7216 73.37 15.7216ZM83.505 17.1761C82.6451 17.1761 81.9046 16.9924 81.2834 16.625C80.666 16.2538 80.1887 15.733 79.8516 15.0625C79.5182 14.3883 79.3516 13.5985 79.3516 12.6932C79.3516 11.7992 79.5182 11.0114 79.8516 10.3295C80.1887 9.64773 80.6584 9.11553 81.2607 8.73295C81.8667 8.35038 82.575 8.15909 83.3857 8.15909C83.8781 8.15909 84.3554 8.24053 84.8175 8.40341C85.2796 8.56629 85.6944 8.82197 86.0618 9.17045C86.4292 9.51894 86.719 9.97159 86.9311 10.5284C87.1432 11.0814 87.2493 11.7538 87.2493 12.5455V13.1477H80.3118V11.875H85.5845C85.5845 11.428 85.4936 11.0322 85.3118 10.6875C85.13 10.339 84.8743 10.0644 84.5447 9.86364C84.219 9.66288 83.8364 9.5625 83.397 9.5625C82.9197 9.5625 82.5031 9.67992 82.147 9.91477C81.7947 10.1458 81.522 10.4489 81.3288 10.8239C81.1394 11.1951 81.0447 11.5985 81.0447 12.0341V13.0284C81.0447 13.6117 81.147 14.108 81.3516 14.517C81.5599 14.9261 81.8497 15.2386 82.2209 15.4545C82.5921 15.6667 83.0258 15.7727 83.522 15.7727C83.844 15.7727 84.1375 15.7273 84.4027 15.6364C84.6679 15.5417 84.897 15.4015 85.0902 15.2159C85.2834 15.0303 85.4311 14.8011 85.5334 14.5284L87.1413 14.8182C87.0125 15.2917 86.7815 15.7064 86.4482 16.0625C86.1186 16.4148 85.7038 16.6894 85.2038 16.8864C84.7076 17.0795 84.1413 17.1761 83.505 17.1761ZM97.4709 17.1591C96.6224 17.1591 95.8667 17.0133 95.2038 16.7216C94.5447 16.4261 94.0239 16.0208 93.6413 15.5057C93.2625 14.9867 93.0675 14.3883 93.0561 13.7102H95.5334C95.5485 13.9943 95.6413 14.2443 95.8118 14.4602C95.986 14.6723 96.2171 14.8371 96.505 14.9545C96.7929 15.072 97.1167 15.1307 97.4766 15.1307C97.8516 15.1307 98.183 15.0644 98.4709 14.9318C98.7588 14.7992 98.9841 14.6155 99.147 14.3807C99.3099 14.1458 99.3913 13.875 99.3913 13.5682C99.3913 13.2576 99.3042 12.983 99.13 12.7443C98.9595 12.5019 98.7133 12.3125 98.3913 12.1761C98.0732 12.0398 97.6944 11.9716 97.255 11.9716H96.1697V10.1648H97.255C97.6262 10.1648 97.9538 10.1004 98.2379 9.97159C98.5258 9.8428 98.7493 9.66477 98.9084 9.4375C99.0675 9.20644 99.147 8.9375 99.147 8.63068C99.147 8.33902 99.0769 8.08333 98.9368 7.86364C98.8004 7.64015 98.6072 7.46591 98.3572 7.34091C98.111 7.21591 97.8232 7.15341 97.4936 7.15341C97.1603 7.15341 96.8554 7.21402 96.5788 7.33523C96.3023 7.45265 96.0807 7.62121 95.9141 7.84091C95.7474 8.06061 95.6584 8.31818 95.647 8.61364H93.2891C93.3004 7.94318 93.4917 7.35227 93.8629 6.84091C94.2341 6.32955 94.7341 5.92992 95.3629 5.64205C95.9955 5.35038 96.7095 5.20455 97.505 5.20455C98.308 5.20455 99.0107 5.35038 99.6129 5.64205C100.215 5.93371 100.683 6.32765 101.016 6.82386C101.353 7.31629 101.52 7.86932 101.516 8.48295C101.52 9.13447 101.317 9.67803 100.908 10.1136C100.503 10.5492 99.9747 10.8258 99.3232 10.9432V11.0341C100.179 11.1439 100.831 11.4413 101.278 11.9261C101.728 12.4072 101.952 13.0095 101.948 13.733C101.952 14.3958 101.761 14.9848 101.374 15.5C100.992 16.0152 100.463 16.4205 99.7891 16.7159C99.1148 17.0114 98.3421 17.1591 97.4709 17.1591ZM103.54 14.9545V13.017L108.398 5.36364H110.069V8.04545H109.08L106.018 12.892V12.983H112.921V14.9545H103.54ZM109.126 17V14.3636L109.171 13.5057V5.36364H111.478V17H109.126ZM118.81 17.1591C118.007 17.1591 117.291 17.0114 116.663 16.7159C116.038 16.4205 115.541 16.0133 115.174 15.4943C114.807 14.9754 114.615 14.3807 114.6 13.7102H116.987C117.013 14.161 117.202 14.5265 117.555 14.8068C117.907 15.0871 118.326 15.2273 118.81 15.2273C119.197 15.2273 119.538 15.142 119.833 14.9716C120.132 14.7973 120.365 14.5568 120.532 14.25C120.702 13.9394 120.788 13.5833 120.788 13.1818C120.788 12.7727 120.701 12.4129 120.526 12.1023C120.356 11.7917 120.119 11.5492 119.816 11.375C119.513 11.2008 119.166 11.1117 118.776 11.108C118.435 11.108 118.104 11.178 117.782 11.3182C117.464 11.4583 117.216 11.6496 117.038 11.892L114.85 11.5L115.401 5.36364H122.515V7.375H117.43L117.129 10.2898H117.197C117.401 10.0019 117.71 9.76326 118.123 9.57386C118.536 9.38447 118.998 9.28977 119.509 9.28977C120.21 9.28977 120.835 9.45455 121.384 9.78409C121.933 10.1136 122.367 10.5663 122.685 11.142C123.004 11.714 123.161 12.3731 123.157 13.1193C123.161 13.9034 122.979 14.6004 122.612 15.2102C122.248 15.8163 121.738 16.2936 121.083 16.642C120.432 16.9867 119.674 17.1591 118.81 17.1591ZM129.339 17.1591C128.74 17.1553 128.163 17.0549 127.606 16.858C127.053 16.661 126.557 16.3409 126.117 15.8977C125.678 15.4545 125.329 14.8674 125.072 14.1364C124.818 13.4053 124.691 12.5076 124.691 11.4432C124.695 10.4659 124.807 9.5928 125.026 8.82386C125.25 8.05114 125.568 7.39583 125.981 6.85795C126.397 6.32008 126.896 5.91098 127.475 5.63068C128.055 5.34659 128.704 5.20455 129.424 5.20455C130.201 5.20455 130.886 5.35606 131.481 5.65909C132.076 5.95833 132.553 6.36553 132.913 6.88068C133.276 7.39583 133.496 7.97348 133.572 8.61364H131.146C131.051 8.20833 130.852 7.89015 130.549 7.65909C130.246 7.42803 129.871 7.3125 129.424 7.3125C128.666 7.3125 128.091 7.64205 127.697 8.30114C127.307 8.96023 127.108 9.85606 127.1 10.9886H127.18C127.354 10.6439 127.589 10.3504 127.884 10.108C128.183 9.86174 128.522 9.67424 128.901 9.54545C129.284 9.41288 129.687 9.34659 130.112 9.34659C130.801 9.34659 131.415 9.50947 131.952 9.83523C132.49 10.1572 132.915 10.6004 133.225 11.1648C133.536 11.7292 133.691 12.375 133.691 13.1023C133.691 13.8902 133.507 14.5909 133.14 15.2045C132.776 15.8182 132.267 16.2992 131.612 16.6477C130.96 16.9924 130.202 17.1629 129.339 17.1591ZM129.327 15.2273C129.706 15.2273 130.045 15.1364 130.344 14.9545C130.644 14.7727 130.879 14.5265 131.049 14.2159C131.219 13.9053 131.305 13.5568 131.305 13.1705C131.305 12.7841 131.219 12.4375 131.049 12.1307C130.882 11.8239 130.651 11.5795 130.356 11.3977C130.06 11.2159 129.723 11.125 129.344 11.125C129.06 11.125 128.797 11.178 128.555 11.2841C128.316 11.3902 128.106 11.5379 127.924 11.7273C127.746 11.9167 127.606 12.1364 127.504 12.3864C127.401 12.6326 127.35 12.8958 127.35 13.1761C127.35 13.5511 127.435 13.8939 127.606 14.2045C127.78 14.5152 128.015 14.7633 128.31 14.9489C128.61 15.1345 128.949 15.2273 129.327 15.2273ZM139.901 17.1591C139.303 17.1553 138.725 17.0549 138.168 16.858C137.615 16.661 137.119 16.3409 136.68 15.8977C136.24 15.4545 135.892 14.8674 135.634 14.1364C135.38 13.4053 135.254 12.5076 135.254 11.4432C135.257 10.4659 135.369 9.5928 135.589 8.82386C135.812 8.05114 136.13 7.39583 136.543 6.85795C136.96 6.32008 137.458 5.91098 138.038 5.63068C138.617 5.34659 139.267 5.20455 139.987 5.20455C140.763 5.20455 141.449 5.35606 142.043 5.65909C142.638 5.95833 143.115 6.36553 143.475 6.88068C143.839 7.39583 144.058 7.97348 144.134 8.61364H141.708C141.613 8.20833 141.415 7.89015 141.112 7.65909C140.808 7.42803 140.433 7.3125 139.987 7.3125C139.229 7.3125 138.653 7.64205 138.259 8.30114C137.869 8.96023 137.67 9.85606 137.663 10.9886H137.742C137.916 10.6439 138.151 10.3504 138.447 10.108C138.746 9.86174 139.085 9.67424 139.464 9.54545C139.846 9.41288 140.25 9.34659 140.674 9.34659C141.363 9.34659 141.977 9.50947 142.515 9.83523C143.053 10.1572 143.477 10.6004 143.788 11.1648C144.098 11.7292 144.254 12.375 144.254 13.1023C144.254 13.8902 144.07 14.5909 143.702 15.2045C143.339 15.8182 142.829 16.2992 142.174 16.6477C141.522 16.9924 140.765 17.1629 139.901 17.1591ZM139.89 15.2273C140.269 15.2273 140.608 15.1364 140.907 14.9545C141.206 14.7727 141.441 14.5265 141.612 14.2159C141.782 13.9053 141.867 13.5568 141.867 13.1705C141.867 12.7841 141.782 12.4375 141.612 12.1307C141.445 11.8239 141.214 11.5795 140.918 11.3977C140.623 11.2159 140.286 11.125 139.907 11.125C139.623 11.125 139.36 11.178 139.117 11.2841C138.879 11.3902 138.668 11.5379 138.487 11.7273C138.308 11.9167 138.168 12.1364 138.066 12.3864C137.964 12.6326 137.913 12.8958 137.913 13.1761C137.913 13.5511 137.998 13.8939 138.168 14.2045C138.343 14.5152 138.577 14.7633 138.873 14.9489C139.172 15.1345 139.511 15.2273 139.89 15.2273ZM150.464 17.1591C149.865 17.1553 149.288 17.0549 148.731 16.858C148.178 16.661 147.682 16.3409 147.242 15.8977C146.803 15.4545 146.454 14.8674 146.197 14.1364C145.943 13.4053 145.816 12.5076 145.816 11.4432C145.82 10.4659 145.932 9.5928 146.151 8.82386C146.375 8.05114 146.693 7.39583 147.106 6.85795C147.522 6.32008 148.021 5.91098 148.6 5.63068C149.18 5.34659 149.829 5.20455 150.549 5.20455C151.326 5.20455 152.011 5.35606 152.606 5.65909C153.201 5.95833 153.678 6.36553 154.038 6.88068C154.401 7.39583 154.621 7.97348 154.697 8.61364H152.271C152.176 8.20833 151.977 7.89015 151.674 7.65909C151.371 7.42803 150.996 7.3125 150.549 7.3125C149.791 7.3125 149.216 7.64205 148.822 8.30114C148.432 8.96023 148.233 9.85606 148.225 10.9886H148.305C148.479 10.6439 148.714 10.3504 149.009 10.108C149.308 9.86174 149.647 9.67424 150.026 9.54545C150.409 9.41288 150.812 9.34659 151.237 9.34659C151.926 9.34659 152.54 9.50947 153.077 9.83523C153.615 10.1572 154.04 10.6004 154.35 11.1648C154.661 11.7292 154.816 12.375 154.816 13.1023C154.816 13.8902 154.632 14.5909 154.265 15.2045C153.901 15.8182 153.392 16.2992 152.737 16.6477C152.085 16.9924 151.327 17.1629 150.464 17.1591ZM150.452 15.2273C150.831 15.2273 151.17 15.1364 151.469 14.9545C151.769 14.7727 152.004 14.5265 152.174 14.2159C152.344 13.9053 152.43 13.5568 152.43 13.1705C152.43 12.7841 152.344 12.4375 152.174 12.1307C152.007 11.8239 151.776 11.5795 151.481 11.3977C151.185 11.2159 150.848 11.125 150.469 11.125C150.185 11.125 149.922 11.178 149.68 11.2841C149.441 11.3902 149.231 11.5379 149.049 11.7273C148.871 11.9167 148.731 12.1364 148.629 12.3864C148.526 12.6326 148.475 12.8958 148.475 13.1761C148.475 13.5511 148.56 13.8939 148.731 14.2045C148.905 14.5152 149.14 14.7633 149.435 14.9489C149.735 15.1345 150.074 15.2273 150.452 15.2273ZM160.81 17.1591C160.007 17.1591 159.291 17.0114 158.663 16.7159C158.038 16.4205 157.541 16.0133 157.174 15.4943C156.807 14.9754 156.615 14.3807 156.6 13.7102H158.987C159.013 14.161 159.202 14.5265 159.555 14.8068C159.907 15.0871 160.326 15.2273 160.81 15.2273C161.197 15.2273 161.538 15.142 161.833 14.9716C162.132 14.7973 162.365 14.5568 162.532 14.25C162.702 13.9394 162.788 13.5833 162.788 13.1818C162.788 12.7727 162.701 12.4129 162.526 12.1023C162.356 11.7917 162.119 11.5492 161.816 11.375C161.513 11.2008 161.166 11.1117 160.776 11.108C160.435 11.108 160.104 11.178 159.782 11.3182C159.464 11.4583 159.216 11.6496 159.038 11.892L156.85 11.5L157.401 5.36364H164.515V7.375H159.43L159.129 10.2898H159.197C159.401 10.0019 159.71 9.76326 160.123 9.57386C160.536 9.38447 160.998 9.28977 161.509 9.28977C162.21 9.28977 162.835 9.45455 163.384 9.78409C163.933 10.1136 164.367 10.5663 164.685 11.142C165.004 11.714 165.161 12.3731 165.157 13.1193C165.161 13.9034 164.979 14.6004 164.612 15.2102C164.248 15.8163 163.738 16.2936 163.083 16.642C162.432 16.9867 161.674 17.1591 160.81 17.1591ZM166.697 14.9545V13.017L171.555 5.36364H173.225V8.04545H172.237L169.174 12.892V12.983H176.077V14.9545H166.697ZM172.282 17V14.3636L172.327 13.5057V5.36364H174.634V17H172.282Z" fill="black"/>
<path d="M1.36435 37.3636H3.49503L7.19957 46.4091H7.33594L11.0405 37.3636H13.1712V49H11.5007V40.5795H11.3928L7.96094 48.983H6.57457L3.14276 40.5739H3.0348V49H1.36435V37.3636ZM18.1271 49.1932C17.5741 49.1932 17.0741 49.0909 16.6271 48.8864C16.1802 48.678 15.826 48.3769 15.5646 47.983C15.3071 47.589 15.1783 47.1061 15.1783 46.5341C15.1783 46.0417 15.273 45.6364 15.4624 45.3182C15.6518 45 15.9074 44.7481 16.2294 44.5625C16.5514 44.3769 16.9112 44.2367 17.3089 44.142C17.7067 44.0473 18.112 43.9754 18.5249 43.9261C19.0476 43.8655 19.4718 43.8163 19.7976 43.7784C20.1233 43.7367 20.3601 43.6705 20.5078 43.5795C20.6555 43.4886 20.7294 43.3409 20.7294 43.1364V43.0966C20.7294 42.6004 20.5893 42.2159 20.3089 41.9432C20.0324 41.6705 19.6196 41.5341 19.0703 41.5341C18.4983 41.5341 18.0476 41.661 17.718 41.9148C17.3923 42.1648 17.1669 42.4432 17.0419 42.75L15.4453 42.3864C15.6347 41.8561 15.9112 41.428 16.2749 41.1023C16.6423 40.7727 17.0646 40.5341 17.5419 40.3864C18.0192 40.2348 18.5211 40.1591 19.0476 40.1591C19.3961 40.1591 19.7654 40.2008 20.1555 40.2841C20.5495 40.3636 20.9169 40.5114 21.2578 40.7273C21.6025 40.9432 21.8847 41.2519 22.1044 41.6534C22.3241 42.0511 22.4339 42.5682 22.4339 43.2045V49H20.7749V47.8068H20.7067C20.5968 48.0265 20.4321 48.2424 20.2124 48.4545C19.9927 48.6667 19.7105 48.8428 19.3658 48.983C19.0211 49.1231 18.6082 49.1932 18.1271 49.1932ZM18.4964 47.8295C18.9661 47.8295 19.3677 47.7367 19.701 47.5511C20.0381 47.3655 20.2938 47.1231 20.468 46.8239C20.6461 46.5208 20.7351 46.197 20.7351 45.8523V44.7273C20.6745 44.7879 20.5571 44.8447 20.3828 44.8977C20.2124 44.947 20.0173 44.9905 19.7976 45.0284C19.5779 45.0625 19.3639 45.0947 19.1555 45.125C18.9472 45.1515 18.773 45.1742 18.6328 45.1932C18.3033 45.2348 18.0021 45.3049 17.7294 45.4034C17.4605 45.5019 17.2446 45.6439 17.0817 45.8295C16.9226 46.0114 16.843 46.2538 16.843 46.5568C16.843 46.9773 16.9983 47.2955 17.3089 47.5114C17.6196 47.7235 18.0154 47.8295 18.4964 47.8295ZM27.9638 49.1705C27.2592 49.1705 26.6304 48.9905 26.0774 48.6307C25.5282 48.267 25.0964 47.75 24.782 47.0795C24.4714 46.4053 24.3161 45.5966 24.3161 44.6534C24.3161 43.7102 24.4732 42.9034 24.7876 42.233C25.1058 41.5625 25.5414 41.0492 26.0945 40.6932C26.6475 40.3371 27.2744 40.1591 27.9751 40.1591C28.5168 40.1591 28.9524 40.25 29.282 40.4318C29.6153 40.6098 29.8729 40.8182 30.0547 41.0568C30.2403 41.2955 30.3842 41.5057 30.4865 41.6875H30.5888V37.3636H32.2876V49H30.6286V47.642H30.4865C30.3842 47.8277 30.2365 48.0398 30.0433 48.2784C29.8539 48.517 29.5926 48.7254 29.2592 48.9034C28.9259 49.0814 28.4941 49.1705 27.9638 49.1705ZM28.3388 47.7216C28.8274 47.7216 29.2403 47.5928 29.5774 47.3352C29.9183 47.0739 30.1759 46.7121 30.3501 46.25C30.5282 45.7879 30.6172 45.25 30.6172 44.6364C30.6172 44.0303 30.5301 43.5 30.3558 43.0455C30.1816 42.5909 29.9259 42.2367 29.5888 41.983C29.2517 41.7292 28.835 41.6023 28.3388 41.6023C27.8274 41.6023 27.4013 41.7348 27.0604 42C26.7195 42.2652 26.4619 42.6269 26.2876 43.0852C26.1172 43.5436 26.032 44.0606 26.032 44.6364C26.032 45.2197 26.1191 45.7443 26.2933 46.2102C26.4676 46.6761 26.7251 47.0455 27.0661 47.3182C27.4107 47.5871 27.835 47.7216 28.3388 47.7216ZM37.2521 49.1932C36.6991 49.1932 36.1991 49.0909 35.7521 48.8864C35.3052 48.678 34.951 48.3769 34.6896 47.983C34.4321 47.589 34.3033 47.1061 34.3033 46.5341C34.3033 46.0417 34.398 45.6364 34.5874 45.3182C34.7768 45 35.0324 44.7481 35.3544 44.5625C35.6764 44.3769 36.0362 44.2367 36.4339 44.142C36.8317 44.0473 37.237 43.9754 37.6499 43.9261C38.1726 43.8655 38.5968 43.8163 38.9226 43.7784C39.2483 43.7367 39.4851 43.6705 39.6328 43.5795C39.7805 43.4886 39.8544 43.3409 39.8544 43.1364V43.0966C39.8544 42.6004 39.7143 42.2159 39.4339 41.9432C39.1574 41.6705 38.7446 41.5341 38.1953 41.5341C37.6233 41.5341 37.1726 41.661 36.843 41.9148C36.5173 42.1648 36.2919 42.4432 36.1669 42.75L34.5703 42.3864C34.7597 41.8561 35.0362 41.428 35.3999 41.1023C35.7673 40.7727 36.1896 40.5341 36.6669 40.3864C37.1442 40.2348 37.6461 40.1591 38.1726 40.1591C38.5211 40.1591 38.8904 40.2008 39.2805 40.2841C39.6745 40.3636 40.0419 40.5114 40.3828 40.7273C40.7275 40.9432 41.0097 41.2519 41.2294 41.6534C41.4491 42.0511 41.5589 42.5682 41.5589 43.2045V49H39.8999V47.8068H39.8317C39.7218 48.0265 39.5571 48.2424 39.3374 48.4545C39.1177 48.6667 38.8355 48.8428 38.4908 48.983C38.1461 49.1231 37.7332 49.1932 37.2521 49.1932ZM37.6214 47.8295C38.0911 47.8295 38.4927 47.7367 38.826 47.5511C39.1631 47.3655 39.4188 47.1231 39.593 46.8239C39.7711 46.5208 39.8601 46.197 39.8601 45.8523V44.7273C39.7995 44.7879 39.6821 44.8447 39.5078 44.8977C39.3374 44.947 39.1423 44.9905 38.9226 45.0284C38.7029 45.0625 38.4889 45.0947 38.2805 45.125C38.0722 45.1515 37.898 45.1742 37.7578 45.1932C37.4283 45.2348 37.1271 45.3049 36.8544 45.4034C36.5855 45.5019 36.3696 45.6439 36.2067 45.8295C36.0476 46.0114 35.968 46.2538 35.968 46.5568C35.968 46.9773 36.1233 47.2955 36.4339 47.5114C36.7446 47.7235 37.1404 47.8295 37.6214 47.8295ZM43.8217 49V40.2727H45.4524V41.6932H45.5604C45.7422 41.2121 46.0395 40.8371 46.4524 40.5682C46.8653 40.2955 47.3596 40.1591 47.9354 40.1591C48.5187 40.1591 49.0073 40.2955 49.4013 40.5682C49.799 40.8409 50.0926 41.2159 50.282 41.6932H50.3729C50.5812 41.2273 50.9126 40.8561 51.3672 40.5795C51.8217 40.2992 52.3634 40.1591 52.9922 40.1591C53.7839 40.1591 54.4297 40.4072 54.9297 40.9034C55.4335 41.3996 55.6854 42.1477 55.6854 43.1477V49H53.9865V43.3068C53.9865 42.7159 53.8255 42.2879 53.5036 42.0227C53.1816 41.7576 52.7971 41.625 52.3501 41.625C51.7971 41.625 51.3672 41.7955 51.0604 42.1364C50.7536 42.4735 50.6001 42.9072 50.6001 43.4375V49H48.907V43.1989C48.907 42.7254 48.7592 42.3447 48.4638 42.0568C48.1683 41.7689 47.7839 41.625 47.3104 41.625C46.9884 41.625 46.6911 41.7102 46.4183 41.8807C46.1494 42.0473 45.9316 42.2803 45.7649 42.5795C45.602 42.8788 45.5206 43.2254 45.5206 43.6193V49H43.8217ZM61.7237 49.1761C60.8639 49.1761 60.1233 48.9924 59.5021 48.625C58.8847 48.2538 58.4074 47.733 58.0703 47.0625C57.737 46.3883 57.5703 45.5985 57.5703 44.6932C57.5703 43.7992 57.737 43.0114 58.0703 42.3295C58.4074 41.6477 58.8771 41.1155 59.4794 40.733C60.0855 40.3504 60.7938 40.1591 61.6044 40.1591C62.0968 40.1591 62.5741 40.2405 63.0362 40.4034C63.4983 40.5663 63.9131 40.822 64.2805 41.1705C64.648 41.5189 64.9377 41.9716 65.1499 42.5284C65.362 43.0814 65.468 43.7538 65.468 44.5455V45.1477H58.5305V43.875H63.8033C63.8033 43.428 63.7124 43.0322 63.5305 42.6875C63.3487 42.339 63.093 42.0644 62.7635 41.8636C62.4377 41.6629 62.0552 41.5625 61.6158 41.5625C61.1385 41.5625 60.7218 41.6799 60.3658 41.9148C60.0135 42.1458 59.7408 42.4489 59.5476 42.8239C59.3582 43.1951 59.2635 43.5985 59.2635 44.0341V45.0284C59.2635 45.6117 59.3658 46.108 59.5703 46.517C59.7786 46.9261 60.0684 47.2386 60.4396 47.4545C60.8108 47.6667 61.2446 47.7727 61.7408 47.7727C62.0627 47.7727 62.3563 47.7273 62.6214 47.6364C62.8866 47.5417 63.1158 47.4015 63.3089 47.2159C63.5021 47.0303 63.6499 46.8011 63.7521 46.5284L65.3601 46.8182C65.2313 47.2917 65.0002 47.7064 64.6669 48.0625C64.3374 48.4148 63.9226 48.6894 63.4226 48.8864C62.9264 49.0795 62.3601 49.1761 61.7237 49.1761ZM71.4567 49V37.3636H76.1158C76.9718 37.3636 77.6858 37.4905 78.2578 37.7443C78.8298 37.9981 79.2597 38.3504 79.5476 38.8011C79.8355 39.2481 79.9794 39.7633 79.9794 40.3466C79.9794 40.8011 79.8885 41.2008 79.7067 41.5455C79.5249 41.8864 79.2749 42.1667 78.9567 42.3864C78.6423 42.6023 78.2824 42.7557 77.8771 42.8466V42.9602C78.3203 42.9792 78.7351 43.1042 79.1214 43.3352C79.5116 43.5663 79.8279 43.8902 80.0703 44.3068C80.3127 44.7197 80.4339 45.2121 80.4339 45.7841C80.4339 46.4015 80.2805 46.9527 79.9737 47.4375C79.6707 47.9186 79.2218 48.2992 78.6271 48.5795C78.0324 48.8598 77.2995 49 76.4283 49H71.4567ZM73.9169 46.9886H75.9226C76.6082 46.9886 77.1082 46.858 77.4226 46.5966C77.737 46.3314 77.8942 45.9792 77.8942 45.5398C77.8942 45.2178 77.8165 44.9337 77.6612 44.6875C77.5059 44.4413 77.2843 44.2481 76.9964 44.108C76.7124 43.9678 76.3733 43.8977 75.9794 43.8977H73.9169V46.9886ZM73.9169 42.233H75.7408C76.0779 42.233 76.3771 42.1742 76.6385 42.0568C76.9036 41.9356 77.112 41.7652 77.2635 41.5455C77.4188 41.3258 77.4964 41.0625 77.4964 40.7557C77.4964 40.3352 77.3468 39.9962 77.0476 39.7386C76.7521 39.4811 76.3317 39.3523 75.7862 39.3523H73.9169V42.233ZM82.0348 49V37.3636H84.495V46.9716H89.4837V49H82.0348ZM93.4155 49H90.7791L94.7962 37.3636H97.9666L101.978 49H99.3416L96.4268 40.0227H96.3359L93.4155 49ZM93.2507 44.4261H99.478V46.3466H93.2507V44.4261ZM103.379 49V37.3636H108.038C108.894 37.3636 109.608 37.4905 110.18 37.7443C110.752 37.9981 111.182 38.3504 111.469 38.8011C111.757 39.2481 111.901 39.7633 111.901 40.3466C111.901 40.8011 111.81 41.2008 111.629 41.5455C111.447 41.8864 111.197 42.1667 110.879 42.3864C110.564 42.6023 110.204 42.7557 109.799 42.8466V42.9602C110.242 42.9792 110.657 43.1042 111.043 43.3352C111.433 43.5663 111.75 43.8902 111.992 44.3068C112.235 44.7197 112.356 45.2121 112.356 45.7841C112.356 46.4015 112.202 46.9527 111.896 47.4375C111.593 47.9186 111.144 48.2992 110.549 48.5795C109.954 48.8598 109.221 49 108.35 49H103.379ZM105.839 46.9886H107.844C108.53 46.9886 109.03 46.858 109.344 46.5966C109.659 46.3314 109.816 45.9792 109.816 45.5398C109.816 45.2178 109.738 44.9337 109.583 44.6875C109.428 44.4413 109.206 44.2481 108.918 44.108C108.634 43.9678 108.295 43.8977 107.901 43.8977H105.839V46.9886ZM105.839 42.233H107.663C108 42.233 108.299 42.1742 108.56 42.0568C108.826 41.9356 109.034 41.7652 109.185 41.5455C109.341 41.3258 109.418 41.0625 109.418 40.7557C109.418 40.3352 109.269 39.9962 108.969 39.7386C108.674 39.4811 108.254 39.3523 107.708 39.3523H105.839V42.233ZM113.957 49V37.3636H116.417V46.9716H121.406V49H113.957ZM125.337 49H122.701L126.718 37.3636H129.888L133.9 49H131.263L128.349 40.0227H128.258L125.337 49ZM125.173 44.4261H131.4V46.3466H125.173V44.4261ZM139.004 49V37.3636H143.663C144.519 37.3636 145.233 37.4905 145.805 37.7443C146.377 37.9981 146.807 38.3504 147.094 38.8011C147.382 39.2481 147.526 39.7633 147.526 40.3466C147.526 40.8011 147.435 41.2008 147.254 41.5455C147.072 41.8864 146.822 42.1667 146.504 42.3864C146.189 42.6023 145.829 42.7557 145.424 42.8466V42.9602C145.867 42.9792 146.282 43.1042 146.668 43.3352C147.058 43.5663 147.375 43.8902 147.617 44.3068C147.86 44.7197 147.981 45.2121 147.981 45.7841C147.981 46.4015 147.827 46.9527 147.521 47.4375C147.218 47.9186 146.769 48.2992 146.174 48.5795C145.579 48.8598 144.846 49 143.975 49H139.004ZM141.464 46.9886H143.469C144.155 46.9886 144.655 46.858 144.969 46.5966C145.284 46.3314 145.441 45.9792 145.441 45.5398C145.441 45.2178 145.363 44.9337 145.208 44.6875C145.053 44.4413 144.831 44.2481 144.543 44.108C144.259 43.9678 143.92 43.8977 143.526 43.8977H141.464V46.9886ZM141.464 42.233H143.288C143.625 42.233 143.924 42.1742 144.185 42.0568C144.451 41.9356 144.659 41.7652 144.81 41.5455C144.966 41.3258 145.043 41.0625 145.043 40.7557C145.043 40.3352 144.894 39.9962 144.594 39.7386C144.299 39.4811 143.879 39.3523 143.333 39.3523H141.464V42.233ZM149.582 49V37.3636H152.042V46.9716H157.031V49H149.582ZM160.962 49H158.326L162.343 37.3636H165.513L169.525 49H166.888L163.974 40.0227H163.883L160.962 49ZM160.798 44.4261H167.025V46.3466H160.798V44.4261Z" fill="black"/>
<path d="M11.0487 90.1477H9.27592C9.20774 89.7689 9.08085 89.4356 8.89524 89.1477C8.70964 88.8598 8.48236 88.6155 8.21342 88.4148C7.94448 88.214 7.64335 88.0625 7.31001 87.9602C6.98047 87.858 6.63009 87.8068 6.25888 87.8068C5.58842 87.8068 4.98804 87.9754 4.45774 88.3125C3.93123 88.6496 3.51456 89.1439 3.20774 89.7955C2.90471 90.447 2.7532 91.2424 2.7532 92.1818C2.7532 93.1288 2.90471 93.928 3.20774 94.5795C3.51456 95.2311 3.93312 95.7235 4.46342 96.0568C4.99373 96.3902 5.59032 96.5568 6.2532 96.5568C6.62062 96.5568 6.96911 96.5076 7.29865 96.4091C7.63198 96.3068 7.93312 96.1572 8.20206 95.9602C8.471 95.7633 8.69827 95.5227 8.88388 95.2386C9.07327 94.9508 9.20395 94.6212 9.27592 94.25L11.0487 94.2557C10.954 94.8277 10.7702 95.3542 10.4975 95.8352C10.2286 96.3125 9.88198 96.7254 9.45774 97.0739C9.03729 97.4186 8.55623 97.6856 8.01456 97.875C7.47289 98.0644 6.88198 98.1591 6.24183 98.1591C5.23426 98.1591 4.33653 97.9205 3.54865 97.4432C2.76077 96.9621 2.13956 96.2746 1.68501 95.3807C1.23426 94.4867 1.00888 93.4205 1.00888 92.1818C1.00888 90.9394 1.23615 89.8731 1.6907 88.983C2.14524 88.089 2.76645 87.4034 3.55433 86.9261C4.34221 86.4451 5.23804 86.2045 6.24183 86.2045C6.85926 86.2045 7.43501 86.2936 7.96911 86.4716C8.50698 86.6458 8.98994 86.9034 9.41797 87.2443C9.846 87.5814 10.2002 87.9943 10.4805 88.483C10.7608 88.9678 10.9502 89.5227 11.0487 90.1477ZM15.5529 98.1932C14.9999 98.1932 14.4999 98.0909 14.0529 97.8864C13.6059 97.678 13.2518 97.3769 12.9904 96.983C12.7328 96.589 12.604 96.1061 12.604 95.5341C12.604 95.0417 12.6987 94.6364 12.8881 94.3182C13.0775 94 13.3332 93.7481 13.6552 93.5625C13.9772 93.3769 14.337 93.2367 14.7347 93.142C15.1325 93.0473 15.5378 92.9754 15.9506 92.9261C16.4734 92.8655 16.8976 92.8163 17.2234 92.7784C17.5491 92.7367 17.7859 92.6705 17.9336 92.5795C18.0813 92.4886 18.1552 92.3409 18.1552 92.1364V92.0966C18.1552 91.6004 18.015 91.2159 17.7347 90.9432C17.4582 90.6705 17.0453 90.5341 16.4961 90.5341C15.9241 90.5341 15.4734 90.661 15.1438 90.9148C14.8181 91.1648 14.5927 91.4432 14.4677 91.75L12.8711 91.3864C13.0605 90.8561 13.337 90.428 13.7006 90.1023C14.0681 89.7727 14.4904 89.5341 14.9677 89.3864C15.445 89.2348 15.9469 89.1591 16.4734 89.1591C16.8219 89.1591 17.1912 89.2008 17.5813 89.2841C17.9753 89.3636 18.3427 89.5114 18.6836 89.7273C19.0283 89.9432 19.3105 90.2519 19.5302 90.6534C19.7499 91.0511 19.8597 91.5682 19.8597 92.2045V98H18.2006V96.8068H18.1325C18.0226 97.0265 17.8578 97.2424 17.6381 97.4545C17.4184 97.6667 17.1362 97.8428 16.7915 97.983C16.4469 98.1231 16.034 98.1932 15.5529 98.1932ZM15.9222 96.8295C16.3919 96.8295 16.7934 96.7367 17.1268 96.5511C17.4639 96.3655 17.7196 96.1231 17.8938 95.8239C18.0719 95.5208 18.1609 95.197 18.1609 94.8523V93.7273C18.1003 93.7879 17.9828 93.8447 17.8086 93.8977C17.6381 93.947 17.4431 93.9905 17.2234 94.0284C17.0037 94.0625 16.7897 94.0947 16.5813 94.125C16.373 94.1515 16.1987 94.1742 16.0586 94.1932C15.729 94.2348 15.4279 94.3049 15.1552 94.4034C14.8862 94.5019 14.6703 94.6439 14.5075 94.8295C14.3484 95.0114 14.2688 95.2538 14.2688 95.5568C14.2688 95.9773 14.4241 96.2955 14.7347 96.5114C15.0453 96.7235 15.4412 96.8295 15.9222 96.8295ZM28.6623 91.4034L27.1225 91.6761C27.0581 91.4792 26.9558 91.2917 26.8157 91.1136C26.6793 90.9356 26.4937 90.7898 26.2589 90.6761C26.024 90.5625 25.7305 90.5057 25.3782 90.5057C24.8971 90.5057 24.4956 90.6136 24.1737 90.8295C23.8517 91.0417 23.6907 91.3163 23.6907 91.6534C23.6907 91.9451 23.7987 92.1799 24.0146 92.358C24.2305 92.536 24.579 92.6818 25.06 92.7955L26.4464 93.1136C27.2494 93.2992 27.8479 93.5852 28.2418 93.9716C28.6358 94.358 28.8327 94.8598 28.8327 95.4773C28.8327 96 28.6812 96.4659 28.3782 96.875C28.079 97.2803 27.6604 97.5985 27.1225 97.8295C26.5884 98.0606 25.9691 98.1761 25.2646 98.1761C24.2873 98.1761 23.4899 97.9678 22.8725 97.5511C22.2551 97.1307 21.8763 96.5341 21.7362 95.7614L23.3782 95.5114C23.4805 95.9394 23.6907 96.2633 24.0089 96.483C24.3271 96.6989 24.7418 96.8068 25.2532 96.8068C25.81 96.8068 26.2551 96.6913 26.5884 96.4602C26.9218 96.2254 27.0884 95.9394 27.0884 95.6023C27.0884 95.3295 26.9862 95.1004 26.7816 94.9148C26.5808 94.7292 26.2721 94.589 25.8555 94.4943L24.3782 94.1705C23.5638 93.9848 22.9615 93.6894 22.5714 93.2841C22.185 92.8788 21.9918 92.3655 21.9918 91.7443C21.9918 91.2292 22.1358 90.7784 22.4237 90.392C22.7115 90.0057 23.1093 89.7045 23.6168 89.4886C24.1244 89.2689 24.7058 89.1591 25.3612 89.1591C26.3043 89.1591 27.0468 89.3636 27.5884 89.7727C28.1301 90.178 28.488 90.7216 28.6623 91.4034ZM30.7006 98V89.2727H32.3995V98H30.7006ZM31.5586 87.9261C31.2631 87.9261 31.0094 87.8277 30.7972 87.6307C30.5889 87.4299 30.4847 87.1913 30.4847 86.9148C30.4847 86.6345 30.5889 86.3958 30.7972 86.1989C31.0094 85.9981 31.2631 85.8977 31.5586 85.8977C31.854 85.8977 32.1059 85.9981 32.3143 86.1989C32.5264 86.3958 32.6325 86.6345 32.6325 86.9148C32.6325 87.1913 32.5264 87.4299 32.3143 87.6307C32.1059 87.8277 31.854 87.9261 31.5586 87.9261ZM38.4464 98.1761C37.5865 98.1761 36.846 97.9924 36.2248 97.625C35.6074 97.2538 35.1301 96.733 34.793 96.0625C34.4596 95.3883 34.293 94.5985 34.293 93.6932C34.293 92.7992 34.4596 92.0114 34.793 91.3295C35.1301 90.6477 35.5998 90.1155 36.2021 89.733C36.8081 89.3504 37.5165 89.1591 38.3271 89.1591C38.8195 89.1591 39.2968 89.2405 39.7589 89.4034C40.221 89.5663 40.6358 89.822 41.0032 90.1705C41.3706 90.5189 41.6604 90.9716 41.8725 91.5284C42.0846 92.0814 42.1907 92.7538 42.1907 93.5455V94.1477H35.2532V92.875H40.5259C40.5259 92.428 40.435 92.0322 40.2532 91.6875C40.0714 91.339 39.8157 91.0644 39.4862 90.8636C39.1604 90.6629 38.7778 90.5625 38.3384 90.5625C37.8612 90.5625 37.4445 90.6799 37.0884 90.9148C36.7362 91.1458 36.4634 91.4489 36.2702 91.8239C36.0808 92.1951 35.9862 92.5985 35.9862 93.0341V94.0284C35.9862 94.6117 36.0884 95.108 36.293 95.517C36.5013 95.9261 36.7911 96.2386 37.1623 96.4545C37.5335 96.6667 37.9672 96.7727 38.4634 96.7727C38.7854 96.7727 39.079 96.7273 39.3441 96.6364C39.6093 96.5417 39.8384 96.4015 40.0316 96.2159C40.2248 96.0303 40.3725 95.8011 40.4748 95.5284L42.0827 95.8182C41.954 96.2917 41.7229 96.7064 41.3896 97.0625C41.06 97.4148 40.6452 97.6894 40.1452 97.8864C39.649 98.0795 39.0827 98.1761 38.4464 98.1761ZM44.0756 98V89.2727H45.7177V90.6591H45.8086C45.9677 90.1894 46.248 89.8201 46.6495 89.5511C47.0548 89.2784 47.5131 89.142 48.0245 89.142C48.1306 89.142 48.2556 89.1458 48.3995 89.1534C48.5472 89.161 48.6628 89.1705 48.7461 89.1818V90.8068C48.6779 90.7879 48.5567 90.767 48.3825 90.7443C48.2082 90.7178 48.034 90.7045 47.8597 90.7045C47.4582 90.7045 47.1003 90.7898 46.7859 90.9602C46.4753 91.1269 46.229 91.3598 46.0472 91.6591C45.8654 91.9545 45.7745 92.2917 45.7745 92.6705V98H44.0756ZM56.1495 92.8182V98H54.4506V89.2727H56.0813V90.6932H56.1893C56.39 90.2311 56.7044 89.8598 57.1325 89.5795C57.5643 89.2992 58.1078 89.1591 58.7631 89.1591C59.3578 89.1591 59.8787 89.2841 60.3256 89.5341C60.7726 89.7803 61.1192 90.1477 61.3654 90.6364C61.6116 91.125 61.7347 91.7292 61.7347 92.4489V98H60.0359V92.6534C60.0359 92.0208 59.8711 91.5265 59.5415 91.1705C59.212 90.8106 58.7594 90.6307 58.1836 90.6307C57.7897 90.6307 57.4393 90.7159 57.1325 90.8864C56.8294 91.0568 56.5889 91.3068 56.4109 91.6364C56.2366 91.9621 56.1495 92.3561 56.1495 92.8182ZM69.5415 94.3807V89.2727H71.2461V98H69.5756V96.4886H69.4847C69.284 96.9545 68.962 97.3428 68.5188 97.6534C68.0794 97.9602 67.5321 98.1136 66.8768 98.1136C66.3162 98.1136 65.82 97.9905 65.3881 97.7443C64.9601 97.4943 64.623 97.125 64.3768 96.6364C64.1344 96.1477 64.0131 95.5436 64.0131 94.8239V89.2727H65.712V94.6193C65.712 95.214 65.8768 95.6875 66.2063 96.0398C66.5359 96.392 66.9639 96.5682 67.4904 96.5682C67.8086 96.5682 68.1249 96.4886 68.4393 96.3295C68.7575 96.1705 69.0207 95.9299 69.229 95.608C69.4412 95.286 69.5453 94.8769 69.5415 94.3807ZM73.5288 98V89.2727H75.1594V90.6932H75.2674C75.4492 90.2121 75.7466 89.8371 76.1594 89.5682C76.5723 89.2955 77.0666 89.1591 77.6424 89.1591C78.2257 89.1591 78.7144 89.2955 79.1083 89.5682C79.506 89.8409 79.7996 90.2159 79.989 90.6932H80.0799C80.2882 90.2273 80.6197 89.8561 81.0742 89.5795C81.5288 89.2992 82.0704 89.1591 82.6992 89.1591C83.4909 89.1591 84.1367 89.4072 84.6367 89.9034C85.1405 90.3996 85.3924 91.1477 85.3924 92.1477V98H83.6935V92.3068C83.6935 91.7159 83.5326 91.2879 83.2106 91.0227C82.8886 90.7576 82.5041 90.625 82.0572 90.625C81.5041 90.625 81.0742 90.7955 80.7674 91.1364C80.4606 91.4735 80.3072 91.9072 80.3072 92.4375V98H78.614V92.1989C78.614 91.7254 78.4663 91.3447 78.1708 91.0568C77.8754 90.7689 77.4909 90.625 77.0174 90.625C76.6954 90.625 76.3981 90.7102 76.1254 90.8807C75.8564 91.0473 75.6386 91.2803 75.4719 91.5795C75.3091 91.8788 75.2276 92.2254 75.2276 92.6193V98H73.5288ZM91.4308 98.1761C90.5709 98.1761 89.8304 97.9924 89.2092 97.625C88.5917 97.2538 88.1145 96.733 87.7773 96.0625C87.444 95.3883 87.2773 94.5985 87.2773 93.6932C87.2773 92.7992 87.444 92.0114 87.7773 91.3295C88.1145 90.6477 88.5842 90.1155 89.1864 89.733C89.7925 89.3504 90.5008 89.1591 91.3114 89.1591C91.8039 89.1591 92.2811 89.2405 92.7433 89.4034C93.2054 89.5663 93.6201 89.822 93.9876 90.1705C94.355 90.5189 94.6448 90.9716 94.8569 91.5284C95.069 92.0814 95.1751 92.7538 95.1751 93.5455V94.1477H88.2376V92.875H93.5103C93.5103 92.428 93.4194 92.0322 93.2376 91.6875C93.0558 91.339 92.8001 91.0644 92.4705 90.8636C92.1448 90.6629 91.7622 90.5625 91.3228 90.5625C90.8455 90.5625 90.4289 90.6799 90.0728 90.9148C89.7205 91.1458 89.4478 91.4489 89.2546 91.8239C89.0652 92.1951 88.9705 92.5985 88.9705 93.0341V94.0284C88.9705 94.6117 89.0728 95.108 89.2773 95.517C89.4857 95.9261 89.7754 96.2386 90.1467 96.4545C90.5179 96.6667 90.9516 96.7727 91.4478 96.7727C91.7698 96.7727 92.0633 96.7273 92.3285 96.6364C92.5936 96.5417 92.8228 96.4015 93.016 96.2159C93.2092 96.0303 93.3569 95.8011 93.4592 95.5284L95.0671 95.8182C94.9383 96.2917 94.7073 96.7064 94.3739 97.0625C94.0444 97.4148 93.6296 97.6894 93.1296 97.8864C92.6334 98.0795 92.0671 98.1761 91.4308 98.1761ZM90.5444 88.108L91.8739 85.4886H93.6637L91.9023 88.108H90.5444ZM97.06 98V89.2727H98.7021V90.6591H98.793C98.9521 90.1894 99.2324 89.8201 99.6339 89.5511C100.039 89.2784 100.498 89.142 101.009 89.142C101.115 89.142 101.24 89.1458 101.384 89.1534C101.532 89.161 101.647 89.1705 101.73 89.1818V90.8068C101.662 90.7879 101.541 90.767 101.367 90.7443C101.193 90.7178 101.018 90.7045 100.844 90.7045C100.443 90.7045 100.085 90.7898 99.7702 90.9602C99.4596 91.1269 99.2134 91.3598 99.0316 91.6591C98.8498 91.9545 98.7589 92.2917 98.7589 92.6705V98H97.06ZM106.564 98.1761C105.746 98.1761 105.032 97.9886 104.422 97.6136C103.812 97.2386 103.339 96.714 103.002 96.0398C102.665 95.3655 102.496 94.5777 102.496 93.6761C102.496 92.7708 102.665 91.9792 103.002 91.3011C103.339 90.6231 103.812 90.0966 104.422 89.7216C105.032 89.3466 105.746 89.1591 106.564 89.1591C107.382 89.1591 108.096 89.3466 108.706 89.7216C109.316 90.0966 109.79 90.6231 110.127 91.3011C110.464 91.9792 110.632 92.7708 110.632 93.6761C110.632 94.5777 110.464 95.3655 110.127 96.0398C109.79 96.714 109.316 97.2386 108.706 97.6136C108.096 97.9886 107.382 98.1761 106.564 98.1761ZM106.57 96.75C107.1 96.75 107.54 96.6098 107.888 96.3295C108.237 96.0492 108.494 95.6761 108.661 95.2102C108.831 94.7443 108.917 94.2311 108.917 93.6705C108.917 93.1136 108.831 92.6023 108.661 92.1364C108.494 91.6667 108.237 91.2898 107.888 91.0057C107.54 90.7216 107.1 90.5795 106.57 90.5795C106.036 90.5795 105.593 90.7216 105.24 91.0057C104.892 91.2898 104.632 91.6667 104.462 92.1364C104.295 92.6023 104.212 93.1136 104.212 93.6705C104.212 94.2311 104.295 94.7443 104.462 95.2102C104.632 95.6761 104.892 96.0492 105.24 96.3295C105.593 96.6098 106.036 96.75 106.57 96.75ZM122.931 98.1591C122.128 98.1591 121.413 98.0114 120.784 97.7159C120.159 97.4205 119.663 97.0133 119.295 96.4943C118.928 95.9754 118.736 95.3807 118.721 94.7102H121.108C121.134 95.161 121.324 95.5265 121.676 95.8068C122.028 96.0871 122.447 96.2273 122.931 96.2273C123.318 96.2273 123.659 96.142 123.954 95.9716C124.253 95.7973 124.486 95.5568 124.653 95.25C124.824 94.9394 124.909 94.5833 124.909 94.1818C124.909 93.7727 124.822 93.4129 124.647 93.1023C124.477 92.7917 124.24 92.5492 123.937 92.375C123.634 92.2008 123.288 92.1117 122.897 92.108C122.556 92.108 122.225 92.178 121.903 92.3182C121.585 92.4583 121.337 92.6496 121.159 92.892L118.971 92.5L119.522 86.3636H126.636V88.375H121.551L121.25 91.2898H121.318C121.522 91.0019 121.831 90.7633 122.244 90.5739C122.657 90.3845 123.119 90.2898 123.63 90.2898C124.331 90.2898 124.956 90.4545 125.505 90.7841C126.055 91.1136 126.488 91.5663 126.806 92.142C127.125 92.714 127.282 93.3731 127.278 94.1193C127.282 94.9034 127.1 95.6004 126.733 96.2102C126.369 96.8163 125.859 97.2936 125.204 97.642C124.553 97.9867 123.795 98.1591 122.931 98.1591ZM128.818 95.9545V94.017L133.676 86.3636H135.346V89.0455H134.358L131.295 93.892V93.983H138.199V95.9545H128.818ZM134.403 98V95.3636L134.449 94.5057V86.3636H136.755V98H134.403Z" fill="black"/>
</svg>
