<svg width="160" height="38" viewBox="0 0 160 38" fill="none" xmlns="http://www.w3.org/2000/svg">
<rect width="160" height="38" rx="19" fill="black"/>
<path d="M25.1985 24V13.0909H29.087C29.9322 13.0909 30.6335 13.2365 31.1911 13.5277C31.7521 13.8189 32.1712 14.2219 32.4482 14.7369C32.7251 15.2482 32.8636 15.8395 32.8636 16.5107C32.8636 17.1783 32.7234 17.766 32.4428 18.2738C32.1658 18.7781 31.7468 19.1705 31.1857 19.451C30.6282 19.7315 29.9268 19.8718 29.0817 19.8718H26.136V18.4549H28.9325C29.4652 18.4549 29.8984 18.3786 30.2322 18.2259C30.5696 18.0732 30.8164 17.8512 30.9727 17.56C31.1289 17.2688 31.207 16.919 31.207 16.5107C31.207 16.0987 31.1271 15.7418 30.9673 15.44C30.8111 15.1381 30.5643 14.9073 30.2269 14.7475C29.8931 14.5842 29.4545 14.5025 28.9112 14.5025H26.8445V24H25.1985ZM30.5838 19.0781L33.2791 24H31.4041L28.7621 19.0781H30.5838ZM38.1624 24.1651C37.3563 24.1651 36.662 23.9929 36.0796 23.6484C35.5008 23.3004 35.0534 22.8121 34.7373 22.1836C34.4248 21.5515 34.2686 20.8111 34.2686 19.9624C34.2686 19.1243 34.4248 18.3857 34.7373 17.7464C35.0534 17.1072 35.4937 16.6083 36.0583 16.2496C36.6265 15.891 37.2906 15.7116 38.0505 15.7116C38.5122 15.7116 38.9596 15.788 39.3928 15.9407C39.8261 16.0934 40.2149 16.3331 40.5594 16.6598C40.9039 16.9865 41.1755 17.4109 41.3744 17.9329C41.5732 18.4513 41.6727 19.0817 41.6727 19.8239V20.3885H35.1688V19.1953H40.1119C40.1119 18.7763 40.0267 18.4052 39.8563 18.082C39.6858 17.7553 39.4461 17.4979 39.1372 17.3097C38.8318 17.1214 38.4731 17.0273 38.0612 17.0273C37.6137 17.0273 37.2231 17.1374 36.8893 17.3576C36.559 17.5742 36.3034 17.8583 36.1222 18.2099C35.9447 18.5579 35.8559 18.9361 35.8559 19.3445V20.2766C35.8559 20.8235 35.9518 21.2887 36.1436 21.6722C36.3389 22.0558 36.6105 22.3487 36.9585 22.5511C37.3066 22.75 37.7132 22.8494 38.1784 22.8494C38.4802 22.8494 38.7554 22.8068 39.004 22.7216C39.2526 22.6328 39.4674 22.5014 39.6485 22.3274C39.8296 22.1534 39.9681 21.9386 40.064 21.6829L41.5715 21.9545C41.4507 22.3984 41.2341 22.7873 40.9216 23.1211C40.6127 23.4513 40.2238 23.7088 39.7551 23.8935C39.2899 24.0746 38.759 24.1651 38.1624 24.1651ZM47.2591 15.8182V17.0966H42.79V15.8182H47.2591ZM43.9885 13.858H45.5811V21.5977C45.5811 21.9066 45.6273 22.1392 45.7196 22.2955C45.812 22.4482 45.9309 22.5529 46.0765 22.6097C46.2257 22.663 46.3873 22.6896 46.5613 22.6896C46.6891 22.6896 46.801 22.6808 46.8968 22.663C46.9927 22.6452 47.0673 22.631 47.1206 22.6204L47.4082 23.9361C47.3159 23.9716 47.1845 24.0071 47.014 24.0426C46.8436 24.0817 46.6305 24.103 46.3748 24.1065C45.9558 24.1136 45.5652 24.0391 45.2029 23.8828C44.8407 23.7266 44.5478 23.4851 44.324 23.1584C44.1003 22.8317 43.9885 22.4215 43.9885 21.9279V13.858ZM49.0209 24V15.8182H50.5603V17.1179H50.6455C50.7947 16.6776 51.0574 16.3313 51.4339 16.0792C51.8138 15.8235 52.2435 15.6957 52.7229 15.6957C52.8224 15.6957 52.9395 15.6992 53.0745 15.7063C53.213 15.7134 53.3213 15.7223 53.3994 15.733V17.2564C53.3355 17.2386 53.2219 17.2191 53.0585 17.1978C52.8952 17.1729 52.7318 17.1605 52.5684 17.1605C52.192 17.1605 51.8564 17.2404 51.5617 17.4002C51.2705 17.5565 51.0397 17.7749 50.8692 18.0554C50.6988 18.3324 50.6135 18.6484 50.6135 19.0036V24H49.0209ZM57.0855 24.1811C56.567 24.1811 56.0983 24.0852 55.6792 23.8935C55.2602 23.6982 54.9282 23.4158 54.6831 23.0465C54.4417 22.6772 54.3209 22.2244 54.3209 21.6882C54.3209 21.2266 54.4097 20.8466 54.5873 20.5483C54.7648 20.25 55.0045 20.0138 55.3064 19.8398C55.6082 19.6658 55.9456 19.5344 56.3184 19.4457C56.6913 19.3569 57.0713 19.2894 57.4584 19.2433C57.9484 19.1864 58.3461 19.1403 58.6515 19.1048C58.9569 19.0657 59.1789 19.0036 59.3174 18.9183C59.4559 18.8331 59.5251 18.6946 59.5251 18.5028V18.4656C59.5251 18.0004 59.3937 17.6399 59.1309 17.3842C58.8717 17.1286 58.4846 17.0007 57.9697 17.0007C57.4335 17.0007 57.0109 17.1197 56.702 17.3576C56.3966 17.592 56.1853 17.853 56.0681 18.1406L54.5713 17.7997C54.7488 17.3026 55.0081 16.9013 55.349 16.5959C55.6934 16.2869 56.0894 16.0632 56.5368 15.9247C56.9843 15.7827 57.4548 15.7116 57.9484 15.7116C58.2751 15.7116 58.6214 15.7507 58.9871 15.8288C59.3564 15.9034 59.7009 16.0419 60.0205 16.2443C60.3437 16.4467 60.6082 16.7362 60.8142 17.1126C61.0202 17.4854 61.1231 17.9702 61.1231 18.5668V24H59.5677V22.8814H59.5038C59.4008 23.0874 59.2464 23.2898 59.0404 23.4886C58.8344 23.6875 58.5699 23.8526 58.2467 23.984C57.9236 24.1154 57.5365 24.1811 57.0855 24.1811ZM57.4317 22.9027C57.8721 22.9027 58.2485 22.8157 58.561 22.6417C58.877 22.4677 59.1167 22.2404 59.2801 21.9599C59.447 21.6758 59.5305 21.3722 59.5305 21.049V19.9943C59.4736 20.0511 59.3635 20.1044 59.2002 20.1541C59.0404 20.2003 58.8575 20.2411 58.6515 20.2766C58.4456 20.3086 58.2449 20.3388 58.0496 20.3672C57.8543 20.392 57.691 20.4134 57.5596 20.4311C57.2506 20.4702 56.9683 20.5359 56.7126 20.6282C56.4605 20.7205 56.2581 20.8537 56.1054 21.0277C55.9562 21.1982 55.8817 21.4254 55.8817 21.7095C55.8817 22.1037 56.0273 22.402 56.3184 22.6044C56.6096 22.8033 56.9807 22.9027 57.4317 22.9027ZM63.2445 24V15.8182H64.8372V24H63.2445ZM64.0488 14.5558C63.7718 14.5558 63.5339 14.4634 63.335 14.2788C63.1397 14.0906 63.0421 13.8668 63.0421 13.6076C63.0421 13.3448 63.1397 13.1211 63.335 12.9364C63.5339 12.7482 63.7718 12.6541 64.0488 12.6541C64.3258 12.6541 64.562 12.7482 64.7573 12.9364C64.9561 13.1211 65.0556 13.3448 65.0556 13.6076C65.0556 13.8668 64.9561 14.0906 64.7573 14.2788C64.562 14.4634 64.3258 14.5558 64.0488 14.5558ZM70.7991 15.8182V17.0966H66.33V15.8182H70.7991ZM67.5285 13.858H69.1212V21.5977C69.1212 21.9066 69.1673 22.1392 69.2597 22.2955C69.352 22.4482 69.471 22.5529 69.6166 22.6097C69.7657 22.663 69.9273 22.6896 70.1013 22.6896C70.2291 22.6896 70.341 22.6808 70.4369 22.663C70.5328 22.6452 70.6073 22.631 70.6606 22.6204L70.9482 23.9361C70.8559 23.9716 70.7245 24.0071 70.5541 24.0426C70.3836 24.0817 70.1705 24.103 69.9149 24.1065C69.4958 24.1136 69.1052 24.0391 68.743 23.8828C68.3808 23.7266 68.0878 23.4851 67.8641 23.1584C67.6404 22.8317 67.5285 22.4215 67.5285 21.9279V13.858ZM80.0569 24.1651C79.2508 24.1651 78.5566 23.9929 77.9742 23.6484C77.3953 23.3004 76.9479 22.8121 76.6318 22.1836C76.3193 21.5515 76.1631 20.8111 76.1631 19.9624C76.1631 19.1243 76.3193 18.3857 76.6318 17.7464C76.9479 17.1072 77.3882 16.6083 77.9529 16.2496C78.521 15.891 79.1851 15.7116 79.945 15.7116C80.4067 15.7116 80.8541 15.788 81.2874 15.9407C81.7206 16.0934 82.1095 16.3331 82.4539 16.6598C82.7984 16.9865 83.07 17.4109 83.2689 17.9329C83.4678 18.4513 83.5672 19.0817 83.5672 19.8239V20.3885H77.0633V19.1953H82.0065C82.0065 18.7763 81.9213 18.4052 81.7508 18.082C81.5803 17.7553 81.3406 17.4979 81.0317 17.3097C80.7263 17.1214 80.3676 17.0273 79.9557 17.0273C79.5083 17.0273 79.1176 17.1374 78.7838 17.3576C78.4536 17.5742 78.1979 17.8583 78.0168 18.2099C77.8392 18.5579 77.7504 18.9361 77.7504 19.3445V20.2766C77.7504 20.8235 77.8463 21.2887 78.0381 21.6722C78.2334 22.0558 78.5051 22.3487 78.8531 22.5511C79.2011 22.75 79.6077 22.8494 80.0729 22.8494C80.3747 22.8494 80.6499 22.8068 80.8985 22.7216C81.1471 22.6328 81.3619 22.5014 81.5431 22.3274C81.7242 22.1534 81.8627 21.9386 81.9585 21.6829L83.466 21.9545C83.3453 22.3984 83.1286 22.7873 82.8161 23.1211C82.5072 23.4513 82.1183 23.7088 81.6496 23.8935C81.1844 24.0746 80.6535 24.1651 80.0569 24.1651ZM89.2282 15.8182V17.0966H84.6046V15.8182H89.2282ZM85.8723 24V14.87C85.8723 14.3587 85.9842 13.9343 86.2079 13.5969C86.4316 13.256 86.7282 13.0021 87.0975 12.8352C87.4668 12.6648 87.8681 12.5795 88.3013 12.5795C88.6209 12.5795 88.8944 12.6062 89.1216 12.6594C89.3489 12.7092 89.5176 12.7553 89.6277 12.7979L89.2548 14.087C89.1802 14.0657 89.0843 14.0408 88.9672 14.0124C88.85 13.9805 88.7079 13.9645 88.541 13.9645C88.1539 13.9645 87.877 14.0604 87.71 14.2521C87.5467 14.4439 87.465 14.7209 87.465 15.0831V24H85.8723ZM94.7653 15.8182V17.0966H90.1417V15.8182H94.7653ZM91.4094 24V14.87C91.4094 14.3587 91.5213 13.9343 91.745 13.5969C91.9688 13.256 92.2653 13.0021 92.6346 12.8352C93.0039 12.6648 93.4052 12.5795 93.8384 12.5795C94.158 12.5795 94.4315 12.6062 94.6587 12.6594C94.886 12.7092 95.0547 12.7553 95.1648 12.7979L94.7919 14.087C94.7173 14.0657 94.6214 14.0408 94.5043 14.0124C94.3871 13.9805 94.245 13.9645 94.0781 13.9645C93.6911 13.9645 93.4141 14.0604 93.2472 14.2521C93.0838 14.4439 93.0021 14.7209 93.0021 15.0831V24H91.4094ZM99.6126 24.1651C98.8065 24.1651 98.1122 23.9929 97.5298 23.6484C96.951 23.3004 96.5036 22.8121 96.1875 22.1836C95.875 21.5515 95.7188 20.8111 95.7188 19.9624C95.7188 19.1243 95.875 18.3857 96.1875 17.7464C96.5036 17.1072 96.9439 16.6083 97.5085 16.2496C98.0767 15.891 98.7408 15.7116 99.5007 15.7116C99.9624 15.7116 100.41 15.788 100.843 15.9407C101.276 16.0934 101.665 16.3331 102.01 16.6598C102.354 16.9865 102.626 17.4109 102.825 17.9329C103.023 18.4513 103.123 19.0817 103.123 19.8239V20.3885H96.619V19.1953H101.562C101.562 18.7763 101.477 18.4052 101.306 18.082C101.136 17.7553 100.896 17.4979 100.587 17.3097C100.282 17.1214 99.9233 17.0273 99.5114 17.0273C99.0639 17.0273 98.6733 17.1374 98.3395 17.3576C98.0092 17.5742 97.7536 17.8583 97.5724 18.2099C97.3949 18.5579 97.3061 18.9361 97.3061 19.3445V20.2766C97.3061 20.8235 97.402 21.2887 97.5938 21.6722C97.7891 22.0558 98.0607 22.3487 98.4087 22.5511C98.7567 22.75 99.1634 22.8494 99.6286 22.8494C99.9304 22.8494 100.206 22.8068 100.454 22.7216C100.703 22.6328 100.918 22.5014 101.099 22.3274C101.28 22.1534 101.418 21.9386 101.514 21.6829L103.022 21.9545C102.901 22.3984 102.684 22.7873 102.372 23.1211C102.063 23.4513 101.674 23.7088 101.205 23.8935C100.74 24.0746 100.209 24.1651 99.6126 24.1651ZM108.336 24.1651C107.544 24.1651 106.863 23.9858 106.291 23.6271C105.723 23.2649 105.286 22.766 104.981 22.1303C104.675 21.4947 104.522 20.7667 104.522 19.9464C104.522 19.1154 104.679 18.3821 104.991 17.7464C105.304 17.1072 105.744 16.6083 106.312 16.2496C106.88 15.891 107.55 15.7116 108.32 15.7116C108.942 15.7116 109.496 15.8271 109.982 16.0579C110.469 16.2852 110.861 16.6048 111.16 17.0167C111.461 17.4286 111.641 17.9098 111.698 18.4602H110.147C110.062 18.0767 109.867 17.7464 109.562 17.4695C109.26 17.1925 108.855 17.054 108.347 17.054C107.903 17.054 107.514 17.1712 107.18 17.4055C106.85 17.6364 106.593 17.9666 106.408 18.3963C106.223 18.8224 106.131 19.3267 106.131 19.9091C106.131 20.5057 106.222 21.0206 106.403 21.4538C106.584 21.8871 106.84 22.2227 107.17 22.4606C107.504 22.6985 107.896 22.8175 108.347 22.8175C108.649 22.8175 108.922 22.7624 109.167 22.6523C109.416 22.5387 109.624 22.3771 109.791 22.1676C109.961 21.9581 110.08 21.706 110.147 21.4112H111.698C111.641 21.9403 111.468 22.4126 111.181 22.8281C110.893 23.2436 110.508 23.5703 110.025 23.8082C109.546 24.0462 108.983 24.1651 108.336 24.1651ZM117.22 15.8182V17.0966H112.751V15.8182H117.22ZM113.949 13.858H115.542V21.5977C115.542 21.9066 115.588 22.1392 115.681 22.2955C115.773 22.4482 115.892 22.5529 116.037 22.6097C116.187 22.663 116.348 22.6896 116.522 22.6896C116.65 22.6896 116.762 22.6808 116.858 22.663C116.954 22.6452 117.028 22.631 117.081 22.6204L117.369 23.9361C117.277 23.9716 117.145 24.0071 116.975 24.0426C116.805 24.0817 116.591 24.103 116.336 24.1065C115.917 24.1136 115.526 24.0391 115.164 23.8828C114.802 23.7266 114.509 23.4851 114.285 23.1584C114.061 22.8317 113.949 22.4215 113.949 21.9279V13.858ZM124.165 20.6069V15.8182H125.763V24H124.197V22.5831H124.111C123.923 23.0199 123.621 23.3839 123.206 23.6751C122.794 23.9627 122.281 24.1065 121.666 24.1065C121.141 24.1065 120.676 23.9911 120.271 23.7603C119.87 23.5259 119.554 23.1797 119.323 22.7216C119.095 22.2635 118.982 21.6971 118.982 21.0224V15.8182H120.574V20.8306C120.574 21.3881 120.729 21.832 121.038 22.1623C121.347 22.4925 121.748 22.6577 122.242 22.6577C122.54 22.6577 122.837 22.5831 123.131 22.4339C123.43 22.2848 123.676 22.0593 123.872 21.7575C124.071 21.4556 124.168 21.0721 124.165 20.6069ZM131.429 24.1651C130.623 24.1651 129.929 23.9929 129.346 23.6484C128.767 23.3004 128.32 22.8121 128.004 22.1836C127.691 21.5515 127.535 20.8111 127.535 19.9624C127.535 19.1243 127.691 18.3857 128.004 17.7464C128.32 17.1072 128.76 16.6083 129.325 16.2496C129.893 15.891 130.557 15.7116 131.317 15.7116C131.779 15.7116 132.226 15.788 132.659 15.9407C133.093 16.0934 133.482 16.3331 133.826 16.6598C134.17 16.9865 134.442 17.4109 134.641 17.9329C134.84 18.4513 134.939 19.0817 134.939 19.8239V20.3885H128.435V19.1953H133.379C133.379 18.7763 133.293 18.4052 133.123 18.082C132.952 17.7553 132.713 17.4979 132.404 17.3097C132.098 17.1214 131.74 17.0273 131.328 17.0273C130.88 17.0273 130.49 17.1374 130.156 17.3576C129.826 17.5742 129.57 17.8583 129.389 18.2099C129.211 18.5579 129.123 18.9361 129.123 19.3445V20.2766C129.123 20.8235 129.218 21.2887 129.41 21.6722C129.605 22.0558 129.877 22.3487 130.225 22.5511C130.573 22.75 130.98 22.8494 131.445 22.8494C131.747 22.8494 132.022 22.8068 132.271 22.7216C132.519 22.6328 132.734 22.5014 132.915 22.3274C133.096 22.1534 133.235 21.9386 133.331 21.6829L134.838 21.9545C134.717 22.3984 134.501 22.7873 134.188 23.1211C133.879 23.4513 133.49 23.7088 133.022 23.8935C132.556 24.0746 132.026 24.1651 131.429 24.1651ZM130.598 14.7262L131.844 12.2706H133.522L131.871 14.7262H130.598Z" fill="white"/>
</svg>
