<svg width="241" height="334" viewBox="0 0 241 334" fill="none" xmlns="http://www.w3.org/2000/svg">
<path d="M1.62149 17V4.63636H6.02845C6.98631 4.63636 7.78118 4.80137 8.41304 5.13139C9.04893 5.46141 9.52384 5.91821 9.83776 6.50178C10.1517 7.08132 10.3086 7.75142 10.3086 8.51207C10.3086 9.2687 10.1497 9.93478 9.83172 10.5103C9.5178 11.0818 9.04289 11.5265 8.407 11.8445C7.77514 12.1624 6.98028 12.3214 6.02242 12.3214H2.68399V10.7156H5.85338C6.45708 10.7156 6.94808 10.629 7.32639 10.456C7.70873 10.2829 7.98844 10.0314 8.16553 9.70135C8.34261 9.37133 8.43115 8.97491 8.43115 8.51207C8.43115 8.04522 8.3406 7.64074 8.15949 7.29865C7.98241 6.95656 7.7027 6.69496 7.32036 6.51385C6.94204 6.32872 6.445 6.23615 5.82923 6.23615H3.48691V17H1.62149ZM7.72483 11.4219L10.7795 17H8.65452L5.6602 11.4219H7.72483ZM16.3139 17.1871C15.4003 17.1871 14.6135 16.992 13.9534 16.6016C13.2974 16.2071 12.7903 15.6538 12.4321 14.9414C12.078 14.225 11.9009 13.3859 11.9009 12.424C11.9009 11.4742 12.078 10.6371 12.4321 9.91264C12.7903 9.18821 13.2894 8.62275 13.9293 8.21626C14.5732 7.80978 15.3258 7.60653 16.1871 7.60653C16.7103 7.60653 17.2174 7.69306 17.7084 7.86612C18.1994 8.03918 18.6401 8.31084 19.0305 8.68111C19.4209 9.05137 19.7288 9.53232 19.9541 10.1239C20.1795 10.7115 20.2922 11.4259 20.2922 12.267V12.907H12.9211V11.5547H18.5234C18.5234 11.0798 18.4268 10.6592 18.2336 10.293C18.0404 9.9227 17.7688 9.63092 17.4186 9.41761C17.0725 9.20431 16.666 9.09766 16.1992 9.09766C15.6921 9.09766 15.2494 9.22242 14.871 9.47195C14.4968 9.71745 14.207 10.0394 14.0017 10.4379C13.8005 10.8323 13.6999 11.2609 13.6999 11.7237V12.7802C13.6999 13.4 13.8085 13.9272 14.0259 14.3619C14.2472 14.7965 14.5551 15.1286 14.9495 15.358C15.3439 15.5833 15.8048 15.696 16.332 15.696C16.6741 15.696 16.986 15.6477 17.2677 15.5511C17.5494 15.4505 17.7929 15.3016 17.9982 15.1044C18.2034 14.9072 18.3604 14.6637 18.4691 14.3739L20.1775 14.6818C20.0407 15.1849 19.7952 15.6256 19.441 16.0039C19.0909 16.3782 18.6502 16.67 18.1189 16.8793C17.5917 17.0845 16.99 17.1871 16.3139 17.1871ZM15.3721 6.4897L16.7848 3.70668H18.6864L16.8149 6.4897H15.3721ZM26.2009 17.1871C25.3034 17.1871 24.5306 16.9839 23.8827 16.5774C23.2387 16.1669 22.7437 15.6014 22.3976 14.881C22.0515 14.1606 21.8784 13.3356 21.8784 12.4059C21.8784 11.4641 22.0555 10.633 22.4097 9.91264C22.7638 9.18821 23.2629 8.62275 23.9068 8.21626C24.5508 7.80978 25.3094 7.60653 26.1828 7.60653C26.8871 7.60653 27.5149 7.73733 28.0663 7.99893C28.6176 8.25651 29.0624 8.61873 29.4004 9.08558C29.7425 9.55244 29.9458 10.0978 30.0102 10.7216H28.2534C28.1568 10.2869 27.9355 9.91264 27.5894 9.59872C27.2473 9.2848 26.7885 9.12784 26.2129 9.12784C25.7099 9.12784 25.2692 9.26065 24.8908 9.52628C24.5166 9.78788 24.2248 10.1622 24.0155 10.6491C23.8062 11.1321 23.7016 11.7036 23.7016 12.3636C23.7016 13.0398 23.8042 13.6233 24.0095 14.1143C24.2147 14.6054 24.5045 14.9857 24.8788 15.2553C25.2571 15.525 25.7018 15.6598 26.2129 15.6598C26.555 15.6598 26.8649 15.5974 27.1426 15.4727C27.4243 15.3439 27.6598 15.1607 27.8489 14.9233C28.0421 14.6858 28.177 14.4001 28.2534 14.0661H30.0102C29.9458 14.6657 29.7506 15.201 29.4246 15.6719C29.0986 16.1428 28.6619 16.513 28.1146 16.7827C27.5712 17.0523 26.9333 17.1871 26.2009 17.1871ZM34.639 17.2053C34.0514 17.2053 33.5201 17.0966 33.0452 16.8793C32.5703 16.6579 32.194 16.3379 31.9163 15.9194C31.6427 15.5008 31.5058 14.9877 31.5058 14.38C31.5058 13.8568 31.6064 13.4261 31.8077 13.0881C32.0089 12.75 32.2806 12.4824 32.6226 12.2852C32.9647 12.0879 33.3471 11.939 33.7697 11.8384C34.1922 11.7378 34.6229 11.6613 35.0616 11.609C35.617 11.5446 36.0677 11.4923 36.4138 11.4521C36.76 11.4078 37.0115 11.3374 37.1685 11.2408C37.3254 11.1442 37.4039 10.9872 37.4039 10.7699V10.7276C37.4039 10.2004 37.255 9.7919 36.9572 9.50213C36.6634 9.21236 36.2247 9.06747 35.6411 9.06747C35.0334 9.06747 34.5545 9.2023 34.2043 9.47195C33.8582 9.73757 33.6187 10.0334 33.4859 10.3594L31.7896 9.97301C31.9908 9.40956 32.2846 8.95478 32.6709 8.60866C33.0613 8.25852 33.5101 8.00497 34.0172 7.84801C34.5243 7.68703 35.0575 7.60653 35.617 7.60653C35.9872 7.60653 36.3796 7.65081 36.7942 7.73935C37.2127 7.82386 37.6031 7.98082 37.9653 8.21023C38.3316 8.43963 38.6314 8.76764 38.8648 9.19425C39.0983 9.61683 39.215 10.1662 39.215 10.8423V17H37.4522V15.7322H37.3798C37.263 15.9657 37.088 16.1951 36.8545 16.4205C36.6211 16.6458 36.3213 16.833 35.955 16.9819C35.5888 17.1308 35.1501 17.2053 34.639 17.2053ZM35.0314 15.7564C35.5304 15.7564 35.957 15.6578 36.3112 15.4606C36.6694 15.2634 36.9411 15.0058 37.1262 14.6879C37.3154 14.3659 37.4099 14.0218 37.4099 13.6555V12.4602C37.3455 12.5246 37.2208 12.585 37.0356 12.6413C36.8545 12.6937 36.6473 12.7399 36.4138 12.7802C36.1804 12.8164 35.953 12.8506 35.7317 12.8828C35.5103 12.911 35.3252 12.9351 35.1763 12.9553C34.8261 12.9995 34.5062 13.074 34.2164 13.1786C33.9306 13.2833 33.7012 13.4342 33.5282 13.6314C33.3592 13.8246 33.2746 14.0821 33.2746 14.4041C33.2746 14.8509 33.4396 15.1889 33.7697 15.4183C34.0997 15.6437 34.5203 15.7564 35.0314 15.7564ZM41.6192 20.4773V7.72727H43.382V9.23047H43.5329C43.6375 9.03729 43.7885 8.81392 43.9857 8.56037C44.1829 8.30682 44.4565 8.08546 44.8067 7.89631C45.1568 7.70312 45.6197 7.60653 46.1952 7.60653C46.9438 7.60653 47.6118 7.79569 48.1994 8.17401C48.787 8.55232 49.2479 9.09766 49.5819 9.81001C49.92 10.5224 50.089 11.3796 50.089 12.3817C50.089 13.3839 49.922 14.2431 49.5879 14.9595C49.2539 15.6719 48.7951 16.2212 48.2115 16.6076C47.6279 16.9899 46.9619 17.1811 46.2133 17.1811C45.6498 17.1811 45.189 17.0865 44.8308 16.8974C44.4767 16.7082 44.199 16.4869 43.9977 16.2333C43.7965 15.9798 43.6416 15.7544 43.5329 15.5572H43.4242V20.4773H41.6192ZM43.388 12.3636C43.388 13.0156 43.4826 13.5871 43.6717 14.0781C43.8609 14.5691 44.1346 14.9535 44.4928 15.2312C44.851 15.5049 45.2896 15.6417 45.8088 15.6417C46.3481 15.6417 46.7989 15.4988 47.1611 15.2131C47.5233 14.9233 47.797 14.5309 47.9821 14.0359C48.1713 13.5408 48.2658 12.9834 48.2658 12.3636C48.2658 11.7519 48.1733 11.2025 47.9881 10.7156C47.807 10.2286 47.5334 9.84422 47.1671 9.5625C46.8049 9.28078 46.3521 9.13991 45.8088 9.13991C45.2856 9.13991 44.8429 9.27474 44.4807 9.54439C44.1225 9.81404 43.8508 10.1903 43.6657 10.6733C43.4806 11.1562 43.388 11.7197 43.388 12.3636ZM52.1114 17V7.72727H53.9164V17H52.1114ZM53.0229 6.29652C52.709 6.29652 52.4394 6.19188 52.214 5.9826C51.9926 5.76929 51.882 5.51574 51.882 5.22195C51.882 4.92412 51.9926 4.67057 52.214 4.46129C52.4394 4.24799 52.709 4.14133 53.0229 4.14133C53.3369 4.14133 53.6045 4.24799 53.8259 4.46129C54.0512 4.67057 54.1639 4.92412 54.1639 5.22195C54.1639 5.51574 54.0512 5.76929 53.8259 5.9826C53.6045 6.19188 53.3369 6.29652 53.0229 6.29652ZM60.6733 7.72727V9.17614H55.6083V7.72727H60.6733ZM56.9666 5.50568H58.7716V14.2773C58.7716 14.6275 58.8239 14.8911 58.9286 15.0682C59.0332 15.2412 59.168 15.36 59.3331 15.4244C59.5021 15.4847 59.6852 15.5149 59.8824 15.5149C60.0273 15.5149 60.1541 15.5049 60.2627 15.4847C60.3714 15.4646 60.4559 15.4485 60.5163 15.4364L60.8423 16.9276C60.7376 16.9678 60.5887 17.008 60.3956 17.0483C60.2024 17.0926 59.9609 17.1167 59.6711 17.1207C59.1962 17.1288 58.7535 17.0443 58.343 16.8672C57.9325 16.6901 57.6005 16.4164 57.3469 16.0462C57.0934 15.6759 56.9666 15.2111 56.9666 14.6516V5.50568ZM68.5439 13.1545V7.72727H70.355V17H68.5801V15.3942H68.4835C68.2702 15.8892 67.9281 16.3017 67.4573 16.6317C66.9904 16.9577 66.4088 17.1207 65.7126 17.1207C65.1169 17.1207 64.5897 16.9899 64.1309 16.7283C63.6761 16.4627 63.3179 16.0703 63.0563 15.5511C62.7988 15.032 62.67 14.39 62.67 13.6254V7.72727H64.475V13.408C64.475 14.0399 64.6501 14.543 65.0002 14.9173C65.3504 15.2915 65.8051 15.4787 66.3646 15.4787C66.7026 15.4787 67.0387 15.3942 67.3727 15.2251C67.7108 15.0561 67.9905 14.8005 68.2119 14.4585C68.4372 14.1164 68.5479 13.6817 68.5439 13.1545ZM74.5854 4.63636V17H72.7803V4.63636H74.5854ZM79.7122 17.2053C79.1246 17.2053 78.5934 17.0966 78.1185 16.8793C77.6436 16.6579 77.2673 16.3379 76.9896 15.9194C76.7159 15.5008 76.5791 14.9877 76.5791 14.38C76.5791 13.8568 76.6797 13.4261 76.8809 13.0881C77.0821 12.75 77.3538 12.4824 77.6959 12.2852C78.038 12.0879 78.4203 11.939 78.8429 11.8384C79.2655 11.7378 79.6961 11.6613 80.1348 11.609C80.6902 11.5446 81.141 11.4923 81.4871 11.4521C81.8332 11.4078 82.0847 11.3374 82.2417 11.2408C82.3987 11.1442 82.4771 10.9872 82.4771 10.7699V10.7276C82.4771 10.2004 82.3282 9.7919 82.0304 9.50213C81.7366 9.21236 81.2979 9.06747 80.7144 9.06747C80.1066 9.06747 79.6277 9.2023 79.2776 9.47195C78.9314 9.73757 78.692 10.0334 78.5592 10.3594L76.8628 9.97301C77.064 9.40956 77.3578 8.95478 77.7442 8.60866C78.1346 8.25852 78.5833 8.00497 79.0904 7.84801C79.5975 7.68703 80.1308 7.60653 80.6902 7.60653C81.0605 7.60653 81.4529 7.65081 81.8674 7.73935C82.286 7.82386 82.6764 7.98082 83.0386 8.21023C83.4048 8.43963 83.7046 8.76764 83.9381 9.19425C84.1715 9.61683 84.2882 10.1662 84.2882 10.8423V17H82.5254V15.7322H82.453C82.3363 15.9657 82.1612 16.1951 81.9278 16.4205C81.6944 16.6458 81.3945 16.833 81.0283 16.9819C80.662 17.1308 80.2234 17.2053 79.7122 17.2053ZM80.1046 15.7564C80.6037 15.7564 81.0303 15.6578 81.3845 15.4606C81.7426 15.2634 82.0143 15.0058 82.1994 14.6879C82.3886 14.3659 82.4832 14.0218 82.4832 13.6555V12.4602C82.4188 12.5246 82.294 12.585 82.1089 12.6413C81.9278 12.6937 81.7205 12.7399 81.4871 12.7802C81.2537 12.8164 81.0263 12.8506 80.8049 12.8828C80.5836 12.911 80.3984 12.9351 80.2495 12.9553C79.8994 12.9995 79.5794 13.074 79.2896 13.1786C79.0039 13.2833 78.7745 13.4342 78.6014 13.6314C78.4324 13.8246 78.3479 14.0821 78.3479 14.4041C78.3479 14.8509 78.5129 15.1889 78.8429 15.4183C79.1729 15.6437 79.5935 15.7564 80.1046 15.7564ZM91.0209 7.72727V9.17614H85.9559V7.72727H91.0209ZM87.3142 5.50568H89.1193V14.2773C89.1193 14.6275 89.1716 14.8911 89.2762 15.0682C89.3809 15.2412 89.5157 15.36 89.6807 15.4244C89.8497 15.4847 90.0329 15.5149 90.2301 15.5149C90.375 15.5149 90.5017 15.5049 90.6104 15.4847C90.7191 15.4646 90.8036 15.4485 90.8639 15.4364L91.1899 16.9276C91.0853 16.9678 90.9364 17.008 90.7432 17.0483C90.55 17.0926 90.3085 17.1167 90.0188 17.1207C89.5439 17.1288 89.1012 17.0443 88.6907 16.8672C88.2801 16.6901 87.9481 16.4164 87.6946 16.0462C87.441 15.6759 87.3142 15.2111 87.3142 14.6516V5.50568ZM93.0176 17V7.72727H94.8227V17H93.0176ZM93.9292 6.29652C93.6153 6.29652 93.3456 6.19188 93.1203 5.9826C92.8989 5.76929 92.7882 5.51574 92.7882 5.22195C92.7882 4.92412 92.8989 4.67057 93.1203 4.46129C93.3456 4.24799 93.6153 4.14133 93.9292 4.14133C94.2431 4.14133 94.5108 4.24799 94.7321 4.46129C94.9575 4.67057 95.0702 4.92412 95.0702 5.22195C95.0702 5.51574 94.9575 5.76929 94.7321 5.9826C94.5108 6.19188 94.2431 6.29652 93.9292 6.29652ZM101.664 7.72727V9.17614H96.424V7.72727H101.664ZM97.8608 17V6.6527C97.8608 6.07315 97.9875 5.59221 98.2411 5.20987C98.4946 4.82351 98.8307 4.53575 99.2492 4.34659C99.6678 4.15341 100.123 4.05682 100.614 4.05682C100.976 4.05682 101.286 4.087 101.543 4.14737C101.801 4.20372 101.992 4.25604 102.117 4.30433L101.694 5.76527C101.61 5.74112 101.501 5.71295 101.368 5.68075C101.235 5.64453 101.074 5.62642 100.885 5.62642C100.447 5.62642 100.133 5.73508 99.9435 5.95241C99.7584 6.16974 99.6658 6.48366 99.6658 6.89418V17H97.8608ZM111.497 17.1811C110.748 17.1811 110.08 16.9899 109.492 16.6076C108.909 16.2212 108.45 15.6719 108.116 14.9595C107.786 14.2431 107.621 13.3839 107.621 12.3817C107.621 11.3796 107.788 10.5224 108.122 9.81001C108.46 9.09766 108.923 8.55232 109.511 8.17401C110.098 7.79569 110.764 7.60653 111.509 7.60653C112.084 7.60653 112.547 7.70312 112.897 7.89631C113.251 8.08546 113.525 8.30682 113.718 8.56037C113.915 8.81392 114.068 9.03729 114.177 9.23047H114.286V4.63636H116.091V17H114.328V15.5572H114.177C114.068 15.7544 113.911 15.9798 113.706 16.2333C113.505 16.4869 113.227 16.7082 112.873 16.8974C112.519 17.0865 112.06 17.1811 111.497 17.1811ZM111.895 15.6417C112.414 15.6417 112.853 15.5049 113.211 15.2312C113.573 14.9535 113.847 14.5691 114.032 14.0781C114.221 13.5871 114.316 13.0156 114.316 12.3636C114.316 11.7197 114.223 11.1562 114.038 10.6733C113.853 10.1903 113.581 9.81404 113.223 9.54439C112.865 9.27474 112.422 9.13991 111.895 9.13991C111.352 9.13991 110.899 9.28078 110.537 9.5625C110.175 9.84422 109.901 10.2286 109.716 10.7156C109.535 11.2025 109.444 11.7519 109.444 12.3636C109.444 12.9834 109.537 13.5408 109.722 14.0359C109.907 14.5309 110.181 14.9233 110.543 15.2131C110.909 15.4988 111.36 15.6417 111.895 15.6417ZM122.663 17.1871C121.75 17.1871 120.963 16.992 120.303 16.6016C119.647 16.2071 119.14 15.6538 118.782 14.9414C118.428 14.225 118.25 13.3859 118.25 12.424C118.25 11.4742 118.428 10.6371 118.782 9.91264C119.14 9.18821 119.639 8.62275 120.279 8.21626C120.923 7.80978 121.675 7.60653 122.537 7.60653C123.06 7.60653 123.567 7.69306 124.058 7.86612C124.549 8.03918 124.99 8.31084 125.38 8.68111C125.77 9.05137 126.078 9.53232 126.304 10.1239C126.529 10.7115 126.642 11.4259 126.642 12.267V12.907H119.271V11.5547H124.873C124.873 11.0798 124.776 10.6592 124.583 10.293C124.39 9.9227 124.118 9.63092 123.768 9.41761C123.422 9.20431 123.016 9.09766 122.549 9.09766C122.042 9.09766 121.599 9.22242 121.221 9.47195C120.846 9.71745 120.557 10.0394 120.351 10.4379C120.15 10.8323 120.049 11.2609 120.049 11.7237V12.7802C120.049 13.4 120.158 13.9272 120.375 14.3619C120.597 14.7965 120.905 15.1286 121.299 15.358C121.694 15.5833 122.154 15.696 122.682 15.696C123.024 15.696 123.336 15.6477 123.617 15.5511C123.899 15.4505 124.143 15.3016 124.348 15.1044C124.553 14.9072 124.71 14.6637 124.819 14.3739L126.527 14.6818C126.39 15.1849 126.145 15.6256 125.791 16.0039C125.44 16.3782 125 16.67 124.469 16.8793C123.941 17.0845 123.34 17.1871 122.663 17.1871ZM134.949 4.63636V17H133.144V4.63636H134.949ZM140.076 17.2053C139.488 17.2053 138.957 17.0966 138.482 16.8793C138.007 16.6579 137.631 16.3379 137.353 15.9194C137.079 15.5008 136.942 14.9877 136.942 14.38C136.942 13.8568 137.043 13.4261 137.244 13.0881C137.445 12.75 137.717 12.4824 138.059 12.2852C138.401 12.0879 138.784 11.939 139.206 11.8384C139.629 11.7378 140.059 11.6613 140.498 11.609C141.053 11.5446 141.504 11.4923 141.85 11.4521C142.196 11.4078 142.448 11.3374 142.605 11.2408C142.762 11.1442 142.84 10.9872 142.84 10.7699V10.7276C142.84 10.2004 142.692 9.7919 142.394 9.50213C142.1 9.21236 141.661 9.06747 141.078 9.06747C140.47 9.06747 139.991 9.2023 139.641 9.47195C139.295 9.73757 139.055 10.0334 138.922 10.3594L137.226 9.97301C137.427 9.40956 137.721 8.95478 138.107 8.60866C138.498 8.25852 138.947 8.00497 139.454 7.84801C139.961 7.68703 140.494 7.60653 141.053 7.60653C141.424 7.60653 141.816 7.65081 142.231 7.73935C142.649 7.82386 143.04 7.98082 143.402 8.21023C143.768 8.43963 144.068 8.76764 144.301 9.19425C144.535 9.61683 144.652 10.1662 144.652 10.8423V17H142.889V15.7322H142.816C142.7 15.9657 142.524 16.1951 142.291 16.4205C142.058 16.6458 141.758 16.833 141.392 16.9819C141.025 17.1308 140.587 17.2053 140.076 17.2053ZM140.468 15.7564C140.967 15.7564 141.394 15.6578 141.748 15.4606C142.106 15.2634 142.378 15.0058 142.563 14.6879C142.752 14.3659 142.846 14.0218 142.846 13.6555V12.4602C142.782 12.5246 142.657 12.585 142.472 12.6413C142.291 12.6937 142.084 12.7399 141.85 12.7802C141.617 12.8164 141.39 12.8506 141.168 12.8828C140.947 12.911 140.762 12.9351 140.613 12.9553C140.263 12.9995 139.943 13.074 139.653 13.1786C139.367 13.2833 139.138 13.4342 138.965 13.6314C138.796 13.8246 138.711 14.0821 138.711 14.4041C138.711 14.8509 138.876 15.1889 139.206 15.4183C139.536 15.6437 139.957 15.7564 140.468 15.7564ZM155.461 17.1871C154.563 17.1871 153.79 16.9839 153.142 16.5774C152.499 16.1669 152.003 15.6014 151.657 14.881C151.311 14.1606 151.138 13.3356 151.138 12.4059C151.138 11.4641 151.315 10.633 151.669 9.91264C152.024 9.18821 152.523 8.62275 153.167 8.21626C153.811 7.80978 154.569 7.60653 155.443 7.60653C156.147 7.60653 156.775 7.73733 157.326 7.99893C157.877 8.25651 158.322 8.61873 158.66 9.08558C159.002 9.55244 159.206 10.0978 159.27 10.7216H157.513C157.417 10.2869 157.195 9.91264 156.849 9.59872C156.507 9.2848 156.048 9.12784 155.473 9.12784C154.97 9.12784 154.529 9.26065 154.151 9.52628C153.776 9.78788 153.485 10.1622 153.275 10.6491C153.066 11.1321 152.961 11.7036 152.961 12.3636C152.961 13.0398 153.064 13.6233 153.269 14.1143C153.474 14.6054 153.764 14.9857 154.139 15.2553C154.517 15.525 154.962 15.6598 155.473 15.6598C155.815 15.6598 156.125 15.5974 156.402 15.4727C156.684 15.3439 156.92 15.1607 157.109 14.9233C157.302 14.6858 157.437 14.4001 157.513 14.0661H159.27C159.206 14.6657 159.01 15.201 158.684 15.6719C158.358 16.1428 157.922 16.513 157.374 16.7827C156.831 17.0523 156.193 17.1871 155.461 17.1871ZM165.106 17.1871C164.237 17.1871 163.478 16.9879 162.83 16.5895C162.182 16.1911 161.679 15.6336 161.321 14.9173C160.963 14.2009 160.784 13.3638 160.784 12.4059C160.784 11.444 160.963 10.6029 161.321 9.88246C161.679 9.16205 162.182 8.60263 162.83 8.20419C163.478 7.80575 164.237 7.60653 165.106 7.60653C165.975 7.60653 166.734 7.80575 167.382 8.20419C168.03 8.60263 168.533 9.16205 168.891 9.88246C169.249 10.6029 169.429 11.444 169.429 12.4059C169.429 13.3638 169.249 14.2009 168.891 14.9173C168.533 15.6336 168.03 16.1911 167.382 16.5895C166.734 16.9879 165.975 17.1871 165.106 17.1871ZM165.112 15.6719C165.676 15.6719 166.142 15.523 166.513 15.2251C166.883 14.9273 167.157 14.5309 167.334 14.0359C167.515 13.5408 167.605 12.9955 167.605 12.3999C167.605 11.8082 167.515 11.2649 167.334 10.7699C167.157 10.2708 166.883 9.87038 166.513 9.56854C166.142 9.26669 165.676 9.11577 165.112 9.11577C164.545 9.11577 164.074 9.26669 163.7 9.56854C163.329 9.87038 163.054 10.2708 162.872 10.7699C162.695 11.2649 162.607 11.8082 162.607 12.3999C162.607 12.9955 162.695 13.5408 162.872 14.0359C163.054 14.5309 163.329 14.9273 163.7 15.2251C164.074 15.523 164.545 15.6719 165.112 15.6719ZM171.443 17V7.72727H173.176V9.23651H173.291C173.484 8.72538 173.8 8.32694 174.239 8.04119C174.677 7.75142 175.202 7.60653 175.814 7.60653C176.434 7.60653 176.953 7.75142 177.372 8.04119C177.794 8.33097 178.106 8.7294 178.307 9.23651H178.404C178.625 8.74148 178.977 8.34706 179.46 8.05327C179.943 7.75544 180.519 7.60653 181.187 7.60653C182.028 7.60653 182.714 7.87015 183.246 8.39737C183.781 8.9246 184.049 9.71946 184.049 10.782V17H182.243V10.951C182.243 10.3232 182.072 9.86837 181.73 9.58665C181.388 9.30492 180.98 9.16406 180.505 9.16406C179.917 9.16406 179.46 9.34517 179.134 9.70739C178.808 10.0656 178.645 10.5264 178.645 11.0898V17H176.846V10.8363C176.846 10.3332 176.689 9.92874 176.376 9.62287C176.062 9.317 175.653 9.16406 175.15 9.16406C174.808 9.16406 174.492 9.25462 174.202 9.43572C173.917 9.61281 173.685 9.86032 173.508 10.1783C173.335 10.4962 173.248 10.8645 173.248 11.283V17H171.443ZM186.468 17V7.72727H188.2V9.23651H188.315C188.508 8.72538 188.824 8.32694 189.263 8.04119C189.702 7.75142 190.227 7.60653 190.839 7.60653C191.458 7.60653 191.978 7.75142 192.396 8.04119C192.819 8.33097 193.131 8.7294 193.332 9.23651H193.428C193.65 8.74148 194.002 8.34706 194.485 8.05327C194.968 7.75544 195.543 7.60653 196.211 7.60653C197.053 7.60653 197.739 7.87015 198.27 8.39737C198.805 8.9246 199.073 9.71946 199.073 10.782V17H197.268V10.951C197.268 10.3232 197.097 9.86837 196.755 9.58665C196.413 9.30492 196.004 9.16406 195.529 9.16406C194.942 9.16406 194.485 9.34517 194.159 9.70739C193.833 10.0656 193.67 10.5264 193.67 11.0898V17H191.871V10.8363C191.871 10.3332 191.714 9.92874 191.4 9.62287C191.086 9.317 190.678 9.16406 190.174 9.16406C189.832 9.16406 189.516 9.25462 189.227 9.43572C188.941 9.61281 188.71 9.86032 188.532 10.1783C188.359 10.4962 188.273 10.8645 188.273 11.283V17H186.468ZM204.191 17.2053C203.603 17.2053 203.072 17.0966 202.597 16.8793C202.122 16.6579 201.746 16.3379 201.468 15.9194C201.194 15.5008 201.058 14.9877 201.058 14.38C201.058 13.8568 201.158 13.4261 201.359 13.0881C201.561 12.75 201.832 12.4824 202.174 12.2852C202.516 12.0879 202.899 11.939 203.321 11.8384C203.744 11.7378 204.175 11.6613 204.613 11.609C205.169 11.5446 205.619 11.4923 205.966 11.4521C206.312 11.4078 206.563 11.3374 206.72 11.2408C206.877 11.1442 206.956 10.9872 206.956 10.7699V10.7276C206.956 10.2004 206.807 9.7919 206.509 9.50213C206.215 9.21236 205.776 9.06747 205.193 9.06747C204.585 9.06747 204.106 9.2023 203.756 9.47195C203.41 9.73757 203.17 10.0334 203.038 10.3594L201.341 9.97301C201.543 9.40956 201.836 8.95478 202.223 8.60866C202.613 8.25852 203.062 8.00497 203.569 7.84801C204.076 7.68703 204.609 7.60653 205.169 7.60653C205.539 7.60653 205.931 7.65081 206.346 7.73935C206.764 7.82386 207.155 7.98082 207.517 8.21023C207.883 8.43963 208.183 8.76764 208.417 9.19425C208.65 9.61683 208.767 10.1662 208.767 10.8423V17H207.004V15.7322H206.932C206.815 15.9657 206.64 16.1951 206.406 16.4205C206.173 16.6458 205.873 16.833 205.507 16.9819C205.141 17.1308 204.702 17.2053 204.191 17.2053ZM204.583 15.7564C205.082 15.7564 205.509 15.6578 205.863 15.4606C206.221 15.2634 206.493 15.0058 206.678 14.6879C206.867 14.3659 206.962 14.0218 206.962 13.6555V12.4602C206.897 12.5246 206.773 12.585 206.587 12.6413C206.406 12.6937 206.199 12.7399 205.966 12.7802C205.732 12.8164 205.505 12.8506 205.283 12.8828C205.062 12.911 204.877 12.9351 204.728 12.9553C204.378 12.9995 204.058 13.074 203.768 13.1786C203.482 13.2833 203.253 13.4342 203.08 13.6314C202.911 13.8246 202.826 14.0821 202.826 14.4041C202.826 14.8509 202.991 15.1889 203.321 15.4183C203.651 15.6437 204.072 15.7564 204.583 15.7564ZM212.976 11.4943V17H211.171V7.72727H212.904V9.23651H213.018C213.232 8.7455 213.566 8.35109 214.02 8.05327C214.479 7.75544 215.057 7.60653 215.753 7.60653C216.385 7.60653 216.938 7.73935 217.413 8.00497C217.888 8.26657 218.256 8.65696 218.518 9.17614C218.779 9.69531 218.91 10.3372 218.91 11.1019V17H217.105V11.3192C217.105 10.6471 216.93 10.1219 216.58 9.74361C216.23 9.36127 215.749 9.1701 215.137 9.1701C214.719 9.1701 214.346 9.26065 214.02 9.44176C213.698 9.62287 213.443 9.88849 213.254 10.2386C213.069 10.5848 212.976 11.0033 212.976 11.4943ZM224.802 17.1811C224.054 17.1811 223.386 16.9899 222.798 16.6076C222.215 16.2212 221.756 15.6719 221.422 14.9595C221.092 14.2431 220.927 13.3839 220.927 12.3817C220.927 11.3796 221.094 10.5224 221.428 9.81001C221.766 9.09766 222.229 8.55232 222.816 8.17401C223.404 7.79569 224.07 7.60653 224.814 7.60653C225.39 7.60653 225.853 7.70312 226.203 7.89631C226.557 8.08546 226.831 8.30682 227.024 8.56037C227.221 8.81392 227.374 9.03729 227.483 9.23047H227.591V4.63636H229.396V17H227.634V15.5572H227.483C227.374 15.7544 227.217 15.9798 227.012 16.2333C226.811 16.4869 226.533 16.7082 226.179 16.8974C225.825 17.0865 225.366 17.1811 224.802 17.1811ZM225.201 15.6417C225.72 15.6417 226.159 15.5049 226.517 15.2312C226.879 14.9535 227.153 14.5691 227.338 14.0781C227.527 13.5871 227.622 13.0156 227.622 12.3636C227.622 11.7197 227.529 11.1562 227.344 10.6733C227.159 10.1903 226.887 9.81404 226.529 9.54439C226.171 9.27474 225.728 9.13991 225.201 9.13991C224.657 9.13991 224.205 9.28078 223.842 9.5625C223.48 9.84422 223.207 10.2286 223.021 10.7156C222.84 11.2025 222.75 11.7519 222.75 12.3636C222.75 12.9834 222.842 13.5408 223.027 14.0359C223.213 14.5309 223.486 14.9233 223.848 15.2131C224.215 15.4988 224.665 15.6417 225.201 15.6417ZM235.969 17.1871C235.056 17.1871 234.269 16.992 233.609 16.6016C232.953 16.2071 232.446 15.6538 232.087 14.9414C231.733 14.225 231.556 13.3859 231.556 12.424C231.556 11.4742 231.733 10.6371 232.087 9.91264C232.446 9.18821 232.945 8.62275 233.585 8.21626C234.229 7.80978 234.981 7.60653 235.842 7.60653C236.366 7.60653 236.873 7.69306 237.364 7.86612C237.855 8.03918 238.295 8.31084 238.686 8.68111C239.076 9.05137 239.384 9.53232 239.609 10.1239C239.835 10.7115 239.947 11.4259 239.947 12.267V12.907H232.576V11.5547H238.179C238.179 11.0798 238.082 10.6592 237.889 10.293C237.696 9.9227 237.424 9.63092 237.074 9.41761C236.728 9.20431 236.321 9.09766 235.854 9.09766C235.347 9.09766 234.905 9.22242 234.526 9.47195C234.152 9.71745 233.862 10.0394 233.657 10.4379C233.456 10.8323 233.355 11.2609 233.355 11.7237V12.7802C233.355 13.4 233.464 13.9272 233.681 14.3619C233.903 14.7965 234.21 15.1286 234.605 15.358C234.999 15.5833 235.46 15.696 235.987 15.696C236.329 15.696 236.641 15.6477 236.923 15.5511C237.205 15.4505 237.448 15.3016 237.653 15.1044C237.859 14.9072 238.016 14.6637 238.124 14.3739L239.833 14.6818C239.696 15.1849 239.45 15.6256 239.096 16.0039C238.746 16.3782 238.305 16.67 237.774 16.8793C237.247 17.0845 236.645 17.1871 235.969 17.1871Z" fill="black"/>
<rect y="53" width="73" height="73" rx="4" fill="#D9D9D9"/>
<path d="M98.0566 73.5V64.0455H100.056V71.8519H104.109V73.5H98.0566ZM113.753 68.7727C113.753 69.8037 113.557 70.6809 113.166 71.4041C112.779 72.1274 112.249 72.6798 111.578 73.0614C110.91 73.44 110.159 73.6293 109.325 73.6293C108.485 73.6293 107.731 73.4384 107.063 73.0568C106.395 72.6752 105.868 72.1228 105.48 71.3995C105.092 70.6763 104.898 69.8007 104.898 68.7727C104.898 67.7417 105.092 66.8646 105.48 66.1413C105.868 65.4181 106.395 64.8672 107.063 64.4886C107.731 64.107 108.485 63.9162 109.325 63.9162C110.159 63.9162 110.91 64.107 111.578 64.4886C112.249 64.8672 112.779 65.4181 113.166 66.1413C113.557 66.8646 113.753 67.7417 113.753 68.7727ZM111.726 68.7727C111.726 68.1049 111.626 67.5417 111.426 67.0831C111.229 66.6245 110.95 66.2768 110.59 66.0398C110.23 65.8028 109.809 65.6843 109.325 65.6843C108.842 65.6843 108.421 65.8028 108.061 66.0398C107.7 66.2768 107.42 66.6245 107.22 67.0831C107.023 67.5417 106.925 68.1049 106.925 68.7727C106.925 69.4406 107.023 70.0038 107.22 70.4624C107.42 70.9209 107.7 71.2687 108.061 71.5057C108.421 71.7427 108.842 71.8612 109.325 71.8612C109.809 71.8612 110.23 71.7427 110.59 71.5057C110.95 71.2687 111.229 70.9209 111.426 70.4624C111.626 70.0038 111.726 69.4406 111.726 68.7727ZM115.233 73.5V64.0455H118.963C119.677 64.0455 120.287 64.1732 120.792 64.4286C121.299 64.681 121.686 65.0395 121.95 65.5043C122.218 65.9659 122.352 66.5091 122.352 67.1339C122.352 67.7617 122.217 68.3018 121.946 68.7543C121.675 69.2036 121.282 69.5483 120.769 69.7884C120.258 70.0284 119.639 70.1484 118.913 70.1484H116.415V68.5419H118.59C118.971 68.5419 119.288 68.4896 119.541 68.3849C119.793 68.2803 119.981 68.1233 120.104 67.9141C120.23 67.7048 120.293 67.4447 120.293 67.1339C120.293 66.82 120.23 66.5553 120.104 66.3398C119.981 66.1244 119.791 65.9613 119.536 65.8505C119.284 65.7366 118.965 65.6797 118.58 65.6797H117.232V73.5H115.233ZM120.339 69.1974L122.689 73.5H120.482L118.183 69.1974H120.339ZM123.765 73.5V64.0455H130.135V65.6935H125.764V67.9464H129.808V69.5945H125.764V71.8519H130.154V73.5H123.765ZM131.725 64.0455H134.19L136.793 70.3977H136.904L139.508 64.0455H141.973V73.5H140.034V67.3462H139.956L137.509 73.4538H136.189L133.742 67.3232H133.663V73.5H131.725V64.0455ZM148.628 64.0455V73.5H146.629V64.0455H148.628ZM150.272 73.5V64.0455H154.003C154.72 64.0455 155.331 64.1824 155.835 64.4563C156.34 64.7272 156.725 65.1042 156.989 65.5874C157.257 66.0675 157.391 66.6214 157.391 67.2493C157.391 67.8771 157.256 68.4311 156.985 68.9112C156.714 69.3913 156.322 69.7653 155.808 70.033C155.297 70.3008 154.678 70.4347 153.952 70.4347H151.574V68.8327H153.629C154.013 68.8327 154.33 68.7666 154.58 68.6342C154.832 68.4988 155.02 68.3126 155.143 68.0756C155.269 67.8356 155.332 67.5601 155.332 67.2493C155.332 66.9354 155.269 66.6615 155.143 66.4276C155.02 66.1906 154.832 66.0075 154.58 65.8782C154.327 65.7459 154.007 65.6797 153.619 65.6797H152.271V73.5H150.272ZM163.818 66.7646C163.781 66.3922 163.623 66.1029 163.343 65.8967C163.063 65.6905 162.683 65.5874 162.203 65.5874C161.876 65.5874 161.601 65.6335 161.376 65.7259C161.152 65.8151 160.979 65.9397 160.859 66.0998C160.742 66.2598 160.684 66.4414 160.684 66.6445C160.678 66.8138 160.713 66.9615 160.79 67.0877C160.87 67.2139 160.979 67.3232 161.118 67.4155C161.256 67.5047 161.416 67.5832 161.598 67.6509C161.779 67.7156 161.973 67.771 162.179 67.8171L163.029 68.0202C163.441 68.1126 163.82 68.2357 164.165 68.3896C164.509 68.5434 164.808 68.7327 165.06 68.9574C165.313 69.1821 165.508 69.4467 165.646 69.7514C165.788 70.0561 165.86 70.4054 165.863 70.7994C165.86 71.378 165.713 71.8796 165.42 72.3043C165.131 72.726 164.712 73.0537 164.165 73.2876C163.62 73.5185 162.963 73.6339 162.193 73.6339C161.43 73.6339 160.765 73.5169 160.199 73.283C159.636 73.0491 159.196 72.7029 158.879 72.2443C158.565 71.7827 158.4 71.2118 158.385 70.5316H160.319C160.341 70.8486 160.431 71.1133 160.591 71.3256C160.755 71.5349 160.971 71.6934 161.242 71.8011C161.516 71.9058 161.826 71.9581 162.17 71.9581C162.509 71.9581 162.803 71.9089 163.052 71.8104C163.304 71.7119 163.5 71.5749 163.638 71.3995C163.777 71.2241 163.846 71.0225 163.846 70.7947C163.846 70.5824 163.783 70.4039 163.657 70.2592C163.534 70.1146 163.352 69.9915 163.112 69.8899C162.875 69.7884 162.584 69.696 162.239 69.6129L161.21 69.3544C160.413 69.1605 159.784 68.8574 159.322 68.445C158.86 68.0326 158.631 67.477 158.634 66.7784C158.631 66.206 158.783 65.7058 159.091 65.2781C159.402 64.8503 159.828 64.5163 160.37 64.2763C160.911 64.0362 161.527 63.9162 162.216 63.9162C162.918 63.9162 163.531 64.0362 164.054 64.2763C164.58 64.5163 164.989 64.8503 165.282 65.2781C165.574 65.7058 165.725 66.2013 165.734 66.7646H163.818ZM173.048 64.0455H175.047V70.1854C175.047 70.8748 174.882 71.478 174.553 71.995C174.227 72.5121 173.77 72.9152 173.182 73.2045C172.594 73.4908 171.909 73.6339 171.127 73.6339C170.343 73.6339 169.656 73.4908 169.068 73.2045C168.481 72.9152 168.024 72.5121 167.697 71.995C167.371 71.478 167.208 70.8748 167.208 70.1854V64.0455H169.207V70.0146C169.207 70.3746 169.285 70.6947 169.442 70.9748C169.602 71.2549 169.827 71.4749 170.116 71.6349C170.406 71.795 170.743 71.875 171.127 71.875C171.515 71.875 171.852 71.795 172.138 71.6349C172.428 71.4749 172.651 71.2549 172.808 70.9748C172.968 70.6947 173.048 70.3746 173.048 70.0146V64.0455ZM176.691 64.0455H179.157L181.76 70.3977H181.871L184.475 64.0455H186.94V73.5H185.001V67.3462H184.923L182.476 73.4538H181.155L178.709 67.3232H178.63V73.5H176.691V64.0455Z" fill="black"/>
<path d="M101.33 96.6705H102.625L103.537 97.8594L103.968 98.3878L105.421 100.284H104.074L103.102 99.0185L102.77 98.5582L101.33 96.6705ZM105.702 95.1364C105.702 96.0682 105.531 96.8693 105.191 97.5398C104.85 98.2074 104.382 98.7216 103.789 99.0824C103.198 99.4403 102.526 99.6193 101.773 99.6193C101.017 99.6193 100.343 99.4403 99.7488 99.0824C99.1578 98.7216 98.6919 98.206 98.351 97.5355C98.0101 96.8651 97.8397 96.0653 97.8397 95.1364C97.8397 94.2045 98.0101 93.4048 98.351 92.7372C98.6919 92.0668 99.1578 91.5526 99.7488 91.1946C100.343 90.8338 101.017 90.6534 101.773 90.6534C102.526 90.6534 103.198 90.8338 103.789 91.1946C104.382 91.5526 104.85 92.0668 105.191 92.7372C105.531 93.4048 105.702 94.2045 105.702 95.1364ZM104.398 95.1364C104.398 94.4261 104.283 93.8281 104.053 93.3423C103.825 92.8537 103.513 92.4844 103.115 92.2344C102.72 91.9815 102.273 91.8551 101.773 91.8551C101.27 91.8551 100.821 91.9815 100.426 92.2344C100.031 92.4844 99.7189 92.8537 99.4888 93.3423C99.2615 93.8281 99.1479 94.4261 99.1479 95.1364C99.1479 95.8466 99.2615 96.446 99.4888 96.9347C99.7189 97.4205 100.031 97.7898 100.426 98.0426C100.821 98.2926 101.27 98.4176 101.773 98.4176C102.273 98.4176 102.72 98.2926 103.115 98.0426C103.513 97.7898 103.825 97.4205 104.053 96.9347C104.283 96.446 104.398 95.8466 104.398 95.1364ZM111.388 96.7855V92.9545H112.666V99.5H111.413V98.3665H111.345C111.194 98.7159 110.953 99.0071 110.621 99.2401C110.291 99.4702 109.881 99.5852 109.389 99.5852C108.969 99.5852 108.596 99.4929 108.273 99.3082C107.952 99.1207 107.699 98.8438 107.514 98.4773C107.332 98.1108 107.241 97.6577 107.241 97.1179V92.9545H108.515V96.9645C108.515 97.4105 108.639 97.7656 108.886 98.0298C109.133 98.294 109.454 98.4261 109.849 98.4261C110.088 98.4261 110.325 98.3665 110.561 98.2472C110.8 98.1278 110.997 97.9474 111.153 97.706C111.312 97.4645 111.39 97.1577 111.388 96.7855ZM116.283 99.6449C115.868 99.6449 115.493 99.5682 115.158 99.4148C114.823 99.2585 114.557 99.0327 114.361 98.7372C114.168 98.4418 114.071 98.0795 114.071 97.6506C114.071 97.2812 114.142 96.9773 114.284 96.7386C114.426 96.5 114.618 96.3111 114.86 96.1719C115.101 96.0327 115.371 95.9276 115.669 95.8565C115.968 95.7855 116.271 95.7315 116.581 95.6946C116.973 95.6491 117.291 95.6122 117.536 95.5838C117.78 95.5526 117.958 95.5028 118.068 95.4347C118.179 95.3665 118.235 95.2557 118.235 95.1023V95.0724C118.235 94.7003 118.129 94.4119 117.919 94.2074C117.712 94.0028 117.402 93.9006 116.99 93.9006C116.561 93.9006 116.223 93.9957 115.976 94.1861C115.732 94.3736 115.563 94.5824 115.469 94.8125L114.271 94.5398C114.414 94.142 114.621 93.821 114.894 93.5767C115.169 93.3295 115.486 93.1506 115.844 93.0398C116.202 92.9261 116.578 92.8693 116.973 92.8693C117.235 92.8693 117.512 92.9006 117.804 92.9631C118.1 93.0227 118.375 93.1335 118.631 93.2955C118.889 93.4574 119.101 93.6889 119.266 93.9901C119.431 94.2884 119.513 94.6761 119.513 95.1534V99.5H118.269V98.6051H118.218C118.135 98.7699 118.012 98.9318 117.847 99.0909C117.682 99.25 117.47 99.3821 117.212 99.4872C116.953 99.5923 116.644 99.6449 116.283 99.6449ZM116.56 98.6222C116.912 98.6222 117.213 98.5526 117.463 98.4134C117.716 98.2741 117.908 98.0923 118.039 97.8679C118.172 97.6406 118.239 97.3977 118.239 97.1392V96.2955C118.193 96.3409 118.105 96.3835 117.975 96.4233C117.847 96.4602 117.7 96.4929 117.536 96.5213C117.371 96.5469 117.21 96.571 117.054 96.5938C116.898 96.6136 116.767 96.6307 116.662 96.6449C116.415 96.6761 116.189 96.7287 115.985 96.8026C115.783 96.8764 115.621 96.983 115.499 97.1222C115.379 97.2585 115.32 97.4403 115.32 97.6676C115.32 97.983 115.436 98.2216 115.669 98.3835C115.902 98.5426 116.199 98.6222 116.56 98.6222ZM122.484 95.6136V99.5H121.21V92.9545H122.433V94.0199H122.514C122.665 93.6733 122.9 93.3949 123.221 93.1847C123.545 92.9744 123.953 92.8693 124.444 92.8693C124.89 92.8693 125.281 92.9631 125.616 93.1506C125.952 93.3352 126.211 93.6108 126.396 93.9773C126.581 94.3437 126.673 94.7969 126.673 95.3366V99.5H125.399V95.4901C125.399 95.0156 125.275 94.6449 125.028 94.3778C124.781 94.108 124.442 93.973 124.01 93.973C123.714 93.973 123.452 94.0369 123.221 94.1648C122.994 94.2926 122.814 94.4801 122.68 94.7273C122.55 94.9716 122.484 95.267 122.484 95.6136ZM131.437 92.9545V93.9773H127.862V92.9545H131.437ZM128.821 91.3864H130.095V97.5781C130.095 97.8253 130.132 98.0114 130.206 98.1364C130.28 98.2585 130.375 98.3423 130.491 98.3878C130.611 98.4304 130.74 98.4517 130.879 98.4517C130.981 98.4517 131.071 98.4446 131.148 98.4304C131.224 98.4162 131.284 98.4048 131.327 98.3963L131.557 99.4489C131.483 99.4773 131.378 99.5057 131.241 99.5341C131.105 99.5653 130.934 99.5824 130.73 99.5852C130.395 99.5909 130.082 99.5312 129.792 99.4062C129.503 99.2812 129.268 99.0881 129.089 98.8267C128.91 98.5653 128.821 98.2372 128.821 97.8423V91.3864ZM132.847 99.5V92.9545H134.121V99.5H132.847ZM133.49 91.9446C133.269 91.9446 133.078 91.8707 132.919 91.723C132.763 91.5724 132.685 91.3935 132.685 91.1861C132.685 90.9759 132.763 90.7969 132.919 90.6491C133.078 90.4986 133.269 90.4233 133.49 90.4233C133.712 90.4233 133.901 90.4986 134.057 90.6491C134.216 90.7969 134.296 90.9759 134.296 91.1861C134.296 91.3935 134.216 91.5724 134.057 91.723C133.901 91.8707 133.712 91.9446 133.49 91.9446ZM138.89 92.9545V93.9773H135.315V92.9545H138.89ZM136.274 91.3864H137.548V97.5781C137.548 97.8253 137.585 98.0114 137.659 98.1364C137.733 98.2585 137.828 98.3423 137.944 98.3878C138.064 98.4304 138.193 98.4517 138.332 98.4517C138.434 98.4517 138.524 98.4446 138.601 98.4304C138.677 98.4162 138.737 98.4048 138.78 98.3963L139.01 99.4489C138.936 99.4773 138.831 99.5057 138.694 99.5341C138.558 99.5653 138.388 99.5824 138.183 99.5852C137.848 99.5909 137.535 99.5312 137.246 99.4062C136.956 99.2812 136.721 99.0881 136.542 98.8267C136.363 98.5653 136.274 98.2372 136.274 97.8423V91.3864ZM143.051 99.6321C142.406 99.6321 141.85 99.4943 141.384 99.2188C140.921 98.9403 140.563 98.5497 140.311 98.0469C140.061 97.5412 139.936 96.9489 139.936 96.2699C139.936 95.5994 140.061 95.0085 140.311 94.4972C140.563 93.9858 140.916 93.5866 141.367 93.2997C141.822 93.0128 142.353 92.8693 142.961 92.8693C143.33 92.8693 143.688 92.9304 144.035 93.0526C144.382 93.1747 144.693 93.3665 144.968 93.6278C145.244 93.8892 145.461 94.2287 145.62 94.6463C145.779 95.0611 145.859 95.5653 145.859 96.1591V96.6108H140.656V95.6562H144.61C144.61 95.321 144.542 95.0241 144.406 94.7656C144.269 94.5043 144.078 94.2983 143.83 94.1477C143.586 93.9972 143.299 93.9219 142.97 93.9219C142.612 93.9219 142.299 94.0099 142.032 94.1861C141.768 94.3594 141.563 94.5866 141.419 94.8679C141.276 95.1463 141.205 95.4489 141.205 95.7756V96.5213C141.205 96.9588 141.282 97.331 141.436 97.6378C141.592 97.9446 141.809 98.179 142.088 98.3409C142.366 98.5 142.691 98.5795 143.063 98.5795C143.305 98.5795 143.525 98.5455 143.724 98.4773C143.923 98.4062 144.095 98.3011 144.24 98.1619C144.384 98.0227 144.495 97.8509 144.572 97.6463L145.778 97.8636C145.681 98.2187 145.508 98.5298 145.258 98.7969C145.011 99.0611 144.7 99.267 144.325 99.4148C143.953 99.5597 143.528 99.6321 143.051 99.6321ZM142.386 92.081L143.383 90.1165H144.725L143.404 92.081H142.386ZM151.288 98.4176C151.055 98.4176 150.855 98.3352 150.687 98.1705C150.519 98.0028 150.436 97.8011 150.436 97.5653C150.436 97.3324 150.519 97.1335 150.687 96.9688C150.855 96.8011 151.055 96.7173 151.288 96.7173C151.521 96.7173 151.721 96.8011 151.889 96.9688C152.056 97.1335 152.14 97.3324 152.14 97.5653C152.14 97.7216 152.1 97.8651 152.021 97.9957C151.944 98.1236 151.842 98.2259 151.714 98.3026C151.586 98.3793 151.444 98.4176 151.288 98.4176ZM151.288 94.0455C151.055 94.0455 150.855 93.9631 150.687 93.7983C150.519 93.6307 150.436 93.429 150.436 93.1932C150.436 92.9602 150.519 92.7614 150.687 92.5966C150.855 92.429 151.055 92.3452 151.288 92.3452C151.521 92.3452 151.721 92.429 151.889 92.5966C152.056 92.7614 152.14 92.9602 152.14 93.1932C152.14 93.3494 152.1 93.4929 152.021 93.6236C151.944 93.7514 151.842 93.8537 151.714 93.9304C151.586 94.0071 151.444 94.0455 151.288 94.0455ZM160.317 90.7727V99.5H158.996V92.0938H158.944L156.856 93.4574V92.196L159.034 90.7727H160.317Z" fill="black"/>
<path d="M103.766 112.832L103.361 113.71H97.7571L98.0767 112.832H103.766ZM103.003 114.562L102.589 115.449H97.7571L98.0767 114.562H103.003ZM104.805 110.518L104.303 111.597C104.143 111.46 103.97 111.337 103.783 111.226C103.595 111.115 103.393 111.027 103.178 110.962C102.962 110.893 102.73 110.859 102.483 110.859C102.028 110.859 101.624 110.982 101.268 111.226C100.913 111.47 100.634 111.837 100.429 112.325C100.227 112.811 100.126 113.416 100.126 114.141C100.126 114.865 100.227 115.47 100.429 115.956C100.634 116.442 100.913 116.807 101.268 117.051C101.624 117.293 102.028 117.413 102.483 117.413C102.733 117.413 102.966 117.381 103.182 117.315C103.401 117.25 103.599 117.165 103.778 117.06C103.96 116.952 104.124 116.838 104.268 116.719L104.784 117.793C104.483 118.065 104.134 118.271 103.736 118.411C103.338 118.55 102.92 118.619 102.483 118.619C101.77 118.619 101.138 118.439 100.587 118.078C100.038 117.717 99.608 117.203 99.2955 116.536C98.983 115.865 98.8267 115.067 98.8267 114.141C98.8267 113.212 98.983 112.412 99.2955 111.741C99.608 111.071 100.038 110.555 100.587 110.195C101.138 109.834 101.77 109.653 102.483 109.653C102.938 109.653 103.361 109.729 103.753 109.879C104.145 110.027 104.496 110.24 104.805 110.518ZM111.828 112.832L111.423 113.71H105.82L106.139 112.832H111.828ZM111.065 114.562L110.652 115.449H105.82L106.139 114.562H111.065ZM112.868 110.518L112.365 111.597C112.206 111.46 112.033 111.337 111.845 111.226C111.658 111.115 111.456 111.027 111.24 110.962C111.024 110.893 110.793 110.859 110.545 110.859C110.091 110.859 109.686 110.982 109.331 111.226C108.976 111.47 108.696 111.837 108.491 112.325C108.29 112.811 108.189 113.416 108.189 114.141C108.189 114.865 108.29 115.47 108.491 115.956C108.696 116.442 108.976 116.807 109.331 117.051C109.686 117.293 110.091 117.413 110.545 117.413C110.795 117.413 111.028 117.381 111.244 117.315C111.463 117.25 111.662 117.165 111.841 117.06C112.023 116.952 112.186 116.838 112.331 116.719L112.847 117.793C112.545 118.065 112.196 118.271 111.798 118.411C111.401 118.55 110.983 118.619 110.545 118.619C109.832 118.619 109.2 118.439 108.649 118.078C108.101 117.717 107.67 117.203 107.358 116.536C107.045 115.865 106.889 115.067 106.889 114.141C106.889 113.212 107.045 112.412 107.358 111.741C107.67 111.071 108.101 110.555 108.649 110.195C109.2 109.834 109.832 109.653 110.545 109.653C111 109.653 111.423 109.729 111.815 109.879C112.207 110.027 112.558 110.24 112.868 110.518Z" fill="black"/>
<rect y="157" width="73" height="73" rx="4" fill="#D9D9D9"/>
<path d="M98.0566 177.5V168.045H100.056V175.852H104.109V177.5H98.0566ZM113.753 172.773C113.753 173.804 113.557 174.681 113.166 175.404C112.779 176.127 112.249 176.68 111.578 177.061C110.91 177.44 110.159 177.629 109.325 177.629C108.485 177.629 107.731 177.438 107.063 177.057C106.395 176.675 105.868 176.123 105.48 175.4C105.092 174.676 104.898 173.801 104.898 172.773C104.898 171.742 105.092 170.865 105.48 170.141C105.868 169.418 106.395 168.867 107.063 168.489C107.731 168.107 108.485 167.916 109.325 167.916C110.159 167.916 110.91 168.107 111.578 168.489C112.249 168.867 112.779 169.418 113.166 170.141C113.557 170.865 113.753 171.742 113.753 172.773ZM111.726 172.773C111.726 172.105 111.626 171.542 111.426 171.083C111.229 170.625 110.95 170.277 110.59 170.04C110.23 169.803 109.809 169.684 109.325 169.684C108.842 169.684 108.421 169.803 108.061 170.04C107.7 170.277 107.42 170.625 107.22 171.083C107.023 171.542 106.925 172.105 106.925 172.773C106.925 173.441 107.023 174.004 107.22 174.462C107.42 174.921 107.7 175.269 108.061 175.506C108.421 175.743 108.842 175.861 109.325 175.861C109.809 175.861 110.23 175.743 110.59 175.506C110.95 175.269 111.229 174.921 111.426 174.462C111.626 174.004 111.726 173.441 111.726 172.773ZM115.233 177.5V168.045H118.963C119.677 168.045 120.287 168.173 120.792 168.429C121.299 168.681 121.686 169.04 121.95 169.504C122.218 169.966 122.352 170.509 122.352 171.134C122.352 171.762 122.217 172.302 121.946 172.754C121.675 173.204 121.282 173.548 120.769 173.788C120.258 174.028 119.639 174.148 118.913 174.148H116.415V172.542H118.59C118.971 172.542 119.288 172.49 119.541 172.385C119.793 172.28 119.981 172.123 120.104 171.914C120.23 171.705 120.293 171.445 120.293 171.134C120.293 170.82 120.23 170.555 120.104 170.34C119.981 170.124 119.791 169.961 119.536 169.85C119.284 169.737 118.965 169.68 118.58 169.68H117.232V177.5H115.233ZM120.339 173.197L122.689 177.5H120.482L118.183 173.197H120.339ZM123.765 177.5V168.045H130.135V169.694H125.764V171.946H129.808V173.594H125.764V175.852H130.154V177.5H123.765ZM131.725 168.045H134.19L136.793 174.398H136.904L139.508 168.045H141.973V177.5H140.034V171.346H139.956L137.509 177.454H136.189L133.742 171.323H133.663V177.5H131.725V168.045ZM148.628 168.045V177.5H146.629V168.045H148.628ZM150.272 177.5V168.045H154.003C154.72 168.045 155.331 168.182 155.835 168.456C156.34 168.727 156.725 169.104 156.989 169.587C157.257 170.067 157.391 170.621 157.391 171.249C157.391 171.877 157.256 172.431 156.985 172.911C156.714 173.391 156.322 173.765 155.808 174.033C155.297 174.301 154.678 174.435 153.952 174.435H151.574V172.833H153.629C154.013 172.833 154.33 172.767 154.58 172.634C154.832 172.499 155.02 172.313 155.143 172.076C155.269 171.836 155.332 171.56 155.332 171.249C155.332 170.935 155.269 170.661 155.143 170.428C155.02 170.191 154.832 170.007 154.58 169.878C154.327 169.746 154.007 169.68 153.619 169.68H152.271V177.5H150.272ZM163.818 170.765C163.781 170.392 163.623 170.103 163.343 169.897C163.063 169.69 162.683 169.587 162.203 169.587C161.876 169.587 161.601 169.634 161.376 169.726C161.152 169.815 160.979 169.94 160.859 170.1C160.742 170.26 160.684 170.441 160.684 170.645C160.678 170.814 160.713 170.962 160.79 171.088C160.87 171.214 160.979 171.323 161.118 171.415C161.256 171.505 161.416 171.583 161.598 171.651C161.779 171.716 161.973 171.771 162.179 171.817L163.029 172.02C163.441 172.113 163.82 172.236 164.165 172.39C164.509 172.543 164.808 172.733 165.06 172.957C165.313 173.182 165.508 173.447 165.646 173.751C165.788 174.056 165.86 174.405 165.863 174.799C165.86 175.378 165.713 175.88 165.42 176.304C165.131 176.726 164.712 177.054 164.165 177.288C163.62 177.518 162.963 177.634 162.193 177.634C161.43 177.634 160.765 177.517 160.199 177.283C159.636 177.049 159.196 176.703 158.879 176.244C158.565 175.783 158.4 175.212 158.385 174.532H160.319C160.341 174.849 160.431 175.113 160.591 175.326C160.755 175.535 160.971 175.693 161.242 175.801C161.516 175.906 161.826 175.958 162.17 175.958C162.509 175.958 162.803 175.909 163.052 175.81C163.304 175.712 163.5 175.575 163.638 175.4C163.777 175.224 163.846 175.022 163.846 174.795C163.846 174.582 163.783 174.404 163.657 174.259C163.534 174.115 163.352 173.991 163.112 173.89C162.875 173.788 162.584 173.696 162.239 173.613L161.21 173.354C160.413 173.161 159.784 172.857 159.322 172.445C158.86 172.033 158.631 171.477 158.634 170.778C158.631 170.206 158.783 169.706 159.091 169.278C159.402 168.85 159.828 168.516 160.37 168.276C160.911 168.036 161.527 167.916 162.216 167.916C162.918 167.916 163.531 168.036 164.054 168.276C164.58 168.516 164.989 168.85 165.282 169.278C165.574 169.706 165.725 170.201 165.734 170.765H163.818ZM173.048 168.045H175.047V174.185C175.047 174.875 174.882 175.478 174.553 175.995C174.227 176.512 173.77 176.915 173.182 177.205C172.594 177.491 171.909 177.634 171.127 177.634C170.343 177.634 169.656 177.491 169.068 177.205C168.481 176.915 168.024 176.512 167.697 175.995C167.371 175.478 167.208 174.875 167.208 174.185V168.045H169.207V174.015C169.207 174.375 169.285 174.695 169.442 174.975C169.602 175.255 169.827 175.475 170.116 175.635C170.406 175.795 170.743 175.875 171.127 175.875C171.515 175.875 171.852 175.795 172.138 175.635C172.428 175.475 172.651 175.255 172.808 174.975C172.968 174.695 173.048 174.375 173.048 174.015V168.045ZM176.691 168.045H179.157L181.76 174.398H181.871L184.475 168.045H186.94V177.5H185.001V171.346H184.923L182.476 177.454H181.155L178.709 171.323H178.63V177.5H176.691V168.045Z" fill="black"/>
<path d="M101.33 200.67H102.625L103.537 201.859L103.968 202.388L105.421 204.284H104.074L103.102 203.018L102.77 202.558L101.33 200.67ZM105.702 199.136C105.702 200.068 105.531 200.869 105.191 201.54C104.85 202.207 104.382 202.722 103.789 203.082C103.198 203.44 102.526 203.619 101.773 203.619C101.017 203.619 100.343 203.44 99.7488 203.082C99.1578 202.722 98.6919 202.206 98.351 201.536C98.0101 200.865 97.8397 200.065 97.8397 199.136C97.8397 198.205 98.0101 197.405 98.351 196.737C98.6919 196.067 99.1578 195.553 99.7488 195.195C100.343 194.834 101.017 194.653 101.773 194.653C102.526 194.653 103.198 194.834 103.789 195.195C104.382 195.553 104.85 196.067 105.191 196.737C105.531 197.405 105.702 198.205 105.702 199.136ZM104.398 199.136C104.398 198.426 104.283 197.828 104.053 197.342C103.825 196.854 103.513 196.484 103.115 196.234C102.72 195.982 102.273 195.855 101.773 195.855C101.27 195.855 100.821 195.982 100.426 196.234C100.031 196.484 99.7189 196.854 99.4888 197.342C99.2615 197.828 99.1479 198.426 99.1479 199.136C99.1479 199.847 99.2615 200.446 99.4888 200.935C99.7189 201.42 100.031 201.79 100.426 202.043C100.821 202.293 101.27 202.418 101.773 202.418C102.273 202.418 102.72 202.293 103.115 202.043C103.513 201.79 103.825 201.42 104.053 200.935C104.283 200.446 104.398 199.847 104.398 199.136ZM111.388 200.786V196.955H112.666V203.5H111.413V202.366H111.345C111.194 202.716 110.953 203.007 110.621 203.24C110.291 203.47 109.881 203.585 109.389 203.585C108.969 203.585 108.596 203.493 108.273 203.308C107.952 203.121 107.699 202.844 107.514 202.477C107.332 202.111 107.241 201.658 107.241 201.118V196.955H108.515V200.964C108.515 201.411 108.639 201.766 108.886 202.03C109.133 202.294 109.454 202.426 109.849 202.426C110.088 202.426 110.325 202.366 110.561 202.247C110.8 202.128 110.997 201.947 111.153 201.706C111.312 201.464 111.39 201.158 111.388 200.786ZM116.283 203.645C115.868 203.645 115.493 203.568 115.158 203.415C114.823 203.259 114.557 203.033 114.361 202.737C114.168 202.442 114.071 202.08 114.071 201.651C114.071 201.281 114.142 200.977 114.284 200.739C114.426 200.5 114.618 200.311 114.86 200.172C115.101 200.033 115.371 199.928 115.669 199.857C115.968 199.786 116.271 199.732 116.581 199.695C116.973 199.649 117.291 199.612 117.536 199.584C117.78 199.553 117.958 199.503 118.068 199.435C118.179 199.366 118.235 199.256 118.235 199.102V199.072C118.235 198.7 118.129 198.412 117.919 198.207C117.712 198.003 117.402 197.901 116.99 197.901C116.561 197.901 116.223 197.996 115.976 198.186C115.732 198.374 115.563 198.582 115.469 198.812L114.271 198.54C114.414 198.142 114.621 197.821 114.894 197.577C115.169 197.33 115.486 197.151 115.844 197.04C116.202 196.926 116.578 196.869 116.973 196.869C117.235 196.869 117.512 196.901 117.804 196.963C118.1 197.023 118.375 197.134 118.631 197.295C118.889 197.457 119.101 197.689 119.266 197.99C119.431 198.288 119.513 198.676 119.513 199.153V203.5H118.269V202.605H118.218C118.135 202.77 118.012 202.932 117.847 203.091C117.682 203.25 117.47 203.382 117.212 203.487C116.953 203.592 116.644 203.645 116.283 203.645ZM116.56 202.622C116.912 202.622 117.213 202.553 117.463 202.413C117.716 202.274 117.908 202.092 118.039 201.868C118.172 201.641 118.239 201.398 118.239 201.139V200.295C118.193 200.341 118.105 200.384 117.975 200.423C117.847 200.46 117.7 200.493 117.536 200.521C117.371 200.547 117.21 200.571 117.054 200.594C116.898 200.614 116.767 200.631 116.662 200.645C116.415 200.676 116.189 200.729 115.985 200.803C115.783 200.876 115.621 200.983 115.499 201.122C115.379 201.259 115.32 201.44 115.32 201.668C115.32 201.983 115.436 202.222 115.669 202.384C115.902 202.543 116.199 202.622 116.56 202.622ZM122.484 199.614V203.5H121.21V196.955H122.433V198.02H122.514C122.665 197.673 122.9 197.395 123.221 197.185C123.545 196.974 123.953 196.869 124.444 196.869C124.89 196.869 125.281 196.963 125.616 197.151C125.952 197.335 126.211 197.611 126.396 197.977C126.581 198.344 126.673 198.797 126.673 199.337V203.5H125.399V199.49C125.399 199.016 125.275 198.645 125.028 198.378C124.781 198.108 124.442 197.973 124.01 197.973C123.714 197.973 123.452 198.037 123.221 198.165C122.994 198.293 122.814 198.48 122.68 198.727C122.55 198.972 122.484 199.267 122.484 199.614ZM131.437 196.955V197.977H127.862V196.955H131.437ZM128.821 195.386H130.095V201.578C130.095 201.825 130.132 202.011 130.206 202.136C130.28 202.259 130.375 202.342 130.491 202.388C130.611 202.43 130.74 202.452 130.879 202.452C130.981 202.452 131.071 202.445 131.148 202.43C131.224 202.416 131.284 202.405 131.327 202.396L131.557 203.449C131.483 203.477 131.378 203.506 131.241 203.534C131.105 203.565 130.934 203.582 130.73 203.585C130.395 203.591 130.082 203.531 129.792 203.406C129.503 203.281 129.268 203.088 129.089 202.827C128.91 202.565 128.821 202.237 128.821 201.842V195.386ZM132.847 203.5V196.955H134.121V203.5H132.847ZM133.49 195.945C133.269 195.945 133.078 195.871 132.919 195.723C132.763 195.572 132.685 195.393 132.685 195.186C132.685 194.976 132.763 194.797 132.919 194.649C133.078 194.499 133.269 194.423 133.49 194.423C133.712 194.423 133.901 194.499 134.057 194.649C134.216 194.797 134.296 194.976 134.296 195.186C134.296 195.393 134.216 195.572 134.057 195.723C133.901 195.871 133.712 195.945 133.49 195.945ZM138.89 196.955V197.977H135.315V196.955H138.89ZM136.274 195.386H137.548V201.578C137.548 201.825 137.585 202.011 137.659 202.136C137.733 202.259 137.828 202.342 137.944 202.388C138.064 202.43 138.193 202.452 138.332 202.452C138.434 202.452 138.524 202.445 138.601 202.43C138.677 202.416 138.737 202.405 138.78 202.396L139.01 203.449C138.936 203.477 138.831 203.506 138.694 203.534C138.558 203.565 138.388 203.582 138.183 203.585C137.848 203.591 137.535 203.531 137.246 203.406C136.956 203.281 136.721 203.088 136.542 202.827C136.363 202.565 136.274 202.237 136.274 201.842V195.386ZM143.051 203.632C142.406 203.632 141.85 203.494 141.384 203.219C140.921 202.94 140.563 202.55 140.311 202.047C140.061 201.541 139.936 200.949 139.936 200.27C139.936 199.599 140.061 199.009 140.311 198.497C140.563 197.986 140.916 197.587 141.367 197.3C141.822 197.013 142.353 196.869 142.961 196.869C143.33 196.869 143.688 196.93 144.035 197.053C144.382 197.175 144.693 197.366 144.968 197.628C145.244 197.889 145.461 198.229 145.62 198.646C145.779 199.061 145.859 199.565 145.859 200.159V200.611H140.656V199.656H144.61C144.61 199.321 144.542 199.024 144.406 198.766C144.269 198.504 144.078 198.298 143.83 198.148C143.586 197.997 143.299 197.922 142.97 197.922C142.612 197.922 142.299 198.01 142.032 198.186C141.768 198.359 141.563 198.587 141.419 198.868C141.276 199.146 141.205 199.449 141.205 199.776V200.521C141.205 200.959 141.282 201.331 141.436 201.638C141.592 201.945 141.809 202.179 142.088 202.341C142.366 202.5 142.691 202.58 143.063 202.58C143.305 202.58 143.525 202.545 143.724 202.477C143.923 202.406 144.095 202.301 144.24 202.162C144.384 202.023 144.495 201.851 144.572 201.646L145.778 201.864C145.681 202.219 145.508 202.53 145.258 202.797C145.011 203.061 144.7 203.267 144.325 203.415C143.953 203.56 143.528 203.632 143.051 203.632ZM142.386 196.081L143.383 194.116H144.725L143.404 196.081H142.386ZM151.288 202.418C151.055 202.418 150.855 202.335 150.687 202.17C150.519 202.003 150.436 201.801 150.436 201.565C150.436 201.332 150.519 201.134 150.687 200.969C150.855 200.801 151.055 200.717 151.288 200.717C151.521 200.717 151.721 200.801 151.889 200.969C152.056 201.134 152.14 201.332 152.14 201.565C152.14 201.722 152.1 201.865 152.021 201.996C151.944 202.124 151.842 202.226 151.714 202.303C151.586 202.379 151.444 202.418 151.288 202.418ZM151.288 198.045C151.055 198.045 150.855 197.963 150.687 197.798C150.519 197.631 150.436 197.429 150.436 197.193C150.436 196.96 150.519 196.761 150.687 196.597C150.855 196.429 151.055 196.345 151.288 196.345C151.521 196.345 151.721 196.429 151.889 196.597C152.056 196.761 152.14 196.96 152.14 197.193C152.14 197.349 152.1 197.493 152.021 197.624C151.944 197.751 151.842 197.854 151.714 197.93C151.586 198.007 151.444 198.045 151.288 198.045ZM160.317 194.773V203.5H158.996V196.094H158.944L156.856 197.457V196.196L159.034 194.773H160.317Z" fill="black"/>
<path d="M103.766 216.832L103.361 217.71H97.7571L98.0767 216.832H103.766ZM103.003 218.562L102.589 219.449H97.7571L98.0767 218.562H103.003ZM104.805 214.518L104.303 215.597C104.143 215.46 103.97 215.337 103.783 215.226C103.595 215.115 103.393 215.027 103.178 214.962C102.962 214.893 102.73 214.859 102.483 214.859C102.028 214.859 101.624 214.982 101.268 215.226C100.913 215.47 100.634 215.837 100.429 216.325C100.227 216.811 100.126 217.416 100.126 218.141C100.126 218.865 100.227 219.47 100.429 219.956C100.634 220.442 100.913 220.807 101.268 221.051C101.624 221.293 102.028 221.413 102.483 221.413C102.733 221.413 102.966 221.381 103.182 221.315C103.401 221.25 103.599 221.165 103.778 221.06C103.96 220.952 104.124 220.838 104.268 220.719L104.784 221.793C104.483 222.065 104.134 222.271 103.736 222.411C103.338 222.55 102.92 222.619 102.483 222.619C101.77 222.619 101.138 222.439 100.587 222.078C100.038 221.717 99.608 221.203 99.2955 220.536C98.983 219.865 98.8267 219.067 98.8267 218.141C98.8267 217.212 98.983 216.412 99.2955 215.741C99.608 215.071 100.038 214.555 100.587 214.195C101.138 213.834 101.77 213.653 102.483 213.653C102.938 213.653 103.361 213.729 103.753 213.879C104.145 214.027 104.496 214.24 104.805 214.518ZM111.828 216.832L111.423 217.71H105.82L106.139 216.832H111.828ZM111.065 218.562L110.652 219.449H105.82L106.139 218.562H111.065ZM112.868 214.518L112.365 215.597C112.206 215.46 112.033 215.337 111.845 215.226C111.658 215.115 111.456 215.027 111.24 214.962C111.024 214.893 110.793 214.859 110.545 214.859C110.091 214.859 109.686 214.982 109.331 215.226C108.976 215.47 108.696 215.837 108.491 216.325C108.29 216.811 108.189 217.416 108.189 218.141C108.189 218.865 108.29 219.47 108.491 219.956C108.696 220.442 108.976 220.807 109.331 221.051C109.686 221.293 110.091 221.413 110.545 221.413C110.795 221.413 111.028 221.381 111.244 221.315C111.463 221.25 111.662 221.165 111.841 221.06C112.023 220.952 112.186 220.838 112.331 220.719L112.847 221.793C112.545 222.065 112.196 222.271 111.798 222.411C111.401 222.55 110.983 222.619 110.545 222.619C109.832 222.619 109.2 222.439 108.649 222.078C108.101 221.717 107.67 221.203 107.358 220.536C107.045 219.865 106.889 219.067 106.889 218.141C106.889 217.212 107.045 216.412 107.358 215.741C107.67 215.071 108.101 214.555 108.649 214.195C109.2 213.834 109.832 213.653 110.545 213.653C111 213.653 111.423 213.729 111.815 213.879C112.207 214.027 112.558 214.24 112.868 214.518Z" fill="black"/>
<rect y="261" width="73" height="73" rx="4" fill="#D9D9D9"/>
<path d="M98.0566 281.5V272.045H100.056V279.852H104.109V281.5H98.0566ZM113.753 276.773C113.753 277.804 113.557 278.681 113.166 279.404C112.779 280.127 112.249 280.68 111.578 281.061C110.91 281.44 110.159 281.629 109.325 281.629C108.485 281.629 107.731 281.438 107.063 281.057C106.395 280.675 105.868 280.123 105.48 279.4C105.092 278.676 104.898 277.801 104.898 276.773C104.898 275.742 105.092 274.865 105.48 274.141C105.868 273.418 106.395 272.867 107.063 272.489C107.731 272.107 108.485 271.916 109.325 271.916C110.159 271.916 110.91 272.107 111.578 272.489C112.249 272.867 112.779 273.418 113.166 274.141C113.557 274.865 113.753 275.742 113.753 276.773ZM111.726 276.773C111.726 276.105 111.626 275.542 111.426 275.083C111.229 274.625 110.95 274.277 110.59 274.04C110.23 273.803 109.809 273.684 109.325 273.684C108.842 273.684 108.421 273.803 108.061 274.04C107.7 274.277 107.42 274.625 107.22 275.083C107.023 275.542 106.925 276.105 106.925 276.773C106.925 277.441 107.023 278.004 107.22 278.462C107.42 278.921 107.7 279.269 108.061 279.506C108.421 279.743 108.842 279.861 109.325 279.861C109.809 279.861 110.23 279.743 110.59 279.506C110.95 279.269 111.229 278.921 111.426 278.462C111.626 278.004 111.726 277.441 111.726 276.773ZM115.233 281.5V272.045H118.963C119.677 272.045 120.287 272.173 120.792 272.429C121.299 272.681 121.686 273.04 121.95 273.504C122.218 273.966 122.352 274.509 122.352 275.134C122.352 275.762 122.217 276.302 121.946 276.754C121.675 277.204 121.282 277.548 120.769 277.788C120.258 278.028 119.639 278.148 118.913 278.148H116.415V276.542H118.59C118.971 276.542 119.288 276.49 119.541 276.385C119.793 276.28 119.981 276.123 120.104 275.914C120.23 275.705 120.293 275.445 120.293 275.134C120.293 274.82 120.23 274.555 120.104 274.34C119.981 274.124 119.791 273.961 119.536 273.85C119.284 273.737 118.965 273.68 118.58 273.68H117.232V281.5H115.233ZM120.339 277.197L122.689 281.5H120.482L118.183 277.197H120.339ZM123.765 281.5V272.045H130.135V273.694H125.764V275.946H129.808V277.594H125.764V279.852H130.154V281.5H123.765ZM131.725 272.045H134.19L136.793 278.398H136.904L139.508 272.045H141.973V281.5H140.034V275.346H139.956L137.509 281.454H136.189L133.742 275.323H133.663V281.5H131.725V272.045ZM148.628 272.045V281.5H146.629V272.045H148.628ZM150.272 281.5V272.045H154.003C154.72 272.045 155.331 272.182 155.835 272.456C156.34 272.727 156.725 273.104 156.989 273.587C157.257 274.067 157.391 274.621 157.391 275.249C157.391 275.877 157.256 276.431 156.985 276.911C156.714 277.391 156.322 277.765 155.808 278.033C155.297 278.301 154.678 278.435 153.952 278.435H151.574V276.833H153.629C154.013 276.833 154.33 276.767 154.58 276.634C154.832 276.499 155.02 276.313 155.143 276.076C155.269 275.836 155.332 275.56 155.332 275.249C155.332 274.935 155.269 274.661 155.143 274.428C155.02 274.191 154.832 274.007 154.58 273.878C154.327 273.746 154.007 273.68 153.619 273.68H152.271V281.5H150.272ZM163.818 274.765C163.781 274.392 163.623 274.103 163.343 273.897C163.063 273.69 162.683 273.587 162.203 273.587C161.876 273.587 161.601 273.634 161.376 273.726C161.152 273.815 160.979 273.94 160.859 274.1C160.742 274.26 160.684 274.441 160.684 274.645C160.678 274.814 160.713 274.962 160.79 275.088C160.87 275.214 160.979 275.323 161.118 275.415C161.256 275.505 161.416 275.583 161.598 275.651C161.779 275.716 161.973 275.771 162.179 275.817L163.029 276.02C163.441 276.113 163.82 276.236 164.165 276.39C164.509 276.543 164.808 276.733 165.06 276.957C165.313 277.182 165.508 277.447 165.646 277.751C165.788 278.056 165.86 278.405 165.863 278.799C165.86 279.378 165.713 279.88 165.42 280.304C165.131 280.726 164.712 281.054 164.165 281.288C163.62 281.518 162.963 281.634 162.193 281.634C161.43 281.634 160.765 281.517 160.199 281.283C159.636 281.049 159.196 280.703 158.879 280.244C158.565 279.783 158.4 279.212 158.385 278.532H160.319C160.341 278.849 160.431 279.113 160.591 279.326C160.755 279.535 160.971 279.693 161.242 279.801C161.516 279.906 161.826 279.958 162.17 279.958C162.509 279.958 162.803 279.909 163.052 279.81C163.304 279.712 163.5 279.575 163.638 279.4C163.777 279.224 163.846 279.022 163.846 278.795C163.846 278.582 163.783 278.404 163.657 278.259C163.534 278.115 163.352 277.991 163.112 277.89C162.875 277.788 162.584 277.696 162.239 277.613L161.21 277.354C160.413 277.161 159.784 276.857 159.322 276.445C158.86 276.033 158.631 275.477 158.634 274.778C158.631 274.206 158.783 273.706 159.091 273.278C159.402 272.85 159.828 272.516 160.37 272.276C160.911 272.036 161.527 271.916 162.216 271.916C162.918 271.916 163.531 272.036 164.054 272.276C164.58 272.516 164.989 272.85 165.282 273.278C165.574 273.706 165.725 274.201 165.734 274.765H163.818ZM173.048 272.045H175.047V278.185C175.047 278.875 174.882 279.478 174.553 279.995C174.227 280.512 173.77 280.915 173.182 281.205C172.594 281.491 171.909 281.634 171.127 281.634C170.343 281.634 169.656 281.491 169.068 281.205C168.481 280.915 168.024 280.512 167.697 279.995C167.371 279.478 167.208 278.875 167.208 278.185V272.045H169.207V278.015C169.207 278.375 169.285 278.695 169.442 278.975C169.602 279.255 169.827 279.475 170.116 279.635C170.406 279.795 170.743 279.875 171.127 279.875C171.515 279.875 171.852 279.795 172.138 279.635C172.428 279.475 172.651 279.255 172.808 278.975C172.968 278.695 173.048 278.375 173.048 278.015V272.045ZM176.691 272.045H179.157L181.76 278.398H181.871L184.475 272.045H186.94V281.5H185.001V275.346H184.923L182.476 281.454H181.155L178.709 275.323H178.63V281.5H176.691V272.045Z" fill="black"/>
<path d="M101.33 304.67H102.625L103.537 305.859L103.968 306.388L105.421 308.284H104.074L103.102 307.018L102.77 306.558L101.33 304.67ZM105.702 303.136C105.702 304.068 105.531 304.869 105.191 305.54C104.85 306.207 104.382 306.722 103.789 307.082C103.198 307.44 102.526 307.619 101.773 307.619C101.017 307.619 100.343 307.44 99.7488 307.082C99.1578 306.722 98.6919 306.206 98.351 305.536C98.0101 304.865 97.8397 304.065 97.8397 303.136C97.8397 302.205 98.0101 301.405 98.351 300.737C98.6919 300.067 99.1578 299.553 99.7488 299.195C100.343 298.834 101.017 298.653 101.773 298.653C102.526 298.653 103.198 298.834 103.789 299.195C104.382 299.553 104.85 300.067 105.191 300.737C105.531 301.405 105.702 302.205 105.702 303.136ZM104.398 303.136C104.398 302.426 104.283 301.828 104.053 301.342C103.825 300.854 103.513 300.484 103.115 300.234C102.72 299.982 102.273 299.855 101.773 299.855C101.27 299.855 100.821 299.982 100.426 300.234C100.031 300.484 99.7189 300.854 99.4888 301.342C99.2615 301.828 99.1479 302.426 99.1479 303.136C99.1479 303.847 99.2615 304.446 99.4888 304.935C99.7189 305.42 100.031 305.79 100.426 306.043C100.821 306.293 101.27 306.418 101.773 306.418C102.273 306.418 102.72 306.293 103.115 306.043C103.513 305.79 103.825 305.42 104.053 304.935C104.283 304.446 104.398 303.847 104.398 303.136ZM111.388 304.786V300.955H112.666V307.5H111.413V306.366H111.345C111.194 306.716 110.953 307.007 110.621 307.24C110.291 307.47 109.881 307.585 109.389 307.585C108.969 307.585 108.596 307.493 108.273 307.308C107.952 307.121 107.699 306.844 107.514 306.477C107.332 306.111 107.241 305.658 107.241 305.118V300.955H108.515V304.964C108.515 305.411 108.639 305.766 108.886 306.03C109.133 306.294 109.454 306.426 109.849 306.426C110.088 306.426 110.325 306.366 110.561 306.247C110.8 306.128 110.997 305.947 111.153 305.706C111.312 305.464 111.39 305.158 111.388 304.786ZM116.283 307.645C115.868 307.645 115.493 307.568 115.158 307.415C114.823 307.259 114.557 307.033 114.361 306.737C114.168 306.442 114.071 306.08 114.071 305.651C114.071 305.281 114.142 304.977 114.284 304.739C114.426 304.5 114.618 304.311 114.86 304.172C115.101 304.033 115.371 303.928 115.669 303.857C115.968 303.786 116.271 303.732 116.581 303.695C116.973 303.649 117.291 303.612 117.536 303.584C117.78 303.553 117.958 303.503 118.068 303.435C118.179 303.366 118.235 303.256 118.235 303.102V303.072C118.235 302.7 118.129 302.412 117.919 302.207C117.712 302.003 117.402 301.901 116.99 301.901C116.561 301.901 116.223 301.996 115.976 302.186C115.732 302.374 115.563 302.582 115.469 302.812L114.271 302.54C114.414 302.142 114.621 301.821 114.894 301.577C115.169 301.33 115.486 301.151 115.844 301.04C116.202 300.926 116.578 300.869 116.973 300.869C117.235 300.869 117.512 300.901 117.804 300.963C118.1 301.023 118.375 301.134 118.631 301.295C118.889 301.457 119.101 301.689 119.266 301.99C119.431 302.288 119.513 302.676 119.513 303.153V307.5H118.269V306.605H118.218C118.135 306.77 118.012 306.932 117.847 307.091C117.682 307.25 117.47 307.382 117.212 307.487C116.953 307.592 116.644 307.645 116.283 307.645ZM116.56 306.622C116.912 306.622 117.213 306.553 117.463 306.413C117.716 306.274 117.908 306.092 118.039 305.868C118.172 305.641 118.239 305.398 118.239 305.139V304.295C118.193 304.341 118.105 304.384 117.975 304.423C117.847 304.46 117.7 304.493 117.536 304.521C117.371 304.547 117.21 304.571 117.054 304.594C116.898 304.614 116.767 304.631 116.662 304.645C116.415 304.676 116.189 304.729 115.985 304.803C115.783 304.876 115.621 304.983 115.499 305.122C115.379 305.259 115.32 305.44 115.32 305.668C115.32 305.983 115.436 306.222 115.669 306.384C115.902 306.543 116.199 306.622 116.56 306.622ZM122.484 303.614V307.5H121.21V300.955H122.433V302.02H122.514C122.665 301.673 122.9 301.395 123.221 301.185C123.545 300.974 123.953 300.869 124.444 300.869C124.89 300.869 125.281 300.963 125.616 301.151C125.952 301.335 126.211 301.611 126.396 301.977C126.581 302.344 126.673 302.797 126.673 303.337V307.5H125.399V303.49C125.399 303.016 125.275 302.645 125.028 302.378C124.781 302.108 124.442 301.973 124.01 301.973C123.714 301.973 123.452 302.037 123.221 302.165C122.994 302.293 122.814 302.48 122.68 302.727C122.55 302.972 122.484 303.267 122.484 303.614ZM131.437 300.955V301.977H127.862V300.955H131.437ZM128.821 299.386H130.095V305.578C130.095 305.825 130.132 306.011 130.206 306.136C130.28 306.259 130.375 306.342 130.491 306.388C130.611 306.43 130.74 306.452 130.879 306.452C130.981 306.452 131.071 306.445 131.148 306.43C131.224 306.416 131.284 306.405 131.327 306.396L131.557 307.449C131.483 307.477 131.378 307.506 131.241 307.534C131.105 307.565 130.934 307.582 130.73 307.585C130.395 307.591 130.082 307.531 129.792 307.406C129.503 307.281 129.268 307.088 129.089 306.827C128.91 306.565 128.821 306.237 128.821 305.842V299.386ZM132.847 307.5V300.955H134.121V307.5H132.847ZM133.49 299.945C133.269 299.945 133.078 299.871 132.919 299.723C132.763 299.572 132.685 299.393 132.685 299.186C132.685 298.976 132.763 298.797 132.919 298.649C133.078 298.499 133.269 298.423 133.49 298.423C133.712 298.423 133.901 298.499 134.057 298.649C134.216 298.797 134.296 298.976 134.296 299.186C134.296 299.393 134.216 299.572 134.057 299.723C133.901 299.871 133.712 299.945 133.49 299.945ZM138.89 300.955V301.977H135.315V300.955H138.89ZM136.274 299.386H137.548V305.578C137.548 305.825 137.585 306.011 137.659 306.136C137.733 306.259 137.828 306.342 137.944 306.388C138.064 306.43 138.193 306.452 138.332 306.452C138.434 306.452 138.524 306.445 138.601 306.43C138.677 306.416 138.737 306.405 138.78 306.396L139.01 307.449C138.936 307.477 138.831 307.506 138.694 307.534C138.558 307.565 138.388 307.582 138.183 307.585C137.848 307.591 137.535 307.531 137.246 307.406C136.956 307.281 136.721 307.088 136.542 306.827C136.363 306.565 136.274 306.237 136.274 305.842V299.386ZM143.051 307.632C142.406 307.632 141.85 307.494 141.384 307.219C140.921 306.94 140.563 306.55 140.311 306.047C140.061 305.541 139.936 304.949 139.936 304.27C139.936 303.599 140.061 303.009 140.311 302.497C140.563 301.986 140.916 301.587 141.367 301.3C141.822 301.013 142.353 300.869 142.961 300.869C143.33 300.869 143.688 300.93 144.035 301.053C144.382 301.175 144.693 301.366 144.968 301.628C145.244 301.889 145.461 302.229 145.62 302.646C145.779 303.061 145.859 303.565 145.859 304.159V304.611H140.656V303.656H144.61C144.61 303.321 144.542 303.024 144.406 302.766C144.269 302.504 144.078 302.298 143.83 302.148C143.586 301.997 143.299 301.922 142.97 301.922C142.612 301.922 142.299 302.01 142.032 302.186C141.768 302.359 141.563 302.587 141.419 302.868C141.276 303.146 141.205 303.449 141.205 303.776V304.521C141.205 304.959 141.282 305.331 141.436 305.638C141.592 305.945 141.809 306.179 142.088 306.341C142.366 306.5 142.691 306.58 143.063 306.58C143.305 306.58 143.525 306.545 143.724 306.477C143.923 306.406 144.095 306.301 144.24 306.162C144.384 306.023 144.495 305.851 144.572 305.646L145.778 305.864C145.681 306.219 145.508 306.53 145.258 306.797C145.011 307.061 144.7 307.267 144.325 307.415C143.953 307.56 143.528 307.632 143.051 307.632ZM142.386 300.081L143.383 298.116H144.725L143.404 300.081H142.386ZM151.288 306.418C151.055 306.418 150.855 306.335 150.687 306.17C150.519 306.003 150.436 305.801 150.436 305.565C150.436 305.332 150.519 305.134 150.687 304.969C150.855 304.801 151.055 304.717 151.288 304.717C151.521 304.717 151.721 304.801 151.889 304.969C152.056 305.134 152.14 305.332 152.14 305.565C152.14 305.722 152.1 305.865 152.021 305.996C151.944 306.124 151.842 306.226 151.714 306.303C151.586 306.379 151.444 306.418 151.288 306.418ZM151.288 302.045C151.055 302.045 150.855 301.963 150.687 301.798C150.519 301.631 150.436 301.429 150.436 301.193C150.436 300.96 150.519 300.761 150.687 300.597C150.855 300.429 151.055 300.345 151.288 300.345C151.521 300.345 151.721 300.429 151.889 300.597C152.056 300.761 152.14 300.96 152.14 301.193C152.14 301.349 152.1 301.493 152.021 301.624C151.944 301.751 151.842 301.854 151.714 301.93C151.586 302.007 151.444 302.045 151.288 302.045ZM160.317 298.773V307.5H158.996V300.094H158.944L156.856 301.457V300.196L159.034 298.773H160.317Z" fill="black"/>
<path d="M103.766 320.832L103.361 321.71H97.7571L98.0767 320.832H103.766ZM103.003 322.562L102.589 323.449H97.7571L98.0767 322.562H103.003ZM104.805 318.518L104.303 319.597C104.143 319.46 103.97 319.337 103.783 319.226C103.595 319.115 103.393 319.027 103.178 318.962C102.962 318.893 102.73 318.859 102.483 318.859C102.028 318.859 101.624 318.982 101.268 319.226C100.913 319.47 100.634 319.837 100.429 320.325C100.227 320.811 100.126 321.416 100.126 322.141C100.126 322.865 100.227 323.47 100.429 323.956C100.634 324.442 100.913 324.807 101.268 325.051C101.624 325.293 102.028 325.413 102.483 325.413C102.733 325.413 102.966 325.381 103.182 325.315C103.401 325.25 103.599 325.165 103.778 325.06C103.96 324.952 104.124 324.838 104.268 324.719L104.784 325.793C104.483 326.065 104.134 326.271 103.736 326.411C103.338 326.55 102.92 326.619 102.483 326.619C101.77 326.619 101.138 326.439 100.587 326.078C100.038 325.717 99.608 325.203 99.2955 324.536C98.983 323.865 98.8267 323.067 98.8267 322.141C98.8267 321.212 98.983 320.412 99.2955 319.741C99.608 319.071 100.038 318.555 100.587 318.195C101.138 317.834 101.77 317.653 102.483 317.653C102.938 317.653 103.361 317.729 103.753 317.879C104.145 318.027 104.496 318.24 104.805 318.518ZM111.828 320.832L111.423 321.71H105.82L106.139 320.832H111.828ZM111.065 322.562L110.652 323.449H105.82L106.139 322.562H111.065ZM112.868 318.518L112.365 319.597C112.206 319.46 112.033 319.337 111.845 319.226C111.658 319.115 111.456 319.027 111.24 318.962C111.024 318.893 110.793 318.859 110.545 318.859C110.091 318.859 109.686 318.982 109.331 319.226C108.976 319.47 108.696 319.837 108.491 320.325C108.29 320.811 108.189 321.416 108.189 322.141C108.189 322.865 108.29 323.47 108.491 323.956C108.696 324.442 108.976 324.807 109.331 325.051C109.686 325.293 110.091 325.413 110.545 325.413C110.795 325.413 111.028 325.381 111.244 325.315C111.463 325.25 111.662 325.165 111.841 325.06C112.023 324.952 112.186 324.838 112.331 324.719L112.847 325.793C112.545 326.065 112.196 326.271 111.798 326.411C111.401 326.55 110.983 326.619 110.545 326.619C109.832 326.619 109.2 326.439 108.649 326.078C108.101 325.717 107.67 325.203 107.358 324.536C107.045 323.865 106.889 323.067 106.889 322.141C106.889 321.212 107.045 320.412 107.358 319.741C107.67 319.071 108.101 318.555 108.649 318.195C109.2 317.834 109.832 317.653 110.545 317.653C111 317.653 111.423 317.729 111.815 317.879C112.207 318.027 112.558 318.24 112.868 318.518Z" fill="black"/>
</svg>
