<svg width="390" height="292" viewBox="0 0 390 292" fill="none" xmlns="http://www.w3.org/2000/svg">
<path d="M33.7058 28H30.4096V17.8182H33.8102C34.8078 17.8182 35.6646 18.022 36.3805 18.4297C37.0964 18.834 37.6449 19.4157 38.0261 20.1747C38.4106 20.9304 38.6028 21.8369 38.6028 22.8942C38.6028 23.9548 38.4089 24.8662 38.0211 25.6286C37.6367 26.3909 37.0798 26.9775 36.3507 27.3885C35.6215 27.7962 34.7399 28 33.7058 28ZM31.9458 26.6577H33.6213C34.3968 26.6577 35.0415 26.5118 35.5552 26.2202C36.069 25.9252 36.4534 25.4993 36.7086 24.9425C36.9638 24.3823 37.0914 23.6996 37.0914 22.8942C37.0914 22.0954 36.9638 21.4176 36.7086 20.8608C36.4567 20.304 36.0806 19.8814 35.5801 19.593C35.0796 19.3047 34.4582 19.1605 33.7157 19.1605H31.9458V26.6577ZM42.6161 28.169C42.1322 28.169 41.6947 28.0795 41.3036 27.9006C40.9125 27.7183 40.6026 27.4548 40.3739 27.1101C40.1486 26.7654 40.0359 26.3428 40.0359 25.8423C40.0359 25.4115 40.1187 25.0568 40.2844 24.7784C40.4502 24.5 40.6739 24.2796 40.9556 24.1172C41.2373 23.9548 41.5522 23.8321 41.9002 23.7493C42.2482 23.6664 42.6029 23.6035 42.9641 23.5604C43.4215 23.5073 43.7927 23.4643 44.0778 23.4311C44.3628 23.3946 44.57 23.3366 44.6992 23.2571C44.8285 23.1776 44.8931 23.0483 44.8931 22.8693V22.8345C44.8931 22.4003 44.7705 22.0639 44.5252 21.8253C44.2833 21.5866 43.922 21.4673 43.4414 21.4673C42.9409 21.4673 42.5465 21.5784 42.2582 21.8004C41.9731 22.0192 41.7759 22.2628 41.6665 22.5312L40.2695 22.2131C40.4353 21.7491 40.6772 21.3745 40.9954 21.0895C41.3169 20.8011 41.6864 20.5923 42.104 20.4631C42.5217 20.3305 42.9608 20.2642 43.4215 20.2642C43.7264 20.2642 44.0496 20.3007 44.391 20.3736C44.7357 20.4432 45.0572 20.5724 45.3555 20.7614C45.6571 20.9503 45.904 21.2204 46.0962 21.5717C46.2885 21.9197 46.3846 22.3722 46.3846 22.929V28H44.9329V26.956H44.8732C44.7771 27.1482 44.6329 27.3371 44.4407 27.5227C44.2485 27.7083 44.0015 27.8625 43.6999 27.9851C43.3983 28.1077 43.0371 28.169 42.6161 28.169ZM42.9393 26.9759C43.3503 26.9759 43.7016 26.8946 43.9933 26.7322C44.2882 26.5698 44.512 26.3577 44.6644 26.0959C44.8202 25.8307 44.8981 25.5473 44.8981 25.2457V24.2614C44.8451 24.3144 44.7423 24.3641 44.5898 24.4105C44.4407 24.4536 44.27 24.4917 44.0778 24.5249C43.8855 24.5547 43.6983 24.5829 43.516 24.6094C43.3337 24.6326 43.1812 24.6525 43.0586 24.669C42.7702 24.7055 42.5067 24.7668 42.2681 24.853C42.0328 24.9392 41.8439 25.0634 41.7013 25.2259C41.5621 25.3849 41.4925 25.5971 41.4925 25.8622C41.4925 26.2301 41.6284 26.5085 41.9002 26.6974C42.172 26.883 42.5183 26.9759 42.9393 26.9759ZM51.9292 20.3636V21.5568H47.758V20.3636H51.9292ZM48.8766 18.5341H50.3631V25.7578C50.3631 26.0462 50.4062 26.2633 50.4924 26.4091C50.5785 26.5516 50.6896 26.6494 50.8255 26.7024C50.9647 26.7521 51.1155 26.777 51.2779 26.777C51.3972 26.777 51.5016 26.7687 51.5911 26.7521C51.6806 26.7356 51.7502 26.7223 51.7999 26.7124L52.0684 27.9403C51.9822 27.9735 51.8596 28.0066 51.7005 28.0398C51.5414 28.0762 51.3425 28.0961 51.1039 28.0994C50.7128 28.1061 50.3482 28.0365 50.0101 27.8906C49.6721 27.7448 49.3986 27.5194 49.1898 27.2145C48.981 26.9096 48.8766 26.5268 48.8766 26.0661V18.5341ZM56.7827 28.1541C56.0303 28.1541 55.3823 27.9934 54.8388 27.6719C54.2985 27.3471 53.8809 26.8913 53.5859 26.3047C53.2943 25.7147 53.1484 25.0237 53.1484 24.2315C53.1484 23.4493 53.2943 22.7599 53.5859 22.1634C53.8809 21.5668 54.2919 21.1011 54.8189 20.7663C55.3492 20.4316 55.969 20.2642 56.6783 20.2642C57.1091 20.2642 57.5268 20.3355 57.9311 20.478C58.3355 20.6205 58.6984 20.8442 59.0199 21.1491C59.3414 21.4541 59.5949 21.8501 59.7805 22.3374C59.9661 22.8213 60.0589 23.4096 60.0589 24.1023V24.6293H53.9886V23.5156H58.6023C58.6023 23.1245 58.5227 22.7782 58.3636 22.4766C58.2045 22.1716 57.9808 21.9313 57.6925 21.7557C57.4074 21.58 57.0727 21.4922 56.6882 21.4922C56.2706 21.4922 55.906 21.5949 55.5945 21.8004C55.2862 22.0026 55.0476 22.2678 54.8786 22.5959C54.7128 22.9207 54.63 23.2737 54.63 23.6548V24.5249C54.63 25.0353 54.7195 25.4695 54.8984 25.8274C55.0807 26.1854 55.3343 26.4588 55.6591 26.6477C55.9839 26.8333 56.3634 26.9261 56.7976 26.9261C57.0793 26.9261 57.3362 26.8864 57.5682 26.8068C57.8002 26.724 58.0007 26.6013 58.1697 26.4389C58.3388 26.2765 58.468 26.076 58.5575 25.8374L59.9645 26.0909C59.8518 26.5052 59.6496 26.8681 59.358 27.1797C59.0696 27.4879 58.7067 27.7282 58.2692 27.9006C57.835 28.0696 57.3395 28.1541 56.7827 28.1541Z" fill="#636363"/>
<path d="M109.635 17.8182V28H108.224L103.048 20.5327H102.954V28H101.417V17.8182H102.839L108.02 25.2955H108.114V17.8182H109.635ZM112.737 28.0945C112.465 28.0945 112.231 27.9983 112.036 27.8061C111.84 27.6106 111.742 27.3752 111.742 27.1001C111.742 26.8284 111.84 26.5964 112.036 26.4041C112.231 26.2086 112.465 26.1108 112.737 26.1108C113.008 26.1108 113.242 26.2086 113.438 26.4041C113.633 26.5964 113.731 26.8284 113.731 27.1001C113.731 27.2824 113.684 27.4498 113.592 27.6023C113.502 27.7514 113.383 27.8707 113.234 27.9602C113.085 28.0497 112.919 28.0945 112.737 28.0945ZM122.122 28.1491C121.505 28.1491 120.955 27.9917 120.471 27.6768C119.99 27.3587 119.613 26.9062 119.338 26.3196C119.066 25.7296 118.93 25.022 118.93 24.1967C118.93 23.3714 119.067 22.6655 119.343 22.0788C119.621 21.4922 120.002 21.0431 120.486 20.7315C120.97 20.42 121.518 20.2642 122.132 20.2642C122.606 20.2642 122.987 20.3438 123.275 20.5028C123.567 20.6586 123.792 20.8409 123.951 21.0497C124.114 21.2585 124.24 21.4425 124.329 21.6016H124.419V17.8182H125.905V28H124.453V26.8118H124.329C124.24 26.9742 124.11 27.1598 123.941 27.3686C123.776 27.5774 123.547 27.7597 123.255 27.9155C122.963 28.0713 122.586 28.1491 122.122 28.1491ZM122.45 26.8814C122.877 26.8814 123.239 26.7687 123.534 26.5433C123.832 26.3146 124.057 25.9981 124.21 25.5938C124.365 25.1894 124.443 24.7187 124.443 24.1818C124.443 23.6515 124.367 23.1875 124.215 22.7898C124.062 22.392 123.838 22.0821 123.544 21.8601C123.249 21.638 122.884 21.527 122.45 21.527C122.002 21.527 121.629 21.643 121.331 21.875C121.033 22.107 120.807 22.4235 120.655 22.8246C120.506 23.2256 120.431 23.678 120.431 24.1818C120.431 24.6922 120.508 25.1513 120.66 25.5589C120.812 25.9666 121.038 26.2898 121.336 26.5284C121.638 26.7637 122.009 26.8814 122.45 26.8814ZM131.318 28.1541C130.565 28.1541 129.917 27.9934 129.374 27.6719C128.834 27.3471 128.416 26.8913 128.121 26.3047C127.829 25.7147 127.684 25.0237 127.684 24.2315C127.684 23.4493 127.829 22.7599 128.121 22.1634C128.416 21.5668 128.827 21.1011 129.354 20.7663C129.884 20.4316 130.504 20.2642 131.213 20.2642C131.644 20.2642 132.062 20.3355 132.466 20.478C132.871 20.6205 133.234 20.8442 133.555 21.1491C133.877 21.4541 134.13 21.8501 134.316 22.3374C134.501 22.8213 134.594 23.4096 134.594 24.1023V24.6293H128.524V23.5156H133.137C133.137 23.1245 133.058 22.7782 132.899 22.4766C132.74 22.1716 132.516 21.9313 132.228 21.7557C131.943 21.58 131.608 21.4922 131.223 21.4922C130.806 21.4922 130.441 21.5949 130.13 21.8004C129.821 22.0026 129.583 22.2678 129.414 22.5959C129.248 22.9207 129.165 23.2737 129.165 23.6548V24.5249C129.165 25.0353 129.255 25.4695 129.434 25.8274C129.616 26.1854 129.869 26.4588 130.194 26.6477C130.519 26.8333 130.899 26.9261 131.333 26.9261C131.614 26.9261 131.871 26.8864 132.103 26.8068C132.335 26.724 132.536 26.6013 132.705 26.4389C132.874 26.2765 133.003 26.076 133.093 25.8374L134.5 26.0909C134.387 26.5052 134.185 26.8681 133.893 27.1797C133.605 27.4879 133.242 27.7282 132.804 27.9006C132.37 28.0696 131.875 28.1541 131.318 28.1541ZM143.165 28.1541C142.426 28.1541 141.79 27.9867 141.256 27.652C140.726 27.3139 140.318 26.8482 140.033 26.255C139.748 25.6617 139.605 24.9822 139.605 24.2166C139.605 23.4411 139.751 22.7566 140.043 22.1634C140.335 21.5668 140.746 21.1011 141.276 20.7663C141.806 20.4316 142.431 20.2642 143.15 20.2642C143.73 20.2642 144.247 20.3719 144.701 20.5874C145.155 20.7995 145.522 21.0978 145.8 21.4822C146.082 21.8667 146.249 22.3158 146.302 22.8295H144.855C144.776 22.4716 144.594 22.1634 144.309 21.9048C144.027 21.6463 143.649 21.517 143.175 21.517C142.761 21.517 142.398 21.6264 142.086 21.8452C141.778 22.0606 141.538 22.3688 141.365 22.7699C141.193 23.1676 141.107 23.6383 141.107 24.1818C141.107 24.7386 141.191 25.2192 141.36 25.6236C141.529 26.0279 141.768 26.3411 142.076 26.5632C142.388 26.7853 142.754 26.8963 143.175 26.8963C143.457 26.8963 143.712 26.8449 143.941 26.7422C144.173 26.6361 144.367 26.4853 144.522 26.2898C144.681 26.0942 144.792 25.8589 144.855 25.5838H146.302C146.249 26.0777 146.088 26.5185 145.82 26.9062C145.551 27.294 145.192 27.599 144.741 27.821C144.294 28.0431 143.768 28.1541 143.165 28.1541ZM151.108 28.1541C150.393 28.1541 149.768 27.9901 149.234 27.6619C148.701 27.3338 148.286 26.8748 147.991 26.2848C147.696 25.6948 147.549 25.0054 147.549 24.2166C147.549 23.4245 147.696 22.7318 147.991 22.1385C148.286 21.5452 148.701 21.0845 149.234 20.7564C149.768 20.4283 150.393 20.2642 151.108 20.2642C151.824 20.2642 152.449 20.4283 152.983 20.7564C153.516 21.0845 153.931 21.5452 154.226 22.1385C154.521 22.7318 154.668 23.4245 154.668 24.2166C154.668 25.0054 154.521 25.6948 154.226 26.2848C153.931 26.8748 153.516 27.3338 152.983 27.6619C152.449 27.9901 151.824 28.1541 151.108 28.1541ZM151.113 26.9062C151.577 26.9062 151.962 26.7836 152.267 26.5384C152.572 26.2931 152.797 25.9666 152.943 25.5589C153.092 25.1513 153.167 24.7022 153.167 24.2116C153.167 23.7244 153.092 23.277 152.943 22.8693C152.797 22.4583 152.572 22.1286 152.267 21.88C151.962 21.6314 151.577 21.5071 151.113 21.5071C150.646 21.5071 150.258 21.6314 149.95 21.88C149.645 22.1286 149.418 22.4583 149.269 22.8693C149.123 23.277 149.05 23.7244 149.05 24.2116C149.05 24.7022 149.123 25.1513 149.269 25.5589C149.418 25.9666 149.645 26.2931 149.95 26.5384C150.258 26.7836 150.646 26.9062 151.113 26.9062ZM156.327 28V20.3636H157.754V21.6065H157.849C158.008 21.1856 158.268 20.8575 158.629 20.6222C158.991 20.3835 159.423 20.2642 159.927 20.2642C160.437 20.2642 160.865 20.3835 161.21 20.6222C161.558 20.8608 161.814 21.1889 161.98 21.6065H162.06C162.242 21.1989 162.532 20.8741 162.93 20.6321C163.327 20.3868 163.801 20.2642 164.352 20.2642C165.044 20.2642 165.609 20.4813 166.047 20.9155C166.488 21.3497 166.708 22.0043 166.708 22.8793V28H165.222V23.0185C165.222 22.5014 165.081 22.1269 164.799 21.8949C164.517 21.6629 164.181 21.5469 163.79 21.5469C163.306 21.5469 162.93 21.696 162.661 21.9943C162.393 22.2893 162.259 22.6688 162.259 23.1328V28H160.777V22.924C160.777 22.5097 160.648 22.1766 160.389 21.9247C160.131 21.6728 159.794 21.5469 159.38 21.5469C159.098 21.5469 158.838 21.6214 158.599 21.7706C158.364 21.9164 158.174 22.1203 158.028 22.3821C157.885 22.6439 157.814 22.9472 157.814 23.2919V28H156.327Z" fill="#636363"/>
<path d="M211.425 17.8182V28H210.013L204.837 20.5327H204.743V28H203.206V17.8182H204.628L209.809 25.2955H209.903V17.8182H211.425ZM213.665 28V17.8182H215.152V21.6016H215.241C215.328 21.4425 215.452 21.2585 215.614 21.0497C215.777 20.8409 216.002 20.6586 216.29 20.5028C216.579 20.3438 216.96 20.2642 217.434 20.2642C218.05 20.2642 218.601 20.42 219.085 20.7315C219.568 21.0431 219.948 21.4922 220.223 22.0788C220.501 22.6655 220.641 23.3714 220.641 24.1967C220.641 25.022 220.503 25.7296 220.228 26.3196C219.953 26.9062 219.575 27.3587 219.094 27.6768C218.614 27.9917 218.065 28.1491 217.449 28.1491C216.985 28.1491 216.605 28.0713 216.31 27.9155C216.019 27.7597 215.79 27.5774 215.624 27.3686C215.459 27.1598 215.331 26.9742 215.241 26.8118H215.117V28H213.665ZM215.122 24.1818C215.122 24.7187 215.2 25.1894 215.356 25.5938C215.512 25.9981 215.737 26.3146 216.032 26.5433C216.327 26.7687 216.688 26.8814 217.116 26.8814C217.56 26.8814 217.931 26.7637 218.229 26.5284C218.528 26.2898 218.753 25.9666 218.906 25.5589C219.061 25.1513 219.139 24.6922 219.139 24.1818C219.139 23.678 219.063 23.2256 218.911 22.8246C218.761 22.4235 218.536 22.107 218.234 21.875C217.936 21.643 217.563 21.527 217.116 21.527C216.685 21.527 216.32 21.638 216.022 21.8601C215.727 22.0821 215.503 22.392 215.351 22.7898C215.198 23.1875 215.122 23.6515 215.122 24.1818ZM228.874 28.1491C228.257 28.1491 227.707 27.9917 227.223 27.6768C226.742 27.3587 226.365 26.9062 226.089 26.3196C225.818 25.7296 225.682 25.022 225.682 24.1967C225.682 23.3714 225.819 22.6655 226.094 22.0788C226.373 21.4922 226.754 21.0431 227.238 20.7315C227.722 20.42 228.27 20.2642 228.884 20.2642C229.357 20.2642 229.739 20.3438 230.027 20.5028C230.319 20.6586 230.544 20.8409 230.703 21.0497C230.866 21.2585 230.991 21.4425 231.081 21.6016H231.17V17.8182H232.657V28H231.205V26.8118H231.081C230.991 26.9742 230.862 27.1598 230.693 27.3686C230.527 27.5774 230.299 27.7597 230.007 27.9155C229.715 28.0713 229.338 28.1491 228.874 28.1491ZM229.202 26.8814C229.629 26.8814 229.991 26.7687 230.286 26.5433C230.584 26.3146 230.809 25.9981 230.962 25.5938C231.117 25.1894 231.195 24.7187 231.195 24.1818C231.195 23.6515 231.119 23.1875 230.967 22.7898C230.814 22.392 230.59 22.0821 230.295 21.8601C230 21.638 229.636 21.527 229.202 21.527C228.754 21.527 228.381 21.643 228.083 21.875C227.785 22.107 227.559 22.4235 227.407 22.8246C227.258 23.2256 227.183 23.678 227.183 24.1818C227.183 24.6922 227.259 25.1513 227.412 25.5589C227.564 25.9666 227.79 26.2898 228.088 26.5284C228.39 26.7637 228.761 26.8814 229.202 26.8814ZM236.056 17.8182V18.7727C236.056 19.0545 236.003 19.3511 235.897 19.6626C235.794 19.9709 235.649 20.2675 235.46 20.5526C235.271 20.8376 235.049 21.0829 234.794 21.2884L234.058 20.7614C234.253 20.4763 234.422 20.1731 234.565 19.8516C234.711 19.5301 234.784 19.1754 234.784 18.7876V17.8182H236.056ZM238.997 28.169C238.513 28.169 238.076 28.0795 237.684 27.9006C237.293 27.7183 236.983 27.4548 236.755 27.1101C236.529 26.7654 236.417 26.3428 236.417 25.8423C236.417 25.4115 236.5 25.0568 236.665 24.7784C236.831 24.5 237.055 24.2796 237.336 24.1172C237.618 23.9548 237.933 23.8321 238.281 23.7493C238.629 23.6664 238.984 23.6035 239.345 23.5604C239.802 23.5073 240.174 23.4643 240.459 23.4311C240.744 23.3946 240.951 23.3366 241.08 23.2571C241.209 23.1776 241.274 23.0483 241.274 22.8693V22.8345C241.274 22.4003 241.151 22.0639 240.906 21.8253C240.664 21.5866 240.303 21.4673 239.822 21.4673C239.322 21.4673 238.927 21.5784 238.639 21.8004C238.354 22.0192 238.157 22.2628 238.047 22.5312L236.65 22.2131C236.816 21.7491 237.058 21.3745 237.376 21.0895C237.698 20.8011 238.067 20.5923 238.485 20.4631C238.903 20.3305 239.342 20.2642 239.802 20.2642C240.107 20.2642 240.43 20.3007 240.772 20.3736C241.117 20.4432 241.438 20.5724 241.736 20.7614C242.038 20.9503 242.285 21.2204 242.477 21.5717C242.669 21.9197 242.765 22.3722 242.765 22.929V28H241.314V26.956H241.254C241.158 27.1482 241.014 27.3371 240.822 27.5227C240.629 27.7083 240.382 27.8625 240.081 27.9851C239.779 28.1077 239.418 28.169 238.997 28.169ZM239.32 26.9759C239.731 26.9759 240.082 26.8946 240.374 26.7322C240.669 26.5698 240.893 26.3577 241.045 26.0959C241.201 25.8307 241.279 25.5473 241.279 25.2457V24.2614C241.226 24.3144 241.123 24.3641 240.971 24.4105C240.822 24.4536 240.651 24.4917 240.459 24.5249C240.266 24.5547 240.079 24.5829 239.897 24.6094C239.715 24.6326 239.562 24.6525 239.439 24.669C239.151 24.7055 238.888 24.7668 238.649 24.853C238.414 24.9392 238.225 25.0634 238.082 25.2259C237.943 25.3849 237.873 25.5971 237.873 25.8622C237.873 26.2301 238.009 26.5085 238.281 26.6974C238.553 26.883 238.899 26.9759 239.32 26.9759ZM244.745 28V20.3636H246.182V21.5767H246.262C246.401 21.1657 246.646 20.8426 246.998 20.6072C247.352 20.3686 247.753 20.2493 248.201 20.2493C248.293 20.2493 248.403 20.2526 248.529 20.2592C248.658 20.2659 248.759 20.2741 248.832 20.2841V21.706C248.772 21.6894 248.666 21.6712 248.514 21.6513C248.361 21.6281 248.209 21.6165 248.056 21.6165C247.705 21.6165 247.392 21.6911 247.117 21.8402C246.845 21.986 246.63 22.1899 246.471 22.4517C246.311 22.7102 246.232 23.0052 246.232 23.3366V28H244.745ZM254.134 20.3636V21.5568H249.963V20.3636H254.134ZM251.082 18.5341H252.568V25.7578C252.568 26.0462 252.611 26.2633 252.697 26.4091C252.784 26.5516 252.895 26.6494 253.031 26.7024C253.17 26.7521 253.321 26.777 253.483 26.777C253.602 26.777 253.707 26.7687 253.796 26.7521C253.886 26.7356 253.955 26.7223 254.005 26.7124L254.273 27.9403C254.187 27.9735 254.065 28.0066 253.906 28.0398C253.746 28.0762 253.548 28.0961 253.309 28.0994C252.918 28.1061 252.553 28.0365 252.215 27.8906C251.877 27.7448 251.604 27.5194 251.395 27.2145C251.186 26.9096 251.082 26.5268 251.082 26.0661V18.5341ZM255.779 28V20.3636H257.265V28H255.779ZM256.529 19.1854C256.271 19.1854 256.049 19.0992 255.863 18.9268C255.681 18.7512 255.59 18.5424 255.59 18.3004C255.59 18.0552 255.681 17.8464 255.863 17.674C256.049 17.4983 256.271 17.4105 256.529 17.4105C256.788 17.4105 257.008 17.4983 257.191 17.674C257.376 17.8464 257.469 18.0552 257.469 18.3004C257.469 18.5424 257.376 18.7512 257.191 18.9268C257.008 19.0992 256.788 19.1854 256.529 19.1854ZM262.482 28.1541C261.742 28.1541 261.106 27.9867 260.572 27.652C260.042 27.3139 259.634 26.8482 259.349 26.255C259.064 25.6617 258.922 24.9822 258.922 24.2166C258.922 23.4411 259.068 22.7566 259.359 22.1634C259.651 21.5668 260.062 21.1011 260.592 20.7663C261.123 20.4316 261.747 20.2642 262.467 20.2642C263.047 20.2642 263.564 20.3719 264.018 20.5874C264.472 20.7995 264.838 21.0978 265.116 21.4822C265.398 21.8667 265.566 22.3158 265.619 22.8295H264.172C264.092 22.4716 263.91 22.1634 263.625 21.9048C263.343 21.6463 262.965 21.517 262.491 21.517C262.077 21.517 261.714 21.6264 261.403 21.8452C261.094 22.0606 260.854 22.3688 260.682 22.7699C260.509 23.1676 260.423 23.6383 260.423 24.1818C260.423 24.7386 260.508 25.2192 260.677 25.6236C260.846 26.0279 261.085 26.3411 261.393 26.5632C261.704 26.7853 262.071 26.8963 262.491 26.8963C262.773 26.8963 263.028 26.8449 263.257 26.7422C263.489 26.6361 263.683 26.4853 263.839 26.2898C263.998 26.0942 264.109 25.8589 264.172 25.5838H265.619C265.566 26.0777 265.405 26.5185 265.136 26.9062C264.868 27.294 264.508 27.599 264.058 27.821C263.61 28.0431 263.085 28.1541 262.482 28.1541ZM268.695 17.8182V28H267.208V17.8182H268.695ZM273.986 28.1541C273.233 28.1541 272.585 27.9934 272.042 27.6719C271.502 27.3471 271.084 26.8913 270.789 26.3047C270.497 25.7147 270.352 25.0237 270.352 24.2315C270.352 23.4493 270.497 22.7599 270.789 22.1634C271.084 21.5668 271.495 21.1011 272.022 20.7663C272.552 20.4316 273.172 20.2642 273.881 20.2642C274.312 20.2642 274.73 20.3355 275.134 20.478C275.539 20.6205 275.902 20.8442 276.223 21.1491C276.545 21.4541 276.798 21.8501 276.984 22.3374C277.169 22.8213 277.262 23.4096 277.262 24.1023V24.6293H271.192V23.5156H275.805C275.805 23.1245 275.726 22.7782 275.567 22.4766C275.408 22.1716 275.184 21.9313 274.896 21.7557C274.611 21.58 274.276 21.4922 273.891 21.4922C273.474 21.4922 273.109 21.5949 272.798 21.8004C272.489 22.0026 272.251 22.2678 272.082 22.5959C271.916 22.9207 271.833 23.2737 271.833 23.6548V24.5249C271.833 25.0353 271.923 25.4695 272.102 25.8274C272.284 26.1854 272.537 26.4588 272.862 26.6477C273.187 26.8333 273.567 26.9261 274.001 26.9261C274.282 26.9261 274.539 26.8864 274.771 26.8068C275.003 26.724 275.204 26.6013 275.373 26.4389C275.542 26.2765 275.671 26.076 275.761 25.8374L277.168 26.0909C277.055 26.5052 276.853 26.8681 276.561 27.1797C276.273 27.4879 275.91 27.7282 275.472 27.9006C275.038 28.0696 274.543 28.1541 273.986 28.1541Z" fill="#636363"/>
<line y1="45.5" x2="390" y2="45.5" stroke="#D9D9D9"/>
<path d="M29.8153 81.3636V93H28.054V83.125H27.9858L25.2017 84.9432V83.2614L28.1051 81.3636H29.8153ZM36.8949 93.1591C36.0805 93.1591 35.3608 93.0189 34.7358 92.7386C34.1146 92.4583 33.6278 92.072 33.2756 91.5795C32.9233 91.0871 32.7491 90.5265 32.7528 89.8977C32.7491 89.4053 32.8494 88.9527 33.054 88.5398C33.2623 88.1231 33.5445 87.7765 33.9006 87.5C34.2566 87.2197 34.6544 87.0417 35.0938 86.9659V86.8977C34.5142 86.7576 34.0502 86.447 33.7017 85.9659C33.3532 85.4848 33.1809 84.9318 33.1847 84.3068C33.1809 83.7121 33.3381 83.1818 33.6562 82.7159C33.9782 82.2462 34.4195 81.8769 34.9801 81.608C35.5407 81.339 36.179 81.2045 36.8949 81.2045C37.6032 81.2045 38.2358 81.3409 38.7926 81.6136C39.3532 81.8826 39.7945 82.2519 40.1165 82.7216C40.4384 83.1875 40.6013 83.7159 40.6051 84.3068C40.6013 84.9318 40.4233 85.4848 40.071 85.9659C39.7188 86.447 39.2604 86.7576 38.696 86.8977V86.9659C39.1316 87.0417 39.5237 87.2197 39.8722 87.5C40.2244 87.7765 40.5047 88.1231 40.7131 88.5398C40.9252 88.9527 41.0331 89.4053 41.0369 89.8977C41.0331 90.5265 40.8551 91.0871 40.5028 91.5795C40.1506 92.072 39.6619 92.4583 39.0369 92.7386C38.4157 93.0189 37.7017 93.1591 36.8949 93.1591ZM36.8949 91.7216C37.3759 91.7216 37.7926 91.642 38.1449 91.483C38.4972 91.3201 38.7699 91.0947 38.9631 90.8068C39.1563 90.5152 39.2547 90.1742 39.2585 89.7841C39.2547 89.3788 39.1487 89.0208 38.9403 88.7102C38.7358 88.3996 38.4574 88.1553 38.1051 87.9773C37.7528 87.7992 37.3494 87.7102 36.8949 87.7102C36.4366 87.7102 36.0294 87.7992 35.6733 87.9773C35.3172 88.1553 35.0369 88.3996 34.8324 88.7102C34.6278 89.0208 34.5275 89.3788 34.5312 89.7841C34.5275 90.1742 34.6203 90.5152 34.8097 90.8068C35.0028 91.0947 35.2775 91.3201 35.6335 91.483C35.9896 91.642 36.41 91.7216 36.8949 91.7216ZM36.8949 86.3068C37.2813 86.3068 37.6241 86.2292 37.9233 86.0739C38.2225 85.9186 38.4574 85.7027 38.6278 85.4261C38.8021 85.1496 38.8911 84.8258 38.8949 84.4545C38.8911 84.0909 38.804 83.7727 38.6335 83.5C38.4669 83.2273 38.2339 83.017 37.9347 82.8693C37.6354 82.7178 37.2888 82.642 36.8949 82.642C36.4934 82.642 36.1411 82.7178 35.8381 82.8693C35.5388 83.017 35.3059 83.2273 35.1392 83.5C34.9725 83.7727 34.8911 84.0909 34.8949 84.4545C34.8911 84.8258 34.9744 85.1496 35.1449 85.4261C35.3153 85.7027 35.5502 85.9186 35.8494 86.0739C36.1525 86.2292 36.5009 86.3068 36.8949 86.3068ZM47.527 80.8182L43.777 94.75H42.2599L46.0099 80.8182H47.527ZM52.9986 93.1932C52.1009 93.1894 51.3338 92.9527 50.6974 92.483C50.0611 92.0133 49.5743 91.3295 49.2372 90.4318C48.9001 89.5341 48.7315 88.4527 48.7315 87.1875C48.7315 85.9261 48.9001 84.8485 49.2372 83.9545C49.5781 83.0606 50.0668 82.3788 50.7031 81.9091C51.3433 81.4394 52.1084 81.2045 52.9986 81.2045C53.8887 81.2045 54.652 81.4413 55.2884 81.9148C55.9247 82.3845 56.4115 83.0663 56.7486 83.9602C57.0895 84.8504 57.2599 85.9261 57.2599 87.1875C57.2599 88.4564 57.0914 89.5398 56.7543 90.4375C56.4171 91.3314 55.9304 92.0152 55.294 92.4886C54.6577 92.9583 53.8925 93.1932 52.9986 93.1932ZM52.9986 91.6761C53.7865 91.6761 54.402 91.2917 54.8452 90.5227C55.2921 89.7538 55.5156 88.642 55.5156 87.1875C55.5156 86.2216 55.4134 85.4053 55.2088 84.7386C55.008 84.0682 54.7183 83.5606 54.3395 83.2159C53.9645 82.8674 53.5175 82.6932 52.9986 82.6932C52.2145 82.6932 51.599 83.0795 51.152 83.8523C50.705 84.625 50.4796 85.7367 50.4759 87.1875C50.4759 88.1572 50.5762 88.9773 50.777 89.6477C50.9815 90.3144 51.2713 90.8201 51.6463 91.1648C52.0213 91.5057 52.4721 91.6761 52.9986 91.6761ZM63.6903 81.3636V93H61.929V83.125H61.8608L59.0767 84.9432V83.2614L61.9801 81.3636H63.6903Z" fill="black"/>
<path d="M99.2912 93V91.7273L103.229 87.6477C103.649 87.2045 103.996 86.8163 104.268 86.483C104.545 86.1458 104.751 85.8258 104.888 85.5227C105.024 85.2197 105.092 84.8977 105.092 84.5568C105.092 84.1705 105.001 83.8371 104.82 83.5568C104.638 83.2727 104.39 83.0549 104.075 82.9034C103.761 82.7481 103.407 82.6705 103.013 82.6705C102.596 82.6705 102.232 82.7557 101.922 82.9261C101.611 83.0966 101.373 83.3371 101.206 83.6477C101.039 83.9583 100.956 84.322 100.956 84.7386H99.2798C99.2798 84.0303 99.4427 83.411 99.7685 82.8807C100.094 82.3504 100.541 81.9394 101.109 81.6477C101.678 81.3523 102.323 81.2045 103.047 81.2045C103.778 81.2045 104.422 81.3504 104.979 81.642C105.539 81.9299 105.977 82.3239 106.291 82.8239C106.606 83.3201 106.763 83.8807 106.763 84.5057C106.763 84.9375 106.681 85.3598 106.518 85.7727C106.359 86.1856 106.081 86.6458 105.683 87.1534C105.286 87.6572 104.732 88.2689 104.024 88.9886L101.712 91.4091V91.4943H106.95V93H99.2912ZM113.155 93.1591C112.375 93.1591 111.678 93.0246 111.064 92.7557C110.454 92.4867 109.971 92.1136 109.615 91.6364C109.263 91.1553 109.073 90.5985 109.047 89.9659H110.831C110.854 90.3106 110.969 90.6098 111.178 90.8636C111.39 91.1136 111.666 91.3068 112.007 91.4432C112.348 91.5795 112.727 91.6477 113.143 91.6477C113.602 91.6477 114.007 91.5682 114.359 91.4091C114.715 91.25 114.994 91.0284 115.195 90.7443C115.395 90.4564 115.496 90.125 115.496 89.75C115.496 89.3598 115.395 89.017 115.195 88.7216C114.998 88.4223 114.708 88.1875 114.325 88.017C113.946 87.8466 113.488 87.7614 112.95 87.7614H111.967V86.3295H112.95C113.382 86.3295 113.761 86.2519 114.087 86.0966C114.416 85.9413 114.674 85.7254 114.859 85.4489C115.045 85.1686 115.138 84.8409 115.138 84.4659C115.138 84.1061 115.056 83.7936 114.893 83.5284C114.734 83.2595 114.507 83.0492 114.212 82.8977C113.92 82.7462 113.575 82.6705 113.178 82.6705C112.799 82.6705 112.445 82.7405 112.115 82.8807C111.789 83.017 111.524 83.214 111.32 83.4716C111.115 83.7254 111.005 84.0303 110.99 84.3864H109.291C109.31 83.7576 109.496 83.2045 109.848 82.7273C110.204 82.25 110.674 81.8769 111.257 81.608C111.84 81.339 112.488 81.2045 113.2 81.2045C113.946 81.2045 114.59 81.3504 115.132 81.642C115.678 81.9299 116.098 82.3144 116.393 82.7955C116.693 83.2765 116.84 83.803 116.837 84.375C116.84 85.0265 116.659 85.5795 116.291 86.0341C115.928 86.4886 115.443 86.7936 114.837 86.9489V87.0398C115.609 87.1572 116.208 87.464 116.632 87.9602C117.06 88.4564 117.272 89.072 117.268 89.8068C117.272 90.447 117.094 91.0208 116.734 91.5284C116.378 92.036 115.892 92.4356 115.274 92.7273C114.657 93.0152 113.95 93.1591 113.155 93.1591ZM123.467 93.1591C122.687 93.1591 121.99 93.0246 121.376 92.7557C120.767 92.4867 120.284 92.1136 119.928 91.6364C119.575 91.1553 119.386 90.5985 119.359 89.9659H121.143C121.166 90.3106 121.282 90.6098 121.49 90.8636C121.702 91.1136 121.979 91.3068 122.32 91.4432C122.661 91.5795 123.039 91.6477 123.456 91.6477C123.914 91.6477 124.32 91.5682 124.672 91.4091C125.028 91.25 125.306 91.0284 125.507 90.7443C125.708 90.4564 125.808 90.125 125.808 89.75C125.808 89.3598 125.708 89.017 125.507 88.7216C125.31 88.4223 125.02 88.1875 124.638 88.017C124.259 87.8466 123.801 87.7614 123.263 87.7614H122.28V86.3295H123.263C123.695 86.3295 124.073 86.2519 124.399 86.0966C124.729 85.9413 124.986 85.7254 125.172 85.4489C125.357 85.1686 125.45 84.8409 125.45 84.4659C125.45 84.1061 125.369 83.7936 125.206 83.5284C125.047 83.2595 124.82 83.0492 124.524 82.8977C124.232 82.7462 123.888 82.6705 123.49 82.6705C123.111 82.6705 122.757 82.7405 122.428 82.8807C122.102 83.017 121.837 83.214 121.632 83.4716C121.428 83.7254 121.318 84.0303 121.303 84.3864H119.604C119.623 83.7576 119.808 83.2045 120.161 82.7273C120.517 82.25 120.986 81.8769 121.57 81.608C122.153 81.339 122.801 81.2045 123.513 81.2045C124.259 81.2045 124.903 81.3504 125.445 81.642C125.99 81.9299 126.411 82.3144 126.706 82.7955C127.005 83.2765 127.153 83.803 127.149 84.375C127.153 85.0265 126.971 85.5795 126.604 86.0341C126.24 86.4886 125.755 86.7936 125.149 86.9489V87.0398C125.922 87.1572 126.52 87.464 126.945 87.9602C127.373 88.4564 127.585 89.072 127.581 89.8068C127.585 90.447 127.407 91.0208 127.047 91.5284C126.691 92.036 126.204 92.4356 125.587 92.7273C124.969 93.0152 124.263 93.1591 123.467 93.1591ZM133.598 81.2045C134.117 81.2083 134.628 81.303 135.132 81.4886C135.636 81.6742 136.09 81.9773 136.496 82.3977C136.905 82.8182 137.231 83.3864 137.473 84.1023C137.719 84.8144 137.844 85.7008 137.848 86.7614C137.848 87.7803 137.746 88.6875 137.541 89.483C137.337 90.2746 137.043 90.9432 136.661 91.4886C136.282 92.0341 135.821 92.4489 135.28 92.733C134.738 93.017 134.128 93.1591 133.45 93.1591C132.757 93.1591 132.142 93.0227 131.604 92.75C131.066 92.4773 130.628 92.1004 130.291 91.6193C129.954 91.1345 129.744 90.5777 129.661 89.9489H131.393C131.507 90.4489 131.738 90.8542 132.087 91.1648C132.439 91.4716 132.893 91.625 133.45 91.625C134.303 91.625 134.967 91.2538 135.445 90.5114C135.922 89.7652 136.162 88.7235 136.166 87.3864H136.075C135.878 87.7121 135.632 87.9924 135.337 88.2273C135.045 88.4621 134.717 88.6439 134.354 88.7727C133.99 88.9015 133.602 88.9659 133.189 88.9659C132.518 88.9659 131.909 88.8011 131.359 88.4716C130.81 88.142 130.373 87.6894 130.047 87.1136C129.721 86.5379 129.558 85.8807 129.558 85.142C129.558 84.4072 129.725 83.7405 130.058 83.142C130.395 82.5436 130.865 82.0701 131.467 81.7216C132.073 81.3693 132.784 81.197 133.598 81.2045ZM133.604 82.6818C133.161 82.6818 132.761 82.7917 132.405 83.0114C132.053 83.2273 131.774 83.5208 131.57 83.892C131.365 84.2595 131.263 84.6686 131.263 85.1193C131.263 85.5701 131.361 85.9792 131.558 86.3466C131.759 86.7102 132.032 87 132.376 87.2159C132.725 87.428 133.123 87.5341 133.57 87.5341C133.903 87.5341 134.214 87.4697 134.501 87.3409C134.789 87.2121 135.041 87.0341 135.257 86.8068C135.473 86.5758 135.642 86.3144 135.763 86.0227C135.884 85.7311 135.945 85.4242 135.945 85.1023C135.945 84.6742 135.842 84.2765 135.638 83.9091C135.437 83.5417 135.161 83.2462 134.808 83.0227C134.456 82.7955 134.054 82.6818 133.604 82.6818ZM139.656 90.7273V89.3068L144.685 81.3636H145.804V83.4545H145.094L141.497 89.1477V89.2386H148.389V90.7273H139.656ZM145.173 93V90.2955L145.185 89.6477V81.3636H146.849V93H145.173ZM154.301 93.1591C153.487 93.1591 152.767 93.0189 152.142 92.7386C151.521 92.4583 151.034 92.072 150.682 91.5795C150.33 91.0871 150.155 90.5265 150.159 89.8977C150.155 89.4053 150.256 88.9527 150.46 88.5398C150.669 88.1231 150.951 87.7765 151.307 87.5C151.663 87.2197 152.061 87.0417 152.5 86.9659V86.8977C151.92 86.7576 151.456 86.447 151.108 85.9659C150.759 85.4848 150.587 84.9318 150.591 84.3068C150.587 83.7121 150.744 83.1818 151.062 82.7159C151.384 82.2462 151.826 81.8769 152.386 81.608C152.947 81.339 153.585 81.2045 154.301 81.2045C155.009 81.2045 155.642 81.3409 156.199 81.6136C156.759 81.8826 157.201 82.2519 157.523 82.7216C157.845 83.1875 158.008 83.7159 158.011 84.3068C158.008 84.9318 157.83 85.4848 157.477 85.9659C157.125 86.447 156.667 86.7576 156.102 86.8977V86.9659C156.538 87.0417 156.93 87.2197 157.278 87.5C157.631 87.7765 157.911 88.1231 158.119 88.5398C158.331 88.9527 158.439 89.4053 158.443 89.8977C158.439 90.5265 158.261 91.0871 157.909 91.5795C157.557 92.072 157.068 92.4583 156.443 92.7386C155.822 93.0189 155.108 93.1591 154.301 93.1591ZM154.301 91.7216C154.782 91.7216 155.199 91.642 155.551 91.483C155.903 91.3201 156.176 91.0947 156.369 90.8068C156.563 90.5152 156.661 90.1742 156.665 89.7841C156.661 89.3788 156.555 89.0208 156.347 88.7102C156.142 88.3996 155.864 88.1553 155.511 87.9773C155.159 87.7992 154.756 87.7102 154.301 87.7102C153.843 87.7102 153.436 87.7992 153.08 87.9773C152.723 88.1553 152.443 88.3996 152.239 88.7102C152.034 89.0208 151.934 89.3788 151.938 89.7841C151.934 90.1742 152.027 90.5152 152.216 90.8068C152.409 91.0947 152.684 91.3201 153.04 91.483C153.396 91.642 153.816 91.7216 154.301 91.7216ZM154.301 86.3068C154.688 86.3068 155.03 86.2292 155.33 86.0739C155.629 85.9186 155.864 85.7027 156.034 85.4261C156.208 85.1496 156.297 84.8258 156.301 84.4545C156.297 84.0909 156.21 83.7727 156.04 83.5C155.873 83.2273 155.64 83.017 155.341 82.8693C155.042 82.7178 154.695 82.642 154.301 82.642C153.9 82.642 153.547 82.7178 153.244 82.8693C152.945 83.017 152.712 83.2273 152.545 83.5C152.379 83.7727 152.297 84.0909 152.301 84.4545C152.297 84.8258 152.381 85.1496 152.551 85.4261C152.722 85.7027 152.956 85.9186 153.256 86.0739C153.559 86.2292 153.907 86.3068 154.301 86.3068ZM160.234 90.7273V89.3068L165.263 81.3636H166.382V83.4545H165.672L162.075 89.1477V89.2386H168.967V90.7273H160.234ZM165.751 93V90.2955L165.763 89.6477V81.3636H167.428V93H165.751Z" fill="black"/>
<path d="M236.213 93V91.7273L240.151 87.6477C240.571 87.2045 240.918 86.8163 241.19 86.483C241.467 86.1458 241.673 85.8258 241.81 85.5227C241.946 85.2197 242.014 84.8977 242.014 84.5568C242.014 84.1705 241.923 83.8371 241.741 83.5568C241.56 83.2727 241.312 83.0549 240.997 82.9034C240.683 82.7481 240.329 82.6705 239.935 82.6705C239.518 82.6705 239.154 82.7557 238.844 82.9261C238.533 83.0966 238.295 83.3371 238.128 83.6477C237.961 83.9583 237.878 84.322 237.878 84.7386H236.202C236.202 84.0303 236.365 83.411 236.69 82.8807C237.016 82.3504 237.463 81.9394 238.031 81.6477C238.599 81.3523 239.245 81.2045 239.969 81.2045C240.7 81.2045 241.344 81.3504 241.901 81.642C242.461 81.9299 242.899 82.3239 243.213 82.8239C243.527 83.3201 243.685 83.8807 243.685 84.5057C243.685 84.9375 243.603 85.3598 243.44 85.7727C243.281 86.1856 243.003 86.6458 242.605 87.1534C242.207 87.6572 241.654 88.2689 240.946 88.9886L238.634 91.4091V91.4943H243.872V93H236.213Z" fill="black"/>
<path d="M295.534 92V81.8182H299.163C299.955 81.8182 300.612 81.9624 301.132 82.2507C301.652 82.5391 302.042 82.9335 302.3 83.4339C302.559 83.9311 302.688 84.4912 302.688 85.1143C302.688 85.7408 302.557 86.3042 302.295 86.8047C302.037 87.3018 301.646 87.6963 301.122 87.9879C300.602 88.2763 299.947 88.4205 299.158 88.4205H296.663V87.1179H299.019C299.52 87.1179 299.926 87.0317 300.237 86.8594C300.549 86.6837 300.777 86.4451 300.923 86.1435C301.069 85.8419 301.142 85.4988 301.142 85.1143C301.142 84.7299 301.069 84.3885 300.923 84.0902C300.777 83.7919 300.547 83.5582 300.232 83.3892C299.921 83.2202 299.51 83.1357 298.999 83.1357H297.07V92H295.534ZM304.37 92V84.3636H305.807V85.5767H305.886C306.025 85.1657 306.271 84.8426 306.622 84.6072C306.977 84.3686 307.378 84.2493 307.825 84.2493C307.918 84.2493 308.027 84.2526 308.153 84.2592C308.282 84.2659 308.384 84.2741 308.456 84.2841V85.706C308.397 85.6894 308.291 85.6712 308.138 85.6513C307.986 85.6281 307.833 85.6165 307.681 85.6165C307.33 85.6165 307.016 85.6911 306.741 85.8402C306.469 85.986 306.254 86.1899 306.095 86.4517C305.936 86.7102 305.856 87.0052 305.856 87.3366V92H304.37ZM312.761 92.1541C312.008 92.1541 311.36 91.9934 310.817 91.6719C310.276 91.3471 309.859 90.8913 309.564 90.3047C309.272 89.7147 309.126 89.0237 309.126 88.2315C309.126 87.4493 309.272 86.7599 309.564 86.1634C309.859 85.5668 310.27 85.1011 310.797 84.7663C311.327 84.4316 311.947 84.2642 312.656 84.2642C313.087 84.2642 313.505 84.3355 313.909 84.478C314.313 84.6205 314.676 84.8442 314.998 85.1491C315.319 85.4541 315.573 85.8501 315.758 86.3374C315.944 86.8213 316.037 87.4096 316.037 88.1023V88.6293H309.967V87.5156H314.58C314.58 87.1245 314.501 86.7782 314.342 86.4766C314.182 86.1716 313.959 85.9313 313.67 85.7557C313.385 85.58 313.051 85.4922 312.666 85.4922C312.249 85.4922 311.884 85.5949 311.572 85.8004C311.264 86.0026 311.025 86.2678 310.856 86.5959C310.691 86.9207 310.608 87.2737 310.608 87.6548V88.5249C310.608 89.0353 310.697 89.4695 310.876 89.8274C311.059 90.1854 311.312 90.4588 311.637 90.6477C311.962 90.8333 312.341 90.9261 312.775 90.9261C313.057 90.9261 313.314 90.8864 313.546 90.8068C313.778 90.724 313.979 90.6013 314.148 90.4389C314.317 90.2765 314.446 90.076 314.535 89.8374L315.942 90.0909C315.83 90.5052 315.628 90.8681 315.336 91.1797C315.048 91.4879 314.685 91.7282 314.247 91.9006C313.813 92.0696 313.317 92.1541 312.761 92.1541ZM311.985 83.3445L313.148 81.0526H314.714L313.173 83.3445H311.985ZM317.686 94.8636V84.3636H319.138V85.6016H319.262C319.348 85.4425 319.473 85.2585 319.635 85.0497C319.797 84.8409 320.023 84.6586 320.311 84.5028C320.6 84.3438 320.981 84.2642 321.455 84.2642C322.071 84.2642 322.621 84.42 323.105 84.7315C323.589 85.0431 323.969 85.4922 324.244 86.0788C324.522 86.6655 324.661 87.3714 324.661 88.1967C324.661 89.022 324.524 89.7296 324.249 90.3196C323.974 90.9062 323.596 91.3587 323.115 91.6768C322.635 91.9917 322.086 92.1491 321.47 92.1491C321.006 92.1491 320.626 92.0713 320.331 91.9155C320.039 91.7597 319.811 91.5774 319.645 91.3686C319.479 91.1598 319.352 90.9742 319.262 90.8118H319.173V94.8636H317.686ZM319.143 88.1818C319.143 88.7187 319.221 89.1894 319.377 89.5938C319.532 89.9981 319.758 90.3146 320.053 90.5433C320.348 90.7687 320.709 90.8814 321.136 90.8814C321.581 90.8814 321.952 90.7637 322.25 90.5284C322.548 90.2898 322.774 89.9666 322.926 89.5589C323.082 89.1513 323.16 88.6922 323.16 88.1818C323.16 87.678 323.084 87.2256 322.931 86.8246C322.782 86.4235 322.557 86.107 322.255 85.875C321.957 85.643 321.584 85.527 321.136 85.527C320.706 85.527 320.341 85.638 320.043 85.8601C319.748 86.0821 319.524 86.392 319.372 86.7898C319.219 87.1875 319.143 87.6515 319.143 88.1818ZM328.549 92.169C328.065 92.169 327.628 92.0795 327.237 91.9006C326.846 91.7183 326.536 91.4548 326.307 91.1101C326.082 90.7654 325.969 90.3428 325.969 89.8423C325.969 89.4115 326.052 89.0568 326.217 88.7784C326.383 88.5 326.607 88.2796 326.889 88.1172C327.17 87.9548 327.485 87.8321 327.833 87.7493C328.181 87.6664 328.536 87.6035 328.897 87.5604C329.355 87.5073 329.726 87.4643 330.011 87.4311C330.296 87.3946 330.503 87.3366 330.632 87.2571C330.761 87.1776 330.826 87.0483 330.826 86.8693V86.8345C330.826 86.4003 330.703 86.0639 330.458 85.8253C330.216 85.5866 329.855 85.4673 329.374 85.4673C328.874 85.4673 328.48 85.5784 328.191 85.8004C327.906 86.0192 327.709 86.2628 327.6 86.5312L326.203 86.2131C326.368 85.7491 326.61 85.3745 326.928 85.0895C327.25 84.8011 327.619 84.5923 328.037 84.4631C328.455 84.3305 328.894 84.2642 329.355 84.2642C329.659 84.2642 329.983 84.3007 330.324 84.3736C330.669 84.4432 330.99 84.5724 331.288 84.7614C331.59 84.9503 331.837 85.2204 332.029 85.5717C332.221 85.9197 332.318 86.3722 332.318 86.929V92H330.866V90.956H330.806C330.71 91.1482 330.566 91.3371 330.374 91.5227C330.181 91.7083 329.935 91.8625 329.633 91.9851C329.331 92.1077 328.97 92.169 328.549 92.169ZM328.872 90.9759C329.283 90.9759 329.635 90.8946 329.926 90.7322C330.221 90.5698 330.445 90.3577 330.597 90.0959C330.753 89.8307 330.831 89.5473 330.831 89.2457V88.2614C330.778 88.3144 330.675 88.3641 330.523 88.4105C330.374 88.4536 330.203 88.4917 330.011 88.5249C329.819 88.5547 329.631 88.5829 329.449 88.6094C329.267 88.6326 329.114 88.6525 328.992 88.669C328.703 88.7055 328.44 88.7668 328.201 88.853C327.966 88.9392 327.777 89.0634 327.634 89.2259C327.495 89.3849 327.426 89.5971 327.426 89.8622C327.426 90.2301 327.561 90.5085 327.833 90.6974C328.105 90.883 328.451 90.9759 328.872 90.9759ZM334.298 92V84.3636H335.734V85.5767H335.814C335.953 85.1657 336.198 84.8426 336.55 84.6072C336.904 84.3686 337.305 84.2493 337.753 84.2493C337.846 84.2493 337.955 84.2526 338.081 84.2592C338.21 84.2659 338.311 84.2741 338.384 84.2841V85.706C338.324 85.6894 338.218 85.6712 338.066 85.6513C337.914 85.6281 337.761 85.6165 337.609 85.6165C337.257 85.6165 336.944 85.6911 336.669 85.8402C336.397 85.986 336.182 86.1899 336.023 86.4517C335.864 86.7102 335.784 87.0052 335.784 87.3366V92H334.298ZM342.688 92.1541C341.936 92.1541 341.288 91.9934 340.744 91.6719C340.204 91.3471 339.787 90.8913 339.492 90.3047C339.2 89.7147 339.054 89.0237 339.054 88.2315C339.054 87.4493 339.2 86.7599 339.492 86.1634C339.787 85.5668 340.198 85.1011 340.725 84.7663C341.255 84.4316 341.875 84.2642 342.584 84.2642C343.015 84.2642 343.432 84.3355 343.837 84.478C344.241 84.6205 344.604 84.8442 344.926 85.1491C345.247 85.4541 345.501 85.8501 345.686 86.3374C345.872 86.8213 345.965 87.4096 345.965 88.1023V88.6293H339.894V87.5156H344.508C344.508 87.1245 344.428 86.7782 344.269 86.4766C344.11 86.1716 343.886 85.9313 343.598 85.7557C343.313 85.58 342.978 85.4922 342.594 85.4922C342.176 85.4922 341.812 85.5949 341.5 85.8004C341.192 86.0026 340.953 86.2678 340.784 86.5959C340.618 86.9207 340.536 87.2737 340.536 87.6548V88.5249C340.536 89.0353 340.625 89.4695 340.804 89.8274C340.986 90.1854 341.24 90.4588 341.565 90.6477C341.89 90.8333 342.269 90.9261 342.703 90.9261C342.985 90.9261 343.242 90.8864 343.474 90.8068C343.706 90.724 343.906 90.6013 344.075 90.4389C344.244 90.2765 344.374 90.076 344.463 89.8374L345.87 90.0909C345.757 90.5052 345.555 90.8681 345.264 91.1797C344.975 91.4879 344.612 91.7282 344.175 91.9006C343.741 92.0696 343.245 92.1541 342.688 92.1541ZM347.614 92V84.3636H349.051V85.5767H349.13C349.269 85.1657 349.515 84.8426 349.866 84.6072C350.221 84.3686 350.622 84.2493 351.069 84.2493C351.162 84.2493 351.271 84.2526 351.397 84.2592C351.527 84.2659 351.628 84.2741 351.701 84.2841V85.706C351.641 85.6894 351.535 85.6712 351.382 85.6513C351.23 85.6281 351.077 85.6165 350.925 85.6165C350.574 85.6165 350.26 85.6911 349.985 85.8402C349.714 85.986 349.498 86.1899 349.339 86.4517C349.18 86.7102 349.1 87.0052 349.1 87.3366V92H347.614Z" fill="black"/>
<path d="M362.415 91L365.708 87.7071C366.097 87.3182 366.097 86.6818 365.708 86.2929L362.415 83" stroke="black" stroke-width="1.5" stroke-miterlimit="10" stroke-linecap="round" stroke-linejoin="round"/>
<line y1="127.5" x2="390" y2="127.5" stroke="#D1D1D6"/>
<path d="M29.8153 163.364V175H28.054V165.125H27.9858L25.2017 166.943V165.261L28.1051 163.364H29.8153ZM36.8949 175.159C36.0805 175.159 35.3608 175.019 34.7358 174.739C34.1146 174.458 33.6278 174.072 33.2756 173.58C32.9233 173.087 32.7491 172.527 32.7528 171.898C32.7491 171.405 32.8494 170.953 33.054 170.54C33.2623 170.123 33.5445 169.777 33.9006 169.5C34.2566 169.22 34.6544 169.042 35.0938 168.966V168.898C34.5142 168.758 34.0502 168.447 33.7017 167.966C33.3532 167.485 33.1809 166.932 33.1847 166.307C33.1809 165.712 33.3381 165.182 33.6562 164.716C33.9782 164.246 34.4195 163.877 34.9801 163.608C35.5407 163.339 36.179 163.205 36.8949 163.205C37.6032 163.205 38.2358 163.341 38.7926 163.614C39.3532 163.883 39.7945 164.252 40.1165 164.722C40.4384 165.187 40.6013 165.716 40.6051 166.307C40.6013 166.932 40.4233 167.485 40.071 167.966C39.7188 168.447 39.2604 168.758 38.696 168.898V168.966C39.1316 169.042 39.5237 169.22 39.8722 169.5C40.2244 169.777 40.5047 170.123 40.7131 170.54C40.9252 170.953 41.0331 171.405 41.0369 171.898C41.0331 172.527 40.8551 173.087 40.5028 173.58C40.1506 174.072 39.6619 174.458 39.0369 174.739C38.4157 175.019 37.7017 175.159 36.8949 175.159ZM36.8949 173.722C37.3759 173.722 37.7926 173.642 38.1449 173.483C38.4972 173.32 38.7699 173.095 38.9631 172.807C39.1563 172.515 39.2547 172.174 39.2585 171.784C39.2547 171.379 39.1487 171.021 38.9403 170.71C38.7358 170.4 38.4574 170.155 38.1051 169.977C37.7528 169.799 37.3494 169.71 36.8949 169.71C36.4366 169.71 36.0294 169.799 35.6733 169.977C35.3172 170.155 35.0369 170.4 34.8324 170.71C34.6278 171.021 34.5275 171.379 34.5312 171.784C34.5275 172.174 34.6203 172.515 34.8097 172.807C35.0028 173.095 35.2775 173.32 35.6335 173.483C35.9896 173.642 36.41 173.722 36.8949 173.722ZM36.8949 168.307C37.2813 168.307 37.6241 168.229 37.9233 168.074C38.2225 167.919 38.4574 167.703 38.6278 167.426C38.8021 167.15 38.8911 166.826 38.8949 166.455C38.8911 166.091 38.804 165.773 38.6335 165.5C38.4669 165.227 38.2339 165.017 37.9347 164.869C37.6354 164.718 37.2888 164.642 36.8949 164.642C36.4934 164.642 36.1411 164.718 35.8381 164.869C35.5388 165.017 35.3059 165.227 35.1392 165.5C34.9725 165.773 34.8911 166.091 34.8949 166.455C34.8911 166.826 34.9744 167.15 35.1449 167.426C35.3153 167.703 35.5502 167.919 35.8494 168.074C36.1525 168.229 36.5009 168.307 36.8949 168.307ZM47.527 162.818L43.777 176.75H42.2599L46.0099 162.818H47.527ZM52.9986 175.193C52.1009 175.189 51.3338 174.953 50.6974 174.483C50.0611 174.013 49.5743 173.33 49.2372 172.432C48.9001 171.534 48.7315 170.453 48.7315 169.188C48.7315 167.926 48.9001 166.848 49.2372 165.955C49.5781 165.061 50.0668 164.379 50.7031 163.909C51.3433 163.439 52.1084 163.205 52.9986 163.205C53.8887 163.205 54.652 163.441 55.2884 163.915C55.9247 164.384 56.4115 165.066 56.7486 165.96C57.0895 166.85 57.2599 167.926 57.2599 169.188C57.2599 170.456 57.0914 171.54 56.7543 172.438C56.4171 173.331 55.9304 174.015 55.294 174.489C54.6577 174.958 53.8925 175.193 52.9986 175.193ZM52.9986 173.676C53.7865 173.676 54.402 173.292 54.8452 172.523C55.2921 171.754 55.5156 170.642 55.5156 169.188C55.5156 168.222 55.4134 167.405 55.2088 166.739C55.008 166.068 54.7183 165.561 54.3395 165.216C53.9645 164.867 53.5175 164.693 52.9986 164.693C52.2145 164.693 51.599 165.08 51.152 165.852C50.705 166.625 50.4796 167.737 50.4759 169.188C50.4759 170.157 50.5762 170.977 50.777 171.648C50.9815 172.314 51.2713 172.82 51.6463 173.165C52.0213 173.506 52.4721 173.676 52.9986 173.676ZM63.6903 163.364V175H61.929V165.125H61.8608L59.0767 166.943V165.261L61.9801 163.364H63.6903Z" fill="black"/>
<path d="M99.2912 175V173.727L103.229 169.648C103.649 169.205 103.996 168.816 104.268 168.483C104.545 168.146 104.751 167.826 104.888 167.523C105.024 167.22 105.092 166.898 105.092 166.557C105.092 166.17 105.001 165.837 104.82 165.557C104.638 165.273 104.39 165.055 104.075 164.903C103.761 164.748 103.407 164.67 103.013 164.67C102.596 164.67 102.232 164.756 101.922 164.926C101.611 165.097 101.373 165.337 101.206 165.648C101.039 165.958 100.956 166.322 100.956 166.739H99.2798C99.2798 166.03 99.4427 165.411 99.7685 164.881C100.094 164.35 100.541 163.939 101.109 163.648C101.678 163.352 102.323 163.205 103.047 163.205C103.778 163.205 104.422 163.35 104.979 163.642C105.539 163.93 105.977 164.324 106.291 164.824C106.606 165.32 106.763 165.881 106.763 166.506C106.763 166.938 106.681 167.36 106.518 167.773C106.359 168.186 106.081 168.646 105.683 169.153C105.286 169.657 104.732 170.269 104.024 170.989L101.712 173.409V173.494H106.95V175H99.2912ZM113.155 175.159C112.375 175.159 111.678 175.025 111.064 174.756C110.454 174.487 109.971 174.114 109.615 173.636C109.263 173.155 109.073 172.598 109.047 171.966H110.831C110.854 172.311 110.969 172.61 111.178 172.864C111.39 173.114 111.666 173.307 112.007 173.443C112.348 173.58 112.727 173.648 113.143 173.648C113.602 173.648 114.007 173.568 114.359 173.409C114.715 173.25 114.994 173.028 115.195 172.744C115.395 172.456 115.496 172.125 115.496 171.75C115.496 171.36 115.395 171.017 115.195 170.722C114.998 170.422 114.708 170.187 114.325 170.017C113.946 169.847 113.488 169.761 112.95 169.761H111.967V168.33H112.95C113.382 168.33 113.761 168.252 114.087 168.097C114.416 167.941 114.674 167.725 114.859 167.449C115.045 167.169 115.138 166.841 115.138 166.466C115.138 166.106 115.056 165.794 114.893 165.528C114.734 165.259 114.507 165.049 114.212 164.898C113.92 164.746 113.575 164.67 113.178 164.67C112.799 164.67 112.445 164.741 112.115 164.881C111.789 165.017 111.524 165.214 111.32 165.472C111.115 165.725 111.005 166.03 110.99 166.386H109.291C109.31 165.758 109.496 165.205 109.848 164.727C110.204 164.25 110.674 163.877 111.257 163.608C111.84 163.339 112.488 163.205 113.2 163.205C113.946 163.205 114.59 163.35 115.132 163.642C115.678 163.93 116.098 164.314 116.393 164.795C116.693 165.277 116.84 165.803 116.837 166.375C116.84 167.027 116.659 167.58 116.291 168.034C115.928 168.489 115.443 168.794 114.837 168.949V169.04C115.609 169.157 116.208 169.464 116.632 169.96C117.06 170.456 117.272 171.072 117.268 171.807C117.272 172.447 117.094 173.021 116.734 173.528C116.378 174.036 115.892 174.436 115.274 174.727C114.657 175.015 113.95 175.159 113.155 175.159ZM123.467 175.159C122.687 175.159 121.99 175.025 121.376 174.756C120.767 174.487 120.284 174.114 119.928 173.636C119.575 173.155 119.386 172.598 119.359 171.966H121.143C121.166 172.311 121.282 172.61 121.49 172.864C121.702 173.114 121.979 173.307 122.32 173.443C122.661 173.58 123.039 173.648 123.456 173.648C123.914 173.648 124.32 173.568 124.672 173.409C125.028 173.25 125.306 173.028 125.507 172.744C125.708 172.456 125.808 172.125 125.808 171.75C125.808 171.36 125.708 171.017 125.507 170.722C125.31 170.422 125.02 170.187 124.638 170.017C124.259 169.847 123.801 169.761 123.263 169.761H122.28V168.33H123.263C123.695 168.33 124.073 168.252 124.399 168.097C124.729 167.941 124.986 167.725 125.172 167.449C125.357 167.169 125.45 166.841 125.45 166.466C125.45 166.106 125.369 165.794 125.206 165.528C125.047 165.259 124.82 165.049 124.524 164.898C124.232 164.746 123.888 164.67 123.49 164.67C123.111 164.67 122.757 164.741 122.428 164.881C122.102 165.017 121.837 165.214 121.632 165.472C121.428 165.725 121.318 166.03 121.303 166.386H119.604C119.623 165.758 119.808 165.205 120.161 164.727C120.517 164.25 120.986 163.877 121.57 163.608C122.153 163.339 122.801 163.205 123.513 163.205C124.259 163.205 124.903 163.35 125.445 163.642C125.99 163.93 126.411 164.314 126.706 164.795C127.005 165.277 127.153 165.803 127.149 166.375C127.153 167.027 126.971 167.58 126.604 168.034C126.24 168.489 125.755 168.794 125.149 168.949V169.04C125.922 169.157 126.52 169.464 126.945 169.96C127.373 170.456 127.585 171.072 127.581 171.807C127.585 172.447 127.407 173.021 127.047 173.528C126.691 174.036 126.204 174.436 125.587 174.727C124.969 175.015 124.263 175.159 123.467 175.159ZM133.598 163.205C134.117 163.208 134.628 163.303 135.132 163.489C135.636 163.674 136.09 163.977 136.496 164.398C136.905 164.818 137.231 165.386 137.473 166.102C137.719 166.814 137.844 167.701 137.848 168.761C137.848 169.78 137.746 170.687 137.541 171.483C137.337 172.275 137.043 172.943 136.661 173.489C136.282 174.034 135.821 174.449 135.28 174.733C134.738 175.017 134.128 175.159 133.45 175.159C132.757 175.159 132.142 175.023 131.604 174.75C131.066 174.477 130.628 174.1 130.291 173.619C129.954 173.134 129.744 172.578 129.661 171.949H131.393C131.507 172.449 131.738 172.854 132.087 173.165C132.439 173.472 132.893 173.625 133.45 173.625C134.303 173.625 134.967 173.254 135.445 172.511C135.922 171.765 136.162 170.723 136.166 169.386H136.075C135.878 169.712 135.632 169.992 135.337 170.227C135.045 170.462 134.717 170.644 134.354 170.773C133.99 170.902 133.602 170.966 133.189 170.966C132.518 170.966 131.909 170.801 131.359 170.472C130.81 170.142 130.373 169.689 130.047 169.114C129.721 168.538 129.558 167.881 129.558 167.142C129.558 166.407 129.725 165.741 130.058 165.142C130.395 164.544 130.865 164.07 131.467 163.722C132.073 163.369 132.784 163.197 133.598 163.205ZM133.604 164.682C133.161 164.682 132.761 164.792 132.405 165.011C132.053 165.227 131.774 165.521 131.57 165.892C131.365 166.259 131.263 166.669 131.263 167.119C131.263 167.57 131.361 167.979 131.558 168.347C131.759 168.71 132.032 169 132.376 169.216C132.725 169.428 133.123 169.534 133.57 169.534C133.903 169.534 134.214 169.47 134.501 169.341C134.789 169.212 135.041 169.034 135.257 168.807C135.473 168.576 135.642 168.314 135.763 168.023C135.884 167.731 135.945 167.424 135.945 167.102C135.945 166.674 135.842 166.277 135.638 165.909C135.437 165.542 135.161 165.246 134.808 165.023C134.456 164.795 134.054 164.682 133.604 164.682ZM139.656 172.727V171.307L144.685 163.364H145.804V165.455H145.094L141.497 171.148V171.239H148.389V172.727H139.656ZM145.173 175V172.295L145.185 171.648V163.364H146.849V175H145.173ZM154.301 175.159C153.487 175.159 152.767 175.019 152.142 174.739C151.521 174.458 151.034 174.072 150.682 173.58C150.33 173.087 150.155 172.527 150.159 171.898C150.155 171.405 150.256 170.953 150.46 170.54C150.669 170.123 150.951 169.777 151.307 169.5C151.663 169.22 152.061 169.042 152.5 168.966V168.898C151.92 168.758 151.456 168.447 151.108 167.966C150.759 167.485 150.587 166.932 150.591 166.307C150.587 165.712 150.744 165.182 151.062 164.716C151.384 164.246 151.826 163.877 152.386 163.608C152.947 163.339 153.585 163.205 154.301 163.205C155.009 163.205 155.642 163.341 156.199 163.614C156.759 163.883 157.201 164.252 157.523 164.722C157.845 165.187 158.008 165.716 158.011 166.307C158.008 166.932 157.83 167.485 157.477 167.966C157.125 168.447 156.667 168.758 156.102 168.898V168.966C156.538 169.042 156.93 169.22 157.278 169.5C157.631 169.777 157.911 170.123 158.119 170.54C158.331 170.953 158.439 171.405 158.443 171.898C158.439 172.527 158.261 173.087 157.909 173.58C157.557 174.072 157.068 174.458 156.443 174.739C155.822 175.019 155.108 175.159 154.301 175.159ZM154.301 173.722C154.782 173.722 155.199 173.642 155.551 173.483C155.903 173.32 156.176 173.095 156.369 172.807C156.563 172.515 156.661 172.174 156.665 171.784C156.661 171.379 156.555 171.021 156.347 170.71C156.142 170.4 155.864 170.155 155.511 169.977C155.159 169.799 154.756 169.71 154.301 169.71C153.843 169.71 153.436 169.799 153.08 169.977C152.723 170.155 152.443 170.4 152.239 170.71C152.034 171.021 151.934 171.379 151.938 171.784C151.934 172.174 152.027 172.515 152.216 172.807C152.409 173.095 152.684 173.32 153.04 173.483C153.396 173.642 153.816 173.722 154.301 173.722ZM154.301 168.307C154.688 168.307 155.03 168.229 155.33 168.074C155.629 167.919 155.864 167.703 156.034 167.426C156.208 167.15 156.297 166.826 156.301 166.455C156.297 166.091 156.21 165.773 156.04 165.5C155.873 165.227 155.64 165.017 155.341 164.869C155.042 164.718 154.695 164.642 154.301 164.642C153.9 164.642 153.547 164.718 153.244 164.869C152.945 165.017 152.712 165.227 152.545 165.5C152.379 165.773 152.297 166.091 152.301 166.455C152.297 166.826 152.381 167.15 152.551 167.426C152.722 167.703 152.956 167.919 153.256 168.074C153.559 168.229 153.907 168.307 154.301 168.307ZM160.234 172.727V171.307L165.263 163.364H166.382V165.455H165.672L162.075 171.148V171.239H168.967V172.727H160.234ZM165.751 175V172.295L165.763 171.648V163.364H167.428V175H165.751Z" fill="black"/>
<path d="M241.753 163.364V175H239.991V165.125H239.923L237.139 166.943V165.261L240.043 163.364H241.753Z" fill="black"/>
<path d="M295.534 174V163.818H299.163C299.955 163.818 300.612 163.962 301.132 164.251C301.652 164.539 302.042 164.933 302.3 165.434C302.559 165.931 302.688 166.491 302.688 167.114C302.688 167.741 302.557 168.304 302.295 168.805C302.037 169.302 301.646 169.696 301.122 169.988C300.602 170.276 299.947 170.42 299.158 170.42H296.663V169.118H299.019C299.52 169.118 299.926 169.032 300.237 168.859C300.549 168.684 300.777 168.445 300.923 168.143C301.069 167.842 301.142 167.499 301.142 167.114C301.142 166.73 301.069 166.388 300.923 166.09C300.777 165.792 300.547 165.558 300.232 165.389C299.921 165.22 299.51 165.136 298.999 165.136H297.07V174H295.534ZM304.37 174V166.364H305.807V167.577H305.886C306.025 167.166 306.271 166.843 306.622 166.607C306.977 166.369 307.378 166.249 307.825 166.249C307.918 166.249 308.027 166.253 308.153 166.259C308.282 166.266 308.384 166.274 308.456 166.284V167.706C308.397 167.689 308.291 167.671 308.138 167.651C307.986 167.628 307.833 167.616 307.681 167.616C307.33 167.616 307.016 167.691 306.741 167.84C306.469 167.986 306.254 168.19 306.095 168.452C305.936 168.71 305.856 169.005 305.856 169.337V174H304.37ZM312.761 174.154C312.008 174.154 311.36 173.993 310.817 173.672C310.276 173.347 309.859 172.891 309.564 172.305C309.272 171.715 309.126 171.024 309.126 170.232C309.126 169.449 309.272 168.76 309.564 168.163C309.859 167.567 310.27 167.101 310.797 166.766C311.327 166.432 311.947 166.264 312.656 166.264C313.087 166.264 313.505 166.335 313.909 166.478C314.313 166.621 314.676 166.844 314.998 167.149C315.319 167.454 315.573 167.85 315.758 168.337C315.944 168.821 316.037 169.41 316.037 170.102V170.629H309.967V169.516H314.58C314.58 169.125 314.501 168.778 314.342 168.477C314.182 168.172 313.959 167.931 313.67 167.756C313.385 167.58 313.051 167.492 312.666 167.492C312.249 167.492 311.884 167.595 311.572 167.8C311.264 168.003 311.025 168.268 310.856 168.596C310.691 168.921 310.608 169.274 310.608 169.655V170.525C310.608 171.035 310.697 171.469 310.876 171.827C311.059 172.185 311.312 172.459 311.637 172.648C311.962 172.833 312.341 172.926 312.775 172.926C313.057 172.926 313.314 172.886 313.546 172.807C313.778 172.724 313.979 172.601 314.148 172.439C314.317 172.277 314.446 172.076 314.535 171.837L315.942 172.091C315.83 172.505 315.628 172.868 315.336 173.18C315.048 173.488 314.685 173.728 314.247 173.901C313.813 174.07 313.317 174.154 312.761 174.154ZM311.985 165.344L313.148 163.053H314.714L313.173 165.344H311.985ZM317.686 176.864V166.364H319.138V167.602H319.262C319.348 167.442 319.473 167.259 319.635 167.05C319.797 166.841 320.023 166.659 320.311 166.503C320.6 166.344 320.981 166.264 321.455 166.264C322.071 166.264 322.621 166.42 323.105 166.732C323.589 167.043 323.969 167.492 324.244 168.079C324.522 168.665 324.661 169.371 324.661 170.197C324.661 171.022 324.524 171.73 324.249 172.32C323.974 172.906 323.596 173.359 323.115 173.677C322.635 173.992 322.086 174.149 321.47 174.149C321.006 174.149 320.626 174.071 320.331 173.915C320.039 173.76 319.811 173.577 319.645 173.369C319.479 173.16 319.352 172.974 319.262 172.812H319.173V176.864H317.686ZM319.143 170.182C319.143 170.719 319.221 171.189 319.377 171.594C319.532 171.998 319.758 172.315 320.053 172.543C320.348 172.769 320.709 172.881 321.136 172.881C321.581 172.881 321.952 172.764 322.25 172.528C322.548 172.29 322.774 171.967 322.926 171.559C323.082 171.151 323.16 170.692 323.16 170.182C323.16 169.678 323.084 169.226 322.931 168.825C322.782 168.424 322.557 168.107 322.255 167.875C321.957 167.643 321.584 167.527 321.136 167.527C320.706 167.527 320.341 167.638 320.043 167.86C319.748 168.082 319.524 168.392 319.372 168.79C319.219 169.187 319.143 169.652 319.143 170.182ZM328.549 174.169C328.065 174.169 327.628 174.08 327.237 173.901C326.846 173.718 326.536 173.455 326.307 173.11C326.082 172.765 325.969 172.343 325.969 171.842C325.969 171.411 326.052 171.057 326.217 170.778C326.383 170.5 326.607 170.28 326.889 170.117C327.17 169.955 327.485 169.832 327.833 169.749C328.181 169.666 328.536 169.603 328.897 169.56C329.355 169.507 329.726 169.464 330.011 169.431C330.296 169.395 330.503 169.337 330.632 169.257C330.761 169.178 330.826 169.048 330.826 168.869V168.835C330.826 168.4 330.703 168.064 330.458 167.825C330.216 167.587 329.855 167.467 329.374 167.467C328.874 167.467 328.48 167.578 328.191 167.8C327.906 168.019 327.709 168.263 327.6 168.531L326.203 168.213C326.368 167.749 326.61 167.375 326.928 167.089C327.25 166.801 327.619 166.592 328.037 166.463C328.455 166.33 328.894 166.264 329.355 166.264C329.659 166.264 329.983 166.301 330.324 166.374C330.669 166.443 330.99 166.572 331.288 166.761C331.59 166.95 331.837 167.22 332.029 167.572C332.221 167.92 332.318 168.372 332.318 168.929V174H330.866V172.956H330.806C330.71 173.148 330.566 173.337 330.374 173.523C330.181 173.708 329.935 173.862 329.633 173.985C329.331 174.108 328.97 174.169 328.549 174.169ZM328.872 172.976C329.283 172.976 329.635 172.895 329.926 172.732C330.221 172.57 330.445 172.358 330.597 172.096C330.753 171.831 330.831 171.547 330.831 171.246V170.261C330.778 170.314 330.675 170.364 330.523 170.411C330.374 170.454 330.203 170.492 330.011 170.525C329.819 170.555 329.631 170.583 329.449 170.609C329.267 170.633 329.114 170.652 328.992 170.669C328.703 170.705 328.44 170.767 328.201 170.853C327.966 170.939 327.777 171.063 327.634 171.226C327.495 171.385 327.426 171.597 327.426 171.862C327.426 172.23 327.561 172.509 327.833 172.697C328.105 172.883 328.451 172.976 328.872 172.976ZM334.298 174V166.364H335.734V167.577H335.814C335.953 167.166 336.198 166.843 336.55 166.607C336.904 166.369 337.305 166.249 337.753 166.249C337.846 166.249 337.955 166.253 338.081 166.259C338.21 166.266 338.311 166.274 338.384 166.284V167.706C338.324 167.689 338.218 167.671 338.066 167.651C337.914 167.628 337.761 167.616 337.609 167.616C337.257 167.616 336.944 167.691 336.669 167.84C336.397 167.986 336.182 168.19 336.023 168.452C335.864 168.71 335.784 169.005 335.784 169.337V174H334.298ZM342.688 174.154C341.936 174.154 341.288 173.993 340.744 173.672C340.204 173.347 339.787 172.891 339.492 172.305C339.2 171.715 339.054 171.024 339.054 170.232C339.054 169.449 339.2 168.76 339.492 168.163C339.787 167.567 340.198 167.101 340.725 166.766C341.255 166.432 341.875 166.264 342.584 166.264C343.015 166.264 343.432 166.335 343.837 166.478C344.241 166.621 344.604 166.844 344.926 167.149C345.247 167.454 345.501 167.85 345.686 168.337C345.872 168.821 345.965 169.41 345.965 170.102V170.629H339.894V169.516H344.508C344.508 169.125 344.428 168.778 344.269 168.477C344.11 168.172 343.886 167.931 343.598 167.756C343.313 167.58 342.978 167.492 342.594 167.492C342.176 167.492 341.812 167.595 341.5 167.8C341.192 168.003 340.953 168.268 340.784 168.596C340.618 168.921 340.536 169.274 340.536 169.655V170.525C340.536 171.035 340.625 171.469 340.804 171.827C340.986 172.185 341.24 172.459 341.565 172.648C341.89 172.833 342.269 172.926 342.703 172.926C342.985 172.926 343.242 172.886 343.474 172.807C343.706 172.724 343.906 172.601 344.075 172.439C344.244 172.277 344.374 172.076 344.463 171.837L345.87 172.091C345.757 172.505 345.555 172.868 345.264 173.18C344.975 173.488 344.612 173.728 344.175 173.901C343.741 174.07 343.245 174.154 342.688 174.154ZM347.614 174V166.364H349.051V167.577H349.13C349.269 167.166 349.515 166.843 349.866 166.607C350.221 166.369 350.622 166.249 351.069 166.249C351.162 166.249 351.271 166.253 351.397 166.259C351.527 166.266 351.628 166.274 351.701 166.284V167.706C351.641 167.689 351.535 167.671 351.382 167.651C351.23 167.628 351.077 167.616 350.925 167.616C350.574 167.616 350.26 167.691 349.985 167.84C349.714 167.986 349.498 168.19 349.339 168.452C349.18 168.71 349.1 169.005 349.1 169.337V174H347.614Z" fill="black"/>
<path d="M362.415 173L365.708 169.707C366.097 169.318 366.097 168.682 365.708 168.293L362.415 165" stroke="black" stroke-width="1.5" stroke-miterlimit="10" stroke-linecap="round" stroke-linejoin="round"/>
<line y1="209.5" x2="390" y2="209.5" stroke="#D9D9D9"/>
<path d="M29.8153 245.364V257H28.054V247.125H27.9858L25.2017 248.943V247.261L28.1051 245.364H29.8153ZM36.8949 257.159C36.0805 257.159 35.3608 257.019 34.7358 256.739C34.1146 256.458 33.6278 256.072 33.2756 255.58C32.9233 255.087 32.7491 254.527 32.7528 253.898C32.7491 253.405 32.8494 252.953 33.054 252.54C33.2623 252.123 33.5445 251.777 33.9006 251.5C34.2566 251.22 34.6544 251.042 35.0938 250.966V250.898C34.5142 250.758 34.0502 250.447 33.7017 249.966C33.3532 249.485 33.1809 248.932 33.1847 248.307C33.1809 247.712 33.3381 247.182 33.6562 246.716C33.9782 246.246 34.4195 245.877 34.9801 245.608C35.5407 245.339 36.179 245.205 36.8949 245.205C37.6032 245.205 38.2358 245.341 38.7926 245.614C39.3532 245.883 39.7945 246.252 40.1165 246.722C40.4384 247.187 40.6013 247.716 40.6051 248.307C40.6013 248.932 40.4233 249.485 40.071 249.966C39.7188 250.447 39.2604 250.758 38.696 250.898V250.966C39.1316 251.042 39.5237 251.22 39.8722 251.5C40.2244 251.777 40.5047 252.123 40.7131 252.54C40.9252 252.953 41.0331 253.405 41.0369 253.898C41.0331 254.527 40.8551 255.087 40.5028 255.58C40.1506 256.072 39.6619 256.458 39.0369 256.739C38.4157 257.019 37.7017 257.159 36.8949 257.159ZM36.8949 255.722C37.3759 255.722 37.7926 255.642 38.1449 255.483C38.4972 255.32 38.7699 255.095 38.9631 254.807C39.1563 254.515 39.2547 254.174 39.2585 253.784C39.2547 253.379 39.1487 253.021 38.9403 252.71C38.7358 252.4 38.4574 252.155 38.1051 251.977C37.7528 251.799 37.3494 251.71 36.8949 251.71C36.4366 251.71 36.0294 251.799 35.6733 251.977C35.3172 252.155 35.0369 252.4 34.8324 252.71C34.6278 253.021 34.5275 253.379 34.5312 253.784C34.5275 254.174 34.6203 254.515 34.8097 254.807C35.0028 255.095 35.2775 255.32 35.6335 255.483C35.9896 255.642 36.41 255.722 36.8949 255.722ZM36.8949 250.307C37.2813 250.307 37.6241 250.229 37.9233 250.074C38.2225 249.919 38.4574 249.703 38.6278 249.426C38.8021 249.15 38.8911 248.826 38.8949 248.455C38.8911 248.091 38.804 247.773 38.6335 247.5C38.4669 247.227 38.2339 247.017 37.9347 246.869C37.6354 246.718 37.2888 246.642 36.8949 246.642C36.4934 246.642 36.1411 246.718 35.8381 246.869C35.5388 247.017 35.3059 247.227 35.1392 247.5C34.9725 247.773 34.8911 248.091 34.8949 248.455C34.8911 248.826 34.9744 249.15 35.1449 249.426C35.3153 249.703 35.5502 249.919 35.8494 250.074C36.1525 250.229 36.5009 250.307 36.8949 250.307ZM47.527 244.818L43.777 258.75H42.2599L46.0099 244.818H47.527ZM52.9986 257.193C52.1009 257.189 51.3338 256.953 50.6974 256.483C50.0611 256.013 49.5743 255.33 49.2372 254.432C48.9001 253.534 48.7315 252.453 48.7315 251.188C48.7315 249.926 48.9001 248.848 49.2372 247.955C49.5781 247.061 50.0668 246.379 50.7031 245.909C51.3433 245.439 52.1084 245.205 52.9986 245.205C53.8887 245.205 54.652 245.441 55.2884 245.915C55.9247 246.384 56.4115 247.066 56.7486 247.96C57.0895 248.85 57.2599 249.926 57.2599 251.188C57.2599 252.456 57.0914 253.54 56.7543 254.438C56.4171 255.331 55.9304 256.015 55.294 256.489C54.6577 256.958 53.8925 257.193 52.9986 257.193ZM52.9986 255.676C53.7865 255.676 54.402 255.292 54.8452 254.523C55.2921 253.754 55.5156 252.642 55.5156 251.188C55.5156 250.222 55.4134 249.405 55.2088 248.739C55.008 248.068 54.7183 247.561 54.3395 247.216C53.9645 246.867 53.5175 246.693 52.9986 246.693C52.2145 246.693 51.599 247.08 51.152 247.852C50.705 248.625 50.4796 249.737 50.4759 251.188C50.4759 252.157 50.5762 252.977 50.777 253.648C50.9815 254.314 51.2713 254.82 51.6463 255.165C52.0213 255.506 52.4721 255.676 52.9986 255.676ZM63.6903 245.364V257H61.929V247.125H61.8608L59.0767 248.943V247.261L61.9801 245.364H63.6903Z" fill="black"/>
<path d="M99.2912 257V255.727L103.229 251.648C103.649 251.205 103.996 250.816 104.268 250.483C104.545 250.146 104.751 249.826 104.888 249.523C105.024 249.22 105.092 248.898 105.092 248.557C105.092 248.17 105.001 247.837 104.82 247.557C104.638 247.273 104.39 247.055 104.075 246.903C103.761 246.748 103.407 246.67 103.013 246.67C102.596 246.67 102.232 246.756 101.922 246.926C101.611 247.097 101.373 247.337 101.206 247.648C101.039 247.958 100.956 248.322 100.956 248.739H99.2798C99.2798 248.03 99.4427 247.411 99.7685 246.881C100.094 246.35 100.541 245.939 101.109 245.648C101.678 245.352 102.323 245.205 103.047 245.205C103.778 245.205 104.422 245.35 104.979 245.642C105.539 245.93 105.977 246.324 106.291 246.824C106.606 247.32 106.763 247.881 106.763 248.506C106.763 248.938 106.681 249.36 106.518 249.773C106.359 250.186 106.081 250.646 105.683 251.153C105.286 251.657 104.732 252.269 104.024 252.989L101.712 255.409V255.494H106.95V257H99.2912ZM113.155 257.159C112.375 257.159 111.678 257.025 111.064 256.756C110.454 256.487 109.971 256.114 109.615 255.636C109.263 255.155 109.073 254.598 109.047 253.966H110.831C110.854 254.311 110.969 254.61 111.178 254.864C111.39 255.114 111.666 255.307 112.007 255.443C112.348 255.58 112.727 255.648 113.143 255.648C113.602 255.648 114.007 255.568 114.359 255.409C114.715 255.25 114.994 255.028 115.195 254.744C115.395 254.456 115.496 254.125 115.496 253.75C115.496 253.36 115.395 253.017 115.195 252.722C114.998 252.422 114.708 252.187 114.325 252.017C113.946 251.847 113.488 251.761 112.95 251.761H111.967V250.33H112.95C113.382 250.33 113.761 250.252 114.087 250.097C114.416 249.941 114.674 249.725 114.859 249.449C115.045 249.169 115.138 248.841 115.138 248.466C115.138 248.106 115.056 247.794 114.893 247.528C114.734 247.259 114.507 247.049 114.212 246.898C113.92 246.746 113.575 246.67 113.178 246.67C112.799 246.67 112.445 246.741 112.115 246.881C111.789 247.017 111.524 247.214 111.32 247.472C111.115 247.725 111.005 248.03 110.99 248.386H109.291C109.31 247.758 109.496 247.205 109.848 246.727C110.204 246.25 110.674 245.877 111.257 245.608C111.84 245.339 112.488 245.205 113.2 245.205C113.946 245.205 114.59 245.35 115.132 245.642C115.678 245.93 116.098 246.314 116.393 246.795C116.693 247.277 116.84 247.803 116.837 248.375C116.84 249.027 116.659 249.58 116.291 250.034C115.928 250.489 115.443 250.794 114.837 250.949V251.04C115.609 251.157 116.208 251.464 116.632 251.96C117.06 252.456 117.272 253.072 117.268 253.807C117.272 254.447 117.094 255.021 116.734 255.528C116.378 256.036 115.892 256.436 115.274 256.727C114.657 257.015 113.95 257.159 113.155 257.159ZM123.467 257.159C122.687 257.159 121.99 257.025 121.376 256.756C120.767 256.487 120.284 256.114 119.928 255.636C119.575 255.155 119.386 254.598 119.359 253.966H121.143C121.166 254.311 121.282 254.61 121.49 254.864C121.702 255.114 121.979 255.307 122.32 255.443C122.661 255.58 123.039 255.648 123.456 255.648C123.914 255.648 124.32 255.568 124.672 255.409C125.028 255.25 125.306 255.028 125.507 254.744C125.708 254.456 125.808 254.125 125.808 253.75C125.808 253.36 125.708 253.017 125.507 252.722C125.31 252.422 125.02 252.187 124.638 252.017C124.259 251.847 123.801 251.761 123.263 251.761H122.28V250.33H123.263C123.695 250.33 124.073 250.252 124.399 250.097C124.729 249.941 124.986 249.725 125.172 249.449C125.357 249.169 125.45 248.841 125.45 248.466C125.45 248.106 125.369 247.794 125.206 247.528C125.047 247.259 124.82 247.049 124.524 246.898C124.232 246.746 123.888 246.67 123.49 246.67C123.111 246.67 122.757 246.741 122.428 246.881C122.102 247.017 121.837 247.214 121.632 247.472C121.428 247.725 121.318 248.03 121.303 248.386H119.604C119.623 247.758 119.808 247.205 120.161 246.727C120.517 246.25 120.986 245.877 121.57 245.608C122.153 245.339 122.801 245.205 123.513 245.205C124.259 245.205 124.903 245.35 125.445 245.642C125.99 245.93 126.411 246.314 126.706 246.795C127.005 247.277 127.153 247.803 127.149 248.375C127.153 249.027 126.971 249.58 126.604 250.034C126.24 250.489 125.755 250.794 125.149 250.949V251.04C125.922 251.157 126.52 251.464 126.945 251.96C127.373 252.456 127.585 253.072 127.581 253.807C127.585 254.447 127.407 255.021 127.047 255.528C126.691 256.036 126.204 256.436 125.587 256.727C124.969 257.015 124.263 257.159 123.467 257.159ZM133.598 245.205C134.117 245.208 134.628 245.303 135.132 245.489C135.636 245.674 136.09 245.977 136.496 246.398C136.905 246.818 137.231 247.386 137.473 248.102C137.719 248.814 137.844 249.701 137.848 250.761C137.848 251.78 137.746 252.687 137.541 253.483C137.337 254.275 137.043 254.943 136.661 255.489C136.282 256.034 135.821 256.449 135.28 256.733C134.738 257.017 134.128 257.159 133.45 257.159C132.757 257.159 132.142 257.023 131.604 256.75C131.066 256.477 130.628 256.1 130.291 255.619C129.954 255.134 129.744 254.578 129.661 253.949H131.393C131.507 254.449 131.738 254.854 132.087 255.165C132.439 255.472 132.893 255.625 133.45 255.625C134.303 255.625 134.967 255.254 135.445 254.511C135.922 253.765 136.162 252.723 136.166 251.386H136.075C135.878 251.712 135.632 251.992 135.337 252.227C135.045 252.462 134.717 252.644 134.354 252.773C133.99 252.902 133.602 252.966 133.189 252.966C132.518 252.966 131.909 252.801 131.359 252.472C130.81 252.142 130.373 251.689 130.047 251.114C129.721 250.538 129.558 249.881 129.558 249.142C129.558 248.407 129.725 247.741 130.058 247.142C130.395 246.544 130.865 246.07 131.467 245.722C132.073 245.369 132.784 245.197 133.598 245.205ZM133.604 246.682C133.161 246.682 132.761 246.792 132.405 247.011C132.053 247.227 131.774 247.521 131.57 247.892C131.365 248.259 131.263 248.669 131.263 249.119C131.263 249.57 131.361 249.979 131.558 250.347C131.759 250.71 132.032 251 132.376 251.216C132.725 251.428 133.123 251.534 133.57 251.534C133.903 251.534 134.214 251.47 134.501 251.341C134.789 251.212 135.041 251.034 135.257 250.807C135.473 250.576 135.642 250.314 135.763 250.023C135.884 249.731 135.945 249.424 135.945 249.102C135.945 248.674 135.842 248.277 135.638 247.909C135.437 247.542 135.161 247.246 134.808 247.023C134.456 246.795 134.054 246.682 133.604 246.682ZM139.656 254.727V253.307L144.685 245.364H145.804V247.455H145.094L141.497 253.148V253.239H148.389V254.727H139.656ZM145.173 257V254.295L145.185 253.648V245.364H146.849V257H145.173ZM154.301 257.159C153.487 257.159 152.767 257.019 152.142 256.739C151.521 256.458 151.034 256.072 150.682 255.58C150.33 255.087 150.155 254.527 150.159 253.898C150.155 253.405 150.256 252.953 150.46 252.54C150.669 252.123 150.951 251.777 151.307 251.5C151.663 251.22 152.061 251.042 152.5 250.966V250.898C151.92 250.758 151.456 250.447 151.108 249.966C150.759 249.485 150.587 248.932 150.591 248.307C150.587 247.712 150.744 247.182 151.062 246.716C151.384 246.246 151.826 245.877 152.386 245.608C152.947 245.339 153.585 245.205 154.301 245.205C155.009 245.205 155.642 245.341 156.199 245.614C156.759 245.883 157.201 246.252 157.523 246.722C157.845 247.187 158.008 247.716 158.011 248.307C158.008 248.932 157.83 249.485 157.477 249.966C157.125 250.447 156.667 250.758 156.102 250.898V250.966C156.538 251.042 156.93 251.22 157.278 251.5C157.631 251.777 157.911 252.123 158.119 252.54C158.331 252.953 158.439 253.405 158.443 253.898C158.439 254.527 158.261 255.087 157.909 255.58C157.557 256.072 157.068 256.458 156.443 256.739C155.822 257.019 155.108 257.159 154.301 257.159ZM154.301 255.722C154.782 255.722 155.199 255.642 155.551 255.483C155.903 255.32 156.176 255.095 156.369 254.807C156.563 254.515 156.661 254.174 156.665 253.784C156.661 253.379 156.555 253.021 156.347 252.71C156.142 252.4 155.864 252.155 155.511 251.977C155.159 251.799 154.756 251.71 154.301 251.71C153.843 251.71 153.436 251.799 153.08 251.977C152.723 252.155 152.443 252.4 152.239 252.71C152.034 253.021 151.934 253.379 151.938 253.784C151.934 254.174 152.027 254.515 152.216 254.807C152.409 255.095 152.684 255.32 153.04 255.483C153.396 255.642 153.816 255.722 154.301 255.722ZM154.301 250.307C154.688 250.307 155.03 250.229 155.33 250.074C155.629 249.919 155.864 249.703 156.034 249.426C156.208 249.15 156.297 248.826 156.301 248.455C156.297 248.091 156.21 247.773 156.04 247.5C155.873 247.227 155.64 247.017 155.341 246.869C155.042 246.718 154.695 246.642 154.301 246.642C153.9 246.642 153.547 246.718 153.244 246.869C152.945 247.017 152.712 247.227 152.545 247.5C152.379 247.773 152.297 248.091 152.301 248.455C152.297 248.826 152.381 249.15 152.551 249.426C152.722 249.703 152.956 249.919 153.256 250.074C153.559 250.229 153.907 250.307 154.301 250.307ZM160.234 254.727V253.307L165.263 245.364H166.382V247.455H165.672L162.075 253.148V253.239H168.967V254.727H160.234ZM165.751 257V254.295L165.763 253.648V245.364H167.428V257H165.751Z" fill="black"/>
<path d="M239.999 257.159C239.287 257.159 238.647 257.023 238.079 256.75C237.514 256.473 237.064 256.095 236.727 255.614C236.389 255.133 236.21 254.583 236.187 253.966H237.891C237.933 254.466 238.155 254.877 238.556 255.199C238.958 255.521 239.439 255.682 239.999 255.682C240.446 255.682 240.842 255.58 241.187 255.375C241.535 255.167 241.808 254.881 242.005 254.517C242.206 254.153 242.306 253.739 242.306 253.273C242.306 252.799 242.204 252.377 241.999 252.006C241.795 251.634 241.513 251.343 241.153 251.131C240.797 250.919 240.388 250.811 239.925 250.807C239.573 250.807 239.219 250.867 238.863 250.989C238.507 251.11 238.219 251.269 237.999 251.466L236.391 251.227L237.045 245.364H243.442V246.869H238.505L238.136 250.125H238.204C238.431 249.905 238.732 249.722 239.107 249.574C239.486 249.426 239.891 249.352 240.323 249.352C241.031 249.352 241.662 249.521 242.215 249.858C242.772 250.195 243.21 250.655 243.528 251.239C243.85 251.818 244.009 252.485 244.005 253.239C244.009 253.992 243.838 254.665 243.494 255.256C243.153 255.847 242.679 256.312 242.073 256.653C241.471 256.991 240.78 257.159 239.999 257.159Z" fill="black"/>
<path d="M295.534 256V245.818H299.163C299.955 245.818 300.612 245.962 301.132 246.251C301.652 246.539 302.042 246.933 302.3 247.434C302.559 247.931 302.688 248.491 302.688 249.114C302.688 249.741 302.557 250.304 302.295 250.805C302.037 251.302 301.646 251.696 301.122 251.988C300.602 252.276 299.947 252.42 299.158 252.42H296.663V251.118H299.019C299.52 251.118 299.926 251.032 300.237 250.859C300.549 250.684 300.777 250.445 300.923 250.143C301.069 249.842 301.142 249.499 301.142 249.114C301.142 248.73 301.069 248.388 300.923 248.09C300.777 247.792 300.547 247.558 300.232 247.389C299.921 247.22 299.51 247.136 298.999 247.136H297.07V256H295.534ZM304.37 256V248.364H305.807V249.577H305.886C306.025 249.166 306.271 248.843 306.622 248.607C306.977 248.369 307.378 248.249 307.825 248.249C307.918 248.249 308.027 248.253 308.153 248.259C308.282 248.266 308.384 248.274 308.456 248.284V249.706C308.397 249.689 308.291 249.671 308.138 249.651C307.986 249.628 307.833 249.616 307.681 249.616C307.33 249.616 307.016 249.691 306.741 249.84C306.469 249.986 306.254 250.19 306.095 250.452C305.936 250.71 305.856 251.005 305.856 251.337V256H304.37ZM312.761 256.154C312.008 256.154 311.36 255.993 310.817 255.672C310.276 255.347 309.859 254.891 309.564 254.305C309.272 253.715 309.126 253.024 309.126 252.232C309.126 251.449 309.272 250.76 309.564 250.163C309.859 249.567 310.27 249.101 310.797 248.766C311.327 248.432 311.947 248.264 312.656 248.264C313.087 248.264 313.505 248.335 313.909 248.478C314.313 248.621 314.676 248.844 314.998 249.149C315.319 249.454 315.573 249.85 315.758 250.337C315.944 250.821 316.037 251.41 316.037 252.102V252.629H309.967V251.516H314.58C314.58 251.125 314.501 250.778 314.342 250.477C314.182 250.172 313.959 249.931 313.67 249.756C313.385 249.58 313.051 249.492 312.666 249.492C312.249 249.492 311.884 249.595 311.572 249.8C311.264 250.003 311.025 250.268 310.856 250.596C310.691 250.921 310.608 251.274 310.608 251.655V252.525C310.608 253.035 310.697 253.469 310.876 253.827C311.059 254.185 311.312 254.459 311.637 254.648C311.962 254.833 312.341 254.926 312.775 254.926C313.057 254.926 313.314 254.886 313.546 254.807C313.778 254.724 313.979 254.601 314.148 254.439C314.317 254.277 314.446 254.076 314.535 253.837L315.942 254.091C315.83 254.505 315.628 254.868 315.336 255.18C315.048 255.488 314.685 255.728 314.247 255.901C313.813 256.07 313.317 256.154 312.761 256.154ZM311.985 247.344L313.148 245.053H314.714L313.173 247.344H311.985ZM317.686 258.864V248.364H319.138V249.602H319.262C319.348 249.442 319.473 249.259 319.635 249.05C319.797 248.841 320.023 248.659 320.311 248.503C320.6 248.344 320.981 248.264 321.455 248.264C322.071 248.264 322.621 248.42 323.105 248.732C323.589 249.043 323.969 249.492 324.244 250.079C324.522 250.665 324.661 251.371 324.661 252.197C324.661 253.022 324.524 253.73 324.249 254.32C323.974 254.906 323.596 255.359 323.115 255.677C322.635 255.992 322.086 256.149 321.47 256.149C321.006 256.149 320.626 256.071 320.331 255.915C320.039 255.76 319.811 255.577 319.645 255.369C319.479 255.16 319.352 254.974 319.262 254.812H319.173V258.864H317.686ZM319.143 252.182C319.143 252.719 319.221 253.189 319.377 253.594C319.532 253.998 319.758 254.315 320.053 254.543C320.348 254.769 320.709 254.881 321.136 254.881C321.581 254.881 321.952 254.764 322.25 254.528C322.548 254.29 322.774 253.967 322.926 253.559C323.082 253.151 323.16 252.692 323.16 252.182C323.16 251.678 323.084 251.226 322.931 250.825C322.782 250.424 322.557 250.107 322.255 249.875C321.957 249.643 321.584 249.527 321.136 249.527C320.706 249.527 320.341 249.638 320.043 249.86C319.748 250.082 319.524 250.392 319.372 250.79C319.219 251.187 319.143 251.652 319.143 252.182ZM328.549 256.169C328.065 256.169 327.628 256.08 327.237 255.901C326.846 255.718 326.536 255.455 326.307 255.11C326.082 254.765 325.969 254.343 325.969 253.842C325.969 253.411 326.052 253.057 326.217 252.778C326.383 252.5 326.607 252.28 326.889 252.117C327.17 251.955 327.485 251.832 327.833 251.749C328.181 251.666 328.536 251.603 328.897 251.56C329.355 251.507 329.726 251.464 330.011 251.431C330.296 251.395 330.503 251.337 330.632 251.257C330.761 251.178 330.826 251.048 330.826 250.869V250.835C330.826 250.4 330.703 250.064 330.458 249.825C330.216 249.587 329.855 249.467 329.374 249.467C328.874 249.467 328.48 249.578 328.191 249.8C327.906 250.019 327.709 250.263 327.6 250.531L326.203 250.213C326.368 249.749 326.61 249.375 326.928 249.089C327.25 248.801 327.619 248.592 328.037 248.463C328.455 248.33 328.894 248.264 329.355 248.264C329.659 248.264 329.983 248.301 330.324 248.374C330.669 248.443 330.99 248.572 331.288 248.761C331.59 248.95 331.837 249.22 332.029 249.572C332.221 249.92 332.318 250.372 332.318 250.929V256H330.866V254.956H330.806C330.71 255.148 330.566 255.337 330.374 255.523C330.181 255.708 329.935 255.862 329.633 255.985C329.331 256.108 328.97 256.169 328.549 256.169ZM328.872 254.976C329.283 254.976 329.635 254.895 329.926 254.732C330.221 254.57 330.445 254.358 330.597 254.096C330.753 253.831 330.831 253.547 330.831 253.246V252.261C330.778 252.314 330.675 252.364 330.523 252.411C330.374 252.454 330.203 252.492 330.011 252.525C329.819 252.555 329.631 252.583 329.449 252.609C329.267 252.633 329.114 252.652 328.992 252.669C328.703 252.705 328.44 252.767 328.201 252.853C327.966 252.939 327.777 253.063 327.634 253.226C327.495 253.385 327.426 253.597 327.426 253.862C327.426 254.23 327.561 254.509 327.833 254.697C328.105 254.883 328.451 254.976 328.872 254.976ZM334.298 256V248.364H335.734V249.577H335.814C335.953 249.166 336.198 248.843 336.55 248.607C336.904 248.369 337.305 248.249 337.753 248.249C337.846 248.249 337.955 248.253 338.081 248.259C338.21 248.266 338.311 248.274 338.384 248.284V249.706C338.324 249.689 338.218 249.671 338.066 249.651C337.914 249.628 337.761 249.616 337.609 249.616C337.257 249.616 336.944 249.691 336.669 249.84C336.397 249.986 336.182 250.19 336.023 250.452C335.864 250.71 335.784 251.005 335.784 251.337V256H334.298ZM342.688 256.154C341.936 256.154 341.288 255.993 340.744 255.672C340.204 255.347 339.787 254.891 339.492 254.305C339.2 253.715 339.054 253.024 339.054 252.232C339.054 251.449 339.2 250.76 339.492 250.163C339.787 249.567 340.198 249.101 340.725 248.766C341.255 248.432 341.875 248.264 342.584 248.264C343.015 248.264 343.432 248.335 343.837 248.478C344.241 248.621 344.604 248.844 344.926 249.149C345.247 249.454 345.501 249.85 345.686 250.337C345.872 250.821 345.965 251.41 345.965 252.102V252.629H339.894V251.516H344.508C344.508 251.125 344.428 250.778 344.269 250.477C344.11 250.172 343.886 249.931 343.598 249.756C343.313 249.58 342.978 249.492 342.594 249.492C342.176 249.492 341.812 249.595 341.5 249.8C341.192 250.003 340.953 250.268 340.784 250.596C340.618 250.921 340.536 251.274 340.536 251.655V252.525C340.536 253.035 340.625 253.469 340.804 253.827C340.986 254.185 341.24 254.459 341.565 254.648C341.89 254.833 342.269 254.926 342.703 254.926C342.985 254.926 343.242 254.886 343.474 254.807C343.706 254.724 343.906 254.601 344.075 254.439C344.244 254.277 344.374 254.076 344.463 253.837L345.87 254.091C345.757 254.505 345.555 254.868 345.264 255.18C344.975 255.488 344.612 255.728 344.175 255.901C343.741 256.07 343.245 256.154 342.688 256.154ZM347.614 256V248.364H349.051V249.577H349.13C349.269 249.166 349.515 248.843 349.866 248.607C350.221 248.369 350.622 248.249 351.069 248.249C351.162 248.249 351.271 248.253 351.397 248.259C351.527 248.266 351.628 248.274 351.701 248.284V249.706C351.641 249.689 351.535 249.671 351.382 249.651C351.23 249.628 351.077 249.616 350.925 249.616C350.574 249.616 350.26 249.691 349.985 249.84C349.714 249.986 349.498 250.19 349.339 250.452C349.18 250.71 349.1 251.005 349.1 251.337V256H347.614Z" fill="black"/>
<path d="M362.415 255L365.708 251.707C366.097 251.318 366.097 250.682 365.708 250.293L362.415 247" stroke="black" stroke-width="1.5" stroke-miterlimit="10" stroke-linecap="round" stroke-linejoin="round"/>
<line y1="291.5" x2="390" y2="291.5" stroke="#D9D9D9"/>
</svg>
