<svg width="181" height="38" viewBox="0 0 181 38" fill="none" xmlns="http://www.w3.org/2000/svg">
<rect x="0.5" y="0.5" width="180" height="37" rx="18.5" stroke="black"/>
<path d="M26.12 24H24.3729L28.2987 13.0909H30.2003L34.1261 24H32.3789L29.2947 15.0724H29.2095L26.12 24ZM26.413 19.728H32.0806V21.1129H26.413V19.728ZM38.8801 15.8182V17.0966H34.411V15.8182H38.8801ZM35.6096 13.858H37.2022V21.5977C37.2022 21.9066 37.2484 22.1392 37.3407 22.2955C37.4331 22.4482 37.552 22.5529 37.6976 22.6097C37.8468 22.663 38.0083 22.6896 38.1824 22.6896C38.3102 22.6896 38.4221 22.6808 38.5179 22.663C38.6138 22.6452 38.6884 22.631 38.7417 22.6204L39.0293 23.9361C38.937 23.9716 38.8056 24.0071 38.6351 24.0426C38.4647 24.0817 38.2516 24.103 37.9959 24.1065C37.5769 24.1136 37.1863 24.0391 36.824 23.8828C36.4618 23.7266 36.1689 23.4851 35.9451 23.1584C35.7214 22.8317 35.6096 22.4215 35.6096 21.9279V13.858ZM44.4612 15.8182V17.0966H39.9921V15.8182H44.4612ZM41.1906 13.858H42.7833V21.5977C42.7833 21.9066 42.8295 22.1392 42.9218 22.2955C43.0141 22.4482 43.1331 22.5529 43.2787 22.6097C43.4278 22.663 43.5894 22.6896 43.7634 22.6896C43.8912 22.6896 44.0031 22.6808 44.099 22.663C44.1949 22.6452 44.2694 22.631 44.3227 22.6204L44.6104 23.9361C44.518 23.9716 44.3866 24.0071 44.2162 24.0426C44.0457 24.0817 43.8327 24.103 43.577 24.1065C43.1579 24.1136 42.7673 24.0391 42.4051 23.8828C42.0429 23.7266 41.7499 23.4851 41.5262 23.1584C41.3025 22.8317 41.1906 22.4215 41.1906 21.9279V13.858ZM46.223 24V15.8182H47.7624V17.1179H47.8477C47.9968 16.6776 48.2596 16.3313 48.636 16.0792C49.016 15.8235 49.4457 15.6957 49.9251 15.6957C50.0245 15.6957 50.1417 15.6992 50.2766 15.7063C50.4151 15.7134 50.5234 15.7223 50.6016 15.733V17.2564C50.5376 17.2386 50.424 17.2191 50.2607 17.1978C50.0973 17.1729 49.9339 17.1605 49.7706 17.1605C49.3942 17.1605 49.0586 17.2404 48.7638 17.4002C48.4727 17.5565 48.2418 17.7749 48.0714 18.0554C47.9009 18.3324 47.8157 18.6484 47.8157 19.0036V24H46.223ZM51.9798 24V15.8182H53.5725V24H51.9798ZM52.7842 14.5558C52.5072 14.5558 52.2693 14.4634 52.0704 14.2788C51.8751 14.0906 51.7774 13.8668 51.7774 13.6076C51.7774 13.3448 51.8751 13.1211 52.0704 12.9364C52.2693 12.7482 52.5072 12.6541 52.7842 12.6541C53.0612 12.6541 53.2973 12.7482 53.4926 12.9364C53.6915 13.1211 53.7909 13.3448 53.7909 13.6076C53.7909 13.8668 53.6915 14.0906 53.4926 14.2788C53.2973 14.4634 53.0612 14.5558 52.7842 14.5558ZM55.843 24V13.0909H57.4357V17.1445H57.5316C57.6239 16.9741 57.7571 16.777 57.9311 16.5533C58.1051 16.3295 58.3466 16.1342 58.6555 15.9673C58.9645 15.7969 59.3729 15.7116 59.8807 15.7116C60.5412 15.7116 61.1307 15.8786 61.6491 16.2124C62.1676 16.5462 62.5742 17.0273 62.869 17.6559C63.1673 18.2844 63.3164 19.0408 63.3164 19.9251C63.3164 20.8093 63.169 21.5675 62.8743 22.1996C62.5795 22.8281 62.1747 23.3129 61.6598 23.6538C61.1449 23.9911 60.5572 24.1598 59.8967 24.1598C59.3995 24.1598 58.9929 24.0763 58.6768 23.9094C58.3643 23.7425 58.1193 23.5472 57.9418 23.3235C57.7642 23.0998 57.6275 22.9009 57.5316 22.7269H57.3984V24H55.843ZM57.4038 19.9091C57.4038 20.4844 57.4872 20.9886 57.6541 21.4219C57.821 21.8551 58.0625 22.1942 58.3786 22.4393C58.6946 22.6808 59.0817 22.8015 59.5398 22.8015C60.0156 22.8015 60.4134 22.6754 60.733 22.4233C61.0526 22.1676 61.294 21.8214 61.4574 21.3846C61.6243 20.9478 61.7077 20.456 61.7077 19.9091C61.7077 19.3693 61.6261 18.8846 61.4627 18.4549C61.3029 18.0252 61.0614 17.6861 60.7383 17.4375C60.4187 17.1889 60.0192 17.0646 59.5398 17.0646C59.0781 17.0646 58.6875 17.1836 58.3679 17.4215C58.0518 17.6594 57.8121 17.9915 57.6488 18.4176C57.4854 18.8437 57.4038 19.3409 57.4038 19.9091ZM70.2877 20.6069V15.8182H71.8857V24H70.3197V22.5831H70.2345C70.0463 23.0199 69.7444 23.3839 69.3289 23.6751C68.917 23.9627 68.4039 24.1065 67.7895 24.1065C67.2639 24.1065 66.7987 23.9911 66.3939 23.7603C65.9926 23.5259 65.6766 23.1797 65.4458 22.7216C65.2185 22.2635 65.1048 21.6971 65.1048 21.0224V15.8182H66.6975V20.8306C66.6975 21.3881 66.852 21.832 67.161 22.1623C67.4699 22.4925 67.8712 22.6577 68.3648 22.6577C68.6631 22.6577 68.9596 22.5831 69.2544 22.4339C69.5526 22.2848 69.7994 22.0593 69.9948 21.7575C70.1936 21.4556 70.2913 21.0721 70.2877 20.6069ZM77.552 24.1651C76.7459 24.1651 76.0517 23.9929 75.4693 23.6484C74.8904 23.3004 74.443 22.8121 74.127 22.1836C73.8145 21.5515 73.6582 20.8111 73.6582 19.9624C73.6582 19.1243 73.8145 18.3857 74.127 17.7464C74.443 17.1072 74.8833 16.6083 75.448 16.2496C76.0162 15.891 76.6802 15.7116 77.4402 15.7116C77.9018 15.7116 78.3493 15.788 78.7825 15.9407C79.2157 16.0934 79.6046 16.3331 79.949 16.6598C80.2935 16.9865 80.5652 17.4109 80.764 17.9329C80.9629 18.4513 81.0623 19.0817 81.0623 19.8239V20.3885H74.5584V19.1953H79.5016C79.5016 18.7763 79.4164 18.4052 79.2459 18.082C79.0755 17.7553 78.8358 17.4979 78.5268 17.3097C78.2214 17.1214 77.8627 17.0273 77.4508 17.0273C77.0034 17.0273 76.6127 17.1374 76.2789 17.3576C75.9487 17.5742 75.693 17.8583 75.5119 18.2099C75.3343 18.5579 75.2456 18.9361 75.2456 19.3445V20.2766C75.2456 20.8235 75.3414 21.2887 75.5332 21.6722C75.7285 22.0558 76.0002 22.3487 76.3482 22.5511C76.6962 22.75 77.1028 22.8494 77.568 22.8494C77.8699 22.8494 78.1451 22.8068 78.3936 22.7216C78.6422 22.6328 78.8571 22.5014 79.0382 22.3274C79.2193 22.1534 79.3578 21.9386 79.4537 21.6829L80.9611 21.9545C80.8404 22.3984 80.6238 22.7873 80.3113 23.1211C80.0023 23.4513 79.6135 23.7088 79.1447 23.8935C78.6795 24.0746 78.1486 24.1651 77.552 24.1651ZM82.8295 24V15.8182H84.3689V17.1179H84.4541C84.6032 16.6776 84.866 16.3313 85.2425 16.0792C85.6224 15.8235 86.0521 15.6957 86.5315 15.6957C86.6309 15.6957 86.7481 15.6992 86.8831 15.7063C87.0216 15.7134 87.1299 15.7223 87.208 15.733V17.2564C87.1441 17.2386 87.0305 17.2191 86.8671 17.1978C86.7037 17.1729 86.5404 17.1605 86.377 17.1605C86.0006 17.1605 85.665 17.2404 85.3703 17.4002C85.0791 17.5565 84.8483 17.7749 84.6778 18.0554C84.5074 18.3324 84.4221 18.6484 84.4221 19.0036V24H82.8295ZM97.7389 20.6069V15.8182H99.3369V24H97.7709V22.5831H97.6856C97.4974 23.0199 97.1956 23.3839 96.7801 23.6751C96.3682 23.9627 95.855 24.1065 95.2407 24.1065C94.7151 24.1065 94.2499 23.9911 93.8451 23.7603C93.4438 23.5259 93.1278 23.1797 92.8969 22.7216C92.6697 22.2635 92.556 21.6971 92.556 21.0224V15.8182H94.1487V20.8306C94.1487 21.3881 94.3032 21.832 94.6121 22.1623C94.9211 22.4925 95.3224 22.6577 95.816 22.6577C96.1143 22.6577 96.4108 22.5831 96.7055 22.4339C97.0038 22.2848 97.2506 22.0593 97.4459 21.7575C97.6448 21.4556 97.7425 21.0721 97.7389 20.6069ZM103.07 19.142V24H101.477V15.8182H103.006V17.1499H103.107C103.295 16.7166 103.59 16.3686 103.991 16.1058C104.396 15.843 104.906 15.7116 105.52 15.7116C106.077 15.7116 106.566 15.8288 106.985 16.0632C107.404 16.294 107.729 16.6385 107.96 17.0966C108.19 17.5547 108.306 18.1211 108.306 18.7958V24H106.713V18.9876C106.713 18.3945 106.559 17.9311 106.25 17.5973C105.941 17.2599 105.516 17.0913 104.977 17.0913C104.607 17.0913 104.279 17.1712 103.991 17.331C103.707 17.4908 103.482 17.7251 103.315 18.0341C103.151 18.3395 103.07 18.7088 103.07 19.142ZM117.858 24.1651C117.066 24.1651 116.384 23.9858 115.812 23.6271C115.244 23.2649 114.807 22.766 114.502 22.1303C114.197 21.4947 114.044 20.7667 114.044 19.9464C114.044 19.1154 114.2 18.3821 114.513 17.7464C114.825 17.1072 115.266 16.6083 115.834 16.2496C116.402 15.891 117.071 15.7116 117.842 15.7116C118.463 15.7116 119.017 15.8271 119.504 16.0579C119.99 16.2852 120.383 16.6048 120.681 17.0167C120.983 17.4286 121.162 17.9098 121.219 18.4602H119.669C119.584 18.0767 119.388 17.7464 119.083 17.4695C118.781 17.1925 118.376 17.054 117.869 17.054C117.425 17.054 117.036 17.1712 116.702 17.4055C116.372 17.6364 116.114 17.9666 115.93 18.3963C115.745 18.8224 115.653 19.3267 115.653 19.9091C115.653 20.5057 115.743 21.0206 115.924 21.4538C116.105 21.8871 116.361 22.2227 116.691 22.4606C117.025 22.6985 117.418 22.8175 117.869 22.8175C118.17 22.8175 118.444 22.7624 118.689 22.6523C118.937 22.5387 119.145 22.3771 119.312 22.1676C119.483 21.9581 119.601 21.706 119.669 21.4112H121.219C121.162 21.9403 120.99 22.4126 120.702 22.8281C120.415 23.2436 120.029 23.5703 119.546 23.8082C119.067 24.0462 118.504 24.1651 117.858 24.1651ZM125.303 24.1811C124.785 24.1811 124.316 24.0852 123.897 23.8935C123.478 23.6982 123.146 23.4158 122.901 23.0465C122.659 22.6772 122.539 22.2244 122.539 21.6882C122.539 21.2266 122.627 20.8466 122.805 20.5483C122.983 20.25 123.222 20.0138 123.524 19.8398C123.826 19.6658 124.163 19.5344 124.536 19.4457C124.909 19.3569 125.289 19.2894 125.676 19.2433C126.166 19.1864 126.564 19.1403 126.869 19.1048C127.175 19.0657 127.397 19.0036 127.535 18.9183C127.674 18.8331 127.743 18.6946 127.743 18.5028V18.4656C127.743 18.0004 127.612 17.6399 127.349 17.3842C127.089 17.1286 126.702 17.0007 126.188 17.0007C125.651 17.0007 125.229 17.1197 124.92 17.3576C124.614 17.592 124.403 17.853 124.286 18.1406L122.789 17.7997C122.967 17.3026 123.226 16.9013 123.567 16.5959C123.911 16.2869 124.307 16.0632 124.755 15.9247C125.202 15.7827 125.673 15.7116 126.166 15.7116C126.493 15.7116 126.839 15.7507 127.205 15.8288C127.574 15.9034 127.919 16.0419 128.238 16.2443C128.561 16.4467 128.826 16.7362 129.032 17.1126C129.238 17.4854 129.341 17.9702 129.341 18.5668V24H127.786V22.8814H127.722C127.619 23.0874 127.464 23.2898 127.258 23.4886C127.052 23.6875 126.788 23.8526 126.464 23.984C126.141 24.1154 125.754 24.1811 125.303 24.1811ZM125.65 22.9027C126.09 22.9027 126.466 22.8157 126.779 22.6417C127.095 22.4677 127.335 22.2404 127.498 21.9599C127.665 21.6758 127.748 21.3722 127.748 21.049V19.9943C127.691 20.0511 127.581 20.1044 127.418 20.1541C127.258 20.2003 127.075 20.2411 126.869 20.2766C126.663 20.3086 126.463 20.3388 126.267 20.3672C126.072 20.392 125.909 20.4134 125.777 20.4311C125.468 20.4702 125.186 20.5359 124.93 20.6282C124.678 20.7205 124.476 20.8537 124.323 21.0277C124.174 21.1982 124.099 21.4254 124.099 21.7095C124.099 22.1037 124.245 22.402 124.536 22.6044C124.827 22.8033 125.199 22.9027 125.65 22.9027ZM137.593 17.8157L136.15 18.0714C136.089 17.8867 135.994 17.7109 135.862 17.544C135.734 17.3771 135.56 17.2404 135.34 17.1339C135.12 17.0273 134.845 16.9741 134.514 16.9741C134.063 16.9741 133.687 17.0753 133.385 17.2777C133.083 17.4766 132.932 17.734 132.932 18.0501C132.932 18.3235 133.034 18.5437 133.236 18.7106C133.438 18.8775 133.765 19.0142 134.216 19.1207L135.516 19.419C136.269 19.593 136.83 19.8612 137.199 20.2234C137.568 20.5856 137.753 21.0561 137.753 21.6349C137.753 22.125 137.611 22.5618 137.327 22.9453C137.046 23.3253 136.654 23.6236 136.15 23.8402C135.649 24.0568 135.068 24.1651 134.408 24.1651C133.492 24.1651 132.744 23.9698 132.165 23.5792C131.587 23.185 131.231 22.6257 131.1 21.9013L132.639 21.6669C132.735 22.0682 132.932 22.3718 133.231 22.5778C133.529 22.7802 133.918 22.8814 134.397 22.8814C134.919 22.8814 135.337 22.7731 135.649 22.5565C135.962 22.3363 136.118 22.0682 136.118 21.7521C136.118 21.4964 136.022 21.2816 135.83 21.1076C135.642 20.9336 135.353 20.8022 134.962 20.7134L133.577 20.4098C132.813 20.2358 132.249 19.9588 131.883 19.5788C131.521 19.1989 131.34 18.7177 131.34 18.1353C131.34 17.6523 131.475 17.2298 131.745 16.8675C132.014 16.5053 132.387 16.223 132.863 16.0206C133.339 15.8146 133.884 15.7116 134.498 15.7116C135.383 15.7116 136.079 15.9034 136.587 16.2869C137.094 16.6669 137.43 17.1765 137.593 17.8157ZM139.504 24V15.8182H141.097V24H139.504ZM140.309 14.5558C140.032 14.5558 139.794 14.4634 139.595 14.2788C139.4 14.0906 139.302 13.8668 139.302 13.6076C139.302 13.3448 139.4 13.1211 139.595 12.9364C139.794 12.7482 140.032 12.6541 140.309 12.6541C140.586 12.6541 140.822 12.7482 141.017 12.9364C141.216 13.1211 141.315 13.3448 141.315 13.6076C141.315 13.8668 141.216 14.0906 141.017 14.2788C140.822 14.4634 140.586 14.5558 140.309 14.5558ZM146.766 24.1651C145.96 24.1651 145.266 23.9929 144.683 23.6484C144.104 23.3004 143.657 22.8121 143.341 22.1836C143.028 21.5515 142.872 20.8111 142.872 19.9624C142.872 19.1243 143.028 18.3857 143.341 17.7464C143.657 17.1072 144.097 16.6083 144.662 16.2496C145.23 15.891 145.894 15.7116 146.654 15.7116C147.116 15.7116 147.563 15.788 147.996 15.9407C148.43 16.0934 148.818 16.3331 149.163 16.6598C149.507 16.9865 149.779 17.4109 149.978 17.9329C150.177 18.4513 150.276 19.0817 150.276 19.8239V20.3885H143.772V19.1953H148.715C148.715 18.7763 148.63 18.4052 148.46 18.082C148.289 17.7553 148.05 17.4979 147.741 17.3097C147.435 17.1214 147.077 17.0273 146.665 17.0273C146.217 17.0273 145.827 17.1374 145.493 17.3576C145.163 17.5742 144.907 17.8583 144.726 18.2099C144.548 18.5579 144.459 18.9361 144.459 19.3445V20.2766C144.459 20.8235 144.555 21.2887 144.747 21.6722C144.942 22.0558 145.214 22.3487 145.562 22.5511C145.91 22.75 146.317 22.8494 146.782 22.8494C147.084 22.8494 147.359 22.8068 147.608 22.7216C147.856 22.6328 148.071 22.5014 148.252 22.3274C148.433 22.1534 148.572 21.9386 148.668 21.6829L150.175 21.9545C150.054 22.3984 149.838 22.7873 149.525 23.1211C149.216 23.4513 148.827 23.7088 148.359 23.8935C147.893 24.0746 147.362 24.1651 146.766 24.1651ZM152.043 24V15.8182H153.583V17.1179H153.668C153.817 16.6776 154.08 16.3313 154.456 16.0792C154.836 15.8235 155.266 15.6957 155.745 15.6957C155.845 15.6957 155.962 15.6992 156.097 15.7063C156.235 15.7134 156.344 15.7223 156.422 15.733V17.2564C156.358 17.2386 156.244 17.2191 156.081 17.1978C155.918 17.1729 155.754 17.1605 155.591 17.1605C155.214 17.1605 154.879 17.2404 154.584 17.4002C154.293 17.5565 154.062 17.7749 153.892 18.0554C153.721 18.3324 153.636 18.6484 153.636 19.0036V24H152.043Z" fill="black"/>
</svg>
