<svg width="21" height="18" viewBox="0 0 21 18" fill="none" xmlns="http://www.w3.org/2000/svg">
<g clip-path="url(#clip0_42_1067)">
<path fill-rule="evenodd" clip-rule="evenodd" d="M0 1.125C0 0.503679 0.503679 0 1.125 0H19.125C19.7463 0 20.25 0.503679 20.25 1.125C20.25 1.74632 19.7463 2.25 19.125 2.25H1.125C0.503679 2.25 0 1.74632 0 1.125Z" fill="black"/>
<path fill-rule="evenodd" clip-rule="evenodd" d="M0 9C0 8.37868 0.503679 7.875 1.125 7.875H19.125C19.7463 7.875 20.25 8.37868 20.25 9C20.25 9.62132 19.7463 10.125 19.125 10.125H1.125C0.503679 10.125 0 9.62132 0 9Z" fill="black"/>
<path fill-rule="evenodd" clip-rule="evenodd" d="M0 16.875C0 16.2537 0.503679 15.75 1.125 15.75H19.125C19.7463 15.75 20.25 16.2537 20.25 16.875C20.25 17.4963 19.7463 18 19.125 18H1.125C0.503679 18 0 17.4963 0 16.875Z" fill="black"/>
</g>
<defs>
<clipPath id="clip0_42_1067">
<rect width="20.25" height="18" fill="white"/>
</clipPath>
</defs>
</svg>
