<svg width="116" height="46" viewBox="0 0 116 46" fill="none" xmlns="http://www.w3.org/2000/svg">
<rect width="116" height="46" rx="23" fill="white"/>
<path d="M32.1016 19.8842C32.0372 19.3127 31.7715 18.87 31.3047 18.5561C30.8378 18.2382 30.2502 18.0792 29.5419 18.0792C29.0348 18.0792 28.5961 18.1597 28.2259 18.3207C27.8556 18.4776 27.5678 18.695 27.3626 18.9727C27.1613 19.2463 27.0607 19.5582 27.0607 19.9084C27.0607 20.2022 27.1291 20.4557 27.266 20.669C27.4068 20.8823 27.59 21.0614 27.8153 21.2063C28.0447 21.3472 28.2902 21.4659 28.5518 21.5625C28.8134 21.6551 29.065 21.7315 29.3065 21.7919L30.5138 22.1058C30.9083 22.2024 31.3127 22.3332 31.7273 22.4982C32.1418 22.6632 32.5262 22.8806 32.8803 23.1502C33.2345 23.4199 33.5202 23.7539 33.7376 24.1523C33.9589 24.5508 34.0696 25.0277 34.0696 25.5831C34.0696 26.2834 33.8885 26.9052 33.5263 27.4485C33.1681 27.9918 32.6469 28.4205 31.9627 28.7344C31.2826 29.0483 30.4595 29.2053 29.4936 29.2053C28.5679 29.2053 27.767 29.0584 27.0909 28.7646C26.4148 28.4708 25.8855 28.0542 25.5032 27.5149C25.1209 26.9716 24.9096 26.3277 24.8693 25.5831H26.7408C26.777 26.0298 26.9219 26.4021 27.1754 26.6999C27.433 26.9937 27.761 27.2131 28.1594 27.358C28.5619 27.4988 29.0026 27.5692 29.4815 27.5692C30.0088 27.5692 30.4776 27.4867 30.8881 27.3217C31.3027 27.1527 31.6287 26.9193 31.8661 26.6214C32.1036 26.3196 32.2223 25.9674 32.2223 25.565C32.2223 25.1987 32.1177 24.8989 31.9084 24.6655C31.7031 24.4321 31.4234 24.2389 31.0692 24.0859C30.7191 23.933 30.3227 23.7982 29.88 23.6815L28.419 23.283C27.429 23.0134 26.6442 22.617 26.0646 22.0938C25.4891 21.5705 25.2013 20.8783 25.2013 20.017C25.2013 19.3047 25.3945 18.6829 25.7809 18.1516C26.1673 17.6204 26.6905 17.2079 27.3505 16.9141C28.0105 16.6162 28.7551 16.4673 29.5842 16.4673C30.4213 16.4673 31.1598 16.6142 31.7997 16.908C32.4437 17.2018 32.9508 17.6063 33.321 18.1214C33.6913 18.6326 33.8845 19.2202 33.9006 19.8842H32.1016ZM40.0597 29.1871C39.1623 29.1871 38.3895 28.9839 37.7416 28.5774C37.0976 28.1669 36.6026 27.6014 36.2565 26.881C35.9104 26.1606 35.7373 25.3356 35.7373 24.4059C35.7373 23.4641 35.9144 22.633 36.2686 21.9126C36.6227 21.1882 37.1218 20.6228 37.7657 20.2163C38.4097 19.8098 39.1683 19.6065 40.0416 19.6065C40.7459 19.6065 41.3738 19.7373 41.9252 19.9989C42.4765 20.2565 42.9213 20.6187 43.2593 21.0856C43.6014 21.5524 43.8047 22.0978 43.8691 22.7216H42.1123C42.0157 22.2869 41.7944 21.9126 41.4482 21.5987C41.1061 21.2848 40.6473 21.1278 40.0718 21.1278C39.5687 21.1278 39.128 21.2607 38.7497 21.5263C38.3754 21.7879 38.0837 22.1622 37.8744 22.6491C37.6651 23.1321 37.5605 23.7036 37.5605 24.3636C37.5605 25.0398 37.6631 25.6233 37.8683 26.1143C38.0736 26.6054 38.3634 26.9857 38.7377 27.2553C39.116 27.525 39.5607 27.6598 40.0718 27.6598C40.4139 27.6598 40.7238 27.5974 41.0015 27.4727C41.2832 27.3439 41.5187 27.1607 41.7078 26.9233C41.901 26.6858 42.0358 26.4001 42.1123 26.0661H43.8691C43.8047 26.6657 43.6095 27.201 43.2835 27.6719C42.9575 28.1428 42.5208 28.513 41.9735 28.7827C41.4301 29.0523 40.7922 29.1871 40.0597 29.1871ZM48.4979 29.2053C47.9103 29.2053 47.379 29.0966 46.9041 28.8793C46.4292 28.6579 46.0529 28.3379 45.7752 27.9194C45.5015 27.5008 45.3647 26.9877 45.3647 26.38C45.3647 25.8568 45.4653 25.4261 45.6665 25.0881C45.8678 24.75 46.1394 24.4824 46.4815 24.2852C46.8236 24.0879 47.206 23.939 47.6286 23.8384C48.0511 23.7378 48.4818 23.6613 48.9205 23.609C49.4759 23.5446 49.9266 23.4923 50.2727 23.4521C50.6188 23.4078 50.8704 23.3374 51.0273 23.2408C51.1843 23.1442 51.2628 22.9872 51.2628 22.7699V22.7276C51.2628 22.2004 51.1139 21.7919 50.8161 21.5021C50.5223 21.2124 50.0836 21.0675 49.5 21.0675C48.8923 21.0675 48.4134 21.2023 48.0632 21.4719C47.7171 21.7376 47.4776 22.0334 47.3448 22.3594L45.6484 21.973C45.8497 21.4096 46.1435 20.9548 46.5298 20.6087C46.9202 20.2585 47.369 20.005 47.8761 19.848C48.3832 19.687 48.9164 19.6065 49.4759 19.6065C49.8461 19.6065 50.2385 19.6508 50.6531 19.7393C51.0716 19.8239 51.462 19.9808 51.8242 20.2102C52.1905 20.4396 52.4903 20.7676 52.7237 21.1942C52.9571 21.6168 53.0739 22.1662 53.0739 22.8423V29H51.3111V27.7322H51.2386C51.1219 27.9657 50.9469 28.1951 50.7134 28.4205C50.48 28.6458 50.1802 28.833 49.8139 28.9819C49.4477 29.1308 49.009 29.2053 48.4979 29.2053ZM48.8903 27.7564C49.3893 27.7564 49.8159 27.6578 50.1701 27.4606C50.5283 27.2634 50.8 27.0058 50.9851 26.6879C51.1742 26.3659 51.2688 26.0218 51.2688 25.6555V24.4602C51.2044 24.5246 51.0797 24.585 50.8945 24.6413C50.7134 24.6937 50.5062 24.7399 50.2727 24.7802C50.0393 24.8164 49.8119 24.8506 49.5906 24.8828C49.3692 24.911 49.1841 24.9351 49.0352 24.9553C48.685 24.9995 48.3651 25.074 48.0753 25.1786C47.7895 25.2833 47.5601 25.4342 47.3871 25.6314C47.218 25.8246 47.1335 26.0821 47.1335 26.4041C47.1335 26.8509 47.2985 27.1889 47.6286 27.4183C47.9586 27.6437 48.3791 27.7564 48.8903 27.7564ZM57.2831 23.4943V29H55.4781V19.7273H57.2107V21.2365H57.3254C57.5387 20.7455 57.8727 20.3511 58.3275 20.0533C58.7863 19.7554 59.3638 19.6065 60.0601 19.6065C60.692 19.6065 61.2454 19.7393 61.7203 20.005C62.1952 20.2666 62.5634 20.657 62.825 21.1761C63.0866 21.6953 63.2174 22.3372 63.2174 23.1019V29H61.4124V23.3192C61.4124 22.6471 61.2373 22.1219 60.8872 21.7436C60.537 21.3613 60.0561 21.1701 59.4443 21.1701C59.0258 21.1701 58.6535 21.2607 58.3275 21.4418C58.0055 21.6229 57.75 21.8885 57.5608 22.2386C57.3757 22.5848 57.2831 23.0033 57.2831 23.4943ZM67.4433 23.4943V29H65.6382V19.7273H67.3708V21.2365H67.4855C67.6988 20.7455 68.0329 20.3511 68.4877 20.0533C68.9465 19.7554 69.524 19.6065 70.2203 19.6065C70.8521 19.6065 71.4055 19.7393 71.8804 20.005C72.3553 20.2666 72.7236 20.657 72.9852 21.1761C73.2468 21.6953 73.3776 22.3372 73.3776 23.1019V29H71.5725V23.3192C71.5725 22.6471 71.3975 22.1219 71.0473 21.7436C70.6972 21.3613 70.2162 21.1701 69.6045 21.1701C69.1859 21.1701 68.8137 21.2607 68.4877 21.4418C68.1657 21.6229 67.9101 21.8885 67.721 22.2386C67.5358 22.5848 67.4433 23.0033 67.4433 23.4943ZM79.7948 29.1871C78.8812 29.1871 78.0944 28.992 77.4344 28.6016C76.7784 28.2071 76.2713 27.6538 75.9131 26.9414C75.5589 26.225 75.3818 25.3859 75.3818 24.424C75.3818 23.4742 75.5589 22.6371 75.9131 21.9126C76.2713 21.1882 76.7703 20.6228 77.4102 20.2163C78.0542 19.8098 78.8068 19.6065 79.6681 19.6065C80.1913 19.6065 80.6984 19.6931 81.1894 19.8661C81.6804 20.0392 82.1211 20.3108 82.5115 20.6811C82.9018 21.0514 83.2097 21.5323 83.4351 22.1239C83.6605 22.7115 83.7732 23.4259 83.7732 24.267V24.907H76.4021V23.5547H82.0044C82.0044 23.0798 81.9078 22.6592 81.7146 22.293C81.5214 21.9227 81.2497 21.6309 80.8996 21.4176C80.5535 21.2043 80.147 21.0977 79.6801 21.0977C79.173 21.0977 78.7303 21.2224 78.352 21.4719C77.9777 21.7174 77.6879 22.0394 77.4827 22.4379C77.2815 22.8323 77.1808 23.2609 77.1808 23.7237V24.7802C77.1808 25.4 77.2895 25.9272 77.5068 26.3619C77.7282 26.7965 78.0361 27.1286 78.4305 27.358C78.8249 27.5833 79.2857 27.696 79.8129 27.696C80.155 27.696 80.4669 27.6477 80.7487 27.5511C81.0304 27.4505 81.2739 27.3016 81.4791 27.1044C81.6844 26.9072 81.8414 26.6637 81.95 26.3739L83.6585 26.6818C83.5216 27.1849 83.2761 27.6256 82.922 28.0039C82.5718 28.3782 82.1311 28.67 81.5999 28.8793C81.0727 29.0845 80.471 29.1871 79.7948 29.1871ZM85.7759 29V19.7273H87.5206V21.2003H87.6172C87.7862 20.7012 88.084 20.3088 88.5107 20.0231C88.9413 19.7333 89.4283 19.5884 89.9716 19.5884C90.0843 19.5884 90.2171 19.5924 90.37 19.6005C90.527 19.6085 90.6497 19.6186 90.7383 19.6307V21.3572C90.6658 21.3371 90.5371 21.315 90.3519 21.2908C90.1668 21.2627 89.9817 21.2486 89.7965 21.2486C89.3699 21.2486 88.9896 21.3391 88.6555 21.5202C88.3255 21.6973 88.0639 21.9448 87.8707 22.2628C87.6776 22.5767 87.581 22.9349 87.581 23.3374V29H85.7759Z" fill="black"/>
</svg>
