<svg width="390" height="46" viewBox="0 0 390 46" fill="none" xmlns="http://www.w3.org/2000/svg">
<path d="M33.7058 28H30.4096V17.8182H33.8102C34.8078 17.8182 35.6646 18.022 36.3805 18.4297C37.0964 18.834 37.6449 19.4157 38.0261 20.1747C38.4106 20.9304 38.6028 21.8369 38.6028 22.8942C38.6028 23.9548 38.4089 24.8662 38.0211 25.6286C37.6367 26.3909 37.0798 26.9775 36.3507 27.3885C35.6215 27.7962 34.7399 28 33.7058 28ZM31.9458 26.6577H33.6213C34.3968 26.6577 35.0415 26.5118 35.5552 26.2202C36.069 25.9252 36.4534 25.4993 36.7086 24.9425C36.9638 24.3823 37.0914 23.6996 37.0914 22.8942C37.0914 22.0954 36.9638 21.4176 36.7086 20.8608C36.4567 20.304 36.0806 19.8814 35.5801 19.593C35.0796 19.3047 34.4582 19.1605 33.7157 19.1605H31.9458V26.6577ZM42.6161 28.169C42.1322 28.169 41.6947 28.0795 41.3036 27.9006C40.9125 27.7183 40.6026 27.4548 40.3739 27.1101C40.1486 26.7654 40.0359 26.3428 40.0359 25.8423C40.0359 25.4115 40.1187 25.0568 40.2844 24.7784C40.4502 24.5 40.6739 24.2796 40.9556 24.1172C41.2373 23.9548 41.5522 23.8321 41.9002 23.7493C42.2482 23.6664 42.6029 23.6035 42.9641 23.5604C43.4215 23.5073 43.7927 23.4643 44.0778 23.4311C44.3628 23.3946 44.57 23.3366 44.6992 23.2571C44.8285 23.1776 44.8931 23.0483 44.8931 22.8693V22.8345C44.8931 22.4003 44.7705 22.0639 44.5252 21.8253C44.2833 21.5866 43.922 21.4673 43.4414 21.4673C42.9409 21.4673 42.5465 21.5784 42.2582 21.8004C41.9731 22.0192 41.7759 22.2628 41.6665 22.5312L40.2695 22.2131C40.4353 21.7491 40.6772 21.3745 40.9954 21.0895C41.3169 20.8011 41.6864 20.5923 42.104 20.4631C42.5217 20.3305 42.9608 20.2642 43.4215 20.2642C43.7264 20.2642 44.0496 20.3007 44.391 20.3736C44.7357 20.4432 45.0572 20.5724 45.3555 20.7614C45.6571 20.9503 45.904 21.2204 46.0962 21.5717C46.2885 21.9197 46.3846 22.3722 46.3846 22.929V28H44.9329V26.956H44.8732C44.7771 27.1482 44.6329 27.3371 44.4407 27.5227C44.2485 27.7083 44.0015 27.8625 43.6999 27.9851C43.3983 28.1077 43.0371 28.169 42.6161 28.169ZM42.9393 26.9759C43.3503 26.9759 43.7016 26.8946 43.9933 26.7322C44.2882 26.5698 44.512 26.3577 44.6644 26.0959C44.8202 25.8307 44.8981 25.5473 44.8981 25.2457V24.2614C44.8451 24.3144 44.7423 24.3641 44.5898 24.4105C44.4407 24.4536 44.27 24.4917 44.0778 24.5249C43.8855 24.5547 43.6983 24.5829 43.516 24.6094C43.3337 24.6326 43.1812 24.6525 43.0586 24.669C42.7702 24.7055 42.5067 24.7668 42.2681 24.853C42.0328 24.9392 41.8439 25.0634 41.7013 25.2259C41.5621 25.3849 41.4925 25.5971 41.4925 25.8622C41.4925 26.2301 41.6284 26.5085 41.9002 26.6974C42.172 26.883 42.5183 26.9759 42.9393 26.9759ZM51.9292 20.3636V21.5568H47.758V20.3636H51.9292ZM48.8766 18.5341H50.3631V25.7578C50.3631 26.0462 50.4062 26.2633 50.4924 26.4091C50.5785 26.5516 50.6896 26.6494 50.8255 26.7024C50.9647 26.7521 51.1155 26.777 51.2779 26.777C51.3972 26.777 51.5016 26.7687 51.5911 26.7521C51.6806 26.7356 51.7502 26.7223 51.7999 26.7124L52.0684 27.9403C51.9822 27.9735 51.8596 28.0066 51.7005 28.0398C51.5414 28.0762 51.3425 28.0961 51.1039 28.0994C50.7128 28.1061 50.3482 28.0365 50.0101 27.8906C49.6721 27.7448 49.3986 27.5194 49.1898 27.2145C48.981 26.9096 48.8766 26.5268 48.8766 26.0661V18.5341ZM56.7827 28.1541C56.0303 28.1541 55.3823 27.9934 54.8388 27.6719C54.2985 27.3471 53.8809 26.8913 53.5859 26.3047C53.2943 25.7147 53.1484 25.0237 53.1484 24.2315C53.1484 23.4493 53.2943 22.7599 53.5859 22.1634C53.8809 21.5668 54.2919 21.1011 54.8189 20.7663C55.3492 20.4316 55.969 20.2642 56.6783 20.2642C57.1091 20.2642 57.5268 20.3355 57.9311 20.478C58.3355 20.6205 58.6984 20.8442 59.0199 21.1491C59.3414 21.4541 59.5949 21.8501 59.7805 22.3374C59.9661 22.8213 60.0589 23.4096 60.0589 24.1023V24.6293H53.9886V23.5156H58.6023C58.6023 23.1245 58.5227 22.7782 58.3636 22.4766C58.2045 22.1716 57.9808 21.9313 57.6925 21.7557C57.4074 21.58 57.0727 21.4922 56.6882 21.4922C56.2706 21.4922 55.906 21.5949 55.5945 21.8004C55.2862 22.0026 55.0476 22.2678 54.8786 22.5959C54.7128 22.9207 54.63 23.2737 54.63 23.6548V24.5249C54.63 25.0353 54.7195 25.4695 54.8984 25.8274C55.0807 26.1854 55.3343 26.4588 55.6591 26.6477C55.9839 26.8333 56.3634 26.9261 56.7976 26.9261C57.0793 26.9261 57.3362 26.8864 57.5682 26.8068C57.8002 26.724 58.0007 26.6013 58.1697 26.4389C58.3388 26.2765 58.468 26.076 58.5575 25.8374L59.9645 26.0909C59.8518 26.5052 59.6496 26.8681 59.358 27.1797C59.0696 27.4879 58.7067 27.7282 58.2692 27.9006C57.835 28.0696 57.3395 28.1541 56.7827 28.1541Z" fill="#636363"/>
<path d="M109.635 17.8182V28H108.224L103.048 20.5327H102.954V28H101.417V17.8182H102.839L108.02 25.2955H108.114V17.8182H109.635ZM112.737 28.0945C112.465 28.0945 112.231 27.9983 112.036 27.8061C111.84 27.6106 111.742 27.3752 111.742 27.1001C111.742 26.8284 111.84 26.5964 112.036 26.4041C112.231 26.2086 112.465 26.1108 112.737 26.1108C113.008 26.1108 113.242 26.2086 113.438 26.4041C113.633 26.5964 113.731 26.8284 113.731 27.1001C113.731 27.2824 113.684 27.4498 113.592 27.6023C113.502 27.7514 113.383 27.8707 113.234 27.9602C113.085 28.0497 112.919 28.0945 112.737 28.0945ZM122.122 28.1491C121.505 28.1491 120.955 27.9917 120.471 27.6768C119.99 27.3587 119.613 26.9062 119.338 26.3196C119.066 25.7296 118.93 25.022 118.93 24.1967C118.93 23.3714 119.067 22.6655 119.343 22.0788C119.621 21.4922 120.002 21.0431 120.486 20.7315C120.97 20.42 121.518 20.2642 122.132 20.2642C122.606 20.2642 122.987 20.3438 123.275 20.5028C123.567 20.6586 123.792 20.8409 123.951 21.0497C124.114 21.2585 124.24 21.4425 124.329 21.6016H124.419V17.8182H125.905V28H124.453V26.8118H124.329C124.24 26.9742 124.11 27.1598 123.941 27.3686C123.776 27.5774 123.547 27.7597 123.255 27.9155C122.963 28.0713 122.586 28.1491 122.122 28.1491ZM122.45 26.8814C122.877 26.8814 123.239 26.7687 123.534 26.5433C123.832 26.3146 124.057 25.9981 124.21 25.5938C124.365 25.1894 124.443 24.7187 124.443 24.1818C124.443 23.6515 124.367 23.1875 124.215 22.7898C124.062 22.392 123.838 22.0821 123.544 21.8601C123.249 21.638 122.884 21.527 122.45 21.527C122.002 21.527 121.629 21.643 121.331 21.875C121.033 22.107 120.807 22.4235 120.655 22.8246C120.506 23.2256 120.431 23.678 120.431 24.1818C120.431 24.6922 120.508 25.1513 120.66 25.5589C120.812 25.9666 121.038 26.2898 121.336 26.5284C121.638 26.7637 122.009 26.8814 122.45 26.8814ZM131.318 28.1541C130.565 28.1541 129.917 27.9934 129.374 27.6719C128.834 27.3471 128.416 26.8913 128.121 26.3047C127.829 25.7147 127.684 25.0237 127.684 24.2315C127.684 23.4493 127.829 22.7599 128.121 22.1634C128.416 21.5668 128.827 21.1011 129.354 20.7663C129.884 20.4316 130.504 20.2642 131.213 20.2642C131.644 20.2642 132.062 20.3355 132.466 20.478C132.871 20.6205 133.234 20.8442 133.555 21.1491C133.877 21.4541 134.13 21.8501 134.316 22.3374C134.501 22.8213 134.594 23.4096 134.594 24.1023V24.6293H128.524V23.5156H133.137C133.137 23.1245 133.058 22.7782 132.899 22.4766C132.74 22.1716 132.516 21.9313 132.228 21.7557C131.943 21.58 131.608 21.4922 131.223 21.4922C130.806 21.4922 130.441 21.5949 130.13 21.8004C129.821 22.0026 129.583 22.2678 129.414 22.5959C129.248 22.9207 129.165 23.2737 129.165 23.6548V24.5249C129.165 25.0353 129.255 25.4695 129.434 25.8274C129.616 26.1854 129.869 26.4588 130.194 26.6477C130.519 26.8333 130.899 26.9261 131.333 26.9261C131.614 26.9261 131.871 26.8864 132.103 26.8068C132.335 26.724 132.536 26.6013 132.705 26.4389C132.874 26.2765 133.003 26.076 133.093 25.8374L134.5 26.0909C134.387 26.5052 134.185 26.8681 133.893 27.1797C133.605 27.4879 133.242 27.7282 132.804 27.9006C132.37 28.0696 131.875 28.1541 131.318 28.1541ZM143.165 28.1541C142.426 28.1541 141.79 27.9867 141.256 27.652C140.726 27.3139 140.318 26.8482 140.033 26.255C139.748 25.6617 139.605 24.9822 139.605 24.2166C139.605 23.4411 139.751 22.7566 140.043 22.1634C140.335 21.5668 140.746 21.1011 141.276 20.7663C141.806 20.4316 142.431 20.2642 143.15 20.2642C143.73 20.2642 144.247 20.3719 144.701 20.5874C145.155 20.7995 145.522 21.0978 145.8 21.4822C146.082 21.8667 146.249 22.3158 146.302 22.8295H144.855C144.776 22.4716 144.594 22.1634 144.309 21.9048C144.027 21.6463 143.649 21.517 143.175 21.517C142.761 21.517 142.398 21.6264 142.086 21.8452C141.778 22.0606 141.538 22.3688 141.365 22.7699C141.193 23.1676 141.107 23.6383 141.107 24.1818C141.107 24.7386 141.191 25.2192 141.36 25.6236C141.529 26.0279 141.768 26.3411 142.076 26.5632C142.388 26.7853 142.754 26.8963 143.175 26.8963C143.457 26.8963 143.712 26.8449 143.941 26.7422C144.173 26.6361 144.367 26.4853 144.522 26.2898C144.681 26.0942 144.792 25.8589 144.855 25.5838H146.302C146.249 26.0777 146.088 26.5185 145.82 26.9062C145.551 27.294 145.192 27.599 144.741 27.821C144.294 28.0431 143.768 28.1541 143.165 28.1541ZM151.108 28.1541C150.393 28.1541 149.768 27.9901 149.234 27.6619C148.701 27.3338 148.286 26.8748 147.991 26.2848C147.696 25.6948 147.549 25.0054 147.549 24.2166C147.549 23.4245 147.696 22.7318 147.991 22.1385C148.286 21.5452 148.701 21.0845 149.234 20.7564C149.768 20.4283 150.393 20.2642 151.108 20.2642C151.824 20.2642 152.449 20.4283 152.983 20.7564C153.516 21.0845 153.931 21.5452 154.226 22.1385C154.521 22.7318 154.668 23.4245 154.668 24.2166C154.668 25.0054 154.521 25.6948 154.226 26.2848C153.931 26.8748 153.516 27.3338 152.983 27.6619C152.449 27.9901 151.824 28.1541 151.108 28.1541ZM151.113 26.9062C151.577 26.9062 151.962 26.7836 152.267 26.5384C152.572 26.2931 152.797 25.9666 152.943 25.5589C153.092 25.1513 153.167 24.7022 153.167 24.2116C153.167 23.7244 153.092 23.277 152.943 22.8693C152.797 22.4583 152.572 22.1286 152.267 21.88C151.962 21.6314 151.577 21.5071 151.113 21.5071C150.646 21.5071 150.258 21.6314 149.95 21.88C149.645 22.1286 149.418 22.4583 149.269 22.8693C149.123 23.277 149.05 23.7244 149.05 24.2116C149.05 24.7022 149.123 25.1513 149.269 25.5589C149.418 25.9666 149.645 26.2931 149.95 26.5384C150.258 26.7836 150.646 26.9062 151.113 26.9062ZM156.327 28V20.3636H157.754V21.6065H157.849C158.008 21.1856 158.268 20.8575 158.629 20.6222C158.991 20.3835 159.423 20.2642 159.927 20.2642C160.437 20.2642 160.865 20.3835 161.21 20.6222C161.558 20.8608 161.814 21.1889 161.98 21.6065H162.06C162.242 21.1989 162.532 20.8741 162.93 20.6321C163.327 20.3868 163.801 20.2642 164.352 20.2642C165.044 20.2642 165.609 20.4813 166.047 20.9155C166.488 21.3497 166.708 22.0043 166.708 22.8793V28H165.222V23.0185C165.222 22.5014 165.081 22.1269 164.799 21.8949C164.517 21.6629 164.181 21.5469 163.79 21.5469C163.306 21.5469 162.93 21.696 162.661 21.9943C162.393 22.2893 162.259 22.6688 162.259 23.1328V28H160.777V22.924C160.777 22.5097 160.648 22.1766 160.389 21.9247C160.131 21.6728 159.794 21.5469 159.38 21.5469C159.098 21.5469 158.838 21.6214 158.599 21.7706C158.364 21.9164 158.174 22.1203 158.028 22.3821C157.885 22.6439 157.814 22.9472 157.814 23.2919V28H156.327Z" fill="#636363"/>
<path d="M211.425 17.8182V28H210.013L204.837 20.5327H204.743V28H203.206V17.8182H204.628L209.809 25.2955H209.903V17.8182H211.425ZM213.665 28V17.8182H215.152V21.6016H215.241C215.328 21.4425 215.452 21.2585 215.614 21.0497C215.777 20.8409 216.002 20.6586 216.29 20.5028C216.579 20.3438 216.96 20.2642 217.434 20.2642C218.05 20.2642 218.601 20.42 219.085 20.7315C219.568 21.0431 219.948 21.4922 220.223 22.0788C220.501 22.6655 220.641 23.3714 220.641 24.1967C220.641 25.022 220.503 25.7296 220.228 26.3196C219.953 26.9062 219.575 27.3587 219.094 27.6768C218.614 27.9917 218.065 28.1491 217.449 28.1491C216.985 28.1491 216.605 28.0713 216.31 27.9155C216.019 27.7597 215.79 27.5774 215.624 27.3686C215.459 27.1598 215.331 26.9742 215.241 26.8118H215.117V28H213.665ZM215.122 24.1818C215.122 24.7187 215.2 25.1894 215.356 25.5938C215.512 25.9981 215.737 26.3146 216.032 26.5433C216.327 26.7687 216.688 26.8814 217.116 26.8814C217.56 26.8814 217.931 26.7637 218.229 26.5284C218.528 26.2898 218.753 25.9666 218.906 25.5589C219.061 25.1513 219.139 24.6922 219.139 24.1818C219.139 23.678 219.063 23.2256 218.911 22.8246C218.761 22.4235 218.536 22.107 218.234 21.875C217.936 21.643 217.563 21.527 217.116 21.527C216.685 21.527 216.32 21.638 216.022 21.8601C215.727 22.0821 215.503 22.392 215.351 22.7898C215.198 23.1875 215.122 23.6515 215.122 24.1818ZM228.874 28.1491C228.257 28.1491 227.707 27.9917 227.223 27.6768C226.742 27.3587 226.365 26.9062 226.089 26.3196C225.818 25.7296 225.682 25.022 225.682 24.1967C225.682 23.3714 225.819 22.6655 226.094 22.0788C226.373 21.4922 226.754 21.0431 227.238 20.7315C227.722 20.42 228.27 20.2642 228.884 20.2642C229.357 20.2642 229.739 20.3438 230.027 20.5028C230.319 20.6586 230.544 20.8409 230.703 21.0497C230.866 21.2585 230.991 21.4425 231.081 21.6016H231.17V17.8182H232.657V28H231.205V26.8118H231.081C230.991 26.9742 230.862 27.1598 230.693 27.3686C230.527 27.5774 230.299 27.7597 230.007 27.9155C229.715 28.0713 229.338 28.1491 228.874 28.1491ZM229.202 26.8814C229.629 26.8814 229.991 26.7687 230.286 26.5433C230.584 26.3146 230.809 25.9981 230.962 25.5938C231.117 25.1894 231.195 24.7187 231.195 24.1818C231.195 23.6515 231.119 23.1875 230.967 22.7898C230.814 22.392 230.59 22.0821 230.295 21.8601C230 21.638 229.636 21.527 229.202 21.527C228.754 21.527 228.381 21.643 228.083 21.875C227.785 22.107 227.559 22.4235 227.407 22.8246C227.258 23.2256 227.183 23.678 227.183 24.1818C227.183 24.6922 227.259 25.1513 227.412 25.5589C227.564 25.9666 227.79 26.2898 228.088 26.5284C228.39 26.7637 228.761 26.8814 229.202 26.8814ZM236.056 17.8182V18.7727C236.056 19.0545 236.003 19.3511 235.897 19.6626C235.794 19.9709 235.649 20.2675 235.46 20.5526C235.271 20.8376 235.049 21.0829 234.794 21.2884L234.058 20.7614C234.253 20.4763 234.422 20.1731 234.565 19.8516C234.711 19.5301 234.784 19.1754 234.784 18.7876V17.8182H236.056ZM238.997 28.169C238.513 28.169 238.076 28.0795 237.684 27.9006C237.293 27.7183 236.983 27.4548 236.755 27.1101C236.529 26.7654 236.417 26.3428 236.417 25.8423C236.417 25.4115 236.5 25.0568 236.665 24.7784C236.831 24.5 237.055 24.2796 237.336 24.1172C237.618 23.9548 237.933 23.8321 238.281 23.7493C238.629 23.6664 238.984 23.6035 239.345 23.5604C239.802 23.5073 240.174 23.4643 240.459 23.4311C240.744 23.3946 240.951 23.3366 241.08 23.2571C241.209 23.1776 241.274 23.0483 241.274 22.8693V22.8345C241.274 22.4003 241.151 22.0639 240.906 21.8253C240.664 21.5866 240.303 21.4673 239.822 21.4673C239.322 21.4673 238.927 21.5784 238.639 21.8004C238.354 22.0192 238.157 22.2628 238.047 22.5312L236.65 22.2131C236.816 21.7491 237.058 21.3745 237.376 21.0895C237.698 20.8011 238.067 20.5923 238.485 20.4631C238.903 20.3305 239.342 20.2642 239.802 20.2642C240.107 20.2642 240.43 20.3007 240.772 20.3736C241.117 20.4432 241.438 20.5724 241.736 20.7614C242.038 20.9503 242.285 21.2204 242.477 21.5717C242.669 21.9197 242.765 22.3722 242.765 22.929V28H241.314V26.956H241.254C241.158 27.1482 241.014 27.3371 240.822 27.5227C240.629 27.7083 240.382 27.8625 240.081 27.9851C239.779 28.1077 239.418 28.169 238.997 28.169ZM239.32 26.9759C239.731 26.9759 240.082 26.8946 240.374 26.7322C240.669 26.5698 240.893 26.3577 241.045 26.0959C241.201 25.8307 241.279 25.5473 241.279 25.2457V24.2614C241.226 24.3144 241.123 24.3641 240.971 24.4105C240.822 24.4536 240.651 24.4917 240.459 24.5249C240.266 24.5547 240.079 24.5829 239.897 24.6094C239.715 24.6326 239.562 24.6525 239.439 24.669C239.151 24.7055 238.888 24.7668 238.649 24.853C238.414 24.9392 238.225 25.0634 238.082 25.2259C237.943 25.3849 237.873 25.5971 237.873 25.8622C237.873 26.2301 238.009 26.5085 238.281 26.6974C238.553 26.883 238.899 26.9759 239.32 26.9759ZM244.745 28V20.3636H246.182V21.5767H246.262C246.401 21.1657 246.646 20.8426 246.998 20.6072C247.352 20.3686 247.753 20.2493 248.201 20.2493C248.293 20.2493 248.403 20.2526 248.529 20.2592C248.658 20.2659 248.759 20.2741 248.832 20.2841V21.706C248.772 21.6894 248.666 21.6712 248.514 21.6513C248.361 21.6281 248.209 21.6165 248.056 21.6165C247.705 21.6165 247.392 21.6911 247.117 21.8402C246.845 21.986 246.63 22.1899 246.471 22.4517C246.311 22.7102 246.232 23.0052 246.232 23.3366V28H244.745ZM254.134 20.3636V21.5568H249.963V20.3636H254.134ZM251.082 18.5341H252.568V25.7578C252.568 26.0462 252.611 26.2633 252.697 26.4091C252.784 26.5516 252.895 26.6494 253.031 26.7024C253.17 26.7521 253.321 26.777 253.483 26.777C253.602 26.777 253.707 26.7687 253.796 26.7521C253.886 26.7356 253.955 26.7223 254.005 26.7124L254.273 27.9403C254.187 27.9735 254.065 28.0066 253.906 28.0398C253.746 28.0762 253.548 28.0961 253.309 28.0994C252.918 28.1061 252.553 28.0365 252.215 27.8906C251.877 27.7448 251.604 27.5194 251.395 27.2145C251.186 26.9096 251.082 26.5268 251.082 26.0661V18.5341ZM255.779 28V20.3636H257.265V28H255.779ZM256.529 19.1854C256.271 19.1854 256.049 19.0992 255.863 18.9268C255.681 18.7512 255.59 18.5424 255.59 18.3004C255.59 18.0552 255.681 17.8464 255.863 17.674C256.049 17.4983 256.271 17.4105 256.529 17.4105C256.788 17.4105 257.008 17.4983 257.191 17.674C257.376 17.8464 257.469 18.0552 257.469 18.3004C257.469 18.5424 257.376 18.7512 257.191 18.9268C257.008 19.0992 256.788 19.1854 256.529 19.1854ZM262.482 28.1541C261.742 28.1541 261.106 27.9867 260.572 27.652C260.042 27.3139 259.634 26.8482 259.349 26.255C259.064 25.6617 258.922 24.9822 258.922 24.2166C258.922 23.4411 259.068 22.7566 259.359 22.1634C259.651 21.5668 260.062 21.1011 260.592 20.7663C261.123 20.4316 261.747 20.2642 262.467 20.2642C263.047 20.2642 263.564 20.3719 264.018 20.5874C264.472 20.7995 264.838 21.0978 265.116 21.4822C265.398 21.8667 265.566 22.3158 265.619 22.8295H264.172C264.092 22.4716 263.91 22.1634 263.625 21.9048C263.343 21.6463 262.965 21.517 262.491 21.517C262.077 21.517 261.714 21.6264 261.403 21.8452C261.094 22.0606 260.854 22.3688 260.682 22.7699C260.509 23.1676 260.423 23.6383 260.423 24.1818C260.423 24.7386 260.508 25.2192 260.677 25.6236C260.846 26.0279 261.085 26.3411 261.393 26.5632C261.704 26.7853 262.071 26.8963 262.491 26.8963C262.773 26.8963 263.028 26.8449 263.257 26.7422C263.489 26.6361 263.683 26.4853 263.839 26.2898C263.998 26.0942 264.109 25.8589 264.172 25.5838H265.619C265.566 26.0777 265.405 26.5185 265.136 26.9062C264.868 27.294 264.508 27.599 264.058 27.821C263.61 28.0431 263.085 28.1541 262.482 28.1541ZM268.695 17.8182V28H267.208V17.8182H268.695ZM273.986 28.1541C273.233 28.1541 272.585 27.9934 272.042 27.6719C271.502 27.3471 271.084 26.8913 270.789 26.3047C270.497 25.7147 270.352 25.0237 270.352 24.2315C270.352 23.4493 270.497 22.7599 270.789 22.1634C271.084 21.5668 271.495 21.1011 272.022 20.7663C272.552 20.4316 273.172 20.2642 273.881 20.2642C274.312 20.2642 274.73 20.3355 275.134 20.478C275.539 20.6205 275.902 20.8442 276.223 21.1491C276.545 21.4541 276.798 21.8501 276.984 22.3374C277.169 22.8213 277.262 23.4096 277.262 24.1023V24.6293H271.192V23.5156H275.805C275.805 23.1245 275.726 22.7782 275.567 22.4766C275.408 22.1716 275.184 21.9313 274.896 21.7557C274.611 21.58 274.276 21.4922 273.891 21.4922C273.474 21.4922 273.109 21.5949 272.798 21.8004C272.489 22.0026 272.251 22.2678 272.082 22.5959C271.916 22.9207 271.833 23.2737 271.833 23.6548V24.5249C271.833 25.0353 271.923 25.4695 272.102 25.8274C272.284 26.1854 272.537 26.4588 272.862 26.6477C273.187 26.8333 273.567 26.9261 274.001 26.9261C274.282 26.9261 274.539 26.8864 274.771 26.8068C275.003 26.724 275.204 26.6013 275.373 26.4389C275.542 26.2765 275.671 26.076 275.761 25.8374L277.168 26.0909C277.055 26.5052 276.853 26.8681 276.561 27.1797C276.273 27.4879 275.91 27.7282 275.472 27.9006C275.038 28.0696 274.543 28.1541 273.986 28.1541Z" fill="#636363"/>
<line y1="45.5" x2="390" y2="45.5" stroke="#D9D9D9"/>
</svg>
