<svg width="342" height="489" viewBox="0 0 342 489" fill="none" xmlns="http://www.w3.org/2000/svg">
<path d="M11.1697 9.14773H9.39702C9.32884 8.76894 9.20194 8.43561 9.01634 8.14773C8.83073 7.85985 8.60346 7.61553 8.33452 7.41477C8.06558 7.21401 7.76444 7.0625 7.43111 6.96023C7.10156 6.85795 6.75118 6.80682 6.37997 6.80682C5.70952 6.80682 5.10914 6.97538 4.57884 7.3125C4.05232 7.64962 3.63565 8.14394 3.32884 8.79545C3.0258 9.44697 2.87429 10.2424 2.87429 11.1818C2.87429 12.1288 3.0258 12.928 3.32884 13.5795C3.63565 14.2311 4.05421 14.7235 4.58452 15.0568C5.11482 15.3902 5.71141 15.5568 6.37429 15.5568C6.74171 15.5568 7.0902 15.5076 7.41974 15.4091C7.75308 15.3068 8.05421 15.1572 8.32315 14.9602C8.59209 14.7633 8.81937 14.5227 9.00497 14.2386C9.19437 13.9508 9.32505 13.6212 9.39702 13.25L11.1697 13.2557C11.075 13.8277 10.8913 14.3542 10.6186 14.8352C10.3497 15.3125 10.0031 15.7254 9.57884 16.0739C9.15838 16.4186 8.67732 16.6856 8.13565 16.875C7.59399 17.0644 7.00308 17.1591 6.36293 17.1591C5.35535 17.1591 4.45762 16.9205 3.66974 16.4432C2.88187 15.9621 2.26065 15.2746 1.80611 14.3807C1.35535 13.4867 1.12997 12.4205 1.12997 11.1818C1.12997 9.93939 1.35724 8.87311 1.81179 7.98295C2.26634 7.08901 2.88755 6.40341 3.67543 5.92614C4.46331 5.44508 5.35914 5.20455 6.36293 5.20455C6.98035 5.20455 7.55611 5.29356 8.0902 5.47159C8.62808 5.64583 9.11103 5.90341 9.53906 6.24432C9.96709 6.58144 10.3213 6.99432 10.6016 7.48295C10.8819 7.9678 11.0713 8.52273 11.1697 9.14773ZM16.8104 17.1761C15.9922 17.1761 15.2782 16.9886 14.6683 16.6136C14.0585 16.2386 13.585 15.714 13.2479 15.0398C12.9107 14.3655 12.7422 13.5777 12.7422 12.6761C12.7422 11.7708 12.9107 10.9792 13.2479 10.3011C13.585 9.62311 14.0585 9.09659 14.6683 8.72159C15.2782 8.34659 15.9922 8.15909 16.8104 8.15909C17.6286 8.15909 18.3426 8.34659 18.9524 8.72159C19.5623 9.09659 20.0357 9.62311 20.3729 10.3011C20.71 10.9792 20.8786 11.7708 20.8786 12.6761C20.8786 13.5777 20.71 14.3655 20.3729 15.0398C20.0357 15.714 19.5623 16.2386 18.9524 16.6136C18.3426 16.9886 17.6286 17.1761 16.8104 17.1761ZM16.8161 15.75C17.3464 15.75 17.7857 15.6098 18.1342 15.3295C18.4827 15.0492 18.7403 14.6761 18.907 14.2102C19.0774 13.7443 19.1626 13.2311 19.1626 12.6705C19.1626 12.1136 19.0774 11.6023 18.907 11.1364C18.7403 10.6667 18.4827 10.2898 18.1342 10.0057C17.7857 9.72159 17.3464 9.57955 16.8161 9.57955C16.282 9.57955 15.8388 9.72159 15.4865 10.0057C15.138 10.2898 14.8786 10.6667 14.7081 11.1364C14.5414 11.6023 14.4581 12.1136 14.4581 12.6705C14.4581 13.2311 14.5414 13.7443 14.7081 14.2102C14.8786 14.6761 15.138 15.0492 15.4865 15.3295C15.8388 15.6098 16.282 15.75 16.8161 15.75ZM22.7749 17V8.27273H24.4055V9.69318H24.5135C24.6953 9.21212 24.9927 8.83712 25.4055 8.56818C25.8184 8.29545 26.3127 8.15909 26.8885 8.15909C27.4718 8.15909 27.9605 8.29545 28.3544 8.56818C28.7521 8.84091 29.0457 9.21591 29.2351 9.69318H29.326C29.5343 9.22727 29.8658 8.85606 30.3203 8.57955C30.7749 8.29924 31.3165 8.15909 31.9453 8.15909C32.737 8.15909 33.3828 8.4072 33.8828 8.90341C34.3866 9.39962 34.6385 10.1477 34.6385 11.1477V17H32.9396V11.3068C32.9396 10.7159 32.7786 10.2879 32.4567 10.0227C32.1347 9.75758 31.7502 9.625 31.3033 9.625C30.7502 9.625 30.3203 9.79545 30.0135 10.1364C29.7067 10.4735 29.5533 10.9072 29.5533 11.4375V17H27.8601V11.1989C27.8601 10.7254 27.7124 10.3447 27.4169 10.0568C27.1214 9.76894 26.737 9.625 26.2635 9.625C25.9415 9.625 25.6442 9.71023 25.3714 9.88068C25.1025 10.0473 24.8847 10.2803 24.718 10.5795C24.5552 10.8788 24.4737 11.2254 24.4737 11.6193V17H22.7749ZM36.9155 17V8.27273H38.5462V9.69318H38.6541C38.8359 9.21212 39.1333 8.83712 39.5462 8.56818C39.959 8.29545 40.4534 8.15909 41.0291 8.15909C41.6125 8.15909 42.1011 8.29545 42.495 8.56818C42.8928 8.84091 43.1863 9.21591 43.3757 9.69318H43.4666C43.675 9.22727 44.0064 8.85606 44.4609 8.57955C44.9155 8.29924 45.4571 8.15909 46.0859 8.15909C46.8776 8.15909 47.5234 8.4072 48.0234 8.90341C48.5272 9.39962 48.7791 10.1477 48.7791 11.1477V17H47.0803V11.3068C47.0803 10.7159 46.9193 10.2879 46.5973 10.0227C46.2753 9.75758 45.8909 9.625 45.4439 9.625C44.8909 9.625 44.4609 9.79545 44.1541 10.1364C43.8473 10.4735 43.6939 10.9072 43.6939 11.4375V17H42.0007V11.1989C42.0007 10.7254 41.853 10.3447 41.5575 10.0568C41.2621 9.76894 40.8776 9.625 40.4041 9.625C40.0821 9.625 39.7848 9.71023 39.5121 9.88068C39.2431 10.0473 39.0253 10.2803 38.8587 10.5795C38.6958 10.8788 38.6143 11.2254 38.6143 11.6193V17H36.9155ZM53.5959 17.1932C53.0429 17.1932 52.5429 17.0909 52.0959 16.8864C51.6489 16.678 51.2947 16.3769 51.0334 15.983C50.7758 15.589 50.647 15.1061 50.647 14.5341C50.647 14.0417 50.7417 13.6364 50.9311 13.3182C51.1205 13 51.3762 12.7481 51.6982 12.5625C52.0201 12.3769 52.38 12.2367 52.7777 12.142C53.1754 12.0473 53.5807 11.9754 53.9936 11.9261C54.5163 11.8655 54.9406 11.8163 55.2663 11.7784C55.5921 11.7367 55.8288 11.6705 55.9766 11.5795C56.1243 11.4886 56.1982 11.3409 56.1982 11.1364V11.0966C56.1982 10.6004 56.058 10.2159 55.7777 9.94318C55.5012 9.67045 55.0883 9.53409 54.5391 9.53409C53.9671 9.53409 53.5163 9.66098 53.1868 9.91477C52.861 10.1648 52.6357 10.4432 52.5107 10.75L50.9141 10.3864C51.1035 9.85606 51.38 9.42803 51.7436 9.10227C52.111 8.77273 52.5334 8.53409 53.0107 8.38636C53.4879 8.23485 53.9898 8.15909 54.5163 8.15909C54.8648 8.15909 55.2341 8.20076 55.6243 8.28409C56.0182 8.36364 56.3857 8.51136 56.7266 8.72727C57.0713 8.94318 57.3535 9.25189 57.5732 9.65341C57.7929 10.0511 57.9027 10.5682 57.9027 11.2045V17H56.2436V15.8068H56.1754C56.0656 16.0265 55.9008 16.2424 55.6811 16.4545C55.4614 16.6667 55.1792 16.8428 54.8345 16.983C54.4898 17.1231 54.0769 17.1932 53.5959 17.1932ZM53.9652 15.8295C54.4349 15.8295 54.8364 15.7367 55.1697 15.5511C55.5069 15.3655 55.7625 15.1231 55.9368 14.8239C56.1148 14.5208 56.2038 14.197 56.2038 13.8523V12.7273C56.1432 12.7879 56.0258 12.8447 55.8516 12.8977C55.6811 12.947 55.486 12.9905 55.2663 13.0284C55.0466 13.0625 54.8326 13.0947 54.6243 13.125C54.416 13.1515 54.2417 13.1742 54.1016 13.1932C53.772 13.2348 53.4709 13.3049 53.1982 13.4034C52.9292 13.5019 52.7133 13.6439 52.5504 13.8295C52.3913 14.0114 52.3118 14.2538 52.3118 14.5568C52.3118 14.9773 52.4671 15.2955 52.7777 15.5114C53.0883 15.7235 53.4841 15.8295 53.9652 15.8295ZM61.8643 11.8182V17H60.1655V8.27273H61.7962V9.69318H61.9041C62.1049 9.23106 62.4193 8.85985 62.8473 8.57955C63.2791 8.29924 63.8227 8.15909 64.478 8.15909C65.0727 8.15909 65.5935 8.28409 66.0405 8.53409C66.4875 8.7803 66.834 9.14773 67.0803 9.63636C67.3265 10.125 67.4496 10.7292 67.4496 11.4489V17H65.7507V11.6534C65.7507 11.0208 65.5859 10.5265 65.2564 10.1705C64.9268 9.81061 64.4742 9.63068 63.8984 9.63068C63.5045 9.63068 63.1541 9.71591 62.8473 9.88636C62.5443 10.0568 62.3037 10.3068 62.1257 10.6364C61.9515 10.9621 61.8643 11.3561 61.8643 11.8182ZM72.995 17.1705C72.2905 17.1705 71.6617 16.9905 71.1087 16.6307C70.5594 16.267 70.1276 15.75 69.8132 15.0795C69.5026 14.4053 69.3473 13.5966 69.3473 12.6534C69.3473 11.7102 69.5045 10.9034 69.8189 10.233C70.1371 9.5625 70.5727 9.04924 71.1257 8.69318C71.6787 8.33712 72.3056 8.15909 73.0064 8.15909C73.5481 8.15909 73.9837 8.25 74.3132 8.43182C74.6465 8.60985 74.9041 8.81818 75.0859 9.05682C75.2715 9.29545 75.4155 9.50568 75.5178 9.6875H75.62V5.36364H77.3189V17H75.6598V15.642H75.5178C75.4155 15.8277 75.2678 16.0398 75.0746 16.2784C74.8852 16.517 74.6238 16.7254 74.2905 16.9034C73.9571 17.0814 73.5253 17.1705 72.995 17.1705ZM73.37 15.7216C73.8587 15.7216 74.2715 15.5928 74.6087 15.3352C74.9496 15.0739 75.2071 14.7121 75.3814 14.25C75.5594 13.7879 75.6484 13.25 75.6484 12.6364C75.6484 12.0303 75.5613 11.5 75.3871 11.0455C75.2128 10.5909 74.9571 10.2367 74.62 9.98295C74.2829 9.72917 73.8662 9.60227 73.37 9.60227C72.8587 9.60227 72.4325 9.73485 72.0916 10C71.7507 10.2652 71.4931 10.6269 71.3189 11.0852C71.1484 11.5436 71.0632 12.0606 71.0632 12.6364C71.0632 13.2197 71.1503 13.7443 71.3246 14.2102C71.4988 14.6761 71.7564 15.0455 72.0973 15.3182C72.442 15.5871 72.8662 15.7216 73.37 15.7216ZM83.505 17.1761C82.6451 17.1761 81.9046 16.9924 81.2834 16.625C80.666 16.2538 80.1887 15.733 79.8516 15.0625C79.5182 14.3883 79.3516 13.5985 79.3516 12.6932C79.3516 11.7992 79.5182 11.0114 79.8516 10.3295C80.1887 9.64773 80.6584 9.11553 81.2607 8.73295C81.8667 8.35038 82.575 8.15909 83.3857 8.15909C83.8781 8.15909 84.3554 8.24053 84.8175 8.40341C85.2796 8.56629 85.6944 8.82197 86.0618 9.17045C86.4292 9.51894 86.719 9.97159 86.9311 10.5284C87.1432 11.0814 87.2493 11.7538 87.2493 12.5455V13.1477H80.3118V11.875H85.5845C85.5845 11.428 85.4936 11.0322 85.3118 10.6875C85.13 10.339 84.8743 10.0644 84.5447 9.86364C84.219 9.66288 83.8364 9.5625 83.397 9.5625C82.9197 9.5625 82.5031 9.67992 82.147 9.91477C81.7947 10.1458 81.522 10.4489 81.3288 10.8239C81.1394 11.1951 81.0447 11.5985 81.0447 12.0341V13.0284C81.0447 13.6117 81.147 14.108 81.3516 14.517C81.5599 14.9261 81.8497 15.2386 82.2209 15.4545C82.5921 15.6667 83.0258 15.7727 83.522 15.7727C83.844 15.7727 84.1375 15.7273 84.4027 15.6364C84.6679 15.5417 84.897 15.4015 85.0902 15.2159C85.2834 15.0303 85.4311 14.8011 85.5334 14.5284L87.1413 14.8182C87.0125 15.2917 86.7815 15.7064 86.4482 16.0625C86.1186 16.4148 85.7038 16.6894 85.2038 16.8864C84.7076 17.0795 84.1413 17.1761 83.505 17.1761ZM97.4709 17.1591C96.6224 17.1591 95.8667 17.0133 95.2038 16.7216C94.5447 16.4261 94.0239 16.0208 93.6413 15.5057C93.2625 14.9867 93.0675 14.3883 93.0561 13.7102H95.5334C95.5485 13.9943 95.6413 14.2443 95.8118 14.4602C95.986 14.6723 96.2171 14.8371 96.505 14.9545C96.7929 15.072 97.1167 15.1307 97.4766 15.1307C97.8516 15.1307 98.183 15.0644 98.4709 14.9318C98.7588 14.7992 98.9841 14.6155 99.147 14.3807C99.3099 14.1458 99.3913 13.875 99.3913 13.5682C99.3913 13.2576 99.3042 12.983 99.13 12.7443C98.9595 12.5019 98.7133 12.3125 98.3913 12.1761C98.0732 12.0398 97.6944 11.9716 97.255 11.9716H96.1697V10.1648H97.255C97.6262 10.1648 97.9538 10.1004 98.2379 9.97159C98.5258 9.8428 98.7493 9.66477 98.9084 9.4375C99.0675 9.20644 99.147 8.9375 99.147 8.63068C99.147 8.33902 99.0769 8.08333 98.9368 7.86364C98.8004 7.64015 98.6072 7.46591 98.3572 7.34091C98.111 7.21591 97.8232 7.15341 97.4936 7.15341C97.1603 7.15341 96.8554 7.21402 96.5788 7.33523C96.3023 7.45265 96.0807 7.62121 95.9141 7.84091C95.7474 8.06061 95.6584 8.31818 95.647 8.61364H93.2891C93.3004 7.94318 93.4917 7.35227 93.8629 6.84091C94.2341 6.32955 94.7341 5.92992 95.3629 5.64205C95.9955 5.35038 96.7095 5.20455 97.505 5.20455C98.308 5.20455 99.0107 5.35038 99.6129 5.64205C100.215 5.93371 100.683 6.32765 101.016 6.82386C101.353 7.31629 101.52 7.86932 101.516 8.48295C101.52 9.13447 101.317 9.67803 100.908 10.1136C100.503 10.5492 99.9747 10.8258 99.3232 10.9432V11.0341C100.179 11.1439 100.831 11.4413 101.278 11.9261C101.728 12.4072 101.952 13.0095 101.948 13.733C101.952 14.3958 101.761 14.9848 101.374 15.5C100.992 16.0152 100.463 16.4205 99.7891 16.7159C99.1148 17.0114 98.3421 17.1591 97.4709 17.1591ZM103.54 14.9545V13.017L108.398 5.36364H110.069V8.04545H109.08L106.018 12.892V12.983H112.921V14.9545H103.54ZM109.126 17V14.3636L109.171 13.5057V5.36364H111.478V17H109.126ZM118.81 17.1591C118.007 17.1591 117.291 17.0114 116.663 16.7159C116.038 16.4205 115.541 16.0133 115.174 15.4943C114.807 14.9754 114.615 14.3807 114.6 13.7102H116.987C117.013 14.161 117.202 14.5265 117.555 14.8068C117.907 15.0871 118.326 15.2273 118.81 15.2273C119.197 15.2273 119.538 15.142 119.833 14.9716C120.132 14.7973 120.365 14.5568 120.532 14.25C120.702 13.9394 120.788 13.5833 120.788 13.1818C120.788 12.7727 120.701 12.4129 120.526 12.1023C120.356 11.7917 120.119 11.5492 119.816 11.375C119.513 11.2008 119.166 11.1117 118.776 11.108C118.435 11.108 118.104 11.178 117.782 11.3182C117.464 11.4583 117.216 11.6496 117.038 11.892L114.85 11.5L115.401 5.36364H122.515V7.375H117.43L117.129 10.2898H117.197C117.401 10.0019 117.71 9.76326 118.123 9.57386C118.536 9.38447 118.998 9.28977 119.509 9.28977C120.21 9.28977 120.835 9.45455 121.384 9.78409C121.933 10.1136 122.367 10.5663 122.685 11.142C123.004 11.714 123.161 12.3731 123.157 13.1193C123.161 13.9034 122.979 14.6004 122.612 15.2102C122.248 15.8163 121.738 16.2936 121.083 16.642C120.432 16.9867 119.674 17.1591 118.81 17.1591ZM129.339 17.1591C128.74 17.1553 128.163 17.0549 127.606 16.858C127.053 16.661 126.557 16.3409 126.117 15.8977C125.678 15.4545 125.329 14.8674 125.072 14.1364C124.818 13.4053 124.691 12.5076 124.691 11.4432C124.695 10.4659 124.807 9.5928 125.026 8.82386C125.25 8.05114 125.568 7.39583 125.981 6.85795C126.397 6.32008 126.896 5.91098 127.475 5.63068C128.055 5.34659 128.704 5.20455 129.424 5.20455C130.201 5.20455 130.886 5.35606 131.481 5.65909C132.076 5.95833 132.553 6.36553 132.913 6.88068C133.276 7.39583 133.496 7.97348 133.572 8.61364H131.146C131.051 8.20833 130.852 7.89015 130.549 7.65909C130.246 7.42803 129.871 7.3125 129.424 7.3125C128.666 7.3125 128.091 7.64205 127.697 8.30114C127.307 8.96023 127.108 9.85606 127.1 10.9886H127.18C127.354 10.6439 127.589 10.3504 127.884 10.108C128.183 9.86174 128.522 9.67424 128.901 9.54545C129.284 9.41288 129.687 9.34659 130.112 9.34659C130.801 9.34659 131.415 9.50947 131.952 9.83523C132.49 10.1572 132.915 10.6004 133.225 11.1648C133.536 11.7292 133.691 12.375 133.691 13.1023C133.691 13.8902 133.507 14.5909 133.14 15.2045C132.776 15.8182 132.267 16.2992 131.612 16.6477C130.96 16.9924 130.202 17.1629 129.339 17.1591ZM129.327 15.2273C129.706 15.2273 130.045 15.1364 130.344 14.9545C130.644 14.7727 130.879 14.5265 131.049 14.2159C131.219 13.9053 131.305 13.5568 131.305 13.1705C131.305 12.7841 131.219 12.4375 131.049 12.1307C130.882 11.8239 130.651 11.5795 130.356 11.3977C130.06 11.2159 129.723 11.125 129.344 11.125C129.06 11.125 128.797 11.178 128.555 11.2841C128.316 11.3902 128.106 11.5379 127.924 11.7273C127.746 11.9167 127.606 12.1364 127.504 12.3864C127.401 12.6326 127.35 12.8958 127.35 13.1761C127.35 13.5511 127.435 13.8939 127.606 14.2045C127.78 14.5152 128.015 14.7633 128.31 14.9489C128.61 15.1345 128.949 15.2273 129.327 15.2273ZM139.901 17.1591C139.303 17.1553 138.725 17.0549 138.168 16.858C137.615 16.661 137.119 16.3409 136.68 15.8977C136.24 15.4545 135.892 14.8674 135.634 14.1364C135.38 13.4053 135.254 12.5076 135.254 11.4432C135.257 10.4659 135.369 9.5928 135.589 8.82386C135.812 8.05114 136.13 7.39583 136.543 6.85795C136.96 6.32008 137.458 5.91098 138.038 5.63068C138.617 5.34659 139.267 5.20455 139.987 5.20455C140.763 5.20455 141.449 5.35606 142.043 5.65909C142.638 5.95833 143.115 6.36553 143.475 6.88068C143.839 7.39583 144.058 7.97348 144.134 8.61364H141.708C141.613 8.20833 141.415 7.89015 141.112 7.65909C140.808 7.42803 140.433 7.3125 139.987 7.3125C139.229 7.3125 138.653 7.64205 138.259 8.30114C137.869 8.96023 137.67 9.85606 137.663 10.9886H137.742C137.916 10.6439 138.151 10.3504 138.447 10.108C138.746 9.86174 139.085 9.67424 139.464 9.54545C139.846 9.41288 140.25 9.34659 140.674 9.34659C141.363 9.34659 141.977 9.50947 142.515 9.83523C143.053 10.1572 143.477 10.6004 143.788 11.1648C144.098 11.7292 144.254 12.375 144.254 13.1023C144.254 13.8902 144.07 14.5909 143.702 15.2045C143.339 15.8182 142.829 16.2992 142.174 16.6477C141.522 16.9924 140.765 17.1629 139.901 17.1591ZM139.89 15.2273C140.269 15.2273 140.608 15.1364 140.907 14.9545C141.206 14.7727 141.441 14.5265 141.612 14.2159C141.782 13.9053 141.867 13.5568 141.867 13.1705C141.867 12.7841 141.782 12.4375 141.612 12.1307C141.445 11.8239 141.214 11.5795 140.918 11.3977C140.623 11.2159 140.286 11.125 139.907 11.125C139.623 11.125 139.36 11.178 139.117 11.2841C138.879 11.3902 138.668 11.5379 138.487 11.7273C138.308 11.9167 138.168 12.1364 138.066 12.3864C137.964 12.6326 137.913 12.8958 137.913 13.1761C137.913 13.5511 137.998 13.8939 138.168 14.2045C138.343 14.5152 138.577 14.7633 138.873 14.9489C139.172 15.1345 139.511 15.2273 139.89 15.2273ZM150.464 17.1591C149.865 17.1553 149.288 17.0549 148.731 16.858C148.178 16.661 147.682 16.3409 147.242 15.8977C146.803 15.4545 146.454 14.8674 146.197 14.1364C145.943 13.4053 145.816 12.5076 145.816 11.4432C145.82 10.4659 145.932 9.5928 146.151 8.82386C146.375 8.05114 146.693 7.39583 147.106 6.85795C147.522 6.32008 148.021 5.91098 148.6 5.63068C149.18 5.34659 149.829 5.20455 150.549 5.20455C151.326 5.20455 152.011 5.35606 152.606 5.65909C153.201 5.95833 153.678 6.36553 154.038 6.88068C154.401 7.39583 154.621 7.97348 154.697 8.61364H152.271C152.176 8.20833 151.977 7.89015 151.674 7.65909C151.371 7.42803 150.996 7.3125 150.549 7.3125C149.791 7.3125 149.216 7.64205 148.822 8.30114C148.432 8.96023 148.233 9.85606 148.225 10.9886H148.305C148.479 10.6439 148.714 10.3504 149.009 10.108C149.308 9.86174 149.647 9.67424 150.026 9.54545C150.409 9.41288 150.812 9.34659 151.237 9.34659C151.926 9.34659 152.54 9.50947 153.077 9.83523C153.615 10.1572 154.04 10.6004 154.35 11.1648C154.661 11.7292 154.816 12.375 154.816 13.1023C154.816 13.8902 154.632 14.5909 154.265 15.2045C153.901 15.8182 153.392 16.2992 152.737 16.6477C152.085 16.9924 151.327 17.1629 150.464 17.1591ZM150.452 15.2273C150.831 15.2273 151.17 15.1364 151.469 14.9545C151.769 14.7727 152.004 14.5265 152.174 14.2159C152.344 13.9053 152.43 13.5568 152.43 13.1705C152.43 12.7841 152.344 12.4375 152.174 12.1307C152.007 11.8239 151.776 11.5795 151.481 11.3977C151.185 11.2159 150.848 11.125 150.469 11.125C150.185 11.125 149.922 11.178 149.68 11.2841C149.441 11.3902 149.231 11.5379 149.049 11.7273C148.871 11.9167 148.731 12.1364 148.629 12.3864C148.526 12.6326 148.475 12.8958 148.475 13.1761C148.475 13.5511 148.56 13.8939 148.731 14.2045C148.905 14.5152 149.14 14.7633 149.435 14.9489C149.735 15.1345 150.074 15.2273 150.452 15.2273ZM160.81 17.1591C160.007 17.1591 159.291 17.0114 158.663 16.7159C158.038 16.4205 157.541 16.0133 157.174 15.4943C156.807 14.9754 156.615 14.3807 156.6 13.7102H158.987C159.013 14.161 159.202 14.5265 159.555 14.8068C159.907 15.0871 160.326 15.2273 160.81 15.2273C161.197 15.2273 161.538 15.142 161.833 14.9716C162.132 14.7973 162.365 14.5568 162.532 14.25C162.702 13.9394 162.788 13.5833 162.788 13.1818C162.788 12.7727 162.701 12.4129 162.526 12.1023C162.356 11.7917 162.119 11.5492 161.816 11.375C161.513 11.2008 161.166 11.1117 160.776 11.108C160.435 11.108 160.104 11.178 159.782 11.3182C159.464 11.4583 159.216 11.6496 159.038 11.892L156.85 11.5L157.401 5.36364H164.515V7.375H159.43L159.129 10.2898H159.197C159.401 10.0019 159.71 9.76326 160.123 9.57386C160.536 9.38447 160.998 9.28977 161.509 9.28977C162.21 9.28977 162.835 9.45455 163.384 9.78409C163.933 10.1136 164.367 10.5663 164.685 11.142C165.004 11.714 165.161 12.3731 165.157 13.1193C165.161 13.9034 164.979 14.6004 164.612 15.2102C164.248 15.8163 163.738 16.2936 163.083 16.642C162.432 16.9867 161.674 17.1591 160.81 17.1591ZM166.697 14.9545V13.017L171.555 5.36364H173.225V8.04545H172.237L169.174 12.892V12.983H176.077V14.9545H166.697ZM172.282 17V14.3636L172.327 13.5057V5.36364H174.634V17H172.282Z" fill="black"/>
<path d="M1.36435 37.3636H3.49503L7.19957 46.4091H7.33594L11.0405 37.3636H13.1712V49H11.5007V40.5795H11.3928L7.96094 48.983H6.57457L3.14276 40.5739H3.0348V49H1.36435V37.3636ZM18.1271 49.1932C17.5741 49.1932 17.0741 49.0909 16.6271 48.8864C16.1802 48.678 15.826 48.3769 15.5646 47.983C15.3071 47.589 15.1783 47.1061 15.1783 46.5341C15.1783 46.0417 15.273 45.6364 15.4624 45.3182C15.6518 45 15.9074 44.7481 16.2294 44.5625C16.5514 44.3769 16.9112 44.2367 17.3089 44.142C17.7067 44.0473 18.112 43.9754 18.5249 43.9261C19.0476 43.8655 19.4718 43.8163 19.7976 43.7784C20.1233 43.7367 20.3601 43.6705 20.5078 43.5795C20.6555 43.4886 20.7294 43.3409 20.7294 43.1364V43.0966C20.7294 42.6004 20.5893 42.2159 20.3089 41.9432C20.0324 41.6705 19.6196 41.5341 19.0703 41.5341C18.4983 41.5341 18.0476 41.661 17.718 41.9148C17.3923 42.1648 17.1669 42.4432 17.0419 42.75L15.4453 42.3864C15.6347 41.8561 15.9112 41.428 16.2749 41.1023C16.6423 40.7727 17.0646 40.5341 17.5419 40.3864C18.0192 40.2348 18.5211 40.1591 19.0476 40.1591C19.3961 40.1591 19.7654 40.2008 20.1555 40.2841C20.5495 40.3636 20.9169 40.5114 21.2578 40.7273C21.6025 40.9432 21.8847 41.2519 22.1044 41.6534C22.3241 42.0511 22.4339 42.5682 22.4339 43.2045V49H20.7749V47.8068H20.7067C20.5968 48.0265 20.4321 48.2424 20.2124 48.4545C19.9927 48.6667 19.7105 48.8428 19.3658 48.983C19.0211 49.1231 18.6082 49.1932 18.1271 49.1932ZM18.4964 47.8295C18.9661 47.8295 19.3677 47.7367 19.701 47.5511C20.0381 47.3655 20.2938 47.1231 20.468 46.8239C20.6461 46.5208 20.7351 46.197 20.7351 45.8523V44.7273C20.6745 44.7879 20.5571 44.8447 20.3828 44.8977C20.2124 44.947 20.0173 44.9905 19.7976 45.0284C19.5779 45.0625 19.3639 45.0947 19.1555 45.125C18.9472 45.1515 18.773 45.1742 18.6328 45.1932C18.3033 45.2348 18.0021 45.3049 17.7294 45.4034C17.4605 45.5019 17.2446 45.6439 17.0817 45.8295C16.9226 46.0114 16.843 46.2538 16.843 46.5568C16.843 46.9773 16.9983 47.2955 17.3089 47.5114C17.6196 47.7235 18.0154 47.8295 18.4964 47.8295ZM27.9638 49.1705C27.2592 49.1705 26.6304 48.9905 26.0774 48.6307C25.5282 48.267 25.0964 47.75 24.782 47.0795C24.4714 46.4053 24.3161 45.5966 24.3161 44.6534C24.3161 43.7102 24.4732 42.9034 24.7876 42.233C25.1058 41.5625 25.5414 41.0492 26.0945 40.6932C26.6475 40.3371 27.2744 40.1591 27.9751 40.1591C28.5168 40.1591 28.9524 40.25 29.282 40.4318C29.6153 40.6098 29.8729 40.8182 30.0547 41.0568C30.2403 41.2955 30.3842 41.5057 30.4865 41.6875H30.5888V37.3636H32.2876V49H30.6286V47.642H30.4865C30.3842 47.8277 30.2365 48.0398 30.0433 48.2784C29.8539 48.517 29.5926 48.7254 29.2592 48.9034C28.9259 49.0814 28.4941 49.1705 27.9638 49.1705ZM28.3388 47.7216C28.8274 47.7216 29.2403 47.5928 29.5774 47.3352C29.9183 47.0739 30.1759 46.7121 30.3501 46.25C30.5282 45.7879 30.6172 45.25 30.6172 44.6364C30.6172 44.0303 30.5301 43.5 30.3558 43.0455C30.1816 42.5909 29.9259 42.2367 29.5888 41.983C29.2517 41.7292 28.835 41.6023 28.3388 41.6023C27.8274 41.6023 27.4013 41.7348 27.0604 42C26.7195 42.2652 26.4619 42.6269 26.2876 43.0852C26.1172 43.5436 26.032 44.0606 26.032 44.6364C26.032 45.2197 26.1191 45.7443 26.2933 46.2102C26.4676 46.6761 26.7251 47.0455 27.0661 47.3182C27.4107 47.5871 27.835 47.7216 28.3388 47.7216ZM37.2521 49.1932C36.6991 49.1932 36.1991 49.0909 35.7521 48.8864C35.3052 48.678 34.951 48.3769 34.6896 47.983C34.4321 47.589 34.3033 47.1061 34.3033 46.5341C34.3033 46.0417 34.398 45.6364 34.5874 45.3182C34.7768 45 35.0324 44.7481 35.3544 44.5625C35.6764 44.3769 36.0362 44.2367 36.4339 44.142C36.8317 44.0473 37.237 43.9754 37.6499 43.9261C38.1726 43.8655 38.5968 43.8163 38.9226 43.7784C39.2483 43.7367 39.4851 43.6705 39.6328 43.5795C39.7805 43.4886 39.8544 43.3409 39.8544 43.1364V43.0966C39.8544 42.6004 39.7143 42.2159 39.4339 41.9432C39.1574 41.6705 38.7446 41.5341 38.1953 41.5341C37.6233 41.5341 37.1726 41.661 36.843 41.9148C36.5173 42.1648 36.2919 42.4432 36.1669 42.75L34.5703 42.3864C34.7597 41.8561 35.0362 41.428 35.3999 41.1023C35.7673 40.7727 36.1896 40.5341 36.6669 40.3864C37.1442 40.2348 37.6461 40.1591 38.1726 40.1591C38.5211 40.1591 38.8904 40.2008 39.2805 40.2841C39.6745 40.3636 40.0419 40.5114 40.3828 40.7273C40.7275 40.9432 41.0097 41.2519 41.2294 41.6534C41.4491 42.0511 41.5589 42.5682 41.5589 43.2045V49H39.8999V47.8068H39.8317C39.7218 48.0265 39.5571 48.2424 39.3374 48.4545C39.1177 48.6667 38.8355 48.8428 38.4908 48.983C38.1461 49.1231 37.7332 49.1932 37.2521 49.1932ZM37.6214 47.8295C38.0911 47.8295 38.4927 47.7367 38.826 47.5511C39.1631 47.3655 39.4188 47.1231 39.593 46.8239C39.7711 46.5208 39.8601 46.197 39.8601 45.8523V44.7273C39.7995 44.7879 39.6821 44.8447 39.5078 44.8977C39.3374 44.947 39.1423 44.9905 38.9226 45.0284C38.7029 45.0625 38.4889 45.0947 38.2805 45.125C38.0722 45.1515 37.898 45.1742 37.7578 45.1932C37.4283 45.2348 37.1271 45.3049 36.8544 45.4034C36.5855 45.5019 36.3696 45.6439 36.2067 45.8295C36.0476 46.0114 35.968 46.2538 35.968 46.5568C35.968 46.9773 36.1233 47.2955 36.4339 47.5114C36.7446 47.7235 37.1404 47.8295 37.6214 47.8295ZM43.8217 49V40.2727H45.4524V41.6932H45.5604C45.7422 41.2121 46.0395 40.8371 46.4524 40.5682C46.8653 40.2955 47.3596 40.1591 47.9354 40.1591C48.5187 40.1591 49.0073 40.2955 49.4013 40.5682C49.799 40.8409 50.0926 41.2159 50.282 41.6932H50.3729C50.5812 41.2273 50.9126 40.8561 51.3672 40.5795C51.8217 40.2992 52.3634 40.1591 52.9922 40.1591C53.7839 40.1591 54.4297 40.4072 54.9297 40.9034C55.4335 41.3996 55.6854 42.1477 55.6854 43.1477V49H53.9865V43.3068C53.9865 42.7159 53.8255 42.2879 53.5036 42.0227C53.1816 41.7576 52.7971 41.625 52.3501 41.625C51.7971 41.625 51.3672 41.7955 51.0604 42.1364C50.7536 42.4735 50.6001 42.9072 50.6001 43.4375V49H48.907V43.1989C48.907 42.7254 48.7592 42.3447 48.4638 42.0568C48.1683 41.7689 47.7839 41.625 47.3104 41.625C46.9884 41.625 46.6911 41.7102 46.4183 41.8807C46.1494 42.0473 45.9316 42.2803 45.7649 42.5795C45.602 42.8788 45.5206 43.2254 45.5206 43.6193V49H43.8217ZM61.7237 49.1761C60.8639 49.1761 60.1233 48.9924 59.5021 48.625C58.8847 48.2538 58.4074 47.733 58.0703 47.0625C57.737 46.3883 57.5703 45.5985 57.5703 44.6932C57.5703 43.7992 57.737 43.0114 58.0703 42.3295C58.4074 41.6477 58.8771 41.1155 59.4794 40.733C60.0855 40.3504 60.7938 40.1591 61.6044 40.1591C62.0968 40.1591 62.5741 40.2405 63.0362 40.4034C63.4983 40.5663 63.9131 40.822 64.2805 41.1705C64.648 41.5189 64.9377 41.9716 65.1499 42.5284C65.362 43.0814 65.468 43.7538 65.468 44.5455V45.1477H58.5305V43.875H63.8033C63.8033 43.428 63.7124 43.0322 63.5305 42.6875C63.3487 42.339 63.093 42.0644 62.7635 41.8636C62.4377 41.6629 62.0552 41.5625 61.6158 41.5625C61.1385 41.5625 60.7218 41.6799 60.3658 41.9148C60.0135 42.1458 59.7408 42.4489 59.5476 42.8239C59.3582 43.1951 59.2635 43.5985 59.2635 44.0341V45.0284C59.2635 45.6117 59.3658 46.108 59.5703 46.517C59.7786 46.9261 60.0684 47.2386 60.4396 47.4545C60.8108 47.6667 61.2446 47.7727 61.7408 47.7727C62.0627 47.7727 62.3563 47.7273 62.6214 47.6364C62.8866 47.5417 63.1158 47.4015 63.3089 47.2159C63.5021 47.0303 63.6499 46.8011 63.7521 46.5284L65.3601 46.8182C65.2313 47.2917 65.0002 47.7064 64.6669 48.0625C64.3374 48.4148 63.9226 48.6894 63.4226 48.8864C62.9264 49.0795 62.3601 49.1761 61.7237 49.1761ZM71.4567 49V37.3636H76.1158C76.9718 37.3636 77.6858 37.4905 78.2578 37.7443C78.8298 37.9981 79.2597 38.3504 79.5476 38.8011C79.8355 39.2481 79.9794 39.7633 79.9794 40.3466C79.9794 40.8011 79.8885 41.2008 79.7067 41.5455C79.5249 41.8864 79.2749 42.1667 78.9567 42.3864C78.6423 42.6023 78.2824 42.7557 77.8771 42.8466V42.9602C78.3203 42.9792 78.7351 43.1042 79.1214 43.3352C79.5116 43.5663 79.8279 43.8902 80.0703 44.3068C80.3127 44.7197 80.4339 45.2121 80.4339 45.7841C80.4339 46.4015 80.2805 46.9527 79.9737 47.4375C79.6707 47.9186 79.2218 48.2992 78.6271 48.5795C78.0324 48.8598 77.2995 49 76.4283 49H71.4567ZM73.9169 46.9886H75.9226C76.6082 46.9886 77.1082 46.858 77.4226 46.5966C77.737 46.3314 77.8942 45.9792 77.8942 45.5398C77.8942 45.2178 77.8165 44.9337 77.6612 44.6875C77.5059 44.4413 77.2843 44.2481 76.9964 44.108C76.7124 43.9678 76.3733 43.8977 75.9794 43.8977H73.9169V46.9886ZM73.9169 42.233H75.7408C76.0779 42.233 76.3771 42.1742 76.6385 42.0568C76.9036 41.9356 77.112 41.7652 77.2635 41.5455C77.4188 41.3258 77.4964 41.0625 77.4964 40.7557C77.4964 40.3352 77.3468 39.9962 77.0476 39.7386C76.7521 39.4811 76.3317 39.3523 75.7862 39.3523H73.9169V42.233ZM82.0348 49V37.3636H84.495V46.9716H89.4837V49H82.0348ZM93.4155 49H90.7791L94.7962 37.3636H97.9666L101.978 49H99.3416L96.4268 40.0227H96.3359L93.4155 49ZM93.2507 44.4261H99.478V46.3466H93.2507V44.4261ZM103.379 49V37.3636H108.038C108.894 37.3636 109.608 37.4905 110.18 37.7443C110.752 37.9981 111.182 38.3504 111.469 38.8011C111.757 39.2481 111.901 39.7633 111.901 40.3466C111.901 40.8011 111.81 41.2008 111.629 41.5455C111.447 41.8864 111.197 42.1667 110.879 42.3864C110.564 42.6023 110.204 42.7557 109.799 42.8466V42.9602C110.242 42.9792 110.657 43.1042 111.043 43.3352C111.433 43.5663 111.75 43.8902 111.992 44.3068C112.235 44.7197 112.356 45.2121 112.356 45.7841C112.356 46.4015 112.202 46.9527 111.896 47.4375C111.593 47.9186 111.144 48.2992 110.549 48.5795C109.954 48.8598 109.221 49 108.35 49H103.379ZM105.839 46.9886H107.844C108.53 46.9886 109.03 46.858 109.344 46.5966C109.659 46.3314 109.816 45.9792 109.816 45.5398C109.816 45.2178 109.738 44.9337 109.583 44.6875C109.428 44.4413 109.206 44.2481 108.918 44.108C108.634 43.9678 108.295 43.8977 107.901 43.8977H105.839V46.9886ZM105.839 42.233H107.663C108 42.233 108.299 42.1742 108.56 42.0568C108.826 41.9356 109.034 41.7652 109.185 41.5455C109.341 41.3258 109.418 41.0625 109.418 40.7557C109.418 40.3352 109.269 39.9962 108.969 39.7386C108.674 39.4811 108.254 39.3523 107.708 39.3523H105.839V42.233ZM113.957 49V37.3636H116.417V46.9716H121.406V49H113.957ZM125.337 49H122.701L126.718 37.3636H129.888L133.9 49H131.263L128.349 40.0227H128.258L125.337 49ZM125.173 44.4261H131.4V46.3466H125.173V44.4261ZM139.004 49V37.3636H143.663C144.519 37.3636 145.233 37.4905 145.805 37.7443C146.377 37.9981 146.807 38.3504 147.094 38.8011C147.382 39.2481 147.526 39.7633 147.526 40.3466C147.526 40.8011 147.435 41.2008 147.254 41.5455C147.072 41.8864 146.822 42.1667 146.504 42.3864C146.189 42.6023 145.829 42.7557 145.424 42.8466V42.9602C145.867 42.9792 146.282 43.1042 146.668 43.3352C147.058 43.5663 147.375 43.8902 147.617 44.3068C147.86 44.7197 147.981 45.2121 147.981 45.7841C147.981 46.4015 147.827 46.9527 147.521 47.4375C147.218 47.9186 146.769 48.2992 146.174 48.5795C145.579 48.8598 144.846 49 143.975 49H139.004ZM141.464 46.9886H143.469C144.155 46.9886 144.655 46.858 144.969 46.5966C145.284 46.3314 145.441 45.9792 145.441 45.5398C145.441 45.2178 145.363 44.9337 145.208 44.6875C145.053 44.4413 144.831 44.2481 144.543 44.108C144.259 43.9678 143.92 43.8977 143.526 43.8977H141.464V46.9886ZM141.464 42.233H143.288C143.625 42.233 143.924 42.1742 144.185 42.0568C144.451 41.9356 144.659 41.7652 144.81 41.5455C144.966 41.3258 145.043 41.0625 145.043 40.7557C145.043 40.3352 144.894 39.9962 144.594 39.7386C144.299 39.4811 143.879 39.3523 143.333 39.3523H141.464V42.233ZM149.582 49V37.3636H152.042V46.9716H157.031V49H149.582ZM160.962 49H158.326L162.343 37.3636H165.513L169.525 49H166.888L163.974 40.0227H163.883L160.962 49ZM160.798 44.4261H167.025V46.3466H160.798V44.4261Z" fill="black"/>
<path d="M1.23122 80V69.0909H8.07071V70.5078H2.87718V73.8317H7.71382V75.2433H2.87718V78.5831H8.13463V80H1.23122ZM14.0353 71.8182V73.0966H9.41171V71.8182H14.0353ZM10.6795 80V70.87C10.6795 70.3587 10.7913 69.9343 11.015 69.5969C11.2388 69.256 11.5353 69.0021 11.9046 68.8352C12.2739 68.6648 12.6752 68.5795 13.1084 68.5795C13.428 68.5795 13.7015 68.6062 13.9288 68.6594C14.156 68.7092 14.3247 68.7553 14.4348 68.7979L14.0619 70.087C13.9873 70.0657 13.8915 70.0408 13.7743 70.0124C13.6571 69.9805 13.515 69.9645 13.3481 69.9645C12.9611 69.9645 12.6841 70.0604 12.5172 70.2521C12.3538 70.4439 12.2722 70.7209 12.2722 71.0831V80H10.6795ZM19.5724 71.8182V73.0966H14.9488V71.8182H19.5724ZM16.2166 80V70.87C16.2166 70.3587 16.3284 69.9343 16.5522 69.5969C16.7759 69.256 17.0724 69.0021 17.4417 68.8352C17.811 68.6648 18.2123 68.5795 18.6456 68.5795C18.9652 68.5795 19.2386 68.6062 19.4659 68.6594C19.6931 68.7092 19.8618 68.7553 19.9719 68.7979L19.599 70.087C19.5245 70.0657 19.4286 70.0408 19.3114 70.0124C19.1942 69.9805 19.0522 69.9645 18.8853 69.9645C18.4982 69.9645 18.2212 70.0604 18.0543 70.2521C17.8909 70.4439 17.8093 70.7209 17.8093 71.0831V80H16.2166ZM24.4197 80.1651C23.6136 80.1651 22.9193 79.9929 22.337 79.6484C21.7581 79.3004 21.3107 78.8121 20.9946 78.1836C20.6821 77.5515 20.5259 76.8111 20.5259 75.9624C20.5259 75.1243 20.6821 74.3857 20.9946 73.7464C21.3107 73.1072 21.751 72.6083 22.3157 72.2496C22.8838 71.891 23.5479 71.7116 24.3078 71.7116C24.7695 71.7116 25.2169 71.788 25.6502 71.9407C26.0834 72.0934 26.4723 72.3331 26.8167 72.6598C27.1612 72.9865 27.4328 73.4109 27.6317 73.9329C27.8306 74.4513 27.93 75.0817 27.93 75.8239V76.3885H21.4261V75.1953H26.3693C26.3693 74.7763 26.284 74.4052 26.1136 74.082C25.9431 73.7553 25.7034 73.4979 25.3945 73.3097C25.0891 73.1214 24.7304 73.0273 24.3185 73.0273C23.871 73.0273 23.4804 73.1374 23.1466 73.3576C22.8164 73.5742 22.5607 73.8583 22.3796 74.2099C22.202 74.5579 22.1132 74.9361 22.1132 75.3445V76.2766C22.1132 76.8235 22.2091 77.2887 22.4009 77.6722C22.5962 78.0558 22.8679 78.3487 23.2159 78.5511C23.5639 78.75 23.9705 78.8494 24.4357 78.8494C24.7375 78.8494 25.0127 78.8068 25.2613 78.7216C25.5099 78.6328 25.7247 78.5014 25.9059 78.3274C26.087 78.1534 26.2255 77.9386 26.3213 77.6829L27.8288 77.9545C27.7081 78.3984 27.4914 78.7873 27.1789 79.1211C26.87 79.4513 26.4811 79.7088 26.0124 79.8935C25.5472 80.0746 25.0163 80.1651 24.4197 80.1651ZM33.1435 80.1651C32.3516 80.1651 31.6698 79.9858 31.0981 79.6271C30.5299 79.2649 30.0931 78.766 29.7877 78.1303C29.4823 77.4947 29.3296 76.7667 29.3296 75.9464C29.3296 75.1154 29.4858 74.3821 29.7983 73.7464C30.1108 73.1072 30.5512 72.6083 31.1194 72.2496C31.6875 71.891 32.3569 71.7116 33.1275 71.7116C33.749 71.7116 34.303 71.8271 34.7895 72.0579C35.276 72.2852 35.6684 72.6048 35.9667 73.0167C36.2685 73.4286 36.4478 73.9098 36.5047 74.4602H34.9546C34.8694 74.0767 34.6741 73.7464 34.3687 73.4695C34.0668 73.1925 33.662 73.054 33.1542 73.054C32.7103 73.054 32.3214 73.1712 31.9876 73.4055C31.6574 73.6364 31.3999 73.9666 31.2152 74.3963C31.0306 74.8224 30.9383 75.3267 30.9383 75.9091C30.9383 76.5057 31.0288 77.0206 31.2099 77.4538C31.391 77.8871 31.6467 78.2227 31.977 78.4606C32.3108 78.6985 32.7032 78.8175 33.1542 78.8175C33.456 78.8175 33.7294 78.7624 33.9745 78.6523C34.2231 78.5387 34.4308 78.3771 34.5977 78.1676C34.7682 77.9581 34.8871 77.706 34.9546 77.4112H36.5047C36.4478 77.9403 36.2756 78.4126 35.988 78.8281C35.7003 79.2436 35.315 79.5703 34.8321 79.8082C34.3527 80.0462 33.7898 80.1651 33.1435 80.1651ZM42.0271 71.8182V73.0966H37.558V71.8182H42.0271ZM38.7565 69.858H40.3492V77.5977C40.3492 77.9066 40.3954 78.1392 40.4877 78.2955C40.58 78.4482 40.699 78.5529 40.8446 78.6097C40.9937 78.663 41.1553 78.6896 41.3293 78.6896C41.4572 78.6896 41.569 78.6808 41.6649 78.663C41.7608 78.6452 41.8354 78.631 41.8886 78.6204L42.1763 79.9361C42.0839 79.9716 41.9525 80.0071 41.7821 80.0426C41.6116 80.0817 41.3986 80.103 41.1429 80.1065C40.7239 80.1136 40.3332 80.0391 39.971 79.8828C39.6088 79.7266 39.3158 79.4851 39.0921 79.1584C38.8684 78.8317 38.7565 78.4215 38.7565 77.9279V69.858ZM48.9718 76.6069V71.8182H50.5698V80H49.0038V78.5831H48.9185C48.7303 79.0199 48.4285 79.3839 48.013 79.6751C47.6011 79.9627 47.0879 80.1065 46.4736 80.1065C45.948 80.1065 45.4828 79.9911 45.078 79.7603C44.6767 79.5259 44.3607 79.1797 44.1298 78.7216C43.9026 78.2635 43.7889 77.6971 43.7889 77.0224V71.8182H45.3816V76.8306C45.3816 77.3881 45.5361 77.832 45.845 78.1623C46.154 78.4925 46.5553 78.6577 47.0489 78.6577C47.3472 78.6577 47.6437 78.5831 47.9384 78.4339C48.2367 78.2848 48.4835 78.0593 48.6788 77.7575C48.8777 77.4556 48.9754 77.0721 48.9718 76.6069ZM56.2361 80.1651C55.43 80.1651 54.7358 79.9929 54.1534 79.6484C53.5745 79.3004 53.1271 78.8121 52.811 78.1836C52.4985 77.5515 52.3423 76.8111 52.3423 75.9624C52.3423 75.1243 52.4985 74.3857 52.811 73.7464C53.1271 73.1072 53.5674 72.6083 54.1321 72.2496C54.7002 71.891 55.3643 71.7116 56.1242 71.7116C56.5859 71.7116 57.0333 71.788 57.4666 71.9407C57.8998 72.0934 58.2887 72.3331 58.6331 72.6598C58.9776 72.9865 59.2492 73.4109 59.4481 73.9329C59.647 74.4513 59.7464 75.0817 59.7464 75.8239V76.3885H53.2425V75.1953H58.1857C58.1857 74.7763 58.1005 74.4052 57.93 74.082C57.7595 73.7553 57.5198 73.4979 57.2109 73.3097C56.9055 73.1214 56.5468 73.0273 56.1349 73.0273C55.6875 73.0273 55.2968 73.1374 54.963 73.3576C54.6328 73.5742 54.3771 73.8583 54.196 74.2099C54.0184 74.5579 53.9296 74.9361 53.9296 75.3445V76.2766C53.9296 76.8235 54.0255 77.2887 54.2173 77.6722C54.4126 78.0558 54.6843 78.3487 55.0323 78.5511C55.3803 78.75 55.7869 78.8494 56.2521 78.8494C56.5539 78.8494 56.8291 78.8068 57.0777 78.7216C57.3263 78.6328 57.5411 78.5014 57.7223 78.3274C57.9034 78.1534 58.0419 77.9386 58.1377 77.6829L59.6452 77.9545C59.5245 78.3984 59.3078 78.7873 58.9953 79.1211C58.6864 79.4513 58.2975 79.7088 57.8288 79.8935C57.3636 80.0746 56.8327 80.1651 56.2361 80.1651ZM55.4051 70.7262L56.6516 68.2706H58.3295L56.6782 70.7262H55.4051ZM65.0398 80.1651C64.2337 80.1651 63.5395 79.9929 62.9571 79.6484C62.3782 79.3004 61.9308 78.8121 61.6147 78.1836C61.3022 77.5515 61.146 76.8111 61.146 75.9624C61.146 75.1243 61.3022 74.3857 61.6147 73.7464C61.9308 73.1072 62.3711 72.6083 62.9358 72.2496C63.504 71.891 64.168 71.7116 64.928 71.7116C65.3896 71.7116 65.837 71.788 66.2703 71.9407C66.7035 72.0934 67.0924 72.3331 67.4368 72.6598C67.7813 72.9865 68.053 73.4109 68.2518 73.9329C68.4507 74.4513 68.5501 75.0817 68.5501 75.8239V76.3885H62.0462V75.1953H66.9894C66.9894 74.7763 66.9042 74.4052 66.7337 74.082C66.5633 73.7553 66.3236 73.4979 66.0146 73.3097C65.7092 73.1214 65.3505 73.0273 64.9386 73.0273C64.4912 73.0273 64.1005 73.1374 63.7667 73.3576C63.4365 73.5742 63.1808 73.8583 62.9997 74.2099C62.8221 74.5579 62.7334 74.9361 62.7334 75.3445V76.2766C62.7334 76.8235 62.8292 77.2887 63.021 77.6722C63.2163 78.0558 63.488 78.3487 63.836 78.5511C64.184 78.75 64.5906 78.8494 65.0558 78.8494C65.3576 78.8494 65.6329 78.8068 65.8814 78.7216C66.13 78.6328 66.3449 78.5014 66.526 78.3274C66.7071 78.1534 66.8456 77.9386 66.9415 77.6829L68.4489 77.9545C68.3282 78.3984 68.1116 78.7873 67.7991 79.1211C67.4901 79.4513 67.1013 79.7088 66.6325 79.8935C66.1673 80.0746 65.6364 80.1651 65.0398 80.1651ZM76.668 80.1811C76.1495 80.1811 75.6808 80.0852 75.2618 79.8935C74.8427 79.6982 74.5107 79.4158 74.2657 79.0465C74.0242 78.6772 73.9035 78.2244 73.9035 77.6882C73.9035 77.2266 73.9922 76.8466 74.1698 76.5483C74.3473 76.25 74.587 76.0138 74.8889 75.8398C75.1907 75.6658 75.5281 75.5344 75.901 75.4457C76.2738 75.3569 76.6538 75.2894 77.0409 75.2433C77.5309 75.1864 77.9287 75.1403 78.2341 75.1048C78.5395 75.0657 78.7614 75.0036 78.8999 74.9183C79.0384 74.8331 79.1076 74.6946 79.1076 74.5028V74.4656C79.1076 74.0004 78.9763 73.6399 78.7135 73.3842C78.4542 73.1286 78.0672 73.0007 77.5522 73.0007C77.016 73.0007 76.5934 73.1197 76.2845 73.3576C75.9791 73.592 75.7678 73.853 75.6506 74.1406L74.1538 73.7997C74.3314 73.3026 74.5906 72.9013 74.9315 72.5959C75.276 72.2869 75.6719 72.0632 76.1194 71.9247C76.5668 71.7827 77.0373 71.7116 77.5309 71.7116C77.8576 71.7116 78.2039 71.7507 78.5696 71.8288C78.939 71.9034 79.2834 72.0419 79.603 72.2443C79.9262 72.4467 80.1907 72.7362 80.3967 73.1126C80.6027 73.4854 80.7057 73.9702 80.7057 74.5668V80H79.1503V78.8814H79.0863C78.9834 79.0874 78.8289 79.2898 78.6229 79.4886C78.4169 79.6875 78.1524 79.8526 77.8292 79.984C77.5061 80.1154 77.119 80.1811 76.668 80.1811ZM77.0142 78.9027C77.4546 78.9027 77.831 78.8157 78.1435 78.6417C78.4596 78.4677 78.6993 78.2404 78.8626 77.9599C79.0295 77.6758 79.113 77.3722 79.113 77.049V75.9943C79.0562 76.0511 78.9461 76.1044 78.7827 76.1541C78.6229 76.2003 78.44 76.2411 78.2341 76.2766C78.0281 76.3086 77.8275 76.3388 77.6321 76.3672C77.4368 76.392 77.2735 76.4134 77.1421 76.4311C76.8331 76.4702 76.5508 76.5359 76.2951 76.6282C76.043 76.7205 75.8406 76.8537 75.6879 77.0277C75.5388 77.1982 75.4642 77.4254 75.4642 77.7095C75.4642 78.1037 75.6098 78.402 75.901 78.6044C76.1922 78.8033 76.5633 78.9027 77.0142 78.9027ZM88.0099 76.6069V71.8182H89.6079V80H88.0419V78.5831H87.9566C87.7684 79.0199 87.4666 79.3839 87.0511 79.6751C86.6392 79.9627 86.126 80.1065 85.5117 80.1065C84.9861 80.1065 84.5209 79.9911 84.1161 79.7603C83.7148 79.5259 83.3987 79.1797 83.1679 78.7216C82.9407 78.2635 82.827 77.6971 82.827 77.0224V71.8182H84.4197V76.8306C84.4197 77.3881 84.5742 77.832 84.8831 78.1623C85.1921 78.4925 85.5934 78.6577 86.087 78.6577C86.3853 78.6577 86.6818 78.5831 86.9765 78.4339C87.2748 78.2848 87.5216 78.0593 87.7169 77.7575C87.9158 77.4556 88.0135 77.0721 88.0099 76.6069ZM91.7479 71.8182H93.3406V80.5327C93.3406 81.0795 93.2412 81.5412 93.0423 81.9176C92.847 82.294 92.5558 82.5799 92.1687 82.7752C91.7852 82.9705 91.3111 83.0682 90.7465 83.0682C90.6897 83.0682 90.6364 83.0682 90.5867 83.0682C90.5334 83.0682 90.4784 83.0664 90.4216 83.0629V81.6939C90.4713 81.6939 90.5157 81.6939 90.5547 81.6939C90.5902 81.6939 90.6311 81.6939 90.6772 81.6939C91.0537 81.6939 91.3253 81.5927 91.4922 81.3903C91.6627 81.1914 91.7479 80.902 91.7479 80.522V71.8182ZM92.5363 70.5558C92.2593 70.5558 92.0214 70.4634 91.8225 70.2788C91.6272 70.0906 91.5295 69.8668 91.5295 69.6076C91.5295 69.3448 91.6272 69.1211 91.8225 68.9364C92.0214 68.7482 92.2593 68.6541 92.5363 68.6541C92.8133 68.6541 93.0494 68.7482 93.2447 68.9364C93.4436 69.1211 93.543 69.3448 93.543 69.6076C93.543 69.8668 93.4436 70.0906 93.2447 70.2788C93.0494 70.4634 92.8133 70.5558 92.5363 70.5558ZM98.9296 80.1651C98.1626 80.1651 97.4932 79.9893 96.9215 79.6378C96.3497 79.2862 95.9059 78.7944 95.5898 78.1623C95.2737 77.5302 95.1157 76.7915 95.1157 75.9464C95.1157 75.0977 95.2737 74.3555 95.5898 73.7198C95.9059 73.0842 96.3497 72.5906 96.9215 72.239C97.4932 71.8874 98.1626 71.7116 98.9296 71.7116C99.6967 71.7116 100.366 71.8874 100.938 72.239C101.51 72.5906 101.953 73.0842 102.269 73.7198C102.586 74.3555 102.744 75.0977 102.744 75.9464C102.744 76.7915 102.586 77.5302 102.269 78.1623C101.953 78.7944 101.51 79.2862 100.938 79.6378C100.366 79.9893 99.6967 80.1651 98.9296 80.1651ZM98.935 78.8281C99.4321 78.8281 99.8441 78.6967 100.171 78.4339C100.497 78.1712 100.739 77.8214 100.895 77.3846C101.055 76.9478 101.135 76.4666 101.135 75.9411C101.135 75.419 101.055 74.9396 100.895 74.5028C100.739 74.0625 100.497 73.7092 100.171 73.4428C99.8441 73.1765 99.4321 73.0433 98.935 73.0433C98.4343 73.0433 98.0188 73.1765 97.6885 73.4428C97.3618 73.7092 97.1186 74.0625 96.9588 74.5028C96.8025 74.9396 96.7244 75.419 96.7244 75.9411C96.7244 76.4666 96.8025 76.9478 96.9588 77.3846C97.1186 77.8214 97.3618 78.1712 97.6885 78.4339C98.0188 78.6967 98.4343 78.8281 98.935 78.8281ZM109.704 76.6069V71.8182H111.302V80H109.736V78.5831H109.651C109.463 79.0199 109.161 79.3839 108.745 79.6751C108.333 79.9627 107.82 80.1065 107.206 80.1065C106.68 80.1065 106.215 79.9911 105.81 79.7603C105.409 79.5259 105.093 79.1797 104.862 78.7216C104.635 78.2635 104.521 77.6971 104.521 77.0224V71.8182H106.114V76.8306C106.114 77.3881 106.269 77.832 106.577 78.1623C106.886 78.4925 107.288 78.6577 107.781 78.6577C108.08 78.6577 108.376 78.5831 108.671 78.4339C108.969 78.2848 109.216 78.0593 109.411 77.7575C109.61 77.4556 109.708 77.0721 109.704 76.6069ZM113.442 80V71.8182H114.982V73.1179H115.067C115.216 72.6776 115.479 72.3313 115.855 72.0792C116.235 71.8235 116.665 71.6957 117.144 71.6957C117.244 71.6957 117.361 71.6992 117.496 71.7063C117.634 71.7134 117.743 71.7223 117.821 71.733V73.2564C117.757 73.2386 117.643 73.2191 117.48 73.1978C117.317 73.1729 117.153 73.1605 116.99 73.1605C116.613 73.1605 116.278 73.2404 115.983 73.4002C115.692 73.5565 115.461 73.7749 115.291 74.0554C115.12 74.3324 115.035 74.6484 115.035 75.0036V80H113.442ZM121.969 80.1598C121.308 80.1598 120.719 79.9911 120.201 79.6538C119.686 79.3129 119.281 78.8281 118.986 78.1996C118.695 77.5675 118.549 76.8093 118.549 75.9251C118.549 75.0408 118.697 74.2844 118.991 73.6559C119.29 73.0273 119.698 72.5462 120.216 72.2124C120.735 71.8786 121.323 71.7116 121.98 71.7116C122.487 71.7116 122.896 71.7969 123.205 71.9673C123.517 72.1342 123.759 72.3295 123.929 72.5533C124.103 72.777 124.238 72.9741 124.334 73.1445H124.43V69.0909H126.023V80H124.467V78.7269H124.334C124.238 78.9009 124.1 79.0998 123.919 79.3235C123.741 79.5472 123.496 79.7425 123.183 79.9094C122.871 80.0763 122.466 80.1598 121.969 80.1598ZM122.321 78.8015C122.779 78.8015 123.166 78.6808 123.482 78.4393C123.801 78.1942 124.043 77.8551 124.206 77.4219C124.373 76.9886 124.457 76.4844 124.457 75.9091C124.457 75.3409 124.375 74.8437 124.212 74.4176C124.048 73.9915 123.808 73.6594 123.492 73.4215C123.176 73.1836 122.786 73.0646 122.321 73.0646C121.841 73.0646 121.442 73.1889 121.122 73.4375C120.802 73.6861 120.561 74.0252 120.398 74.4549C120.238 74.8846 120.158 75.3693 120.158 75.9091C120.158 76.456 120.24 76.9478 120.403 77.3846C120.566 77.8214 120.808 78.1676 121.127 78.4233C121.451 78.6754 121.848 78.8015 122.321 78.8015ZM129.665 69.0909V70.1136C129.665 70.4155 129.608 70.7333 129.494 71.0671C129.384 71.3974 129.228 71.7152 129.026 72.0206C128.823 72.326 128.585 72.5888 128.312 72.8089L127.523 72.2443C127.733 71.9389 127.914 71.614 128.067 71.2695C128.223 70.9251 128.301 70.5451 128.301 70.1296V69.0909H129.665ZM132.877 75.142V80H131.284V69.0909H132.855V73.1499H132.957C133.148 72.7095 133.441 72.3597 133.836 72.1005C134.23 71.8413 134.745 71.7116 135.38 71.7116C135.941 71.7116 136.431 71.8271 136.85 72.0579C137.273 72.2887 137.6 72.6332 137.831 73.0913C138.065 73.5458 138.182 74.114 138.182 74.7958V80H136.589V74.9876C136.589 74.3874 136.435 73.9222 136.126 73.592C135.817 73.2582 135.387 73.0913 134.837 73.0913C134.461 73.0913 134.123 73.1712 133.825 73.331C133.53 73.4908 133.298 73.7251 133.127 74.0341C132.96 74.3395 132.877 74.7088 132.877 75.142ZM145.49 76.6069V71.8182H147.088V80H145.522V78.5831H145.437C145.249 79.0199 144.947 79.3839 144.532 79.6751C144.12 79.9627 143.606 80.1065 142.992 80.1065C142.467 80.1065 142.001 79.9911 141.597 79.7603C141.195 79.5259 140.879 79.1797 140.648 78.7216C140.421 78.2635 140.307 77.6971 140.307 77.0224V71.8182H141.9V76.8306C141.9 77.3881 142.055 77.832 142.364 78.1623C142.673 78.4925 143.074 78.6577 143.567 78.6577C143.866 78.6577 144.162 78.5831 144.457 78.4339C144.755 78.2848 145.002 78.0593 145.197 77.7575C145.396 77.4556 145.494 77.0721 145.49 76.6069ZM149.228 80V71.8182H150.821V80H149.228ZM150.033 70.5558C149.756 70.5558 149.518 70.4634 149.319 70.2788C149.124 70.0906 149.026 69.8668 149.026 69.6076C149.026 69.3448 149.124 69.1211 149.319 68.9364C149.518 68.7482 149.756 68.6541 150.033 68.6541C150.31 68.6541 150.546 68.7482 150.741 68.9364C150.94 69.1211 151.039 69.3448 151.039 69.6076C151.039 69.8668 150.94 70.0906 150.741 70.2788C150.546 70.4634 150.31 70.5558 150.033 70.5558ZM159.314 80.1811C158.796 80.1811 158.327 80.0852 157.908 79.8935C157.489 79.6982 157.157 79.4158 156.912 79.0465C156.671 78.6772 156.55 78.2244 156.55 77.6882C156.55 77.2266 156.639 76.8466 156.816 76.5483C156.994 76.25 157.234 76.0138 157.535 75.8398C157.837 75.6658 158.175 75.5344 158.547 75.4457C158.92 75.3569 159.3 75.2894 159.687 75.2433C160.177 75.1864 160.575 75.1403 160.881 75.1048C161.186 75.0657 161.408 75.0036 161.546 74.9183C161.685 74.8331 161.754 74.6946 161.754 74.5028V74.4656C161.754 74.0004 161.623 73.6399 161.36 73.3842C161.101 73.1286 160.714 73.0007 160.199 73.0007C159.663 73.0007 159.24 73.1197 158.931 73.3576C158.626 73.592 158.414 73.853 158.297 74.1406L156.8 73.7997C156.978 73.3026 157.237 72.9013 157.578 72.5959C157.922 72.2869 158.318 72.0632 158.766 71.9247C159.213 71.7827 159.684 71.7116 160.177 71.7116C160.504 71.7116 160.85 71.7507 161.216 71.8288C161.585 71.9034 161.93 72.0419 162.25 72.2443C162.573 72.4467 162.837 72.7362 163.043 73.1126C163.249 73.4854 163.352 73.9702 163.352 74.5668V80H161.797V78.8814H161.733C161.63 79.0874 161.475 79.2898 161.269 79.4886C161.063 79.6875 160.799 79.8526 160.476 79.984C160.153 80.1154 159.765 80.1811 159.314 80.1811ZM159.661 78.9027C160.101 78.9027 160.477 78.8157 160.79 78.6417C161.106 78.4677 161.346 78.2404 161.509 77.9599C161.676 77.6758 161.759 77.3722 161.759 77.049V75.9943C161.703 76.0511 161.593 76.1044 161.429 76.1541C161.269 76.2003 161.087 76.2411 160.881 76.2766C160.675 76.3086 160.474 76.3388 160.279 76.3672C160.083 76.392 159.92 76.4134 159.789 76.4311C159.48 76.4702 159.197 76.5359 158.942 76.6282C158.689 76.7205 158.487 76.8537 158.334 77.0277C158.185 77.1982 158.111 77.4254 158.111 77.7095C158.111 78.1037 158.256 78.402 158.547 78.6044C158.839 78.8033 159.21 78.9027 159.661 78.9027ZM159.639 70.7262L157.993 68.2706H159.671L160.913 70.7262H159.639ZM173.561 69.0909V80H171.909V70.7422H171.846L169.235 72.4467V70.87L171.957 69.0909H173.561ZM180.651 69.0909V80H178.999V70.7422H178.935L176.325 72.4467V70.87L179.047 69.0909H180.651ZM185.216 75.142V80H183.623V69.0909H185.194V73.1499H185.295C185.487 72.7095 185.78 72.3597 186.174 72.1005C186.569 71.8413 187.083 71.7116 187.719 71.7116C188.28 71.7116 188.77 71.8271 189.189 72.0579C189.612 72.2887 189.939 72.6332 190.169 73.0913C190.404 73.5458 190.521 74.114 190.521 74.7958V80H188.928V74.9876C188.928 74.3874 188.774 73.9222 188.465 73.592C188.156 73.2582 187.726 73.0913 187.176 73.0913C186.799 73.0913 186.462 73.1712 186.164 73.331C185.869 73.4908 185.636 73.7251 185.466 74.0341C185.299 74.3395 185.216 74.7088 185.216 75.142ZM196.226 80.1491C195.558 80.1491 194.958 80.0213 194.425 79.7656C193.896 79.5064 193.474 79.1513 193.158 78.7003C192.842 78.2493 192.673 77.7344 192.652 77.1555H194.25C194.289 77.6243 194.496 78.0096 194.873 78.3114C195.249 78.6133 195.7 78.7642 196.226 78.7642C196.645 78.7642 197.016 78.6683 197.339 78.4766C197.666 78.2812 197.922 78.0131 198.106 77.6722C198.294 77.3313 198.389 76.9425 198.389 76.5057C198.389 76.0618 198.293 75.6658 198.101 75.3178C197.909 74.9698 197.645 74.6964 197.307 74.4975C196.973 74.2987 196.59 74.1974 196.157 74.1939C195.826 74.1939 195.494 74.2507 195.161 74.3643C194.827 74.478 194.557 74.6271 194.351 74.8118L192.843 74.5881L193.456 69.0909H199.454V70.5025H194.825L194.479 73.5547H194.543C194.756 73.3487 195.038 73.1765 195.39 73.038C195.745 72.8995 196.125 72.8303 196.53 72.8303C197.194 72.8303 197.785 72.9883 198.303 73.3043C198.825 73.6204 199.235 74.0518 199.534 74.5987C199.836 75.142 199.985 75.767 199.981 76.4737C199.985 77.1804 199.825 77.8107 199.502 78.3647C199.182 78.9187 198.738 79.3555 198.17 79.6751C197.606 79.9911 196.957 80.1491 196.226 80.1491ZM206.066 69.0909V80H204.414V70.7422H204.35L201.74 72.4467V70.87L204.462 69.0909H206.066Z" fill="black"/>
<line y1="125.5" x2="342" y2="125.5" stroke="#D9D9D9"/>
<rect y="150" width="73" height="73" rx="4" fill="#D9D9D9"/>
<path d="M90.0566 170.5V161.045H92.0555V168.852H96.1088V170.5H90.0566ZM105.753 165.773C105.753 166.804 105.557 167.681 105.166 168.404C104.779 169.127 104.249 169.68 103.578 170.061C102.91 170.44 102.159 170.629 101.325 170.629C100.485 170.629 99.7312 170.438 99.0633 170.057C98.3955 169.675 97.8677 169.123 97.4799 168.4C97.0921 167.676 96.8982 166.801 96.8982 165.773C96.8982 164.742 97.0921 163.865 97.4799 163.141C97.8677 162.418 98.3955 161.867 99.0633 161.489C99.7312 161.107 100.485 160.916 101.325 160.916C102.159 160.916 102.91 161.107 103.578 161.489C104.249 161.867 104.779 162.418 105.166 163.141C105.557 163.865 105.753 164.742 105.753 165.773ZM103.726 165.773C103.726 165.105 103.626 164.542 103.426 164.083C103.229 163.625 102.95 163.277 102.59 163.04C102.23 162.803 101.809 162.684 101.325 162.684C100.842 162.684 100.421 162.803 100.061 163.04C99.7004 163.277 99.4204 163.625 99.2203 164.083C99.0233 164.542 98.9248 165.105 98.9248 165.773C98.9248 166.441 99.0233 167.004 99.2203 167.462C99.4204 167.921 99.7004 168.269 100.061 168.506C100.421 168.743 100.842 168.861 101.325 168.861C101.809 168.861 102.23 168.743 102.59 168.506C102.95 168.269 103.229 167.921 103.426 167.462C103.626 167.004 103.726 166.441 103.726 165.773ZM107.233 170.5V161.045H110.963C111.677 161.045 112.287 161.173 112.792 161.429C113.299 161.681 113.686 162.04 113.95 162.504C114.218 162.966 114.352 163.509 114.352 164.134C114.352 164.762 114.217 165.302 113.946 165.754C113.675 166.204 113.282 166.548 112.769 166.788C112.258 167.028 111.639 167.148 110.913 167.148H108.415V165.542H110.59C110.971 165.542 111.288 165.49 111.541 165.385C111.793 165.28 111.981 165.123 112.104 164.914C112.23 164.705 112.293 164.445 112.293 164.134C112.293 163.82 112.23 163.555 112.104 163.34C111.981 163.124 111.791 162.961 111.536 162.85C111.284 162.737 110.965 162.68 110.58 162.68H109.232V170.5H107.233ZM112.339 166.197L114.689 170.5H112.482L110.183 166.197H112.339ZM115.765 170.5V161.045H122.135V162.694H117.764V164.946H121.808V166.594H117.764V168.852H122.154V170.5H115.765ZM123.725 161.045H126.19L128.793 167.398H128.904L131.508 161.045H133.973V170.5H132.034V164.346H131.956L129.509 170.454H128.189L125.742 164.323H125.663V170.5H123.725V161.045ZM140.628 161.045V170.5H138.629V161.045H140.628ZM142.272 170.5V161.045H146.003C146.72 161.045 147.331 161.182 147.835 161.456C148.34 161.727 148.725 162.104 148.989 162.587C149.257 163.067 149.391 163.621 149.391 164.249C149.391 164.877 149.256 165.431 148.985 165.911C148.714 166.391 148.322 166.765 147.808 167.033C147.297 167.301 146.678 167.435 145.952 167.435H143.574V165.833H145.629C146.013 165.833 146.33 165.767 146.58 165.634C146.832 165.499 147.02 165.313 147.143 165.076C147.269 164.836 147.332 164.56 147.332 164.249C147.332 163.935 147.269 163.661 147.143 163.428C147.02 163.191 146.832 163.007 146.58 162.878C146.327 162.746 146.007 162.68 145.619 162.68H144.271V170.5H142.272ZM155.818 163.765C155.781 163.392 155.623 163.103 155.343 162.897C155.063 162.69 154.683 162.587 154.203 162.587C153.876 162.587 153.601 162.634 153.376 162.726C153.152 162.815 152.979 162.94 152.859 163.1C152.742 163.26 152.684 163.441 152.684 163.645C152.678 163.814 152.713 163.962 152.79 164.088C152.87 164.214 152.979 164.323 153.118 164.415C153.256 164.505 153.416 164.583 153.598 164.651C153.779 164.716 153.973 164.771 154.179 164.817L155.029 165.02C155.441 165.113 155.82 165.236 156.165 165.39C156.509 165.543 156.808 165.733 157.06 165.957C157.313 166.182 157.508 166.447 157.646 166.751C157.788 167.056 157.86 167.405 157.863 167.799C157.86 168.378 157.713 168.88 157.42 169.304C157.131 169.726 156.712 170.054 156.165 170.288C155.62 170.518 154.963 170.634 154.193 170.634C153.43 170.634 152.765 170.517 152.199 170.283C151.636 170.049 151.196 169.703 150.879 169.244C150.565 168.783 150.4 168.212 150.385 167.532H152.319C152.341 167.849 152.431 168.113 152.591 168.326C152.755 168.535 152.971 168.693 153.242 168.801C153.516 168.906 153.826 168.958 154.17 168.958C154.509 168.958 154.803 168.909 155.052 168.81C155.304 168.712 155.5 168.575 155.638 168.4C155.777 168.224 155.846 168.022 155.846 167.795C155.846 167.582 155.783 167.404 155.657 167.259C155.534 167.115 155.352 166.991 155.112 166.89C154.875 166.788 154.584 166.696 154.239 166.613L153.21 166.354C152.413 166.161 151.784 165.857 151.322 165.445C150.86 165.033 150.631 164.477 150.634 163.778C150.631 163.206 150.783 162.706 151.091 162.278C151.402 161.85 151.828 161.516 152.37 161.276C152.911 161.036 153.527 160.916 154.216 160.916C154.918 160.916 155.531 161.036 156.054 161.276C156.58 161.516 156.989 161.85 157.282 162.278C157.574 162.706 157.725 163.201 157.734 163.765H155.818ZM165.048 161.045H167.047V167.185C167.047 167.875 166.882 168.478 166.553 168.995C166.227 169.512 165.77 169.915 165.182 170.205C164.594 170.491 163.909 170.634 163.127 170.634C162.343 170.634 161.656 170.491 161.068 170.205C160.481 169.915 160.024 169.512 159.697 168.995C159.371 168.478 159.208 167.875 159.208 167.185V161.045H161.207V167.015C161.207 167.375 161.285 167.695 161.442 167.975C161.602 168.255 161.827 168.475 162.116 168.635C162.406 168.795 162.743 168.875 163.127 168.875C163.515 168.875 163.852 168.795 164.138 168.635C164.428 168.475 164.651 168.255 164.808 167.975C164.968 167.695 165.048 167.375 165.048 167.015V161.045ZM168.691 161.045H171.157L173.76 167.398H173.871L176.475 161.045H178.94V170.5H177.001V164.346H176.923L174.476 170.454H173.155L170.709 164.323H170.63V170.5H168.691V161.045Z" fill="black"/>
<path d="M93.3297 191.67H94.6252L95.5371 192.859L95.9675 193.388L97.4206 195.284H96.074L95.1025 194.018L94.7701 193.558L93.3297 191.67ZM97.7019 190.136C97.7019 191.068 97.5314 191.869 97.1905 192.54C96.8496 193.207 96.3823 193.722 95.7885 194.082C95.1976 194.44 94.5257 194.619 93.7729 194.619C93.0172 194.619 92.3425 194.44 91.7488 194.082C91.1578 193.722 90.6919 193.206 90.351 192.536C90.0101 191.865 89.8397 191.065 89.8397 190.136C89.8397 189.205 90.0101 188.405 90.351 187.737C90.6919 187.067 91.1578 186.553 91.7488 186.195C92.3425 185.834 93.0172 185.653 93.7729 185.653C94.5257 185.653 95.1976 185.834 95.7885 186.195C96.3823 186.553 96.8496 187.067 97.1905 187.737C97.5314 188.405 97.7019 189.205 97.7019 190.136ZM96.3979 190.136C96.3979 189.426 96.2828 188.828 96.0527 188.342C95.8255 187.854 95.513 187.484 95.1152 187.234C94.7203 186.982 94.2729 186.855 93.7729 186.855C93.2701 186.855 92.8212 186.982 92.4263 187.234C92.0314 187.484 91.7189 187.854 91.4888 188.342C91.2615 188.828 91.1479 189.426 91.1479 190.136C91.1479 190.847 91.2615 191.446 91.4888 191.935C91.7189 192.42 92.0314 192.79 92.4263 193.043C92.8212 193.293 93.2701 193.418 93.7729 193.418C94.2729 193.418 94.7203 193.293 95.1152 193.043C95.513 192.79 95.8255 192.42 96.0527 191.935C96.2828 191.446 96.3979 190.847 96.3979 190.136ZM103.388 191.786V187.955H104.666V194.5H103.413V193.366H103.345C103.194 193.716 102.953 194.007 102.621 194.24C102.291 194.47 101.881 194.585 101.389 194.585C100.969 194.585 100.596 194.493 100.273 194.308C99.9515 194.121 99.6987 193.844 99.514 193.477C99.3322 193.111 99.2413 192.658 99.2413 192.118V187.955H100.515V191.964C100.515 192.411 100.639 192.766 100.886 193.03C101.133 193.294 101.454 193.426 101.849 193.426C102.088 193.426 102.325 193.366 102.561 193.247C102.8 193.128 102.997 192.947 103.153 192.706C103.312 192.464 103.39 192.158 103.388 191.786ZM108.283 194.645C107.868 194.645 107.493 194.568 107.158 194.415C106.823 194.259 106.557 194.033 106.361 193.737C106.168 193.442 106.071 193.08 106.071 192.651C106.071 192.281 106.142 191.977 106.284 191.739C106.426 191.5 106.618 191.311 106.86 191.172C107.101 191.033 107.371 190.928 107.669 190.857C107.968 190.786 108.271 190.732 108.581 190.695C108.973 190.649 109.291 190.612 109.536 190.584C109.78 190.553 109.958 190.503 110.068 190.435C110.179 190.366 110.235 190.256 110.235 190.102V190.072C110.235 189.7 110.129 189.412 109.919 189.207C109.712 189.003 109.402 188.901 108.99 188.901C108.561 188.901 108.223 188.996 107.976 189.186C107.732 189.374 107.563 189.582 107.469 189.812L106.271 189.54C106.414 189.142 106.621 188.821 106.894 188.577C107.169 188.33 107.486 188.151 107.844 188.04C108.202 187.926 108.578 187.869 108.973 187.869C109.235 187.869 109.512 187.901 109.804 187.963C110.1 188.023 110.375 188.134 110.631 188.295C110.889 188.457 111.101 188.689 111.266 188.99C111.431 189.288 111.513 189.676 111.513 190.153V194.5H110.269V193.605H110.218C110.135 193.77 110.012 193.932 109.847 194.091C109.682 194.25 109.47 194.382 109.212 194.487C108.953 194.592 108.644 194.645 108.283 194.645ZM108.56 193.622C108.912 193.622 109.213 193.553 109.463 193.413C109.716 193.274 109.908 193.092 110.039 192.868C110.172 192.641 110.239 192.398 110.239 192.139V191.295C110.193 191.341 110.105 191.384 109.975 191.423C109.847 191.46 109.7 191.493 109.536 191.521C109.371 191.547 109.21 191.571 109.054 191.594C108.898 191.614 108.767 191.631 108.662 191.645C108.415 191.676 108.189 191.729 107.985 191.803C107.783 191.876 107.621 191.983 107.499 192.122C107.379 192.259 107.32 192.44 107.32 192.668C107.32 192.983 107.436 193.222 107.669 193.384C107.902 193.543 108.199 193.622 108.56 193.622ZM114.484 190.614V194.5H113.21V187.955H114.433V189.02H114.514C114.665 188.673 114.9 188.395 115.221 188.185C115.545 187.974 115.953 187.869 116.444 187.869C116.89 187.869 117.281 187.963 117.616 188.151C117.952 188.335 118.211 188.611 118.396 188.977C118.581 189.344 118.673 189.797 118.673 190.337V194.5H117.399V190.49C117.399 190.016 117.275 189.645 117.028 189.378C116.781 189.108 116.442 188.973 116.01 188.973C115.714 188.973 115.452 189.037 115.221 189.165C114.994 189.293 114.814 189.48 114.68 189.727C114.55 189.972 114.484 190.267 114.484 190.614ZM123.437 187.955V188.977H119.862V187.955H123.437ZM120.821 186.386H122.095V192.578C122.095 192.825 122.132 193.011 122.206 193.136C122.28 193.259 122.375 193.342 122.491 193.388C122.611 193.43 122.74 193.452 122.879 193.452C122.981 193.452 123.071 193.445 123.148 193.43C123.224 193.416 123.284 193.405 123.327 193.396L123.557 194.449C123.483 194.477 123.378 194.506 123.241 194.534C123.105 194.565 122.934 194.582 122.73 194.585C122.395 194.591 122.082 194.531 121.792 194.406C121.503 194.281 121.268 194.088 121.089 193.827C120.91 193.565 120.821 193.237 120.821 192.842V186.386ZM124.847 194.5V187.955H126.121V194.5H124.847ZM125.49 186.945C125.269 186.945 125.078 186.871 124.919 186.723C124.763 186.572 124.685 186.393 124.685 186.186C124.685 185.976 124.763 185.797 124.919 185.649C125.078 185.499 125.269 185.423 125.49 185.423C125.712 185.423 125.901 185.499 126.057 185.649C126.216 185.797 126.296 185.976 126.296 186.186C126.296 186.393 126.216 186.572 126.057 186.723C125.901 186.871 125.712 186.945 125.49 186.945ZM130.89 187.955V188.977H127.315V187.955H130.89ZM128.274 186.386H129.548V192.578C129.548 192.825 129.585 193.011 129.659 193.136C129.733 193.259 129.828 193.342 129.944 193.388C130.064 193.43 130.193 193.452 130.332 193.452C130.434 193.452 130.524 193.445 130.601 193.43C130.677 193.416 130.737 193.405 130.78 193.396L131.01 194.449C130.936 194.477 130.831 194.506 130.694 194.534C130.558 194.565 130.388 194.582 130.183 194.585C129.848 194.591 129.535 194.531 129.246 194.406C128.956 194.281 128.721 194.088 128.542 193.827C128.363 193.565 128.274 193.237 128.274 192.842V186.386ZM135.051 194.632C134.406 194.632 133.85 194.494 133.384 194.219C132.921 193.94 132.563 193.55 132.311 193.047C132.061 192.541 131.936 191.949 131.936 191.27C131.936 190.599 132.061 190.009 132.311 189.497C132.563 188.986 132.916 188.587 133.367 188.3C133.822 188.013 134.353 187.869 134.961 187.869C135.33 187.869 135.688 187.93 136.035 188.053C136.382 188.175 136.693 188.366 136.968 188.628C137.244 188.889 137.461 189.229 137.62 189.646C137.779 190.061 137.859 190.565 137.859 191.159V191.611H132.656V190.656H136.61C136.61 190.321 136.542 190.024 136.406 189.766C136.269 189.504 136.078 189.298 135.83 189.148C135.586 188.997 135.299 188.922 134.97 188.922C134.612 188.922 134.299 189.01 134.032 189.186C133.768 189.359 133.563 189.587 133.419 189.868C133.276 190.146 133.205 190.449 133.205 190.776V191.521C133.205 191.959 133.282 192.331 133.436 192.638C133.592 192.945 133.809 193.179 134.088 193.341C134.366 193.5 134.691 193.58 135.063 193.58C135.305 193.58 135.525 193.545 135.724 193.477C135.923 193.406 136.095 193.301 136.24 193.162C136.384 193.023 136.495 192.851 136.572 192.646L137.778 192.864C137.681 193.219 137.508 193.53 137.258 193.797C137.011 194.061 136.7 194.267 136.325 194.415C135.953 194.56 135.528 194.632 135.051 194.632ZM134.386 187.081L135.383 185.116H136.725L135.404 187.081H134.386ZM143.288 193.418C143.055 193.418 142.855 193.335 142.687 193.17C142.519 193.003 142.436 192.801 142.436 192.565C142.436 192.332 142.519 192.134 142.687 191.969C142.855 191.801 143.055 191.717 143.288 191.717C143.521 191.717 143.721 191.801 143.889 191.969C144.056 192.134 144.14 192.332 144.14 192.565C144.14 192.722 144.1 192.865 144.021 192.996C143.944 193.124 143.842 193.226 143.714 193.303C143.586 193.379 143.444 193.418 143.288 193.418ZM143.288 189.045C143.055 189.045 142.855 188.963 142.687 188.798C142.519 188.631 142.436 188.429 142.436 188.193C142.436 187.96 142.519 187.761 142.687 187.597C142.855 187.429 143.055 187.345 143.288 187.345C143.521 187.345 143.721 187.429 143.889 187.597C144.056 187.761 144.14 187.96 144.14 188.193C144.14 188.349 144.1 188.493 144.021 188.624C143.944 188.751 143.842 188.854 143.714 188.93C143.586 189.007 143.444 189.045 143.288 189.045ZM152.317 185.773V194.5H150.996V187.094H150.944L148.856 188.457V187.196L151.034 185.773H152.317Z" fill="black"/>
<path d="M95.7656 209.832L95.3608 210.71H89.7571L90.0767 209.832H95.7656ZM95.0028 211.562L94.5895 212.449H89.7571L90.0767 211.562H95.0028ZM96.8054 207.518L96.3026 208.597C96.1435 208.46 95.9702 208.337 95.7827 208.226C95.5952 208.115 95.3935 208.027 95.1776 207.962C94.9616 207.893 94.7301 207.859 94.483 207.859C94.0284 207.859 93.6236 207.982 93.2685 208.226C92.9134 208.47 92.6335 208.837 92.429 209.325C92.2273 209.811 92.1264 210.416 92.1264 211.141C92.1264 211.865 92.2273 212.47 92.429 212.956C92.6335 213.442 92.9134 213.807 93.2685 214.051C93.6236 214.293 94.0284 214.413 94.483 214.413C94.733 214.413 94.9659 214.381 95.1818 214.315C95.4006 214.25 95.5994 214.165 95.7784 214.06C95.9602 213.952 96.1236 213.838 96.2685 213.719L96.7841 214.793C96.483 215.065 96.1335 215.271 95.7358 215.411C95.3381 215.55 94.9205 215.619 94.483 215.619C93.7699 215.619 93.1378 215.439 92.5866 215.078C92.0384 214.717 91.608 214.203 91.2955 213.536C90.983 212.865 90.8267 212.067 90.8267 211.141C90.8267 210.212 90.983 209.412 91.2955 208.741C91.608 208.071 92.0384 207.555 92.5866 207.195C93.1378 206.834 93.7699 206.653 94.483 206.653C94.9375 206.653 95.3608 206.729 95.7528 206.879C96.1449 207.027 96.4957 207.24 96.8054 207.518ZM103.828 209.832L103.423 210.71H97.8196L98.1392 209.832H103.828ZM103.065 211.562L102.652 212.449H97.8196L98.1392 211.562H103.065ZM104.868 207.518L104.365 208.597C104.206 208.46 104.033 208.337 103.845 208.226C103.658 208.115 103.456 208.027 103.24 207.962C103.024 207.893 102.793 207.859 102.545 207.859C102.091 207.859 101.686 207.982 101.331 208.226C100.976 208.47 100.696 208.837 100.491 209.325C100.29 209.811 100.189 210.416 100.189 211.141C100.189 211.865 100.29 212.47 100.491 212.956C100.696 213.442 100.976 213.807 101.331 214.051C101.686 214.293 102.091 214.413 102.545 214.413C102.795 214.413 103.028 214.381 103.244 214.315C103.463 214.25 103.662 214.165 103.841 214.06C104.023 213.952 104.186 213.838 104.331 213.719L104.847 214.793C104.545 215.065 104.196 215.271 103.798 215.411C103.401 215.55 102.983 215.619 102.545 215.619C101.832 215.619 101.2 215.439 100.649 215.078C100.101 214.717 99.6705 214.203 99.358 213.536C99.0455 212.865 98.8892 212.067 98.8892 211.141C98.8892 210.212 99.0455 209.412 99.358 208.741C99.6705 208.071 100.101 207.555 100.649 207.195C101.2 206.834 101.832 206.653 102.545 206.653C103 206.653 103.423 206.729 103.815 206.879C104.207 207.027 104.558 207.24 104.868 207.518Z" fill="black"/>
<path d="M317.935 195.5L325.344 188.091C326.219 187.216 326.219 185.784 325.344 184.909L317.935 177.5" stroke="black" stroke-width="1.5" stroke-miterlimit="10" stroke-linecap="round" stroke-linejoin="round"/>
<line y1="246.5" x2="342" y2="246.5" stroke="#D9D9D9"/>
<rect y="271" width="73" height="73" rx="4" fill="#D9D9D9"/>
<path d="M90.0566 291.5V282.045H92.0555V289.852H96.1088V291.5H90.0566ZM105.753 286.773C105.753 287.804 105.557 288.681 105.166 289.404C104.779 290.127 104.249 290.68 103.578 291.061C102.91 291.44 102.159 291.629 101.325 291.629C100.485 291.629 99.7312 291.438 99.0633 291.057C98.3955 290.675 97.8677 290.123 97.4799 289.4C97.0921 288.676 96.8982 287.801 96.8982 286.773C96.8982 285.742 97.0921 284.865 97.4799 284.141C97.8677 283.418 98.3955 282.867 99.0633 282.489C99.7312 282.107 100.485 281.916 101.325 281.916C102.159 281.916 102.91 282.107 103.578 282.489C104.249 282.867 104.779 283.418 105.166 284.141C105.557 284.865 105.753 285.742 105.753 286.773ZM103.726 286.773C103.726 286.105 103.626 285.542 103.426 285.083C103.229 284.625 102.95 284.277 102.59 284.04C102.23 283.803 101.809 283.684 101.325 283.684C100.842 283.684 100.421 283.803 100.061 284.04C99.7004 284.277 99.4204 284.625 99.2203 285.083C99.0233 285.542 98.9248 286.105 98.9248 286.773C98.9248 287.441 99.0233 288.004 99.2203 288.462C99.4204 288.921 99.7004 289.269 100.061 289.506C100.421 289.743 100.842 289.861 101.325 289.861C101.809 289.861 102.23 289.743 102.59 289.506C102.95 289.269 103.229 288.921 103.426 288.462C103.626 288.004 103.726 287.441 103.726 286.773ZM107.233 291.5V282.045H110.963C111.677 282.045 112.287 282.173 112.792 282.429C113.299 282.681 113.686 283.04 113.95 283.504C114.218 283.966 114.352 284.509 114.352 285.134C114.352 285.762 114.217 286.302 113.946 286.754C113.675 287.204 113.282 287.548 112.769 287.788C112.258 288.028 111.639 288.148 110.913 288.148H108.415V286.542H110.59C110.971 286.542 111.288 286.49 111.541 286.385C111.793 286.28 111.981 286.123 112.104 285.914C112.23 285.705 112.293 285.445 112.293 285.134C112.293 284.82 112.23 284.555 112.104 284.34C111.981 284.124 111.791 283.961 111.536 283.85C111.284 283.737 110.965 283.68 110.58 283.68H109.232V291.5H107.233ZM112.339 287.197L114.689 291.5H112.482L110.183 287.197H112.339ZM115.765 291.5V282.045H122.135V283.694H117.764V285.946H121.808V287.594H117.764V289.852H122.154V291.5H115.765ZM123.725 282.045H126.19L128.793 288.398H128.904L131.508 282.045H133.973V291.5H132.034V285.346H131.956L129.509 291.454H128.189L125.742 285.323H125.663V291.5H123.725V282.045ZM140.628 282.045V291.5H138.629V282.045H140.628ZM142.272 291.5V282.045H146.003C146.72 282.045 147.331 282.182 147.835 282.456C148.34 282.727 148.725 283.104 148.989 283.587C149.257 284.067 149.391 284.621 149.391 285.249C149.391 285.877 149.256 286.431 148.985 286.911C148.714 287.391 148.322 287.765 147.808 288.033C147.297 288.301 146.678 288.435 145.952 288.435H143.574V286.833H145.629C146.013 286.833 146.33 286.767 146.58 286.634C146.832 286.499 147.02 286.313 147.143 286.076C147.269 285.836 147.332 285.56 147.332 285.249C147.332 284.935 147.269 284.661 147.143 284.428C147.02 284.191 146.832 284.007 146.58 283.878C146.327 283.746 146.007 283.68 145.619 283.68H144.271V291.5H142.272ZM155.818 284.765C155.781 284.392 155.623 284.103 155.343 283.897C155.063 283.69 154.683 283.587 154.203 283.587C153.876 283.587 153.601 283.634 153.376 283.726C153.152 283.815 152.979 283.94 152.859 284.1C152.742 284.26 152.684 284.441 152.684 284.645C152.678 284.814 152.713 284.962 152.79 285.088C152.87 285.214 152.979 285.323 153.118 285.415C153.256 285.505 153.416 285.583 153.598 285.651C153.779 285.716 153.973 285.771 154.179 285.817L155.029 286.02C155.441 286.113 155.82 286.236 156.165 286.39C156.509 286.543 156.808 286.733 157.06 286.957C157.313 287.182 157.508 287.447 157.646 287.751C157.788 288.056 157.86 288.405 157.863 288.799C157.86 289.378 157.713 289.88 157.42 290.304C157.131 290.726 156.712 291.054 156.165 291.288C155.62 291.518 154.963 291.634 154.193 291.634C153.43 291.634 152.765 291.517 152.199 291.283C151.636 291.049 151.196 290.703 150.879 290.244C150.565 289.783 150.4 289.212 150.385 288.532H152.319C152.341 288.849 152.431 289.113 152.591 289.326C152.755 289.535 152.971 289.693 153.242 289.801C153.516 289.906 153.826 289.958 154.17 289.958C154.509 289.958 154.803 289.909 155.052 289.81C155.304 289.712 155.5 289.575 155.638 289.4C155.777 289.224 155.846 289.022 155.846 288.795C155.846 288.582 155.783 288.404 155.657 288.259C155.534 288.115 155.352 287.991 155.112 287.89C154.875 287.788 154.584 287.696 154.239 287.613L153.21 287.354C152.413 287.161 151.784 286.857 151.322 286.445C150.86 286.033 150.631 285.477 150.634 284.778C150.631 284.206 150.783 283.706 151.091 283.278C151.402 282.85 151.828 282.516 152.37 282.276C152.911 282.036 153.527 281.916 154.216 281.916C154.918 281.916 155.531 282.036 156.054 282.276C156.58 282.516 156.989 282.85 157.282 283.278C157.574 283.706 157.725 284.201 157.734 284.765H155.818ZM165.048 282.045H167.047V288.185C167.047 288.875 166.882 289.478 166.553 289.995C166.227 290.512 165.77 290.915 165.182 291.205C164.594 291.491 163.909 291.634 163.127 291.634C162.343 291.634 161.656 291.491 161.068 291.205C160.481 290.915 160.024 290.512 159.697 289.995C159.371 289.478 159.208 288.875 159.208 288.185V282.045H161.207V288.015C161.207 288.375 161.285 288.695 161.442 288.975C161.602 289.255 161.827 289.475 162.116 289.635C162.406 289.795 162.743 289.875 163.127 289.875C163.515 289.875 163.852 289.795 164.138 289.635C164.428 289.475 164.651 289.255 164.808 288.975C164.968 288.695 165.048 288.375 165.048 288.015V282.045ZM168.691 282.045H171.157L173.76 288.398H173.871L176.475 282.045H178.94V291.5H177.001V285.346H176.923L174.476 291.454H173.155L170.709 285.323H170.63V291.5H168.691V282.045Z" fill="black"/>
<path d="M93.3297 312.67H94.6252L95.5371 313.859L95.9675 314.388L97.4206 316.284H96.074L95.1025 315.018L94.7701 314.558L93.3297 312.67ZM97.7019 311.136C97.7019 312.068 97.5314 312.869 97.1905 313.54C96.8496 314.207 96.3823 314.722 95.7885 315.082C95.1976 315.44 94.5257 315.619 93.7729 315.619C93.0172 315.619 92.3425 315.44 91.7488 315.082C91.1578 314.722 90.6919 314.206 90.351 313.536C90.0101 312.865 89.8397 312.065 89.8397 311.136C89.8397 310.205 90.0101 309.405 90.351 308.737C90.6919 308.067 91.1578 307.553 91.7488 307.195C92.3425 306.834 93.0172 306.653 93.7729 306.653C94.5257 306.653 95.1976 306.834 95.7885 307.195C96.3823 307.553 96.8496 308.067 97.1905 308.737C97.5314 309.405 97.7019 310.205 97.7019 311.136ZM96.3979 311.136C96.3979 310.426 96.2828 309.828 96.0527 309.342C95.8255 308.854 95.513 308.484 95.1152 308.234C94.7203 307.982 94.2729 307.855 93.7729 307.855C93.2701 307.855 92.8212 307.982 92.4263 308.234C92.0314 308.484 91.7189 308.854 91.4888 309.342C91.2615 309.828 91.1479 310.426 91.1479 311.136C91.1479 311.847 91.2615 312.446 91.4888 312.935C91.7189 313.42 92.0314 313.79 92.4263 314.043C92.8212 314.293 93.2701 314.418 93.7729 314.418C94.2729 314.418 94.7203 314.293 95.1152 314.043C95.513 313.79 95.8255 313.42 96.0527 312.935C96.2828 312.446 96.3979 311.847 96.3979 311.136ZM103.388 312.786V308.955H104.666V315.5H103.413V314.366H103.345C103.194 314.716 102.953 315.007 102.621 315.24C102.291 315.47 101.881 315.585 101.389 315.585C100.969 315.585 100.596 315.493 100.273 315.308C99.9515 315.121 99.6987 314.844 99.514 314.477C99.3322 314.111 99.2413 313.658 99.2413 313.118V308.955H100.515V312.964C100.515 313.411 100.639 313.766 100.886 314.03C101.133 314.294 101.454 314.426 101.849 314.426C102.088 314.426 102.325 314.366 102.561 314.247C102.8 314.128 102.997 313.947 103.153 313.706C103.312 313.464 103.39 313.158 103.388 312.786ZM108.283 315.645C107.868 315.645 107.493 315.568 107.158 315.415C106.823 315.259 106.557 315.033 106.361 314.737C106.168 314.442 106.071 314.08 106.071 313.651C106.071 313.281 106.142 312.977 106.284 312.739C106.426 312.5 106.618 312.311 106.86 312.172C107.101 312.033 107.371 311.928 107.669 311.857C107.968 311.786 108.271 311.732 108.581 311.695C108.973 311.649 109.291 311.612 109.536 311.584C109.78 311.553 109.958 311.503 110.068 311.435C110.179 311.366 110.235 311.256 110.235 311.102V311.072C110.235 310.7 110.129 310.412 109.919 310.207C109.712 310.003 109.402 309.901 108.99 309.901C108.561 309.901 108.223 309.996 107.976 310.186C107.732 310.374 107.563 310.582 107.469 310.812L106.271 310.54C106.414 310.142 106.621 309.821 106.894 309.577C107.169 309.33 107.486 309.151 107.844 309.04C108.202 308.926 108.578 308.869 108.973 308.869C109.235 308.869 109.512 308.901 109.804 308.963C110.1 309.023 110.375 309.134 110.631 309.295C110.889 309.457 111.101 309.689 111.266 309.99C111.431 310.288 111.513 310.676 111.513 311.153V315.5H110.269V314.605H110.218C110.135 314.77 110.012 314.932 109.847 315.091C109.682 315.25 109.47 315.382 109.212 315.487C108.953 315.592 108.644 315.645 108.283 315.645ZM108.56 314.622C108.912 314.622 109.213 314.553 109.463 314.413C109.716 314.274 109.908 314.092 110.039 313.868C110.172 313.641 110.239 313.398 110.239 313.139V312.295C110.193 312.341 110.105 312.384 109.975 312.423C109.847 312.46 109.7 312.493 109.536 312.521C109.371 312.547 109.21 312.571 109.054 312.594C108.898 312.614 108.767 312.631 108.662 312.645C108.415 312.676 108.189 312.729 107.985 312.803C107.783 312.876 107.621 312.983 107.499 313.122C107.379 313.259 107.32 313.44 107.32 313.668C107.32 313.983 107.436 314.222 107.669 314.384C107.902 314.543 108.199 314.622 108.56 314.622ZM114.484 311.614V315.5H113.21V308.955H114.433V310.02H114.514C114.665 309.673 114.9 309.395 115.221 309.185C115.545 308.974 115.953 308.869 116.444 308.869C116.89 308.869 117.281 308.963 117.616 309.151C117.952 309.335 118.211 309.611 118.396 309.977C118.581 310.344 118.673 310.797 118.673 311.337V315.5H117.399V311.49C117.399 311.016 117.275 310.645 117.028 310.378C116.781 310.108 116.442 309.973 116.01 309.973C115.714 309.973 115.452 310.037 115.221 310.165C114.994 310.293 114.814 310.48 114.68 310.727C114.55 310.972 114.484 311.267 114.484 311.614ZM123.437 308.955V309.977H119.862V308.955H123.437ZM120.821 307.386H122.095V313.578C122.095 313.825 122.132 314.011 122.206 314.136C122.28 314.259 122.375 314.342 122.491 314.388C122.611 314.43 122.74 314.452 122.879 314.452C122.981 314.452 123.071 314.445 123.148 314.43C123.224 314.416 123.284 314.405 123.327 314.396L123.557 315.449C123.483 315.477 123.378 315.506 123.241 315.534C123.105 315.565 122.934 315.582 122.73 315.585C122.395 315.591 122.082 315.531 121.792 315.406C121.503 315.281 121.268 315.088 121.089 314.827C120.91 314.565 120.821 314.237 120.821 313.842V307.386ZM124.847 315.5V308.955H126.121V315.5H124.847ZM125.49 307.945C125.269 307.945 125.078 307.871 124.919 307.723C124.763 307.572 124.685 307.393 124.685 307.186C124.685 306.976 124.763 306.797 124.919 306.649C125.078 306.499 125.269 306.423 125.49 306.423C125.712 306.423 125.901 306.499 126.057 306.649C126.216 306.797 126.296 306.976 126.296 307.186C126.296 307.393 126.216 307.572 126.057 307.723C125.901 307.871 125.712 307.945 125.49 307.945ZM130.89 308.955V309.977H127.315V308.955H130.89ZM128.274 307.386H129.548V313.578C129.548 313.825 129.585 314.011 129.659 314.136C129.733 314.259 129.828 314.342 129.944 314.388C130.064 314.43 130.193 314.452 130.332 314.452C130.434 314.452 130.524 314.445 130.601 314.43C130.677 314.416 130.737 314.405 130.78 314.396L131.01 315.449C130.936 315.477 130.831 315.506 130.694 315.534C130.558 315.565 130.388 315.582 130.183 315.585C129.848 315.591 129.535 315.531 129.246 315.406C128.956 315.281 128.721 315.088 128.542 314.827C128.363 314.565 128.274 314.237 128.274 313.842V307.386ZM135.051 315.632C134.406 315.632 133.85 315.494 133.384 315.219C132.921 314.94 132.563 314.55 132.311 314.047C132.061 313.541 131.936 312.949 131.936 312.27C131.936 311.599 132.061 311.009 132.311 310.497C132.563 309.986 132.916 309.587 133.367 309.3C133.822 309.013 134.353 308.869 134.961 308.869C135.33 308.869 135.688 308.93 136.035 309.053C136.382 309.175 136.693 309.366 136.968 309.628C137.244 309.889 137.461 310.229 137.62 310.646C137.779 311.061 137.859 311.565 137.859 312.159V312.611H132.656V311.656H136.61C136.61 311.321 136.542 311.024 136.406 310.766C136.269 310.504 136.078 310.298 135.83 310.148C135.586 309.997 135.299 309.922 134.97 309.922C134.612 309.922 134.299 310.01 134.032 310.186C133.768 310.359 133.563 310.587 133.419 310.868C133.276 311.146 133.205 311.449 133.205 311.776V312.521C133.205 312.959 133.282 313.331 133.436 313.638C133.592 313.945 133.809 314.179 134.088 314.341C134.366 314.5 134.691 314.58 135.063 314.58C135.305 314.58 135.525 314.545 135.724 314.477C135.923 314.406 136.095 314.301 136.24 314.162C136.384 314.023 136.495 313.851 136.572 313.646L137.778 313.864C137.681 314.219 137.508 314.53 137.258 314.797C137.011 315.061 136.7 315.267 136.325 315.415C135.953 315.56 135.528 315.632 135.051 315.632ZM134.386 308.081L135.383 306.116H136.725L135.404 308.081H134.386ZM143.288 314.418C143.055 314.418 142.855 314.335 142.687 314.17C142.519 314.003 142.436 313.801 142.436 313.565C142.436 313.332 142.519 313.134 142.687 312.969C142.855 312.801 143.055 312.717 143.288 312.717C143.521 312.717 143.721 312.801 143.889 312.969C144.056 313.134 144.14 313.332 144.14 313.565C144.14 313.722 144.1 313.865 144.021 313.996C143.944 314.124 143.842 314.226 143.714 314.303C143.586 314.379 143.444 314.418 143.288 314.418ZM143.288 310.045C143.055 310.045 142.855 309.963 142.687 309.798C142.519 309.631 142.436 309.429 142.436 309.193C142.436 308.96 142.519 308.761 142.687 308.597C142.855 308.429 143.055 308.345 143.288 308.345C143.521 308.345 143.721 308.429 143.889 308.597C144.056 308.761 144.14 308.96 144.14 309.193C144.14 309.349 144.1 309.493 144.021 309.624C143.944 309.751 143.842 309.854 143.714 309.93C143.586 310.007 143.444 310.045 143.288 310.045ZM152.317 306.773V315.5H150.996V308.094H150.944L148.856 309.457V308.196L151.034 306.773H152.317Z" fill="black"/>
<path d="M95.7656 330.832L95.3608 331.71H89.7571L90.0767 330.832H95.7656ZM95.0028 332.562L94.5895 333.449H89.7571L90.0767 332.562H95.0028ZM96.8054 328.518L96.3026 329.597C96.1435 329.46 95.9702 329.337 95.7827 329.226C95.5952 329.115 95.3935 329.027 95.1776 328.962C94.9616 328.893 94.7301 328.859 94.483 328.859C94.0284 328.859 93.6236 328.982 93.2685 329.226C92.9134 329.47 92.6335 329.837 92.429 330.325C92.2273 330.811 92.1264 331.416 92.1264 332.141C92.1264 332.865 92.2273 333.47 92.429 333.956C92.6335 334.442 92.9134 334.807 93.2685 335.051C93.6236 335.293 94.0284 335.413 94.483 335.413C94.733 335.413 94.9659 335.381 95.1818 335.315C95.4006 335.25 95.5994 335.165 95.7784 335.06C95.9602 334.952 96.1236 334.838 96.2685 334.719L96.7841 335.793C96.483 336.065 96.1335 336.271 95.7358 336.411C95.3381 336.55 94.9205 336.619 94.483 336.619C93.7699 336.619 93.1378 336.439 92.5866 336.078C92.0384 335.717 91.608 335.203 91.2955 334.536C90.983 333.865 90.8267 333.067 90.8267 332.141C90.8267 331.212 90.983 330.412 91.2955 329.741C91.608 329.071 92.0384 328.555 92.5866 328.195C93.1378 327.834 93.7699 327.653 94.483 327.653C94.9375 327.653 95.3608 327.729 95.7528 327.879C96.1449 328.027 96.4957 328.24 96.8054 328.518ZM103.828 330.832L103.423 331.71H97.8196L98.1392 330.832H103.828ZM103.065 332.562L102.652 333.449H97.8196L98.1392 332.562H103.065ZM104.868 328.518L104.365 329.597C104.206 329.46 104.033 329.337 103.845 329.226C103.658 329.115 103.456 329.027 103.24 328.962C103.024 328.893 102.793 328.859 102.545 328.859C102.091 328.859 101.686 328.982 101.331 329.226C100.976 329.47 100.696 329.837 100.491 330.325C100.29 330.811 100.189 331.416 100.189 332.141C100.189 332.865 100.29 333.47 100.491 333.956C100.696 334.442 100.976 334.807 101.331 335.051C101.686 335.293 102.091 335.413 102.545 335.413C102.795 335.413 103.028 335.381 103.244 335.315C103.463 335.25 103.662 335.165 103.841 335.06C104.023 334.952 104.186 334.838 104.331 334.719L104.847 335.793C104.545 336.065 104.196 336.271 103.798 336.411C103.401 336.55 102.983 336.619 102.545 336.619C101.832 336.619 101.2 336.439 100.649 336.078C100.101 335.717 99.6705 335.203 99.358 334.536C99.0455 333.865 98.8892 333.067 98.8892 332.141C98.8892 331.212 99.0455 330.412 99.358 329.741C99.6705 329.071 100.101 328.555 100.649 328.195C101.2 327.834 101.832 327.653 102.545 327.653C103 327.653 103.423 327.729 103.815 327.879C104.207 328.027 104.558 328.24 104.868 328.518Z" fill="black"/>
<path d="M317.935 316.5L325.344 309.091C326.219 308.216 326.219 306.784 325.344 305.909L317.935 298.5" stroke="black" stroke-width="1.5" stroke-miterlimit="10" stroke-linecap="round" stroke-linejoin="round"/>
<line y1="367.5" x2="342" y2="367.5" stroke="#D9D9D9"/>
<rect y="392" width="73" height="73" rx="4" fill="#D9D9D9"/>
<path d="M90.0566 412.5V403.045H92.0555V410.852H96.1088V412.5H90.0566ZM105.753 407.773C105.753 408.804 105.557 409.681 105.166 410.404C104.779 411.127 104.249 411.68 103.578 412.061C102.91 412.44 102.159 412.629 101.325 412.629C100.485 412.629 99.7312 412.438 99.0633 412.057C98.3955 411.675 97.8677 411.123 97.4799 410.4C97.0921 409.676 96.8982 408.801 96.8982 407.773C96.8982 406.742 97.0921 405.865 97.4799 405.141C97.8677 404.418 98.3955 403.867 99.0633 403.489C99.7312 403.107 100.485 402.916 101.325 402.916C102.159 402.916 102.91 403.107 103.578 403.489C104.249 403.867 104.779 404.418 105.166 405.141C105.557 405.865 105.753 406.742 105.753 407.773ZM103.726 407.773C103.726 407.105 103.626 406.542 103.426 406.083C103.229 405.625 102.95 405.277 102.59 405.04C102.23 404.803 101.809 404.684 101.325 404.684C100.842 404.684 100.421 404.803 100.061 405.04C99.7004 405.277 99.4204 405.625 99.2203 406.083C99.0233 406.542 98.9248 407.105 98.9248 407.773C98.9248 408.441 99.0233 409.004 99.2203 409.462C99.4204 409.921 99.7004 410.269 100.061 410.506C100.421 410.743 100.842 410.861 101.325 410.861C101.809 410.861 102.23 410.743 102.59 410.506C102.95 410.269 103.229 409.921 103.426 409.462C103.626 409.004 103.726 408.441 103.726 407.773ZM107.233 412.5V403.045H110.963C111.677 403.045 112.287 403.173 112.792 403.429C113.299 403.681 113.686 404.04 113.95 404.504C114.218 404.966 114.352 405.509 114.352 406.134C114.352 406.762 114.217 407.302 113.946 407.754C113.675 408.204 113.282 408.548 112.769 408.788C112.258 409.028 111.639 409.148 110.913 409.148H108.415V407.542H110.59C110.971 407.542 111.288 407.49 111.541 407.385C111.793 407.28 111.981 407.123 112.104 406.914C112.23 406.705 112.293 406.445 112.293 406.134C112.293 405.82 112.23 405.555 112.104 405.34C111.981 405.124 111.791 404.961 111.536 404.85C111.284 404.737 110.965 404.68 110.58 404.68H109.232V412.5H107.233ZM112.339 408.197L114.689 412.5H112.482L110.183 408.197H112.339ZM115.765 412.5V403.045H122.135V404.694H117.764V406.946H121.808V408.594H117.764V410.852H122.154V412.5H115.765ZM123.725 403.045H126.19L128.793 409.398H128.904L131.508 403.045H133.973V412.5H132.034V406.346H131.956L129.509 412.454H128.189L125.742 406.323H125.663V412.5H123.725V403.045ZM140.628 403.045V412.5H138.629V403.045H140.628ZM142.272 412.5V403.045H146.003C146.72 403.045 147.331 403.182 147.835 403.456C148.34 403.727 148.725 404.104 148.989 404.587C149.257 405.067 149.391 405.621 149.391 406.249C149.391 406.877 149.256 407.431 148.985 407.911C148.714 408.391 148.322 408.765 147.808 409.033C147.297 409.301 146.678 409.435 145.952 409.435H143.574V407.833H145.629C146.013 407.833 146.33 407.767 146.58 407.634C146.832 407.499 147.02 407.313 147.143 407.076C147.269 406.836 147.332 406.56 147.332 406.249C147.332 405.935 147.269 405.661 147.143 405.428C147.02 405.191 146.832 405.007 146.58 404.878C146.327 404.746 146.007 404.68 145.619 404.68H144.271V412.5H142.272ZM155.818 405.765C155.781 405.392 155.623 405.103 155.343 404.897C155.063 404.69 154.683 404.587 154.203 404.587C153.876 404.587 153.601 404.634 153.376 404.726C153.152 404.815 152.979 404.94 152.859 405.1C152.742 405.26 152.684 405.441 152.684 405.645C152.678 405.814 152.713 405.962 152.79 406.088C152.87 406.214 152.979 406.323 153.118 406.415C153.256 406.505 153.416 406.583 153.598 406.651C153.779 406.716 153.973 406.771 154.179 406.817L155.029 407.02C155.441 407.113 155.82 407.236 156.165 407.39C156.509 407.543 156.808 407.733 157.06 407.957C157.313 408.182 157.508 408.447 157.646 408.751C157.788 409.056 157.86 409.405 157.863 409.799C157.86 410.378 157.713 410.88 157.42 411.304C157.131 411.726 156.712 412.054 156.165 412.288C155.62 412.518 154.963 412.634 154.193 412.634C153.43 412.634 152.765 412.517 152.199 412.283C151.636 412.049 151.196 411.703 150.879 411.244C150.565 410.783 150.4 410.212 150.385 409.532H152.319C152.341 409.849 152.431 410.113 152.591 410.326C152.755 410.535 152.971 410.693 153.242 410.801C153.516 410.906 153.826 410.958 154.17 410.958C154.509 410.958 154.803 410.909 155.052 410.81C155.304 410.712 155.5 410.575 155.638 410.4C155.777 410.224 155.846 410.022 155.846 409.795C155.846 409.582 155.783 409.404 155.657 409.259C155.534 409.115 155.352 408.991 155.112 408.89C154.875 408.788 154.584 408.696 154.239 408.613L153.21 408.354C152.413 408.161 151.784 407.857 151.322 407.445C150.86 407.033 150.631 406.477 150.634 405.778C150.631 405.206 150.783 404.706 151.091 404.278C151.402 403.85 151.828 403.516 152.37 403.276C152.911 403.036 153.527 402.916 154.216 402.916C154.918 402.916 155.531 403.036 156.054 403.276C156.58 403.516 156.989 403.85 157.282 404.278C157.574 404.706 157.725 405.201 157.734 405.765H155.818ZM165.048 403.045H167.047V409.185C167.047 409.875 166.882 410.478 166.553 410.995C166.227 411.512 165.77 411.915 165.182 412.205C164.594 412.491 163.909 412.634 163.127 412.634C162.343 412.634 161.656 412.491 161.068 412.205C160.481 411.915 160.024 411.512 159.697 410.995C159.371 410.478 159.208 409.875 159.208 409.185V403.045H161.207V409.015C161.207 409.375 161.285 409.695 161.442 409.975C161.602 410.255 161.827 410.475 162.116 410.635C162.406 410.795 162.743 410.875 163.127 410.875C163.515 410.875 163.852 410.795 164.138 410.635C164.428 410.475 164.651 410.255 164.808 409.975C164.968 409.695 165.048 409.375 165.048 409.015V403.045ZM168.691 403.045H171.157L173.76 409.398H173.871L176.475 403.045H178.94V412.5H177.001V406.346H176.923L174.476 412.454H173.155L170.709 406.323H170.63V412.5H168.691V403.045Z" fill="black"/>
<path d="M93.3297 433.67H94.6252L95.5371 434.859L95.9675 435.388L97.4206 437.284H96.074L95.1025 436.018L94.7701 435.558L93.3297 433.67ZM97.7019 432.136C97.7019 433.068 97.5314 433.869 97.1905 434.54C96.8496 435.207 96.3823 435.722 95.7885 436.082C95.1976 436.44 94.5257 436.619 93.7729 436.619C93.0172 436.619 92.3425 436.44 91.7488 436.082C91.1578 435.722 90.6919 435.206 90.351 434.536C90.0101 433.865 89.8397 433.065 89.8397 432.136C89.8397 431.205 90.0101 430.405 90.351 429.737C90.6919 429.067 91.1578 428.553 91.7488 428.195C92.3425 427.834 93.0172 427.653 93.7729 427.653C94.5257 427.653 95.1976 427.834 95.7885 428.195C96.3823 428.553 96.8496 429.067 97.1905 429.737C97.5314 430.405 97.7019 431.205 97.7019 432.136ZM96.3979 432.136C96.3979 431.426 96.2828 430.828 96.0527 430.342C95.8255 429.854 95.513 429.484 95.1152 429.234C94.7203 428.982 94.2729 428.855 93.7729 428.855C93.2701 428.855 92.8212 428.982 92.4263 429.234C92.0314 429.484 91.7189 429.854 91.4888 430.342C91.2615 430.828 91.1479 431.426 91.1479 432.136C91.1479 432.847 91.2615 433.446 91.4888 433.935C91.7189 434.42 92.0314 434.79 92.4263 435.043C92.8212 435.293 93.2701 435.418 93.7729 435.418C94.2729 435.418 94.7203 435.293 95.1152 435.043C95.513 434.79 95.8255 434.42 96.0527 433.935C96.2828 433.446 96.3979 432.847 96.3979 432.136ZM103.388 433.786V429.955H104.666V436.5H103.413V435.366H103.345C103.194 435.716 102.953 436.007 102.621 436.24C102.291 436.47 101.881 436.585 101.389 436.585C100.969 436.585 100.596 436.493 100.273 436.308C99.9515 436.121 99.6987 435.844 99.514 435.477C99.3322 435.111 99.2413 434.658 99.2413 434.118V429.955H100.515V433.964C100.515 434.411 100.639 434.766 100.886 435.03C101.133 435.294 101.454 435.426 101.849 435.426C102.088 435.426 102.325 435.366 102.561 435.247C102.8 435.128 102.997 434.947 103.153 434.706C103.312 434.464 103.39 434.158 103.388 433.786ZM108.283 436.645C107.868 436.645 107.493 436.568 107.158 436.415C106.823 436.259 106.557 436.033 106.361 435.737C106.168 435.442 106.071 435.08 106.071 434.651C106.071 434.281 106.142 433.977 106.284 433.739C106.426 433.5 106.618 433.311 106.86 433.172C107.101 433.033 107.371 432.928 107.669 432.857C107.968 432.786 108.271 432.732 108.581 432.695C108.973 432.649 109.291 432.612 109.536 432.584C109.78 432.553 109.958 432.503 110.068 432.435C110.179 432.366 110.235 432.256 110.235 432.102V432.072C110.235 431.7 110.129 431.412 109.919 431.207C109.712 431.003 109.402 430.901 108.99 430.901C108.561 430.901 108.223 430.996 107.976 431.186C107.732 431.374 107.563 431.582 107.469 431.812L106.271 431.54C106.414 431.142 106.621 430.821 106.894 430.577C107.169 430.33 107.486 430.151 107.844 430.04C108.202 429.926 108.578 429.869 108.973 429.869C109.235 429.869 109.512 429.901 109.804 429.963C110.1 430.023 110.375 430.134 110.631 430.295C110.889 430.457 111.101 430.689 111.266 430.99C111.431 431.288 111.513 431.676 111.513 432.153V436.5H110.269V435.605H110.218C110.135 435.77 110.012 435.932 109.847 436.091C109.682 436.25 109.47 436.382 109.212 436.487C108.953 436.592 108.644 436.645 108.283 436.645ZM108.56 435.622C108.912 435.622 109.213 435.553 109.463 435.413C109.716 435.274 109.908 435.092 110.039 434.868C110.172 434.641 110.239 434.398 110.239 434.139V433.295C110.193 433.341 110.105 433.384 109.975 433.423C109.847 433.46 109.7 433.493 109.536 433.521C109.371 433.547 109.21 433.571 109.054 433.594C108.898 433.614 108.767 433.631 108.662 433.645C108.415 433.676 108.189 433.729 107.985 433.803C107.783 433.876 107.621 433.983 107.499 434.122C107.379 434.259 107.32 434.44 107.32 434.668C107.32 434.983 107.436 435.222 107.669 435.384C107.902 435.543 108.199 435.622 108.56 435.622ZM114.484 432.614V436.5H113.21V429.955H114.433V431.02H114.514C114.665 430.673 114.9 430.395 115.221 430.185C115.545 429.974 115.953 429.869 116.444 429.869C116.89 429.869 117.281 429.963 117.616 430.151C117.952 430.335 118.211 430.611 118.396 430.977C118.581 431.344 118.673 431.797 118.673 432.337V436.5H117.399V432.49C117.399 432.016 117.275 431.645 117.028 431.378C116.781 431.108 116.442 430.973 116.01 430.973C115.714 430.973 115.452 431.037 115.221 431.165C114.994 431.293 114.814 431.48 114.68 431.727C114.55 431.972 114.484 432.267 114.484 432.614ZM123.437 429.955V430.977H119.862V429.955H123.437ZM120.821 428.386H122.095V434.578C122.095 434.825 122.132 435.011 122.206 435.136C122.28 435.259 122.375 435.342 122.491 435.388C122.611 435.43 122.74 435.452 122.879 435.452C122.981 435.452 123.071 435.445 123.148 435.43C123.224 435.416 123.284 435.405 123.327 435.396L123.557 436.449C123.483 436.477 123.378 436.506 123.241 436.534C123.105 436.565 122.934 436.582 122.73 436.585C122.395 436.591 122.082 436.531 121.792 436.406C121.503 436.281 121.268 436.088 121.089 435.827C120.91 435.565 120.821 435.237 120.821 434.842V428.386ZM124.847 436.5V429.955H126.121V436.5H124.847ZM125.49 428.945C125.269 428.945 125.078 428.871 124.919 428.723C124.763 428.572 124.685 428.393 124.685 428.186C124.685 427.976 124.763 427.797 124.919 427.649C125.078 427.499 125.269 427.423 125.49 427.423C125.712 427.423 125.901 427.499 126.057 427.649C126.216 427.797 126.296 427.976 126.296 428.186C126.296 428.393 126.216 428.572 126.057 428.723C125.901 428.871 125.712 428.945 125.49 428.945ZM130.89 429.955V430.977H127.315V429.955H130.89ZM128.274 428.386H129.548V434.578C129.548 434.825 129.585 435.011 129.659 435.136C129.733 435.259 129.828 435.342 129.944 435.388C130.064 435.43 130.193 435.452 130.332 435.452C130.434 435.452 130.524 435.445 130.601 435.43C130.677 435.416 130.737 435.405 130.78 435.396L131.01 436.449C130.936 436.477 130.831 436.506 130.694 436.534C130.558 436.565 130.388 436.582 130.183 436.585C129.848 436.591 129.535 436.531 129.246 436.406C128.956 436.281 128.721 436.088 128.542 435.827C128.363 435.565 128.274 435.237 128.274 434.842V428.386ZM135.051 436.632C134.406 436.632 133.85 436.494 133.384 436.219C132.921 435.94 132.563 435.55 132.311 435.047C132.061 434.541 131.936 433.949 131.936 433.27C131.936 432.599 132.061 432.009 132.311 431.497C132.563 430.986 132.916 430.587 133.367 430.3C133.822 430.013 134.353 429.869 134.961 429.869C135.33 429.869 135.688 429.93 136.035 430.053C136.382 430.175 136.693 430.366 136.968 430.628C137.244 430.889 137.461 431.229 137.62 431.646C137.779 432.061 137.859 432.565 137.859 433.159V433.611H132.656V432.656H136.61C136.61 432.321 136.542 432.024 136.406 431.766C136.269 431.504 136.078 431.298 135.83 431.148C135.586 430.997 135.299 430.922 134.97 430.922C134.612 430.922 134.299 431.01 134.032 431.186C133.768 431.359 133.563 431.587 133.419 431.868C133.276 432.146 133.205 432.449 133.205 432.776V433.521C133.205 433.959 133.282 434.331 133.436 434.638C133.592 434.945 133.809 435.179 134.088 435.341C134.366 435.5 134.691 435.58 135.063 435.58C135.305 435.58 135.525 435.545 135.724 435.477C135.923 435.406 136.095 435.301 136.24 435.162C136.384 435.023 136.495 434.851 136.572 434.646L137.778 434.864C137.681 435.219 137.508 435.53 137.258 435.797C137.011 436.061 136.7 436.267 136.325 436.415C135.953 436.56 135.528 436.632 135.051 436.632ZM134.386 429.081L135.383 427.116H136.725L135.404 429.081H134.386ZM143.288 435.418C143.055 435.418 142.855 435.335 142.687 435.17C142.519 435.003 142.436 434.801 142.436 434.565C142.436 434.332 142.519 434.134 142.687 433.969C142.855 433.801 143.055 433.717 143.288 433.717C143.521 433.717 143.721 433.801 143.889 433.969C144.056 434.134 144.14 434.332 144.14 434.565C144.14 434.722 144.1 434.865 144.021 434.996C143.944 435.124 143.842 435.226 143.714 435.303C143.586 435.379 143.444 435.418 143.288 435.418ZM143.288 431.045C143.055 431.045 142.855 430.963 142.687 430.798C142.519 430.631 142.436 430.429 142.436 430.193C142.436 429.96 142.519 429.761 142.687 429.597C142.855 429.429 143.055 429.345 143.288 429.345C143.521 429.345 143.721 429.429 143.889 429.597C144.056 429.761 144.14 429.96 144.14 430.193C144.14 430.349 144.1 430.493 144.021 430.624C143.944 430.751 143.842 430.854 143.714 430.93C143.586 431.007 143.444 431.045 143.288 431.045ZM152.317 427.773V436.5H150.996V429.094H150.944L148.856 430.457V429.196L151.034 427.773H152.317Z" fill="black"/>
<path d="M95.7656 451.832L95.3608 452.71H89.7571L90.0767 451.832H95.7656ZM95.0028 453.562L94.5895 454.449H89.7571L90.0767 453.562H95.0028ZM96.8054 449.518L96.3026 450.597C96.1435 450.46 95.9702 450.337 95.7827 450.226C95.5952 450.115 95.3935 450.027 95.1776 449.962C94.9616 449.893 94.7301 449.859 94.483 449.859C94.0284 449.859 93.6236 449.982 93.2685 450.226C92.9134 450.47 92.6335 450.837 92.429 451.325C92.2273 451.811 92.1264 452.416 92.1264 453.141C92.1264 453.865 92.2273 454.47 92.429 454.956C92.6335 455.442 92.9134 455.807 93.2685 456.051C93.6236 456.293 94.0284 456.413 94.483 456.413C94.733 456.413 94.9659 456.381 95.1818 456.315C95.4006 456.25 95.5994 456.165 95.7784 456.06C95.9602 455.952 96.1236 455.838 96.2685 455.719L96.7841 456.793C96.483 457.065 96.1335 457.271 95.7358 457.411C95.3381 457.55 94.9205 457.619 94.483 457.619C93.7699 457.619 93.1378 457.439 92.5866 457.078C92.0384 456.717 91.608 456.203 91.2955 455.536C90.983 454.865 90.8267 454.067 90.8267 453.141C90.8267 452.212 90.983 451.412 91.2955 450.741C91.608 450.071 92.0384 449.555 92.5866 449.195C93.1378 448.834 93.7699 448.653 94.483 448.653C94.9375 448.653 95.3608 448.729 95.7528 448.879C96.1449 449.027 96.4957 449.24 96.8054 449.518ZM103.828 451.832L103.423 452.71H97.8196L98.1392 451.832H103.828ZM103.065 453.562L102.652 454.449H97.8196L98.1392 453.562H103.065ZM104.868 449.518L104.365 450.597C104.206 450.46 104.033 450.337 103.845 450.226C103.658 450.115 103.456 450.027 103.24 449.962C103.024 449.893 102.793 449.859 102.545 449.859C102.091 449.859 101.686 449.982 101.331 450.226C100.976 450.47 100.696 450.837 100.491 451.325C100.29 451.811 100.189 452.416 100.189 453.141C100.189 453.865 100.29 454.47 100.491 454.956C100.696 455.442 100.976 455.807 101.331 456.051C101.686 456.293 102.091 456.413 102.545 456.413C102.795 456.413 103.028 456.381 103.244 456.315C103.463 456.25 103.662 456.165 103.841 456.06C104.023 455.952 104.186 455.838 104.331 455.719L104.847 456.793C104.545 457.065 104.196 457.271 103.798 457.411C103.401 457.55 102.983 457.619 102.545 457.619C101.832 457.619 101.2 457.439 100.649 457.078C100.101 456.717 99.6705 456.203 99.358 455.536C99.0455 454.865 98.8892 454.067 98.8892 453.141C98.8892 452.212 99.0455 451.412 99.358 450.741C99.6705 450.071 100.101 449.555 100.649 449.195C101.2 448.834 101.832 448.653 102.545 448.653C103 448.653 103.423 448.729 103.815 448.879C104.207 449.027 104.558 449.24 104.868 449.518Z" fill="black"/>
<path d="M317.935 437.5L325.344 430.091C326.219 429.216 326.219 427.784 325.344 426.909L317.935 419.5" stroke="black" stroke-width="1.5" stroke-miterlimit="10" stroke-linecap="round" stroke-linejoin="round"/>
<line y1="488.5" x2="342" y2="488.5" stroke="#D9D9D9"/>
</svg>
