<svg width="180" height="38" viewBox="0 0 180 38" fill="none" xmlns="http://www.w3.org/2000/svg">
<rect width="180" height="38" rx="19" fill="black"/>
<path d="M31.1484 15.9567C31.0916 15.4524 30.8572 15.0618 30.4453 14.7848C30.0334 14.5043 29.5149 14.364 28.8899 14.364C28.4425 14.364 28.0554 14.435 27.7287 14.5771C27.402 14.7156 27.1481 14.9073 26.967 15.1523C26.7894 15.3938 26.7006 15.669 26.7006 15.978C26.7006 16.2372 26.761 16.4609 26.8817 16.6491C27.006 16.8374 27.1676 16.9954 27.3665 17.1232C27.5689 17.2475 27.7855 17.3523 28.0163 17.4375C28.2472 17.5192 28.4691 17.5866 28.6822 17.6399L29.7475 17.9169C30.0955 18.0021 30.4524 18.1175 30.8182 18.2631C31.1839 18.4087 31.5231 18.6005 31.8356 18.8384C32.1481 19.0763 32.4002 19.3711 32.592 19.7227C32.7873 20.0742 32.8849 20.495 32.8849 20.9851C32.8849 21.603 32.7251 22.1516 32.4055 22.631C32.0895 23.1104 31.6296 23.4886 31.0259 23.7656C30.4258 24.0426 29.6996 24.1811 28.8473 24.1811C28.0305 24.1811 27.3239 24.0515 26.7273 23.7923C26.1307 23.533 25.6637 23.1655 25.3263 22.6896C24.989 22.2102 24.8026 21.642 24.767 20.9851H26.4183C26.4503 21.3793 26.5781 21.7077 26.8018 21.9705C27.0291 22.2298 27.3185 22.4233 27.6701 22.5511C28.0252 22.6754 28.4141 22.7376 28.8366 22.7376C29.3018 22.7376 29.7156 22.6648 30.0778 22.5192C30.4435 22.37 30.7312 22.1641 30.9407 21.9013C31.1502 21.6349 31.255 21.3242 31.255 20.9691C31.255 20.646 31.1626 20.3814 30.978 20.1754C30.7969 19.9695 30.5501 19.799 30.2376 19.6641C29.9286 19.5291 29.5788 19.4102 29.1882 19.3072L27.8991 18.9556C27.0256 18.7177 26.3331 18.3679 25.8217 17.9062C25.3139 17.4446 25.06 16.8338 25.06 16.0739C25.06 15.4453 25.2305 14.8967 25.5714 14.4279C25.9123 13.9592 26.3739 13.5952 26.9563 13.3359C27.5387 13.0732 28.1957 12.9418 28.9272 12.9418C29.6658 12.9418 30.3175 13.0714 30.8821 13.3306C31.4503 13.5898 31.8977 13.9467 32.2244 14.4013C32.5511 14.8523 32.7216 15.3707 32.7358 15.9567H31.1484ZM38.1704 24.1651C37.3785 24.1651 36.6966 23.9858 36.1249 23.6271C35.5567 23.2649 35.1199 22.766 34.8145 22.1303C34.5091 21.4947 34.3564 20.7667 34.3564 19.9464C34.3564 19.1154 34.5127 18.3821 34.8252 17.7464C35.1377 17.1072 35.578 16.6083 36.1462 16.2496C36.7144 15.891 37.3838 15.7116 38.1544 15.7116C38.7758 15.7116 39.3298 15.8271 39.8163 16.0579C40.3028 16.2852 40.6952 16.6048 40.9935 17.0167C41.2954 17.4286 41.4747 17.9098 41.5315 18.4602H39.9814C39.8962 18.0767 39.7009 17.7464 39.3955 17.4695C39.0937 17.1925 38.6888 17.054 38.181 17.054C37.7371 17.054 37.3483 17.1712 37.0145 17.4055C36.6842 17.6364 36.4268 17.9666 36.2421 18.3963C36.0574 18.8224 35.9651 19.3267 35.9651 19.9091C35.9651 20.5057 36.0557 21.0206 36.2368 21.4538C36.4179 21.8871 36.6736 22.2227 37.0038 22.4606C37.3376 22.6985 37.73 22.8175 38.181 22.8175C38.4829 22.8175 38.7563 22.7624 39.0013 22.6523C39.2499 22.5387 39.4577 22.3771 39.6246 22.1676C39.795 21.9581 39.914 21.706 39.9814 21.4112H41.5315C41.4747 21.9403 41.3025 22.4126 41.0148 22.8281C40.7272 23.2436 40.3419 23.5703 39.8589 23.8082C39.3795 24.0462 38.8167 24.1651 38.1704 24.1651ZM45.6158 24.1811C45.0973 24.1811 44.6286 24.0852 44.2095 23.8935C43.7905 23.6982 43.4585 23.4158 43.2134 23.0465C42.9719 22.6772 42.8512 22.2244 42.8512 21.6882C42.8512 21.2266 42.94 20.8466 43.1175 20.5483C43.2951 20.25 43.5348 20.0138 43.8366 19.8398C44.1385 19.6658 44.4759 19.5344 44.8487 19.4457C45.2216 19.3569 45.6016 19.2894 45.9886 19.2433C46.4787 19.1864 46.8764 19.1403 47.1818 19.1048C47.4872 19.0657 47.7092 19.0036 47.8477 18.9183C47.9862 18.8331 48.0554 18.6946 48.0554 18.5028V18.4656C48.0554 18.0004 47.924 17.6399 47.6612 17.3842C47.402 17.1286 47.0149 17.0007 46.5 17.0007C45.9638 17.0007 45.5412 17.1197 45.2322 17.3576C44.9268 17.592 44.7156 17.853 44.5984 18.1406L43.1016 17.7997C43.2791 17.3026 43.5384 16.9013 43.8793 16.5959C44.2237 16.2869 44.6197 16.0632 45.0671 15.9247C45.5146 15.7827 45.9851 15.7116 46.4787 15.7116C46.8054 15.7116 47.1516 15.7507 47.5174 15.8288C47.8867 15.9034 48.2312 16.0419 48.5508 16.2443C48.8739 16.4467 49.1385 16.7362 49.3445 17.1126C49.5504 17.4854 49.6534 17.9702 49.6534 18.5668V24H48.098V22.8814H48.0341C47.9311 23.0874 47.7766 23.2898 47.5707 23.4886C47.3647 23.6875 47.1001 23.8526 46.777 23.984C46.4538 24.1154 46.0668 24.1811 45.6158 24.1811ZM45.962 22.9027C46.4023 22.9027 46.7788 22.8157 47.0913 22.6417C47.4073 22.4677 47.647 22.2404 47.8104 21.9599C47.9773 21.6758 48.0607 21.3722 48.0607 21.049V19.9943C48.0039 20.0511 47.8938 20.1044 47.7305 20.1541C47.5707 20.2003 47.3878 20.2411 47.1818 20.2766C46.9759 20.3086 46.7752 20.3388 46.5799 20.3672C46.3846 20.392 46.2212 20.4134 46.0898 20.4311C45.7809 20.4702 45.4986 20.5359 45.2429 20.6282C44.9908 20.7205 44.7884 20.8537 44.6357 21.0277C44.4865 21.1982 44.4119 21.4254 44.4119 21.7095C44.4119 22.1037 44.5575 22.402 44.8487 22.6044C45.1399 22.8033 45.511 22.9027 45.962 22.9027ZM53.3675 19.142V24H51.7748V15.8182H53.3035V17.1499H53.4047C53.593 16.7166 53.8877 16.3686 54.289 16.1058C54.6938 15.843 55.2034 15.7116 55.8177 15.7116C56.3753 15.7116 56.8635 15.8288 57.2826 16.0632C57.7016 16.294 58.0265 16.6385 58.2574 17.0966C58.4882 17.5547 58.6036 18.1211 58.6036 18.7958V24H57.0109V18.9876C57.0109 18.3945 56.8564 17.9311 56.5475 17.5973C56.2385 17.2599 55.8142 17.0913 55.2744 17.0913C54.9051 17.0913 54.5766 17.1712 54.289 17.331C54.0049 17.4908 53.7794 17.7251 53.6125 18.0341C53.4491 18.3395 53.3675 18.7088 53.3675 19.142ZM62.3323 19.142V24H60.7396V15.8182H62.2684V17.1499H62.3696C62.5578 16.7166 62.8525 16.3686 63.2538 16.1058C63.6586 15.843 64.1682 15.7116 64.7826 15.7116C65.3401 15.7116 65.8284 15.8288 66.2474 16.0632C66.6665 16.294 66.9914 16.6385 67.2222 17.0966C67.453 17.5547 67.5684 18.1211 67.5684 18.7958V24H65.9758V18.9876C65.9758 18.3945 65.8213 17.9311 65.5123 17.5973C65.2034 17.2599 64.779 17.0913 64.2393 17.0913C63.8699 17.0913 63.5415 17.1712 63.2538 17.331C62.9697 17.4908 62.7442 17.7251 62.5773 18.0341C62.414 18.3395 62.3323 18.7088 62.3323 19.142ZM73.2307 24.1651C72.4246 24.1651 71.7304 23.9929 71.148 23.6484C70.5692 23.3004 70.1217 22.8121 69.8057 22.1836C69.4932 21.5515 69.3369 20.8111 69.3369 19.9624C69.3369 19.1243 69.4932 18.3857 69.8057 17.7464C70.1217 17.1072 70.5621 16.6083 71.1267 16.2496C71.6949 15.891 72.3589 15.7116 73.1189 15.7116C73.5805 15.7116 74.028 15.788 74.4612 15.9407C74.8944 16.0934 75.2833 16.3331 75.6278 16.6598C75.9722 16.9865 76.2439 17.4109 76.4427 17.9329C76.6416 18.4513 76.741 19.0817 76.741 19.8239V20.3885H70.2371V19.1953H75.1803C75.1803 18.7763 75.0951 18.4052 74.9246 18.082C74.7542 17.7553 74.5145 17.4979 74.2055 17.3097C73.9001 17.1214 73.5415 17.0273 73.1295 17.0273C72.6821 17.0273 72.2915 17.1374 71.9577 17.3576C71.6274 17.5742 71.3717 17.8583 71.1906 18.2099C71.0131 18.5579 70.9243 18.9361 70.9243 19.3445V20.2766C70.9243 20.8235 71.0202 21.2887 71.2119 21.6722C71.4072 22.0558 71.6789 22.3487 72.0269 22.5511C72.3749 22.75 72.7815 22.8494 73.2467 22.8494C73.5486 22.8494 73.8238 22.8068 74.0724 22.7216C74.3209 22.6328 74.5358 22.5014 74.7169 22.3274C74.898 22.1534 75.0365 21.9386 75.1324 21.6829L76.6398 21.9545C76.5191 22.3984 76.3025 22.7873 75.99 23.1211C75.681 23.4513 75.2922 23.7088 74.8234 23.8935C74.3582 24.0746 73.8273 24.1651 73.2307 24.1651ZM78.5082 24V15.8182H80.0476V17.1179H80.1328C80.282 16.6776 80.5447 16.3313 80.9212 16.0792C81.3011 15.8235 81.7308 15.6957 82.2102 15.6957C82.3097 15.6957 82.4268 15.6992 82.5618 15.7063C82.7003 15.7134 82.8086 15.7223 82.8867 15.733V17.2564C82.8228 17.2386 82.7092 17.2191 82.5458 17.1978C82.3825 17.1729 82.2191 17.1605 82.0558 17.1605C81.6793 17.1605 81.3438 17.2404 81.049 17.4002C80.7578 17.5565 80.527 17.7749 80.3565 18.0554C80.1861 18.3324 80.1009 18.6484 80.1009 19.0036V24H78.5082ZM89.8274 13.0909V24H88.2347V13.0909H89.8274ZM95.4964 24.1651C94.6903 24.1651 93.996 23.9929 93.4136 23.6484C92.8348 23.3004 92.3873 22.8121 92.0713 22.1836C91.7588 21.5515 91.6025 20.8111 91.6025 19.9624C91.6025 19.1243 91.7588 18.3857 92.0713 17.7464C92.3873 17.1072 92.8277 16.6083 93.3923 16.2496C93.9605 15.891 94.6246 15.7116 95.3845 15.7116C95.8461 15.7116 96.2936 15.788 96.7268 15.9407C97.1601 16.0934 97.5489 16.3331 97.8934 16.6598C98.2378 16.9865 98.5095 17.4109 98.7084 17.9329C98.9072 18.4513 99.0067 19.0817 99.0067 19.8239V20.3885H92.5028V19.1953H97.4459C97.4459 18.7763 97.3607 18.4052 97.1903 18.082C97.0198 17.7553 96.7801 17.4979 96.4711 17.3097C96.1657 17.1214 95.8071 17.0273 95.3952 17.0273C94.9477 17.0273 94.5571 17.1374 94.2233 17.3576C93.893 17.5742 93.6373 17.8583 93.4562 18.2099C93.2787 18.5579 93.1899 18.9361 93.1899 19.3445V20.2766C93.1899 20.8235 93.2858 21.2887 93.4775 21.6722C93.6729 22.0558 93.9445 22.3487 94.2925 22.5511C94.6405 22.75 95.0471 22.8494 95.5123 22.8494C95.8142 22.8494 96.0894 22.8068 96.338 22.7216C96.5866 22.6328 96.8014 22.5014 96.9825 22.3274C97.1636 22.1534 97.3021 21.9386 97.398 21.6829L98.9055 21.9545C98.7847 22.3984 98.5681 22.7873 98.2556 23.1211C97.9466 23.4513 97.5578 23.7088 97.089 23.8935C96.6238 24.0746 96.093 24.1651 95.4964 24.1651ZM104.744 27.0682V15.8182H106.299V17.1445H106.432C106.524 16.9741 106.658 16.777 106.832 16.5533C107.006 16.3295 107.247 16.1342 107.556 15.9673C107.865 15.7969 108.273 15.7116 108.781 15.7116C109.442 15.7116 110.031 15.8786 110.55 16.2124C111.068 16.5462 111.475 17.0273 111.769 17.6559C112.068 18.2844 112.217 19.0408 112.217 19.9251C112.217 20.8093 112.07 21.5675 111.775 22.1996C111.48 22.8281 111.075 23.3129 110.56 23.6538C110.045 23.9911 109.458 24.1598 108.797 24.1598C108.3 24.1598 107.893 24.0763 107.577 23.9094C107.265 23.7425 107.02 23.5472 106.842 23.3235C106.665 23.0998 106.528 22.9009 106.432 22.7269H106.336V27.0682H104.744ZM106.304 19.9091C106.304 20.4844 106.388 20.9886 106.555 21.4219C106.722 21.8551 106.963 22.1942 107.279 22.4393C107.595 22.6808 107.982 22.8015 108.44 22.8015C108.916 22.8015 109.314 22.6754 109.633 22.4233C109.953 22.1676 110.195 21.8214 110.358 21.3846C110.525 20.9478 110.608 20.456 110.608 19.9091C110.608 19.3693 110.527 18.8846 110.363 18.4549C110.203 18.0252 109.962 17.6861 109.639 17.4375C109.319 17.1889 108.92 17.0646 108.44 17.0646C107.979 17.0646 107.588 17.1836 107.268 17.4215C106.952 17.6594 106.713 17.9915 106.549 18.4176C106.386 18.8437 106.304 19.3409 106.304 19.9091ZM114.001 24V15.8182H115.541V17.1179H115.626C115.775 16.6776 116.038 16.3313 116.414 16.0792C116.794 15.8235 117.224 15.6957 117.703 15.6957C117.803 15.6957 117.92 15.6992 118.055 15.7063C118.193 15.7134 118.302 15.7223 118.38 15.733V17.2564C118.316 17.2386 118.202 17.2191 118.039 17.1978C117.876 17.1729 117.712 17.1605 117.549 17.1605C117.172 17.1605 116.837 17.2404 116.542 17.4002C116.251 17.5565 116.02 17.7749 115.85 18.0554C115.679 18.3324 115.594 18.6484 115.594 19.0036V24H114.001ZM122.912 24.1651C122.145 24.1651 121.475 23.9893 120.903 23.6378C120.332 23.2862 119.888 22.7944 119.572 22.1623C119.256 21.5302 119.098 20.7915 119.098 19.9464C119.098 19.0977 119.256 18.3555 119.572 17.7198C119.888 17.0842 120.332 16.5906 120.903 16.239C121.475 15.8874 122.145 15.7116 122.912 15.7116C123.679 15.7116 124.348 15.8874 124.92 16.239C125.491 16.5906 125.935 17.0842 126.251 17.7198C126.567 18.3555 126.725 19.0977 126.725 19.9464C126.725 20.7915 126.567 21.5302 126.251 22.1623C125.935 22.7944 125.491 23.2862 124.92 23.6378C124.348 23.9893 123.679 24.1651 122.912 24.1651ZM122.917 22.8281C123.414 22.8281 123.826 22.6967 124.153 22.4339C124.479 22.1712 124.721 21.8214 124.877 21.3846C125.037 20.9478 125.117 20.4666 125.117 19.9411C125.117 19.419 125.037 18.9396 124.877 18.5028C124.721 18.0625 124.479 17.7092 124.153 17.4428C123.826 17.1765 123.414 17.0433 122.917 17.0433C122.416 17.0433 122.001 17.1765 121.67 17.4428C121.344 17.7092 121.1 18.0625 120.941 18.5028C120.784 18.9396 120.706 19.419 120.706 19.9411C120.706 20.4666 120.784 20.9478 120.941 21.3846C121.1 21.8214 121.344 22.1712 121.67 22.4339C122.001 22.6967 122.416 22.8281 122.917 22.8281ZM131.566 24.1598C130.906 24.1598 130.316 23.9911 129.798 23.6538C129.283 23.3129 128.878 22.8281 128.583 22.1996C128.292 21.5675 128.146 20.8093 128.146 19.9251C128.146 19.0408 128.294 18.2844 128.589 17.6559C128.887 17.0273 129.295 16.5462 129.814 16.2124C130.332 15.8786 130.92 15.7116 131.577 15.7116C132.085 15.7116 132.493 15.7969 132.802 15.9673C133.114 16.1342 133.356 16.3295 133.526 16.5533C133.7 16.777 133.835 16.9741 133.931 17.1445H134.027V13.0909H135.62V24H134.064V22.7269H133.931C133.835 22.9009 133.697 23.0998 133.516 23.3235C133.338 23.5472 133.093 23.7425 132.781 23.9094C132.468 24.0763 132.063 24.1598 131.566 24.1598ZM131.918 22.8015C132.376 22.8015 132.763 22.6808 133.079 22.4393C133.399 22.1942 133.64 21.8551 133.803 21.4219C133.97 20.9886 134.054 20.4844 134.054 19.9091C134.054 19.3409 133.972 18.8437 133.809 18.4176C133.645 17.9915 133.406 17.6594 133.09 17.4215C132.774 17.1836 132.383 17.0646 131.918 17.0646C131.438 17.0646 131.039 17.1889 130.719 17.4375C130.4 17.6861 130.158 18.0252 129.995 18.4549C129.835 18.8846 129.755 19.3693 129.755 19.9091C129.755 20.456 129.837 20.9478 130 21.3846C130.163 21.8214 130.405 22.1676 130.725 22.4233C131.048 22.6754 131.445 22.8015 131.918 22.8015ZM143.076 20.6069V15.8182H144.674V24H143.108V22.5831H143.023C142.834 23.0199 142.532 23.3839 142.117 23.6751C141.705 23.9627 141.192 24.1065 140.578 24.1065C140.052 24.1065 139.587 23.9911 139.182 23.7603C138.781 23.5259 138.465 23.1797 138.234 22.7216C138.007 22.2635 137.893 21.6971 137.893 21.0224V15.8182H139.486V20.8306C139.486 21.3881 139.64 21.832 139.949 22.1623C140.258 22.4925 140.659 22.6577 141.153 22.6577C141.451 22.6577 141.748 22.5831 142.042 22.4339C142.341 22.2848 142.588 22.0593 142.783 21.7575C142.982 21.4556 143.079 21.0721 143.076 20.6069ZM146.814 24V15.8182H148.407V24H146.814ZM147.618 14.5558C147.341 14.5558 147.103 14.4634 146.904 14.2788C146.709 14.0906 146.611 13.8668 146.611 13.6076C146.611 13.3448 146.709 13.1211 146.904 12.9364C147.103 12.7482 147.341 12.6541 147.618 12.6541C147.895 12.6541 148.131 12.7482 148.327 12.9364C148.525 13.1211 148.625 13.3448 148.625 13.6076C148.625 13.8668 148.525 14.0906 148.327 14.2788C148.131 14.4634 147.895 14.5558 147.618 14.5558ZM154.368 15.8182V17.0966H149.899V15.8182H154.368ZM151.098 13.858H152.691V21.5977C152.691 21.9066 152.737 22.1392 152.829 22.2955C152.921 22.4482 153.04 22.5529 153.186 22.6097C153.335 22.663 153.497 22.6896 153.671 22.6896C153.798 22.6896 153.91 22.6808 154.006 22.663C154.102 22.6452 154.177 22.631 154.23 22.6204L154.518 23.9361C154.425 23.9716 154.294 24.0071 154.123 24.0426C153.953 24.0817 153.74 24.103 153.484 24.1065C153.065 24.1136 152.675 24.0391 152.312 23.8828C151.95 23.7266 151.657 23.4851 151.433 23.1584C151.21 22.8317 151.098 22.4215 151.098 21.9279V13.858Z" fill="white"/>
</svg>
